%TF.GenerationSoftware,KiCad,Pcbnew,8.0.5*%
%TF.CreationDate,2025-07-26T22:53:25+02:00*%
%TF.ProjectId,kontroler_lotu,6b6f6e74-726f-46c6-9572-5f6c6f74752e,rev?*%
%TF.SameCoordinates,Original*%
%TF.FileFunction,Drillmap*%
%TF.FilePolarity,Positive*%
%FSLAX45Y45*%
G04 Gerber Fmt 4.5, Leading zero omitted, Abs format (unit mm)*
G04 Created by KiCad (PCBNEW 8.0.5) date 2025-07-26 22:53:25*
%MOMM*%
%LPD*%
G01*
G04 APERTURE LIST*
%ADD10C,0.050000*%
%ADD11C,0.200000*%
%ADD12C,0.100000*%
%ADD13C,0.320000*%
G04 APERTURE END LIST*
D10*
X6780000Y-11870000D02*
X6780000Y-5300000D01*
X6980000Y-5100000D02*
X13580000Y-5100000D01*
X13780000Y-11870000D02*
G75*
G02*
X13580000Y-12070000I-200000J0D01*
G01*
X13580000Y-12070000D02*
X6980000Y-12070000D01*
X6980000Y-12070000D02*
G75*
G02*
X6780000Y-11870000I0J200000D01*
G01*
X6780000Y-5300000D02*
G75*
G02*
X6980000Y-5100000I200000J0D01*
G01*
X13580000Y-5100000D02*
G75*
G02*
X13780000Y-5300000I0J-200000D01*
G01*
X13780000Y-5300000D02*
X13780000Y-11870000D01*
D11*
D12*
X7235000Y-9565000D02*
X7265000Y-9595000D01*
X7265000Y-9565000D02*
X7235000Y-9595000D01*
X7265000Y-7345000D02*
X7295000Y-7375000D01*
X7295000Y-7345000D02*
X7265000Y-7375000D01*
X7285000Y-6385000D02*
X7315000Y-6415000D01*
X7315000Y-6385000D02*
X7285000Y-6415000D01*
X7285000Y-6455000D02*
X7315000Y-6485000D01*
X7315000Y-6455000D02*
X7285000Y-6485000D01*
X7285000Y-6525000D02*
X7315000Y-6555000D01*
X7315000Y-6525000D02*
X7285000Y-6555000D01*
X7285000Y-6595000D02*
X7315000Y-6625000D01*
X7315000Y-6595000D02*
X7285000Y-6625000D01*
X7285000Y-6665000D02*
X7315000Y-6695000D01*
X7315000Y-6665000D02*
X7285000Y-6695000D01*
X7305000Y-8215000D02*
X7335000Y-8245000D01*
X7335000Y-8215000D02*
X7305000Y-8245000D01*
X7305000Y-8715000D02*
X7335000Y-8745000D01*
X7335000Y-8715000D02*
X7305000Y-8745000D01*
X7305000Y-8785000D02*
X7335000Y-8815000D01*
X7335000Y-8785000D02*
X7305000Y-8815000D01*
X7305000Y-8855000D02*
X7335000Y-8885000D01*
X7335000Y-8855000D02*
X7305000Y-8885000D01*
X7305000Y-8925000D02*
X7335000Y-8955000D01*
X7335000Y-8925000D02*
X7305000Y-8955000D01*
X7305000Y-8995000D02*
X7335000Y-9025000D01*
X7335000Y-8995000D02*
X7305000Y-9025000D01*
X7375000Y-6385000D02*
X7405000Y-6415000D01*
X7405000Y-6385000D02*
X7375000Y-6415000D01*
X7375000Y-6455000D02*
X7405000Y-6485000D01*
X7405000Y-6455000D02*
X7375000Y-6485000D01*
X7375000Y-6525000D02*
X7405000Y-6555000D01*
X7405000Y-6525000D02*
X7375000Y-6555000D01*
X7375000Y-6595000D02*
X7405000Y-6625000D01*
X7405000Y-6595000D02*
X7375000Y-6625000D01*
X7375000Y-6665000D02*
X7405000Y-6695000D01*
X7405000Y-6665000D02*
X7375000Y-6695000D01*
X7395000Y-8715000D02*
X7425000Y-8745000D01*
X7425000Y-8715000D02*
X7395000Y-8745000D01*
X7395000Y-8785000D02*
X7425000Y-8815000D01*
X7425000Y-8785000D02*
X7395000Y-8815000D01*
X7395000Y-8855000D02*
X7425000Y-8885000D01*
X7425000Y-8855000D02*
X7395000Y-8885000D01*
X7395000Y-8925000D02*
X7425000Y-8955000D01*
X7425000Y-8925000D02*
X7395000Y-8955000D01*
X7395000Y-8995000D02*
X7425000Y-9025000D01*
X7425000Y-8995000D02*
X7395000Y-9025000D01*
X7455000Y-6385000D02*
X7485000Y-6415000D01*
X7485000Y-6385000D02*
X7455000Y-6415000D01*
X7455000Y-6455000D02*
X7485000Y-6485000D01*
X7485000Y-6455000D02*
X7455000Y-6485000D01*
X7455000Y-6525000D02*
X7485000Y-6555000D01*
X7485000Y-6525000D02*
X7455000Y-6555000D01*
X7455000Y-6595000D02*
X7485000Y-6625000D01*
X7485000Y-6595000D02*
X7455000Y-6625000D01*
X7455000Y-6665000D02*
X7485000Y-6695000D01*
X7485000Y-6665000D02*
X7455000Y-6695000D01*
X7475000Y-8715000D02*
X7505000Y-8745000D01*
X7505000Y-8715000D02*
X7475000Y-8745000D01*
X7475000Y-8785000D02*
X7505000Y-8815000D01*
X7505000Y-8785000D02*
X7475000Y-8815000D01*
X7475000Y-8855000D02*
X7505000Y-8885000D01*
X7505000Y-8855000D02*
X7475000Y-8885000D01*
X7475000Y-8925000D02*
X7505000Y-8955000D01*
X7505000Y-8925000D02*
X7475000Y-8955000D01*
X7475000Y-8995000D02*
X7505000Y-9025000D01*
X7505000Y-8995000D02*
X7475000Y-9025000D01*
X7475000Y-10615000D02*
X7505000Y-10645000D01*
X7505000Y-10615000D02*
X7475000Y-10645000D01*
X7545000Y-6385000D02*
X7575000Y-6415000D01*
X7575000Y-6385000D02*
X7545000Y-6415000D01*
X7545000Y-6455000D02*
X7575000Y-6485000D01*
X7575000Y-6455000D02*
X7545000Y-6485000D01*
X7545000Y-6525000D02*
X7575000Y-6555000D01*
X7575000Y-6525000D02*
X7545000Y-6555000D01*
X7545000Y-6595000D02*
X7575000Y-6625000D01*
X7575000Y-6595000D02*
X7545000Y-6625000D01*
X7545000Y-6665000D02*
X7575000Y-6695000D01*
X7575000Y-6665000D02*
X7545000Y-6695000D01*
X7565000Y-8715000D02*
X7595000Y-8745000D01*
X7595000Y-8715000D02*
X7565000Y-8745000D01*
X7565000Y-8785000D02*
X7595000Y-8815000D01*
X7595000Y-8785000D02*
X7565000Y-8815000D01*
X7565000Y-8855000D02*
X7595000Y-8885000D01*
X7595000Y-8855000D02*
X7565000Y-8885000D01*
X7565000Y-8925000D02*
X7595000Y-8955000D01*
X7595000Y-8925000D02*
X7565000Y-8955000D01*
X7565000Y-8995000D02*
X7595000Y-9025000D01*
X7595000Y-8995000D02*
X7565000Y-9025000D01*
X7635000Y-6385000D02*
X7665000Y-6415000D01*
X7665000Y-6385000D02*
X7635000Y-6415000D01*
X7635000Y-6455000D02*
X7665000Y-6485000D01*
X7665000Y-6455000D02*
X7635000Y-6485000D01*
X7635000Y-6525000D02*
X7665000Y-6555000D01*
X7665000Y-6525000D02*
X7635000Y-6555000D01*
X7635000Y-6595000D02*
X7665000Y-6625000D01*
X7665000Y-6595000D02*
X7635000Y-6625000D01*
X7635000Y-6665000D02*
X7665000Y-6695000D01*
X7665000Y-6665000D02*
X7635000Y-6695000D01*
X7655000Y-8715000D02*
X7685000Y-8745000D01*
X7685000Y-8715000D02*
X7655000Y-8745000D01*
X7655000Y-8785000D02*
X7685000Y-8815000D01*
X7685000Y-8785000D02*
X7655000Y-8815000D01*
X7655000Y-8855000D02*
X7685000Y-8885000D01*
X7685000Y-8855000D02*
X7655000Y-8885000D01*
X7655000Y-8925000D02*
X7685000Y-8955000D01*
X7685000Y-8925000D02*
X7655000Y-8955000D01*
X7655000Y-8995000D02*
X7685000Y-9025000D01*
X7685000Y-8995000D02*
X7655000Y-9025000D01*
X7715000Y-6385000D02*
X7745000Y-6415000D01*
X7745000Y-6385000D02*
X7715000Y-6415000D01*
X7715000Y-6455000D02*
X7745000Y-6485000D01*
X7745000Y-6455000D02*
X7715000Y-6485000D01*
X7715000Y-6525000D02*
X7745000Y-6555000D01*
X7745000Y-6525000D02*
X7715000Y-6555000D01*
X7715000Y-6595000D02*
X7745000Y-6625000D01*
X7745000Y-6595000D02*
X7715000Y-6625000D01*
X7715000Y-6665000D02*
X7745000Y-6695000D01*
X7745000Y-6665000D02*
X7715000Y-6695000D01*
X7735000Y-8715000D02*
X7765000Y-8745000D01*
X7765000Y-8715000D02*
X7735000Y-8745000D01*
X7735000Y-8785000D02*
X7765000Y-8815000D01*
X7765000Y-8785000D02*
X7735000Y-8815000D01*
X7735000Y-8855000D02*
X7765000Y-8885000D01*
X7765000Y-8855000D02*
X7735000Y-8885000D01*
X7735000Y-8925000D02*
X7765000Y-8955000D01*
X7765000Y-8925000D02*
X7735000Y-8955000D01*
X7735000Y-8995000D02*
X7765000Y-9025000D01*
X7765000Y-8995000D02*
X7735000Y-9025000D01*
X7925000Y-5635000D02*
X7955000Y-5665000D01*
X7955000Y-5635000D02*
X7925000Y-5665000D01*
X8185000Y-9835000D02*
X8215000Y-9865000D01*
X8215000Y-9835000D02*
X8185000Y-9865000D01*
X8260000Y-9710000D02*
X8290000Y-9740000D01*
X8290000Y-9710000D02*
X8260000Y-9740000D01*
X8285000Y-10345000D02*
X8315000Y-10375000D01*
X8315000Y-10345000D02*
X8285000Y-10375000D01*
X8305000Y-5425000D02*
X8335000Y-5455000D01*
X8335000Y-5425000D02*
X8305000Y-5455000D01*
X8385000Y-8660000D02*
X8415000Y-8690000D01*
X8415000Y-8660000D02*
X8385000Y-8690000D01*
X8395000Y-9765000D02*
X8425000Y-9795000D01*
X8425000Y-9765000D02*
X8395000Y-9795000D01*
X8535000Y-5425000D02*
X8565000Y-5455000D01*
X8565000Y-5425000D02*
X8535000Y-5455000D01*
X8615000Y-9405000D02*
X8645000Y-9435000D01*
X8645000Y-9405000D02*
X8615000Y-9435000D01*
X8645000Y-7895000D02*
X8675000Y-7925000D01*
X8675000Y-7895000D02*
X8645000Y-7925000D01*
X8645000Y-10515000D02*
X8675000Y-10545000D01*
X8675000Y-10515000D02*
X8645000Y-10545000D01*
X8645000Y-10585000D02*
X8675000Y-10615000D01*
X8675000Y-10585000D02*
X8645000Y-10615000D01*
X8645000Y-10655000D02*
X8675000Y-10685000D01*
X8675000Y-10655000D02*
X8645000Y-10685000D01*
X8675000Y-8665000D02*
X8705000Y-8695000D01*
X8705000Y-8665000D02*
X8675000Y-8695000D01*
X8705000Y-7845000D02*
X8735000Y-7875000D01*
X8735000Y-7845000D02*
X8705000Y-7875000D01*
X8725000Y-10515000D02*
X8755000Y-10545000D01*
X8755000Y-10515000D02*
X8725000Y-10545000D01*
X8725000Y-10585000D02*
X8755000Y-10615000D01*
X8755000Y-10585000D02*
X8725000Y-10615000D01*
X8725000Y-10655000D02*
X8755000Y-10685000D01*
X8755000Y-10655000D02*
X8725000Y-10685000D01*
X8745000Y-7355000D02*
X8775000Y-7385000D01*
X8775000Y-7355000D02*
X8745000Y-7385000D01*
X8805000Y-10515000D02*
X8835000Y-10545000D01*
X8835000Y-10515000D02*
X8805000Y-10545000D01*
X8805000Y-10585000D02*
X8835000Y-10615000D01*
X8835000Y-10585000D02*
X8805000Y-10615000D01*
X8805000Y-10655000D02*
X8835000Y-10685000D01*
X8835000Y-10655000D02*
X8805000Y-10685000D01*
X8845000Y-5775000D02*
X8875000Y-5805000D01*
X8875000Y-5775000D02*
X8845000Y-5805000D01*
X8865000Y-5645000D02*
X8895000Y-5675000D01*
X8895000Y-5645000D02*
X8865000Y-5675000D01*
X8865000Y-6245000D02*
X8895000Y-6275000D01*
X8895000Y-6245000D02*
X8865000Y-6275000D01*
X8865000Y-9145000D02*
X8895000Y-9175000D01*
X8895000Y-9145000D02*
X8865000Y-9175000D01*
X8875000Y-5525000D02*
X8905000Y-5555000D01*
X8905000Y-5525000D02*
X8875000Y-5555000D01*
X8935000Y-9205000D02*
X8965000Y-9235000D01*
X8965000Y-9205000D02*
X8935000Y-9235000D01*
X8965000Y-7375000D02*
X8995000Y-7405000D01*
X8995000Y-7375000D02*
X8965000Y-7405000D01*
X8997500Y-8072500D02*
X9027500Y-8102500D01*
X9027500Y-8072500D02*
X8997500Y-8102500D01*
X9005000Y-9275000D02*
X9035000Y-9305000D01*
X9035000Y-9275000D02*
X9005000Y-9305000D01*
X9010000Y-7960000D02*
X9040000Y-7990000D01*
X9040000Y-7960000D02*
X9010000Y-7990000D01*
X9025000Y-7815000D02*
X9055000Y-7845000D01*
X9055000Y-7815000D02*
X9025000Y-7845000D01*
X9055000Y-6275000D02*
X9085000Y-6305000D01*
X9085000Y-6275000D02*
X9055000Y-6305000D01*
X9065000Y-11475000D02*
X9095000Y-11505000D01*
X9095000Y-11475000D02*
X9065000Y-11505000D01*
X9065000Y-11545000D02*
X9095000Y-11575000D01*
X9095000Y-11545000D02*
X9065000Y-11575000D01*
X9065000Y-11615000D02*
X9095000Y-11645000D01*
X9095000Y-11615000D02*
X9065000Y-11645000D01*
X9065000Y-11685000D02*
X9095000Y-11715000D01*
X9095000Y-11685000D02*
X9065000Y-11715000D01*
X9065000Y-11755000D02*
X9095000Y-11785000D01*
X9095000Y-11755000D02*
X9065000Y-11785000D01*
X9100000Y-8240000D02*
X9130000Y-8270000D01*
X9130000Y-8240000D02*
X9100000Y-8270000D01*
X9155000Y-11475000D02*
X9185000Y-11505000D01*
X9185000Y-11475000D02*
X9155000Y-11505000D01*
X9155000Y-11545000D02*
X9185000Y-11575000D01*
X9185000Y-11545000D02*
X9155000Y-11575000D01*
X9155000Y-11615000D02*
X9185000Y-11645000D01*
X9185000Y-11615000D02*
X9155000Y-11645000D01*
X9155000Y-11685000D02*
X9185000Y-11715000D01*
X9185000Y-11685000D02*
X9155000Y-11715000D01*
X9155000Y-11755000D02*
X9185000Y-11785000D01*
X9185000Y-11755000D02*
X9155000Y-11785000D01*
X9165000Y-9745000D02*
X9195000Y-9775000D01*
X9195000Y-9745000D02*
X9165000Y-9775000D01*
X9225000Y-9475000D02*
X9255000Y-9505000D01*
X9255000Y-9475000D02*
X9225000Y-9505000D01*
X9235000Y-8455000D02*
X9265000Y-8485000D01*
X9265000Y-8455000D02*
X9235000Y-8485000D01*
X9235000Y-11475000D02*
X9265000Y-11505000D01*
X9265000Y-11475000D02*
X9235000Y-11505000D01*
X9235000Y-11545000D02*
X9265000Y-11575000D01*
X9265000Y-11545000D02*
X9235000Y-11575000D01*
X9235000Y-11615000D02*
X9265000Y-11645000D01*
X9265000Y-11615000D02*
X9235000Y-11645000D01*
X9235000Y-11685000D02*
X9265000Y-11715000D01*
X9265000Y-11685000D02*
X9235000Y-11715000D01*
X9235000Y-11755000D02*
X9265000Y-11785000D01*
X9265000Y-11755000D02*
X9235000Y-11785000D01*
X9295000Y-9685000D02*
X9325000Y-9715000D01*
X9325000Y-9685000D02*
X9295000Y-9715000D01*
X9325000Y-11475000D02*
X9355000Y-11505000D01*
X9355000Y-11475000D02*
X9325000Y-11505000D01*
X9325000Y-11545000D02*
X9355000Y-11575000D01*
X9355000Y-11545000D02*
X9325000Y-11575000D01*
X9325000Y-11615000D02*
X9355000Y-11645000D01*
X9355000Y-11615000D02*
X9325000Y-11645000D01*
X9325000Y-11685000D02*
X9355000Y-11715000D01*
X9355000Y-11685000D02*
X9325000Y-11715000D01*
X9325000Y-11755000D02*
X9355000Y-11785000D01*
X9355000Y-11755000D02*
X9325000Y-11785000D01*
X9345000Y-9095000D02*
X9375000Y-9125000D01*
X9375000Y-9095000D02*
X9345000Y-9125000D01*
X9365000Y-8165000D02*
X9395000Y-8195000D01*
X9395000Y-8165000D02*
X9365000Y-8195000D01*
X9385000Y-7625000D02*
X9415000Y-7655000D01*
X9415000Y-7625000D02*
X9385000Y-7655000D01*
X9415000Y-7735000D02*
X9445000Y-7765000D01*
X9445000Y-7735000D02*
X9415000Y-7765000D01*
X9415000Y-11475000D02*
X9445000Y-11505000D01*
X9445000Y-11475000D02*
X9415000Y-11505000D01*
X9415000Y-11545000D02*
X9445000Y-11575000D01*
X9445000Y-11545000D02*
X9415000Y-11575000D01*
X9415000Y-11615000D02*
X9445000Y-11645000D01*
X9445000Y-11615000D02*
X9415000Y-11645000D01*
X9415000Y-11685000D02*
X9445000Y-11715000D01*
X9445000Y-11685000D02*
X9415000Y-11715000D01*
X9415000Y-11755000D02*
X9445000Y-11785000D01*
X9445000Y-11755000D02*
X9415000Y-11785000D01*
X9425000Y-9595000D02*
X9455000Y-9625000D01*
X9455000Y-9595000D02*
X9425000Y-9625000D01*
X9445000Y-7555000D02*
X9475000Y-7585000D01*
X9475000Y-7555000D02*
X9445000Y-7585000D01*
X9445000Y-8955000D02*
X9475000Y-8985000D01*
X9475000Y-8955000D02*
X9445000Y-8985000D01*
X9465000Y-8015000D02*
X9495000Y-8045000D01*
X9495000Y-8015000D02*
X9465000Y-8045000D01*
X9485000Y-8635000D02*
X9515000Y-8665000D01*
X9515000Y-8635000D02*
X9485000Y-8665000D01*
X9495000Y-11475000D02*
X9525000Y-11505000D01*
X9525000Y-11475000D02*
X9495000Y-11505000D01*
X9495000Y-11545000D02*
X9525000Y-11575000D01*
X9525000Y-11545000D02*
X9495000Y-11575000D01*
X9495000Y-11615000D02*
X9525000Y-11645000D01*
X9525000Y-11615000D02*
X9495000Y-11645000D01*
X9495000Y-11685000D02*
X9525000Y-11715000D01*
X9525000Y-11685000D02*
X9495000Y-11715000D01*
X9495000Y-11755000D02*
X9525000Y-11785000D01*
X9525000Y-11755000D02*
X9495000Y-11785000D01*
X9510000Y-7420000D02*
X9540000Y-7450000D01*
X9540000Y-7420000D02*
X9510000Y-7450000D01*
X9605000Y-7425000D02*
X9635000Y-7455000D01*
X9635000Y-7425000D02*
X9605000Y-7455000D01*
X9610000Y-7340000D02*
X9640000Y-7370000D01*
X9640000Y-7340000D02*
X9610000Y-7370000D01*
X9660000Y-6975000D02*
X9690000Y-7005000D01*
X9690000Y-6975000D02*
X9660000Y-7005000D01*
X9660000Y-8485000D02*
X9690000Y-8515000D01*
X9690000Y-8485000D02*
X9660000Y-8515000D01*
X9660000Y-8610000D02*
X9690000Y-8640000D01*
X9690000Y-8610000D02*
X9660000Y-8640000D01*
X9715000Y-8215000D02*
X9745000Y-8245000D01*
X9745000Y-8215000D02*
X9715000Y-8245000D01*
X9735000Y-6775000D02*
X9765000Y-6805000D01*
X9765000Y-6775000D02*
X9735000Y-6805000D01*
X9735000Y-8685000D02*
X9765000Y-8715000D01*
X9765000Y-8685000D02*
X9735000Y-8715000D01*
X9755000Y-7355000D02*
X9785000Y-7385000D01*
X9785000Y-7355000D02*
X9755000Y-7385000D01*
X9765000Y-9085000D02*
X9795000Y-9115000D01*
X9795000Y-9085000D02*
X9765000Y-9115000D01*
X9805000Y-7465000D02*
X9835000Y-7495000D01*
X9835000Y-7465000D02*
X9805000Y-7495000D01*
X9835000Y-8215000D02*
X9865000Y-8245000D01*
X9865000Y-8215000D02*
X9835000Y-8245000D01*
X9855000Y-8015000D02*
X9885000Y-8045000D01*
X9885000Y-8015000D02*
X9855000Y-8045000D01*
X9875000Y-7395000D02*
X9905000Y-7425000D01*
X9905000Y-7395000D02*
X9875000Y-7425000D01*
X9925000Y-9155000D02*
X9955000Y-9185000D01*
X9955000Y-9155000D02*
X9925000Y-9185000D01*
X9955000Y-8215000D02*
X9985000Y-8245000D01*
X9985000Y-8215000D02*
X9955000Y-8245000D01*
X9985000Y-7375000D02*
X10015000Y-7405000D01*
X10015000Y-7375000D02*
X9985000Y-7405000D01*
X10015000Y-10505000D02*
X10045000Y-10535000D01*
X10045000Y-10505000D02*
X10015000Y-10535000D01*
X10075000Y-7595000D02*
X10105000Y-7625000D01*
X10105000Y-7595000D02*
X10075000Y-7625000D01*
X10075000Y-8215000D02*
X10105000Y-8245000D01*
X10105000Y-8215000D02*
X10075000Y-8245000D01*
X10085000Y-10505000D02*
X10115000Y-10535000D01*
X10115000Y-10505000D02*
X10085000Y-10535000D01*
X10095000Y-6695000D02*
X10125000Y-6725000D01*
X10125000Y-6695000D02*
X10095000Y-6725000D01*
X10110000Y-7335000D02*
X10140000Y-7365000D01*
X10140000Y-7335000D02*
X10110000Y-7365000D01*
X10115000Y-6105000D02*
X10145000Y-6135000D01*
X10145000Y-6105000D02*
X10115000Y-6135000D01*
X10145000Y-7075000D02*
X10175000Y-7105000D01*
X10175000Y-7075000D02*
X10145000Y-7105000D01*
X10155000Y-10505000D02*
X10185000Y-10535000D01*
X10185000Y-10505000D02*
X10155000Y-10535000D01*
X10175000Y-7665000D02*
X10205000Y-7695000D01*
X10205000Y-7665000D02*
X10175000Y-7695000D01*
X10175000Y-8105000D02*
X10205000Y-8135000D01*
X10205000Y-8105000D02*
X10175000Y-8135000D01*
X10265000Y-6865000D02*
X10295000Y-6895000D01*
X10295000Y-6865000D02*
X10265000Y-6895000D01*
X10335000Y-5925000D02*
X10365000Y-5955000D01*
X10365000Y-5925000D02*
X10335000Y-5955000D01*
X10385000Y-7185000D02*
X10415000Y-7215000D01*
X10415000Y-7185000D02*
X10385000Y-7215000D01*
X10395000Y-9165000D02*
X10425000Y-9195000D01*
X10425000Y-9165000D02*
X10395000Y-9195000D01*
X10415000Y-6815000D02*
X10445000Y-6845000D01*
X10445000Y-6815000D02*
X10415000Y-6845000D01*
X10425000Y-5875000D02*
X10455000Y-5905000D01*
X10455000Y-5875000D02*
X10425000Y-5905000D01*
X10445000Y-8275000D02*
X10475000Y-8305000D01*
X10475000Y-8275000D02*
X10445000Y-8305000D01*
X10465000Y-9185000D02*
X10495000Y-9215000D01*
X10495000Y-9185000D02*
X10465000Y-9215000D01*
X10485000Y-6725000D02*
X10515000Y-6755000D01*
X10515000Y-6725000D02*
X10485000Y-6755000D01*
X10495000Y-6455000D02*
X10525000Y-6485000D01*
X10525000Y-6455000D02*
X10495000Y-6485000D01*
X10535000Y-8345000D02*
X10565000Y-8375000D01*
X10565000Y-8345000D02*
X10535000Y-8375000D01*
X10535000Y-10475000D02*
X10565000Y-10505000D01*
X10565000Y-10475000D02*
X10535000Y-10505000D01*
X10535000Y-10545000D02*
X10565000Y-10575000D01*
X10565000Y-10545000D02*
X10535000Y-10575000D01*
X10535000Y-10615000D02*
X10565000Y-10645000D01*
X10565000Y-10615000D02*
X10535000Y-10645000D01*
X10535000Y-10685000D02*
X10565000Y-10715000D01*
X10565000Y-10685000D02*
X10535000Y-10715000D01*
X10535000Y-10755000D02*
X10565000Y-10785000D01*
X10565000Y-10755000D02*
X10535000Y-10785000D01*
X10615000Y-6305000D02*
X10645000Y-6335000D01*
X10645000Y-6305000D02*
X10615000Y-6335000D01*
X10625000Y-10475000D02*
X10655000Y-10505000D01*
X10655000Y-10475000D02*
X10625000Y-10505000D01*
X10625000Y-10545000D02*
X10655000Y-10575000D01*
X10655000Y-10545000D02*
X10625000Y-10575000D01*
X10625000Y-10615000D02*
X10655000Y-10645000D01*
X10655000Y-10615000D02*
X10625000Y-10645000D01*
X10625000Y-10685000D02*
X10655000Y-10715000D01*
X10655000Y-10685000D02*
X10625000Y-10715000D01*
X10625000Y-10755000D02*
X10655000Y-10785000D01*
X10655000Y-10755000D02*
X10625000Y-10785000D01*
X10695000Y-6235000D02*
X10725000Y-6265000D01*
X10725000Y-6235000D02*
X10695000Y-6265000D01*
X10705000Y-10475000D02*
X10735000Y-10505000D01*
X10735000Y-10475000D02*
X10705000Y-10505000D01*
X10705000Y-10545000D02*
X10735000Y-10575000D01*
X10735000Y-10545000D02*
X10705000Y-10575000D01*
X10705000Y-10615000D02*
X10735000Y-10645000D01*
X10735000Y-10615000D02*
X10705000Y-10645000D01*
X10705000Y-10685000D02*
X10735000Y-10715000D01*
X10735000Y-10685000D02*
X10705000Y-10715000D01*
X10705000Y-10755000D02*
X10735000Y-10785000D01*
X10735000Y-10755000D02*
X10705000Y-10785000D01*
X10755000Y-6165000D02*
X10785000Y-6195000D01*
X10785000Y-6165000D02*
X10755000Y-6195000D01*
X10825000Y-6095000D02*
X10855000Y-6125000D01*
X10855000Y-6095000D02*
X10825000Y-6125000D01*
X10825000Y-8425000D02*
X10855000Y-8455000D01*
X10855000Y-8425000D02*
X10825000Y-8455000D01*
X10861000Y-8555000D02*
X10891000Y-8585000D01*
X10891000Y-8555000D02*
X10861000Y-8585000D01*
X10895000Y-6015000D02*
X10925000Y-6045000D01*
X10925000Y-6015000D02*
X10895000Y-6045000D01*
X10975000Y-8485000D02*
X11005000Y-8515000D01*
X11005000Y-8485000D02*
X10975000Y-8515000D01*
X11005000Y-9175000D02*
X11035000Y-9205000D01*
X11035000Y-9175000D02*
X11005000Y-9205000D01*
X11125000Y-9175000D02*
X11155000Y-9205000D01*
X11155000Y-9175000D02*
X11125000Y-9205000D01*
X11145000Y-11425000D02*
X11175000Y-11455000D01*
X11175000Y-11425000D02*
X11145000Y-11455000D01*
X11145000Y-11495000D02*
X11175000Y-11525000D01*
X11175000Y-11495000D02*
X11145000Y-11525000D01*
X11145000Y-11565000D02*
X11175000Y-11595000D01*
X11175000Y-11565000D02*
X11145000Y-11595000D01*
X11145000Y-11635000D02*
X11175000Y-11665000D01*
X11175000Y-11635000D02*
X11145000Y-11665000D01*
X11145000Y-11705000D02*
X11175000Y-11735000D01*
X11175000Y-11705000D02*
X11145000Y-11735000D01*
X11175000Y-10615000D02*
X11205000Y-10645000D01*
X11205000Y-10615000D02*
X11175000Y-10645000D01*
X11175000Y-10695000D02*
X11205000Y-10725000D01*
X11205000Y-10695000D02*
X11175000Y-10725000D01*
X11235000Y-11425000D02*
X11265000Y-11455000D01*
X11265000Y-11425000D02*
X11235000Y-11455000D01*
X11235000Y-11495000D02*
X11265000Y-11525000D01*
X11265000Y-11495000D02*
X11235000Y-11525000D01*
X11235000Y-11565000D02*
X11265000Y-11595000D01*
X11265000Y-11565000D02*
X11235000Y-11595000D01*
X11235000Y-11635000D02*
X11265000Y-11665000D01*
X11265000Y-11635000D02*
X11235000Y-11665000D01*
X11235000Y-11705000D02*
X11265000Y-11735000D01*
X11265000Y-11705000D02*
X11235000Y-11735000D01*
X11245000Y-9175000D02*
X11275000Y-9205000D01*
X11275000Y-9175000D02*
X11245000Y-9205000D01*
X11265000Y-10615000D02*
X11295000Y-10645000D01*
X11295000Y-10615000D02*
X11265000Y-10645000D01*
X11265000Y-10695000D02*
X11295000Y-10725000D01*
X11295000Y-10695000D02*
X11265000Y-10725000D01*
X11315000Y-11425000D02*
X11345000Y-11455000D01*
X11345000Y-11425000D02*
X11315000Y-11455000D01*
X11315000Y-11495000D02*
X11345000Y-11525000D01*
X11345000Y-11495000D02*
X11315000Y-11525000D01*
X11315000Y-11565000D02*
X11345000Y-11595000D01*
X11345000Y-11565000D02*
X11315000Y-11595000D01*
X11315000Y-11635000D02*
X11345000Y-11665000D01*
X11345000Y-11635000D02*
X11315000Y-11665000D01*
X11315000Y-11705000D02*
X11345000Y-11735000D01*
X11345000Y-11705000D02*
X11315000Y-11735000D01*
X11345000Y-10615000D02*
X11375000Y-10645000D01*
X11375000Y-10615000D02*
X11345000Y-10645000D01*
X11345000Y-10695000D02*
X11375000Y-10725000D01*
X11375000Y-10695000D02*
X11345000Y-10725000D01*
X11405000Y-9715000D02*
X11435000Y-9745000D01*
X11435000Y-9715000D02*
X11405000Y-9745000D01*
X11405000Y-11425000D02*
X11435000Y-11455000D01*
X11435000Y-11425000D02*
X11405000Y-11455000D01*
X11405000Y-11495000D02*
X11435000Y-11525000D01*
X11435000Y-11495000D02*
X11405000Y-11525000D01*
X11405000Y-11565000D02*
X11435000Y-11595000D01*
X11435000Y-11565000D02*
X11405000Y-11595000D01*
X11405000Y-11635000D02*
X11435000Y-11665000D01*
X11435000Y-11635000D02*
X11405000Y-11665000D01*
X11405000Y-11705000D02*
X11435000Y-11735000D01*
X11435000Y-11705000D02*
X11405000Y-11735000D01*
X11495000Y-11425000D02*
X11525000Y-11455000D01*
X11525000Y-11425000D02*
X11495000Y-11455000D01*
X11495000Y-11495000D02*
X11525000Y-11525000D01*
X11525000Y-11495000D02*
X11495000Y-11525000D01*
X11495000Y-11565000D02*
X11525000Y-11595000D01*
X11525000Y-11565000D02*
X11495000Y-11595000D01*
X11495000Y-11635000D02*
X11525000Y-11665000D01*
X11525000Y-11635000D02*
X11495000Y-11665000D01*
X11495000Y-11705000D02*
X11525000Y-11735000D01*
X11525000Y-11705000D02*
X11495000Y-11735000D01*
X11545000Y-9175000D02*
X11575000Y-9205000D01*
X11575000Y-9175000D02*
X11545000Y-9205000D01*
X11575000Y-11425000D02*
X11605000Y-11455000D01*
X11605000Y-11425000D02*
X11575000Y-11455000D01*
X11575000Y-11495000D02*
X11605000Y-11525000D01*
X11605000Y-11495000D02*
X11575000Y-11525000D01*
X11575000Y-11565000D02*
X11605000Y-11595000D01*
X11605000Y-11565000D02*
X11575000Y-11595000D01*
X11575000Y-11635000D02*
X11605000Y-11665000D01*
X11605000Y-11635000D02*
X11575000Y-11665000D01*
X11575000Y-11705000D02*
X11605000Y-11735000D01*
X11605000Y-11705000D02*
X11575000Y-11735000D01*
X11615000Y-9565000D02*
X11645000Y-9595000D01*
X11645000Y-9565000D02*
X11615000Y-9595000D01*
X11615000Y-9645000D02*
X11645000Y-9675000D01*
X11645000Y-9645000D02*
X11615000Y-9675000D01*
X11615000Y-9715000D02*
X11645000Y-9745000D01*
X11645000Y-9715000D02*
X11615000Y-9745000D01*
X11645000Y-9975000D02*
X11675000Y-10005000D01*
X11675000Y-9975000D02*
X11645000Y-10005000D01*
X11645000Y-10045000D02*
X11675000Y-10075000D01*
X11675000Y-10045000D02*
X11645000Y-10075000D01*
X11645000Y-10115000D02*
X11675000Y-10145000D01*
X11675000Y-10115000D02*
X11645000Y-10145000D01*
X11685000Y-10645000D02*
X11715000Y-10675000D01*
X11715000Y-10645000D02*
X11685000Y-10675000D01*
X11685000Y-10715000D02*
X11715000Y-10745000D01*
X11715000Y-10715000D02*
X11685000Y-10745000D01*
X11685000Y-10785000D02*
X11715000Y-10815000D01*
X11715000Y-10785000D02*
X11685000Y-10815000D01*
X11715000Y-8035000D02*
X11745000Y-8065000D01*
X11745000Y-8035000D02*
X11715000Y-8065000D01*
X11775000Y-8215000D02*
X11805000Y-8245000D01*
X11805000Y-8215000D02*
X11775000Y-8245000D01*
X11783750Y-9235000D02*
X11813750Y-9265000D01*
X11813750Y-9235000D02*
X11783750Y-9265000D01*
X11915000Y-10335000D02*
X11945000Y-10365000D01*
X11945000Y-10335000D02*
X11915000Y-10365000D01*
X11915000Y-10415000D02*
X11945000Y-10445000D01*
X11945000Y-10415000D02*
X11915000Y-10445000D01*
X11915000Y-10495000D02*
X11945000Y-10525000D01*
X11945000Y-10495000D02*
X11915000Y-10525000D01*
X11935000Y-9175000D02*
X11965000Y-9205000D01*
X11965000Y-9175000D02*
X11935000Y-9205000D01*
X11945000Y-7185000D02*
X11975000Y-7215000D01*
X11975000Y-7185000D02*
X11945000Y-7215000D01*
X12035000Y-9275000D02*
X12065000Y-9305000D01*
X12065000Y-9275000D02*
X12035000Y-9305000D01*
X12185000Y-10075000D02*
X12215000Y-10105000D01*
X12215000Y-10075000D02*
X12185000Y-10105000D01*
X12185000Y-10155000D02*
X12215000Y-10185000D01*
X12215000Y-10155000D02*
X12185000Y-10185000D01*
X12225000Y-5465000D02*
X12255000Y-5495000D01*
X12255000Y-5465000D02*
X12225000Y-5495000D01*
X12245000Y-6445000D02*
X12275000Y-6475000D01*
X12275000Y-6445000D02*
X12245000Y-6475000D01*
X12245000Y-6585000D02*
X12275000Y-6615000D01*
X12275000Y-6585000D02*
X12245000Y-6615000D01*
X12245000Y-10735000D02*
X12275000Y-10765000D01*
X12275000Y-10735000D02*
X12245000Y-10765000D01*
X12255000Y-10075000D02*
X12285000Y-10105000D01*
X12285000Y-10075000D02*
X12255000Y-10105000D01*
X12255000Y-10155000D02*
X12285000Y-10185000D01*
X12285000Y-10155000D02*
X12255000Y-10185000D01*
X12295000Y-6735000D02*
X12325000Y-6765000D01*
X12325000Y-6735000D02*
X12295000Y-6765000D01*
X12335000Y-9275000D02*
X12365000Y-9305000D01*
X12365000Y-9275000D02*
X12335000Y-9305000D01*
X12335000Y-10735000D02*
X12365000Y-10765000D01*
X12365000Y-10735000D02*
X12335000Y-10765000D01*
X12355000Y-7525000D02*
X12385000Y-7555000D01*
X12385000Y-7525000D02*
X12355000Y-7555000D01*
X12465000Y-6775000D02*
X12495000Y-6805000D01*
X12495000Y-6775000D02*
X12465000Y-6805000D01*
X12555000Y-9565000D02*
X12585000Y-9595000D01*
X12585000Y-9565000D02*
X12555000Y-9595000D01*
X12585000Y-7235000D02*
X12615000Y-7265000D01*
X12615000Y-7235000D02*
X12585000Y-7265000D01*
X12645000Y-9215000D02*
X12675000Y-9245000D01*
X12675000Y-9215000D02*
X12645000Y-9245000D01*
X12705000Y-7415000D02*
X12735000Y-7445000D01*
X12735000Y-7415000D02*
X12705000Y-7445000D01*
X12765000Y-9505000D02*
X12795000Y-9535000D01*
X12795000Y-9505000D02*
X12765000Y-9535000D01*
X12865000Y-9385000D02*
X12895000Y-9415000D01*
X12895000Y-9385000D02*
X12865000Y-9415000D01*
X12935000Y-9305000D02*
X12965000Y-9335000D01*
X12965000Y-9305000D02*
X12935000Y-9335000D01*
X12935000Y-10135000D02*
X12965000Y-10165000D01*
X12965000Y-10135000D02*
X12935000Y-10165000D01*
X13035000Y-7755000D02*
X13065000Y-7785000D01*
X13065000Y-7755000D02*
X13035000Y-7785000D01*
X13035000Y-8945000D02*
X13065000Y-8975000D01*
X13065000Y-8945000D02*
X13035000Y-8975000D01*
X13045000Y-6755000D02*
X13075000Y-6785000D01*
X13075000Y-6755000D02*
X13045000Y-6785000D01*
X13045000Y-6825000D02*
X13075000Y-6855000D01*
X13075000Y-6825000D02*
X13045000Y-6855000D01*
X13045000Y-6895000D02*
X13075000Y-6925000D01*
X13075000Y-6895000D02*
X13045000Y-6925000D01*
X13045000Y-6965000D02*
X13075000Y-6995000D01*
X13075000Y-6965000D02*
X13045000Y-6995000D01*
X13045000Y-7035000D02*
X13075000Y-7065000D01*
X13075000Y-7035000D02*
X13045000Y-7065000D01*
X13045000Y-8395000D02*
X13075000Y-8425000D01*
X13075000Y-8395000D02*
X13045000Y-8425000D01*
X13045000Y-10235000D02*
X13075000Y-10265000D01*
X13075000Y-10235000D02*
X13045000Y-10265000D01*
X13045000Y-10305000D02*
X13075000Y-10335000D01*
X13075000Y-10305000D02*
X13045000Y-10335000D01*
X13045000Y-10375000D02*
X13075000Y-10405000D01*
X13075000Y-10375000D02*
X13045000Y-10405000D01*
X13045000Y-10445000D02*
X13075000Y-10475000D01*
X13075000Y-10445000D02*
X13045000Y-10475000D01*
X13045000Y-10515000D02*
X13075000Y-10545000D01*
X13075000Y-10515000D02*
X13045000Y-10545000D01*
X13055000Y-7915000D02*
X13085000Y-7945000D01*
X13085000Y-7915000D02*
X13055000Y-7945000D01*
X13065000Y-8665000D02*
X13095000Y-8695000D01*
X13095000Y-8665000D02*
X13065000Y-8695000D01*
X13135000Y-6755000D02*
X13165000Y-6785000D01*
X13165000Y-6755000D02*
X13135000Y-6785000D01*
X13135000Y-6825000D02*
X13165000Y-6855000D01*
X13165000Y-6825000D02*
X13135000Y-6855000D01*
X13135000Y-6895000D02*
X13165000Y-6925000D01*
X13165000Y-6895000D02*
X13135000Y-6925000D01*
X13135000Y-6965000D02*
X13165000Y-6995000D01*
X13165000Y-6965000D02*
X13135000Y-6995000D01*
X13135000Y-7035000D02*
X13165000Y-7065000D01*
X13165000Y-7035000D02*
X13135000Y-7065000D01*
X13135000Y-10235000D02*
X13165000Y-10265000D01*
X13165000Y-10235000D02*
X13135000Y-10265000D01*
X13135000Y-10305000D02*
X13165000Y-10335000D01*
X13165000Y-10305000D02*
X13135000Y-10335000D01*
X13135000Y-10375000D02*
X13165000Y-10405000D01*
X13165000Y-10375000D02*
X13135000Y-10405000D01*
X13135000Y-10445000D02*
X13165000Y-10475000D01*
X13165000Y-10445000D02*
X13135000Y-10475000D01*
X13135000Y-10515000D02*
X13165000Y-10545000D01*
X13165000Y-10515000D02*
X13135000Y-10545000D01*
X13215000Y-6755000D02*
X13245000Y-6785000D01*
X13245000Y-6755000D02*
X13215000Y-6785000D01*
X13215000Y-6825000D02*
X13245000Y-6855000D01*
X13245000Y-6825000D02*
X13215000Y-6855000D01*
X13215000Y-6895000D02*
X13245000Y-6925000D01*
X13245000Y-6895000D02*
X13215000Y-6925000D01*
X13215000Y-6965000D02*
X13245000Y-6995000D01*
X13245000Y-6965000D02*
X13215000Y-6995000D01*
X13215000Y-7035000D02*
X13245000Y-7065000D01*
X13245000Y-7035000D02*
X13215000Y-7065000D01*
X13215000Y-10235000D02*
X13245000Y-10265000D01*
X13245000Y-10235000D02*
X13215000Y-10265000D01*
X13215000Y-10305000D02*
X13245000Y-10335000D01*
X13245000Y-10305000D02*
X13215000Y-10335000D01*
X13215000Y-10375000D02*
X13245000Y-10405000D01*
X13245000Y-10375000D02*
X13215000Y-10405000D01*
X13215000Y-10445000D02*
X13245000Y-10475000D01*
X13245000Y-10445000D02*
X13215000Y-10475000D01*
X13215000Y-10515000D02*
X13245000Y-10545000D01*
X13245000Y-10515000D02*
X13215000Y-10545000D01*
X13305000Y-6755000D02*
X13335000Y-6785000D01*
X13335000Y-6755000D02*
X13305000Y-6785000D01*
X13305000Y-6825000D02*
X13335000Y-6855000D01*
X13335000Y-6825000D02*
X13305000Y-6855000D01*
X13305000Y-6895000D02*
X13335000Y-6925000D01*
X13335000Y-6895000D02*
X13305000Y-6925000D01*
X13305000Y-6965000D02*
X13335000Y-6995000D01*
X13335000Y-6965000D02*
X13305000Y-6995000D01*
X13305000Y-7035000D02*
X13335000Y-7065000D01*
X13335000Y-7035000D02*
X13305000Y-7065000D01*
X13305000Y-10235000D02*
X13335000Y-10265000D01*
X13335000Y-10235000D02*
X13305000Y-10265000D01*
X13305000Y-10305000D02*
X13335000Y-10335000D01*
X13335000Y-10305000D02*
X13305000Y-10335000D01*
X13305000Y-10375000D02*
X13335000Y-10405000D01*
X13335000Y-10375000D02*
X13305000Y-10405000D01*
X13305000Y-10445000D02*
X13335000Y-10475000D01*
X13335000Y-10445000D02*
X13305000Y-10475000D01*
X13305000Y-10515000D02*
X13335000Y-10545000D01*
X13335000Y-10515000D02*
X13305000Y-10545000D01*
X13395000Y-6755000D02*
X13425000Y-6785000D01*
X13425000Y-6755000D02*
X13395000Y-6785000D01*
X13395000Y-6825000D02*
X13425000Y-6855000D01*
X13425000Y-6825000D02*
X13395000Y-6855000D01*
X13395000Y-6895000D02*
X13425000Y-6925000D01*
X13425000Y-6895000D02*
X13395000Y-6925000D01*
X13395000Y-6965000D02*
X13425000Y-6995000D01*
X13425000Y-6965000D02*
X13395000Y-6995000D01*
X13395000Y-7035000D02*
X13425000Y-7065000D01*
X13425000Y-7035000D02*
X13395000Y-7065000D01*
X13395000Y-8005000D02*
X13425000Y-8035000D01*
X13425000Y-8005000D02*
X13395000Y-8035000D01*
X13395000Y-8435000D02*
X13425000Y-8465000D01*
X13425000Y-8435000D02*
X13395000Y-8465000D01*
X13395000Y-10235000D02*
X13425000Y-10265000D01*
X13425000Y-10235000D02*
X13395000Y-10265000D01*
X13395000Y-10305000D02*
X13425000Y-10335000D01*
X13425000Y-10305000D02*
X13395000Y-10335000D01*
X13395000Y-10375000D02*
X13425000Y-10405000D01*
X13425000Y-10375000D02*
X13395000Y-10405000D01*
X13395000Y-10445000D02*
X13425000Y-10475000D01*
X13425000Y-10445000D02*
X13395000Y-10475000D01*
X13395000Y-10515000D02*
X13425000Y-10545000D01*
X13425000Y-10515000D02*
X13395000Y-10545000D01*
X13415000Y-8855000D02*
X13445000Y-8885000D01*
X13445000Y-8855000D02*
X13415000Y-8885000D01*
X13475000Y-6755000D02*
X13505000Y-6785000D01*
X13505000Y-6755000D02*
X13475000Y-6785000D01*
X13475000Y-6825000D02*
X13505000Y-6855000D01*
X13505000Y-6825000D02*
X13475000Y-6855000D01*
X13475000Y-6895000D02*
X13505000Y-6925000D01*
X13505000Y-6895000D02*
X13475000Y-6925000D01*
X13475000Y-6965000D02*
X13505000Y-6995000D01*
X13505000Y-6965000D02*
X13475000Y-6995000D01*
X13475000Y-7035000D02*
X13505000Y-7065000D01*
X13505000Y-7035000D02*
X13475000Y-7065000D01*
X13475000Y-10235000D02*
X13505000Y-10265000D01*
X13505000Y-10235000D02*
X13475000Y-10265000D01*
X13475000Y-10305000D02*
X13505000Y-10335000D01*
X13505000Y-10305000D02*
X13475000Y-10335000D01*
X13475000Y-10375000D02*
X13505000Y-10405000D01*
X13505000Y-10375000D02*
X13475000Y-10405000D01*
X13475000Y-10445000D02*
X13505000Y-10475000D01*
X13505000Y-10445000D02*
X13475000Y-10475000D01*
X13475000Y-10515000D02*
X13505000Y-10545000D01*
X13505000Y-10515000D02*
X13475000Y-10545000D01*
X8000000Y-7321000D02*
G75*
G02*
X7900000Y-7321000I-50000J0D01*
G01*
X7900000Y-7321000D02*
G75*
G02*
X8000000Y-7321000I50000J0D01*
G01*
X8000000Y-7575000D02*
G75*
G02*
X7900000Y-7575000I-50000J0D01*
G01*
X7900000Y-7575000D02*
G75*
G02*
X8000000Y-7575000I50000J0D01*
G01*
X8000000Y-7829000D02*
G75*
G02*
X7900000Y-7829000I-50000J0D01*
G01*
X7900000Y-7829000D02*
G75*
G02*
X8000000Y-7829000I50000J0D01*
G01*
X8000000Y-8083000D02*
G75*
G02*
X7900000Y-8083000I-50000J0D01*
G01*
X7900000Y-8083000D02*
G75*
G02*
X8000000Y-8083000I50000J0D01*
G01*
X8240000Y-5690000D02*
G75*
G02*
X8140000Y-5690000I-50000J0D01*
G01*
X8140000Y-5690000D02*
G75*
G02*
X8240000Y-5690000I50000J0D01*
G01*
X8240000Y-6340000D02*
G75*
G02*
X8140000Y-6340000I-50000J0D01*
G01*
X8140000Y-6340000D02*
G75*
G02*
X8240000Y-6340000I50000J0D01*
G01*
X8690000Y-5690000D02*
G75*
G02*
X8590000Y-5690000I-50000J0D01*
G01*
X8590000Y-5690000D02*
G75*
G02*
X8690000Y-5690000I50000J0D01*
G01*
X8690000Y-6340000D02*
G75*
G02*
X8590000Y-6340000I-50000J0D01*
G01*
X8590000Y-6340000D02*
G75*
G02*
X8690000Y-6340000I50000J0D01*
G01*
X9050000Y-6600000D02*
G75*
G02*
X8950000Y-6600000I-50000J0D01*
G01*
X8950000Y-6600000D02*
G75*
G02*
X9050000Y-6600000I50000J0D01*
G01*
X9050000Y-6854000D02*
G75*
G02*
X8950000Y-6854000I-50000J0D01*
G01*
X8950000Y-6854000D02*
G75*
G02*
X9050000Y-6854000I50000J0D01*
G01*
X9050000Y-7108000D02*
G75*
G02*
X8950000Y-7108000I-50000J0D01*
G01*
X8950000Y-7108000D02*
G75*
G02*
X9050000Y-7108000I50000J0D01*
G01*
X9167000Y-5705000D02*
G75*
G02*
X9067000Y-5705000I-50000J0D01*
G01*
X9067000Y-5705000D02*
G75*
G02*
X9167000Y-5705000I50000J0D01*
G01*
X9170000Y-6080000D02*
G75*
G02*
X9070000Y-6080000I-50000J0D01*
G01*
X9070000Y-6080000D02*
G75*
G02*
X9170000Y-6080000I50000J0D01*
G01*
X9421000Y-5705000D02*
G75*
G02*
X9321000Y-5705000I-50000J0D01*
G01*
X9321000Y-5705000D02*
G75*
G02*
X9421000Y-5705000I50000J0D01*
G01*
X9582000Y-9390000D02*
G75*
G02*
X9482000Y-9390000I-50000J0D01*
G01*
X9482000Y-9390000D02*
G75*
G02*
X9582000Y-9390000I50000J0D01*
G01*
X9675000Y-5705000D02*
G75*
G02*
X9575000Y-5705000I-50000J0D01*
G01*
X9575000Y-5705000D02*
G75*
G02*
X9675000Y-5705000I50000J0D01*
G01*
X9836000Y-9390000D02*
G75*
G02*
X9736000Y-9390000I-50000J0D01*
G01*
X9736000Y-9390000D02*
G75*
G02*
X9836000Y-9390000I50000J0D01*
G01*
X9929000Y-5705000D02*
G75*
G02*
X9829000Y-5705000I-50000J0D01*
G01*
X9829000Y-5705000D02*
G75*
G02*
X9929000Y-5705000I50000J0D01*
G01*
X10090000Y-9390000D02*
G75*
G02*
X9990000Y-9390000I-50000J0D01*
G01*
X9990000Y-9390000D02*
G75*
G02*
X10090000Y-9390000I50000J0D01*
G01*
X10183000Y-5705000D02*
G75*
G02*
X10083000Y-5705000I-50000J0D01*
G01*
X10083000Y-5705000D02*
G75*
G02*
X10183000Y-5705000I50000J0D01*
G01*
X10437000Y-5705000D02*
G75*
G02*
X10337000Y-5705000I-50000J0D01*
G01*
X10337000Y-5705000D02*
G75*
G02*
X10437000Y-5705000I50000J0D01*
G01*
X10691000Y-5705000D02*
G75*
G02*
X10591000Y-5705000I-50000J0D01*
G01*
X10591000Y-5705000D02*
G75*
G02*
X10691000Y-5705000I50000J0D01*
G01*
X10706000Y-9020000D02*
G75*
G02*
X10606000Y-9020000I-50000J0D01*
G01*
X10606000Y-9020000D02*
G75*
G02*
X10706000Y-9020000I50000J0D01*
G01*
X10713000Y-9575000D02*
G75*
G02*
X10613000Y-9575000I-50000J0D01*
G01*
X10613000Y-9575000D02*
G75*
G02*
X10713000Y-9575000I50000J0D01*
G01*
X10875000Y-6738000D02*
G75*
G02*
X10775000Y-6738000I-50000J0D01*
G01*
X10775000Y-6738000D02*
G75*
G02*
X10875000Y-6738000I50000J0D01*
G01*
X10875000Y-6992000D02*
G75*
G02*
X10775000Y-6992000I-50000J0D01*
G01*
X10775000Y-6992000D02*
G75*
G02*
X10875000Y-6992000I50000J0D01*
G01*
X10875000Y-7246000D02*
G75*
G02*
X10775000Y-7246000I-50000J0D01*
G01*
X10775000Y-7246000D02*
G75*
G02*
X10875000Y-7246000I50000J0D01*
G01*
X10875000Y-7500000D02*
G75*
G02*
X10775000Y-7500000I-50000J0D01*
G01*
X10775000Y-7500000D02*
G75*
G02*
X10875000Y-7500000I50000J0D01*
G01*
X10960000Y-9020000D02*
G75*
G02*
X10860000Y-9020000I-50000J0D01*
G01*
X10860000Y-9020000D02*
G75*
G02*
X10960000Y-9020000I50000J0D01*
G01*
X10967000Y-9575000D02*
G75*
G02*
X10867000Y-9575000I-50000J0D01*
G01*
X10867000Y-9575000D02*
G75*
G02*
X10967000Y-9575000I50000J0D01*
G01*
X11187000Y-5715000D02*
G75*
G02*
X11087000Y-5715000I-50000J0D01*
G01*
X11087000Y-5715000D02*
G75*
G02*
X11187000Y-5715000I50000J0D01*
G01*
X11214000Y-9020000D02*
G75*
G02*
X11114000Y-9020000I-50000J0D01*
G01*
X11114000Y-9020000D02*
G75*
G02*
X11214000Y-9020000I50000J0D01*
G01*
X11221000Y-9575000D02*
G75*
G02*
X11121000Y-9575000I-50000J0D01*
G01*
X11121000Y-9575000D02*
G75*
G02*
X11221000Y-9575000I50000J0D01*
G01*
X11250000Y-7548500D02*
G75*
G02*
X11150000Y-7548500I-50000J0D01*
G01*
X11150000Y-7548500D02*
G75*
G02*
X11250000Y-7548500I50000J0D01*
G01*
X11250000Y-7802500D02*
G75*
G02*
X11150000Y-7802500I-50000J0D01*
G01*
X11150000Y-7802500D02*
G75*
G02*
X11250000Y-7802500I50000J0D01*
G01*
X11441000Y-5715000D02*
G75*
G02*
X11341000Y-5715000I-50000J0D01*
G01*
X11341000Y-5715000D02*
G75*
G02*
X11441000Y-5715000I50000J0D01*
G01*
X11468000Y-9020000D02*
G75*
G02*
X11368000Y-9020000I-50000J0D01*
G01*
X11368000Y-9020000D02*
G75*
G02*
X11468000Y-9020000I50000J0D01*
G01*
X11475000Y-9575000D02*
G75*
G02*
X11375000Y-9575000I-50000J0D01*
G01*
X11375000Y-9575000D02*
G75*
G02*
X11475000Y-9575000I50000J0D01*
G01*
X11646000Y-7038000D02*
G75*
G02*
X11546000Y-7038000I-50000J0D01*
G01*
X11546000Y-7038000D02*
G75*
G02*
X11646000Y-7038000I50000J0D01*
G01*
X11646000Y-7800000D02*
G75*
G02*
X11546000Y-7800000I-50000J0D01*
G01*
X11546000Y-7800000D02*
G75*
G02*
X11646000Y-7800000I50000J0D01*
G01*
X11695000Y-5715000D02*
G75*
G02*
X11595000Y-5715000I-50000J0D01*
G01*
X11595000Y-5715000D02*
G75*
G02*
X11695000Y-5715000I50000J0D01*
G01*
X11900000Y-7038000D02*
G75*
G02*
X11800000Y-7038000I-50000J0D01*
G01*
X11800000Y-7038000D02*
G75*
G02*
X11900000Y-7038000I50000J0D01*
G01*
X11900000Y-7800000D02*
G75*
G02*
X11800000Y-7800000I-50000J0D01*
G01*
X11800000Y-7800000D02*
G75*
G02*
X11900000Y-7800000I50000J0D01*
G01*
X11949000Y-5715000D02*
G75*
G02*
X11849000Y-5715000I-50000J0D01*
G01*
X11849000Y-5715000D02*
G75*
G02*
X11949000Y-5715000I50000J0D01*
G01*
X12154000Y-7038000D02*
G75*
G02*
X12054000Y-7038000I-50000J0D01*
G01*
X12054000Y-7038000D02*
G75*
G02*
X12154000Y-7038000I50000J0D01*
G01*
X12154000Y-7800000D02*
G75*
G02*
X12054000Y-7800000I-50000J0D01*
G01*
X12054000Y-7800000D02*
G75*
G02*
X12154000Y-7800000I50000J0D01*
G01*
X12282000Y-8298000D02*
G75*
G02*
X12182000Y-8298000I-50000J0D01*
G01*
X12182000Y-8298000D02*
G75*
G02*
X12282000Y-8298000I50000J0D01*
G01*
X12282000Y-8552000D02*
G75*
G02*
X12182000Y-8552000I-50000J0D01*
G01*
X12182000Y-8552000D02*
G75*
G02*
X12282000Y-8552000I50000J0D01*
G01*
X12282000Y-8806000D02*
G75*
G02*
X12182000Y-8806000I-50000J0D01*
G01*
X12182000Y-8806000D02*
G75*
G02*
X12282000Y-8806000I50000J0D01*
G01*
X12282000Y-9060000D02*
G75*
G02*
X12182000Y-9060000I-50000J0D01*
G01*
X12182000Y-9060000D02*
G75*
G02*
X12282000Y-9060000I50000J0D01*
G01*
X12341000Y-11372500D02*
G75*
G02*
X12241000Y-11372500I-50000J0D01*
G01*
X12241000Y-11372500D02*
G75*
G02*
X12341000Y-11372500I50000J0D01*
G01*
X12408000Y-7038000D02*
G75*
G02*
X12308000Y-7038000I-50000J0D01*
G01*
X12308000Y-7038000D02*
G75*
G02*
X12408000Y-7038000I50000J0D01*
G01*
X12408000Y-7800000D02*
G75*
G02*
X12308000Y-7800000I-50000J0D01*
G01*
X12308000Y-7800000D02*
G75*
G02*
X12408000Y-7800000I50000J0D01*
G01*
X12536000Y-8298000D02*
G75*
G02*
X12436000Y-8298000I-50000J0D01*
G01*
X12436000Y-8298000D02*
G75*
G02*
X12536000Y-8298000I50000J0D01*
G01*
X12536000Y-8552000D02*
G75*
G02*
X12436000Y-8552000I-50000J0D01*
G01*
X12436000Y-8552000D02*
G75*
G02*
X12536000Y-8552000I50000J0D01*
G01*
X12536000Y-8806000D02*
G75*
G02*
X12436000Y-8806000I-50000J0D01*
G01*
X12436000Y-8806000D02*
G75*
G02*
X12536000Y-8806000I50000J0D01*
G01*
X12536000Y-9060000D02*
G75*
G02*
X12436000Y-9060000I-50000J0D01*
G01*
X12436000Y-9060000D02*
G75*
G02*
X12536000Y-9060000I50000J0D01*
G01*
X12595000Y-11372500D02*
G75*
G02*
X12495000Y-11372500I-50000J0D01*
G01*
X12495000Y-11372500D02*
G75*
G02*
X12595000Y-11372500I50000J0D01*
G01*
X12662000Y-7038000D02*
G75*
G02*
X12562000Y-7038000I-50000J0D01*
G01*
X12562000Y-7038000D02*
G75*
G02*
X12662000Y-7038000I50000J0D01*
G01*
X12662000Y-7800000D02*
G75*
G02*
X12562000Y-7800000I-50000J0D01*
G01*
X12562000Y-7800000D02*
G75*
G02*
X12662000Y-7800000I50000J0D01*
G01*
X12680000Y-5732000D02*
G75*
G02*
X12580000Y-5732000I-50000J0D01*
G01*
X12580000Y-5732000D02*
G75*
G02*
X12680000Y-5732000I50000J0D01*
G01*
X12680000Y-5986000D02*
G75*
G02*
X12580000Y-5986000I-50000J0D01*
G01*
X12580000Y-5986000D02*
G75*
G02*
X12680000Y-5986000I50000J0D01*
G01*
X12680000Y-6240000D02*
G75*
G02*
X12580000Y-6240000I-50000J0D01*
G01*
X12580000Y-6240000D02*
G75*
G02*
X12680000Y-6240000I50000J0D01*
G01*
X12680000Y-6494000D02*
G75*
G02*
X12580000Y-6494000I-50000J0D01*
G01*
X12580000Y-6494000D02*
G75*
G02*
X12680000Y-6494000I50000J0D01*
G01*
X12790000Y-8298000D02*
G75*
G02*
X12690000Y-8298000I-50000J0D01*
G01*
X12690000Y-8298000D02*
G75*
G02*
X12790000Y-8298000I50000J0D01*
G01*
X12790000Y-8552000D02*
G75*
G02*
X12690000Y-8552000I-50000J0D01*
G01*
X12690000Y-8552000D02*
G75*
G02*
X12790000Y-8552000I50000J0D01*
G01*
X12790000Y-8806000D02*
G75*
G02*
X12690000Y-8806000I-50000J0D01*
G01*
X12690000Y-8806000D02*
G75*
G02*
X12790000Y-8806000I50000J0D01*
G01*
X12790000Y-9060000D02*
G75*
G02*
X12690000Y-9060000I-50000J0D01*
G01*
X12690000Y-9060000D02*
G75*
G02*
X12790000Y-9060000I50000J0D01*
G01*
D13*
X7330000Y-5490000D02*
X7330000Y-5810000D01*
X7170000Y-5650000D02*
X7490000Y-5650000D01*
X7330000Y-11360000D02*
X7330000Y-11680000D01*
X7170000Y-11520000D02*
X7490000Y-11520000D01*
X13230000Y-5490000D02*
X13230000Y-5810000D01*
X13070000Y-5650000D02*
X13390000Y-5650000D01*
X13230000Y-11360000D02*
X13230000Y-11680000D01*
X13070000Y-11520000D02*
X13390000Y-11520000D01*
D11*
X7038277Y-12383984D02*
X7038277Y-12183984D01*
X7038277Y-12183984D02*
X7085896Y-12183984D01*
X7085896Y-12183984D02*
X7114467Y-12193508D01*
X7114467Y-12193508D02*
X7133515Y-12212555D01*
X7133515Y-12212555D02*
X7143039Y-12231603D01*
X7143039Y-12231603D02*
X7152562Y-12269698D01*
X7152562Y-12269698D02*
X7152562Y-12298269D01*
X7152562Y-12298269D02*
X7143039Y-12336365D01*
X7143039Y-12336365D02*
X7133515Y-12355412D01*
X7133515Y-12355412D02*
X7114467Y-12374460D01*
X7114467Y-12374460D02*
X7085896Y-12383984D01*
X7085896Y-12383984D02*
X7038277Y-12383984D01*
X7238277Y-12383984D02*
X7238277Y-12250650D01*
X7238277Y-12288746D02*
X7247801Y-12269698D01*
X7247801Y-12269698D02*
X7257324Y-12260174D01*
X7257324Y-12260174D02*
X7276372Y-12250650D01*
X7276372Y-12250650D02*
X7295420Y-12250650D01*
X7362086Y-12383984D02*
X7362086Y-12250650D01*
X7362086Y-12183984D02*
X7352562Y-12193508D01*
X7352562Y-12193508D02*
X7362086Y-12203031D01*
X7362086Y-12203031D02*
X7371610Y-12193508D01*
X7371610Y-12193508D02*
X7362086Y-12183984D01*
X7362086Y-12183984D02*
X7362086Y-12203031D01*
X7485896Y-12383984D02*
X7466848Y-12374460D01*
X7466848Y-12374460D02*
X7457324Y-12355412D01*
X7457324Y-12355412D02*
X7457324Y-12183984D01*
X7590658Y-12383984D02*
X7571610Y-12374460D01*
X7571610Y-12374460D02*
X7562086Y-12355412D01*
X7562086Y-12355412D02*
X7562086Y-12183984D01*
X7819229Y-12383984D02*
X7819229Y-12183984D01*
X7819229Y-12183984D02*
X7885896Y-12326841D01*
X7885896Y-12326841D02*
X7952562Y-12183984D01*
X7952562Y-12183984D02*
X7952562Y-12383984D01*
X8133515Y-12383984D02*
X8133515Y-12279222D01*
X8133515Y-12279222D02*
X8123991Y-12260174D01*
X8123991Y-12260174D02*
X8104943Y-12250650D01*
X8104943Y-12250650D02*
X8066848Y-12250650D01*
X8066848Y-12250650D02*
X8047801Y-12260174D01*
X8133515Y-12374460D02*
X8114467Y-12383984D01*
X8114467Y-12383984D02*
X8066848Y-12383984D01*
X8066848Y-12383984D02*
X8047801Y-12374460D01*
X8047801Y-12374460D02*
X8038277Y-12355412D01*
X8038277Y-12355412D02*
X8038277Y-12336365D01*
X8038277Y-12336365D02*
X8047801Y-12317317D01*
X8047801Y-12317317D02*
X8066848Y-12307793D01*
X8066848Y-12307793D02*
X8114467Y-12307793D01*
X8114467Y-12307793D02*
X8133515Y-12298269D01*
X8228753Y-12250650D02*
X8228753Y-12450650D01*
X8228753Y-12260174D02*
X8247801Y-12250650D01*
X8247801Y-12250650D02*
X8285896Y-12250650D01*
X8285896Y-12250650D02*
X8304943Y-12260174D01*
X8304943Y-12260174D02*
X8314467Y-12269698D01*
X8314467Y-12269698D02*
X8323991Y-12288746D01*
X8323991Y-12288746D02*
X8323991Y-12345888D01*
X8323991Y-12345888D02*
X8314467Y-12364936D01*
X8314467Y-12364936D02*
X8304943Y-12374460D01*
X8304943Y-12374460D02*
X8285896Y-12383984D01*
X8285896Y-12383984D02*
X8247801Y-12383984D01*
X8247801Y-12383984D02*
X8228753Y-12374460D01*
X8409705Y-12364936D02*
X8419229Y-12374460D01*
X8419229Y-12374460D02*
X8409705Y-12383984D01*
X8409705Y-12383984D02*
X8400182Y-12374460D01*
X8400182Y-12374460D02*
X8409705Y-12364936D01*
X8409705Y-12364936D02*
X8409705Y-12383984D01*
X8409705Y-12260174D02*
X8419229Y-12269698D01*
X8419229Y-12269698D02*
X8409705Y-12279222D01*
X8409705Y-12279222D02*
X8400182Y-12269698D01*
X8400182Y-12269698D02*
X8409705Y-12260174D01*
X8409705Y-12260174D02*
X8409705Y-12279222D01*
D12*
X6747500Y-12697500D02*
X6777500Y-12727500D01*
X6777500Y-12697500D02*
X6747500Y-12727500D01*
D11*
X7076372Y-12603984D02*
X7095420Y-12603984D01*
X7095420Y-12603984D02*
X7114467Y-12613508D01*
X7114467Y-12613508D02*
X7123991Y-12623031D01*
X7123991Y-12623031D02*
X7133515Y-12642079D01*
X7133515Y-12642079D02*
X7143039Y-12680174D01*
X7143039Y-12680174D02*
X7143039Y-12727793D01*
X7143039Y-12727793D02*
X7133515Y-12765888D01*
X7133515Y-12765888D02*
X7123991Y-12784936D01*
X7123991Y-12784936D02*
X7114467Y-12794460D01*
X7114467Y-12794460D02*
X7095420Y-12803984D01*
X7095420Y-12803984D02*
X7076372Y-12803984D01*
X7076372Y-12803984D02*
X7057324Y-12794460D01*
X7057324Y-12794460D02*
X7047801Y-12784936D01*
X7047801Y-12784936D02*
X7038277Y-12765888D01*
X7038277Y-12765888D02*
X7028753Y-12727793D01*
X7028753Y-12727793D02*
X7028753Y-12680174D01*
X7028753Y-12680174D02*
X7038277Y-12642079D01*
X7038277Y-12642079D02*
X7047801Y-12623031D01*
X7047801Y-12623031D02*
X7057324Y-12613508D01*
X7057324Y-12613508D02*
X7076372Y-12603984D01*
X7228753Y-12784936D02*
X7238277Y-12794460D01*
X7238277Y-12794460D02*
X7228753Y-12803984D01*
X7228753Y-12803984D02*
X7219229Y-12794460D01*
X7219229Y-12794460D02*
X7228753Y-12784936D01*
X7228753Y-12784936D02*
X7228753Y-12803984D01*
X7304943Y-12603984D02*
X7428753Y-12603984D01*
X7428753Y-12603984D02*
X7362086Y-12680174D01*
X7362086Y-12680174D02*
X7390658Y-12680174D01*
X7390658Y-12680174D02*
X7409705Y-12689698D01*
X7409705Y-12689698D02*
X7419229Y-12699222D01*
X7419229Y-12699222D02*
X7428753Y-12718269D01*
X7428753Y-12718269D02*
X7428753Y-12765888D01*
X7428753Y-12765888D02*
X7419229Y-12784936D01*
X7419229Y-12784936D02*
X7409705Y-12794460D01*
X7409705Y-12794460D02*
X7390658Y-12803984D01*
X7390658Y-12803984D02*
X7333515Y-12803984D01*
X7333515Y-12803984D02*
X7314467Y-12794460D01*
X7314467Y-12794460D02*
X7304943Y-12784936D01*
X7552562Y-12603984D02*
X7571610Y-12603984D01*
X7571610Y-12603984D02*
X7590658Y-12613508D01*
X7590658Y-12613508D02*
X7600182Y-12623031D01*
X7600182Y-12623031D02*
X7609705Y-12642079D01*
X7609705Y-12642079D02*
X7619229Y-12680174D01*
X7619229Y-12680174D02*
X7619229Y-12727793D01*
X7619229Y-12727793D02*
X7609705Y-12765888D01*
X7609705Y-12765888D02*
X7600182Y-12784936D01*
X7600182Y-12784936D02*
X7590658Y-12794460D01*
X7590658Y-12794460D02*
X7571610Y-12803984D01*
X7571610Y-12803984D02*
X7552562Y-12803984D01*
X7552562Y-12803984D02*
X7533515Y-12794460D01*
X7533515Y-12794460D02*
X7523991Y-12784936D01*
X7523991Y-12784936D02*
X7514467Y-12765888D01*
X7514467Y-12765888D02*
X7504943Y-12727793D01*
X7504943Y-12727793D02*
X7504943Y-12680174D01*
X7504943Y-12680174D02*
X7514467Y-12642079D01*
X7514467Y-12642079D02*
X7523991Y-12623031D01*
X7523991Y-12623031D02*
X7533515Y-12613508D01*
X7533515Y-12613508D02*
X7552562Y-12603984D01*
X7743039Y-12603984D02*
X7762086Y-12603984D01*
X7762086Y-12603984D02*
X7781134Y-12613508D01*
X7781134Y-12613508D02*
X7790658Y-12623031D01*
X7790658Y-12623031D02*
X7800182Y-12642079D01*
X7800182Y-12642079D02*
X7809705Y-12680174D01*
X7809705Y-12680174D02*
X7809705Y-12727793D01*
X7809705Y-12727793D02*
X7800182Y-12765888D01*
X7800182Y-12765888D02*
X7790658Y-12784936D01*
X7790658Y-12784936D02*
X7781134Y-12794460D01*
X7781134Y-12794460D02*
X7762086Y-12803984D01*
X7762086Y-12803984D02*
X7743039Y-12803984D01*
X7743039Y-12803984D02*
X7723991Y-12794460D01*
X7723991Y-12794460D02*
X7714467Y-12784936D01*
X7714467Y-12784936D02*
X7704943Y-12765888D01*
X7704943Y-12765888D02*
X7695420Y-12727793D01*
X7695420Y-12727793D02*
X7695420Y-12680174D01*
X7695420Y-12680174D02*
X7704943Y-12642079D01*
X7704943Y-12642079D02*
X7714467Y-12623031D01*
X7714467Y-12623031D02*
X7723991Y-12613508D01*
X7723991Y-12613508D02*
X7743039Y-12603984D01*
X7895420Y-12803984D02*
X7895420Y-12670650D01*
X7895420Y-12689698D02*
X7904943Y-12680174D01*
X7904943Y-12680174D02*
X7923991Y-12670650D01*
X7923991Y-12670650D02*
X7952563Y-12670650D01*
X7952563Y-12670650D02*
X7971610Y-12680174D01*
X7971610Y-12680174D02*
X7981134Y-12699222D01*
X7981134Y-12699222D02*
X7981134Y-12803984D01*
X7981134Y-12699222D02*
X7990658Y-12680174D01*
X7990658Y-12680174D02*
X8009705Y-12670650D01*
X8009705Y-12670650D02*
X8038277Y-12670650D01*
X8038277Y-12670650D02*
X8057324Y-12680174D01*
X8057324Y-12680174D02*
X8066848Y-12699222D01*
X8066848Y-12699222D02*
X8066848Y-12803984D01*
X8162086Y-12803984D02*
X8162086Y-12670650D01*
X8162086Y-12689698D02*
X8171610Y-12680174D01*
X8171610Y-12680174D02*
X8190658Y-12670650D01*
X8190658Y-12670650D02*
X8219229Y-12670650D01*
X8219229Y-12670650D02*
X8238277Y-12680174D01*
X8238277Y-12680174D02*
X8247801Y-12699222D01*
X8247801Y-12699222D02*
X8247801Y-12803984D01*
X8247801Y-12699222D02*
X8257324Y-12680174D01*
X8257324Y-12680174D02*
X8276372Y-12670650D01*
X8276372Y-12670650D02*
X8304943Y-12670650D01*
X8304943Y-12670650D02*
X8323991Y-12680174D01*
X8323991Y-12680174D02*
X8333515Y-12699222D01*
X8333515Y-12699222D02*
X8333515Y-12803984D01*
X8723991Y-12594460D02*
X8552563Y-12851603D01*
X8981134Y-12603984D02*
X9000182Y-12603984D01*
X9000182Y-12603984D02*
X9019229Y-12613508D01*
X9019229Y-12613508D02*
X9028753Y-12623031D01*
X9028753Y-12623031D02*
X9038277Y-12642079D01*
X9038277Y-12642079D02*
X9047801Y-12680174D01*
X9047801Y-12680174D02*
X9047801Y-12727793D01*
X9047801Y-12727793D02*
X9038277Y-12765888D01*
X9038277Y-12765888D02*
X9028753Y-12784936D01*
X9028753Y-12784936D02*
X9019229Y-12794460D01*
X9019229Y-12794460D02*
X9000182Y-12803984D01*
X9000182Y-12803984D02*
X8981134Y-12803984D01*
X8981134Y-12803984D02*
X8962087Y-12794460D01*
X8962087Y-12794460D02*
X8952563Y-12784936D01*
X8952563Y-12784936D02*
X8943039Y-12765888D01*
X8943039Y-12765888D02*
X8933515Y-12727793D01*
X8933515Y-12727793D02*
X8933515Y-12680174D01*
X8933515Y-12680174D02*
X8943039Y-12642079D01*
X8943039Y-12642079D02*
X8952563Y-12623031D01*
X8952563Y-12623031D02*
X8962087Y-12613508D01*
X8962087Y-12613508D02*
X8981134Y-12603984D01*
X9133515Y-12784936D02*
X9143039Y-12794460D01*
X9143039Y-12794460D02*
X9133515Y-12803984D01*
X9133515Y-12803984D02*
X9123991Y-12794460D01*
X9123991Y-12794460D02*
X9133515Y-12784936D01*
X9133515Y-12784936D02*
X9133515Y-12803984D01*
X9266848Y-12603984D02*
X9285896Y-12603984D01*
X9285896Y-12603984D02*
X9304944Y-12613508D01*
X9304944Y-12613508D02*
X9314468Y-12623031D01*
X9314468Y-12623031D02*
X9323991Y-12642079D01*
X9323991Y-12642079D02*
X9333515Y-12680174D01*
X9333515Y-12680174D02*
X9333515Y-12727793D01*
X9333515Y-12727793D02*
X9323991Y-12765888D01*
X9323991Y-12765888D02*
X9314468Y-12784936D01*
X9314468Y-12784936D02*
X9304944Y-12794460D01*
X9304944Y-12794460D02*
X9285896Y-12803984D01*
X9285896Y-12803984D02*
X9266848Y-12803984D01*
X9266848Y-12803984D02*
X9247801Y-12794460D01*
X9247801Y-12794460D02*
X9238277Y-12784936D01*
X9238277Y-12784936D02*
X9228753Y-12765888D01*
X9228753Y-12765888D02*
X9219229Y-12727793D01*
X9219229Y-12727793D02*
X9219229Y-12680174D01*
X9219229Y-12680174D02*
X9228753Y-12642079D01*
X9228753Y-12642079D02*
X9238277Y-12623031D01*
X9238277Y-12623031D02*
X9247801Y-12613508D01*
X9247801Y-12613508D02*
X9266848Y-12603984D01*
X9523991Y-12803984D02*
X9409706Y-12803984D01*
X9466848Y-12803984D02*
X9466848Y-12603984D01*
X9466848Y-12603984D02*
X9447801Y-12632555D01*
X9447801Y-12632555D02*
X9428753Y-12651603D01*
X9428753Y-12651603D02*
X9409706Y-12661127D01*
X9714468Y-12803984D02*
X9600182Y-12803984D01*
X9657325Y-12803984D02*
X9657325Y-12603984D01*
X9657325Y-12603984D02*
X9638277Y-12632555D01*
X9638277Y-12632555D02*
X9619229Y-12651603D01*
X9619229Y-12651603D02*
X9600182Y-12661127D01*
X9828753Y-12689698D02*
X9809706Y-12680174D01*
X9809706Y-12680174D02*
X9800182Y-12670650D01*
X9800182Y-12670650D02*
X9790658Y-12651603D01*
X9790658Y-12651603D02*
X9790658Y-12642079D01*
X9790658Y-12642079D02*
X9800182Y-12623031D01*
X9800182Y-12623031D02*
X9809706Y-12613508D01*
X9809706Y-12613508D02*
X9828753Y-12603984D01*
X9828753Y-12603984D02*
X9866849Y-12603984D01*
X9866849Y-12603984D02*
X9885896Y-12613508D01*
X9885896Y-12613508D02*
X9895420Y-12623031D01*
X9895420Y-12623031D02*
X9904944Y-12642079D01*
X9904944Y-12642079D02*
X9904944Y-12651603D01*
X9904944Y-12651603D02*
X9895420Y-12670650D01*
X9895420Y-12670650D02*
X9885896Y-12680174D01*
X9885896Y-12680174D02*
X9866849Y-12689698D01*
X9866849Y-12689698D02*
X9828753Y-12689698D01*
X9828753Y-12689698D02*
X9809706Y-12699222D01*
X9809706Y-12699222D02*
X9800182Y-12708746D01*
X9800182Y-12708746D02*
X9790658Y-12727793D01*
X9790658Y-12727793D02*
X9790658Y-12765888D01*
X9790658Y-12765888D02*
X9800182Y-12784936D01*
X9800182Y-12784936D02*
X9809706Y-12794460D01*
X9809706Y-12794460D02*
X9828753Y-12803984D01*
X9828753Y-12803984D02*
X9866849Y-12803984D01*
X9866849Y-12803984D02*
X9885896Y-12794460D01*
X9885896Y-12794460D02*
X9895420Y-12784936D01*
X9895420Y-12784936D02*
X9904944Y-12765888D01*
X9904944Y-12765888D02*
X9904944Y-12727793D01*
X9904944Y-12727793D02*
X9895420Y-12708746D01*
X9895420Y-12708746D02*
X9885896Y-12699222D01*
X9885896Y-12699222D02*
X9866849Y-12689698D01*
X9981134Y-12603984D02*
X9981134Y-12642079D01*
X10057325Y-12603984D02*
X10057325Y-12642079D01*
X10352563Y-12880174D02*
X10343039Y-12870650D01*
X10343039Y-12870650D02*
X10323991Y-12842079D01*
X10323991Y-12842079D02*
X10314468Y-12823031D01*
X10314468Y-12823031D02*
X10304944Y-12794460D01*
X10304944Y-12794460D02*
X10295420Y-12746841D01*
X10295420Y-12746841D02*
X10295420Y-12708746D01*
X10295420Y-12708746D02*
X10304944Y-12661127D01*
X10304944Y-12661127D02*
X10314468Y-12632555D01*
X10314468Y-12632555D02*
X10323991Y-12613508D01*
X10323991Y-12613508D02*
X10343039Y-12584936D01*
X10343039Y-12584936D02*
X10352563Y-12575412D01*
X10409706Y-12603984D02*
X10533515Y-12603984D01*
X10533515Y-12603984D02*
X10466849Y-12680174D01*
X10466849Y-12680174D02*
X10495420Y-12680174D01*
X10495420Y-12680174D02*
X10514468Y-12689698D01*
X10514468Y-12689698D02*
X10523991Y-12699222D01*
X10523991Y-12699222D02*
X10533515Y-12718269D01*
X10533515Y-12718269D02*
X10533515Y-12765888D01*
X10533515Y-12765888D02*
X10523991Y-12784936D01*
X10523991Y-12784936D02*
X10514468Y-12794460D01*
X10514468Y-12794460D02*
X10495420Y-12803984D01*
X10495420Y-12803984D02*
X10438277Y-12803984D01*
X10438277Y-12803984D02*
X10419230Y-12794460D01*
X10419230Y-12794460D02*
X10409706Y-12784936D01*
X10714468Y-12603984D02*
X10619230Y-12603984D01*
X10619230Y-12603984D02*
X10609706Y-12699222D01*
X10609706Y-12699222D02*
X10619230Y-12689698D01*
X10619230Y-12689698D02*
X10638277Y-12680174D01*
X10638277Y-12680174D02*
X10685896Y-12680174D01*
X10685896Y-12680174D02*
X10704944Y-12689698D01*
X10704944Y-12689698D02*
X10714468Y-12699222D01*
X10714468Y-12699222D02*
X10723991Y-12718269D01*
X10723991Y-12718269D02*
X10723991Y-12765888D01*
X10723991Y-12765888D02*
X10714468Y-12784936D01*
X10714468Y-12784936D02*
X10704944Y-12794460D01*
X10704944Y-12794460D02*
X10685896Y-12803984D01*
X10685896Y-12803984D02*
X10638277Y-12803984D01*
X10638277Y-12803984D02*
X10619230Y-12794460D01*
X10619230Y-12794460D02*
X10609706Y-12784936D01*
X10790658Y-12603984D02*
X10914468Y-12603984D01*
X10914468Y-12603984D02*
X10847801Y-12680174D01*
X10847801Y-12680174D02*
X10876372Y-12680174D01*
X10876372Y-12680174D02*
X10895420Y-12689698D01*
X10895420Y-12689698D02*
X10904944Y-12699222D01*
X10904944Y-12699222D02*
X10914468Y-12718269D01*
X10914468Y-12718269D02*
X10914468Y-12765888D01*
X10914468Y-12765888D02*
X10904944Y-12784936D01*
X10904944Y-12784936D02*
X10895420Y-12794460D01*
X10895420Y-12794460D02*
X10876372Y-12803984D01*
X10876372Y-12803984D02*
X10819230Y-12803984D01*
X10819230Y-12803984D02*
X10800182Y-12794460D01*
X10800182Y-12794460D02*
X10790658Y-12784936D01*
X11152563Y-12803984D02*
X11152563Y-12603984D01*
X11238277Y-12803984D02*
X11238277Y-12699222D01*
X11238277Y-12699222D02*
X11228753Y-12680174D01*
X11228753Y-12680174D02*
X11209706Y-12670650D01*
X11209706Y-12670650D02*
X11181134Y-12670650D01*
X11181134Y-12670650D02*
X11162087Y-12680174D01*
X11162087Y-12680174D02*
X11152563Y-12689698D01*
X11362087Y-12803984D02*
X11343039Y-12794460D01*
X11343039Y-12794460D02*
X11333515Y-12784936D01*
X11333515Y-12784936D02*
X11323991Y-12765888D01*
X11323991Y-12765888D02*
X11323991Y-12708746D01*
X11323991Y-12708746D02*
X11333515Y-12689698D01*
X11333515Y-12689698D02*
X11343039Y-12680174D01*
X11343039Y-12680174D02*
X11362087Y-12670650D01*
X11362087Y-12670650D02*
X11390658Y-12670650D01*
X11390658Y-12670650D02*
X11409706Y-12680174D01*
X11409706Y-12680174D02*
X11419230Y-12689698D01*
X11419230Y-12689698D02*
X11428753Y-12708746D01*
X11428753Y-12708746D02*
X11428753Y-12765888D01*
X11428753Y-12765888D02*
X11419230Y-12784936D01*
X11419230Y-12784936D02*
X11409706Y-12794460D01*
X11409706Y-12794460D02*
X11390658Y-12803984D01*
X11390658Y-12803984D02*
X11362087Y-12803984D01*
X11543039Y-12803984D02*
X11523991Y-12794460D01*
X11523991Y-12794460D02*
X11514468Y-12775412D01*
X11514468Y-12775412D02*
X11514468Y-12603984D01*
X11695420Y-12794460D02*
X11676372Y-12803984D01*
X11676372Y-12803984D02*
X11638277Y-12803984D01*
X11638277Y-12803984D02*
X11619230Y-12794460D01*
X11619230Y-12794460D02*
X11609706Y-12775412D01*
X11609706Y-12775412D02*
X11609706Y-12699222D01*
X11609706Y-12699222D02*
X11619230Y-12680174D01*
X11619230Y-12680174D02*
X11638277Y-12670650D01*
X11638277Y-12670650D02*
X11676372Y-12670650D01*
X11676372Y-12670650D02*
X11695420Y-12680174D01*
X11695420Y-12680174D02*
X11704944Y-12699222D01*
X11704944Y-12699222D02*
X11704944Y-12718269D01*
X11704944Y-12718269D02*
X11609706Y-12737317D01*
X11781134Y-12794460D02*
X11800182Y-12803984D01*
X11800182Y-12803984D02*
X11838277Y-12803984D01*
X11838277Y-12803984D02*
X11857325Y-12794460D01*
X11857325Y-12794460D02*
X11866849Y-12775412D01*
X11866849Y-12775412D02*
X11866849Y-12765888D01*
X11866849Y-12765888D02*
X11857325Y-12746841D01*
X11857325Y-12746841D02*
X11838277Y-12737317D01*
X11838277Y-12737317D02*
X11809706Y-12737317D01*
X11809706Y-12737317D02*
X11790658Y-12727793D01*
X11790658Y-12727793D02*
X11781134Y-12708746D01*
X11781134Y-12708746D02*
X11781134Y-12699222D01*
X11781134Y-12699222D02*
X11790658Y-12680174D01*
X11790658Y-12680174D02*
X11809706Y-12670650D01*
X11809706Y-12670650D02*
X11838277Y-12670650D01*
X11838277Y-12670650D02*
X11857325Y-12680174D01*
X11933515Y-12880174D02*
X11943039Y-12870650D01*
X11943039Y-12870650D02*
X11962087Y-12842079D01*
X11962087Y-12842079D02*
X11971611Y-12823031D01*
X11971611Y-12823031D02*
X11981134Y-12794460D01*
X11981134Y-12794460D02*
X11990658Y-12746841D01*
X11990658Y-12746841D02*
X11990658Y-12708746D01*
X11990658Y-12708746D02*
X11981134Y-12661127D01*
X11981134Y-12661127D02*
X11971611Y-12632555D01*
X11971611Y-12632555D02*
X11962087Y-12613508D01*
X11962087Y-12613508D02*
X11943039Y-12584936D01*
X11943039Y-12584936D02*
X11933515Y-12575412D01*
D12*
X6777500Y-12976500D02*
G75*
G02*
X6677500Y-12976500I-50000J0D01*
G01*
X6677500Y-12976500D02*
G75*
G02*
X6777500Y-12976500I50000J0D01*
G01*
D11*
X7143039Y-13067984D02*
X7028753Y-13067984D01*
X7085896Y-13067984D02*
X7085896Y-12867984D01*
X7085896Y-12867984D02*
X7066848Y-12896555D01*
X7066848Y-12896555D02*
X7047801Y-12915603D01*
X7047801Y-12915603D02*
X7028753Y-12925127D01*
X7228753Y-13048936D02*
X7238277Y-13058460D01*
X7238277Y-13058460D02*
X7228753Y-13067984D01*
X7228753Y-13067984D02*
X7219229Y-13058460D01*
X7219229Y-13058460D02*
X7228753Y-13048936D01*
X7228753Y-13048936D02*
X7228753Y-13067984D01*
X7362086Y-12867984D02*
X7381134Y-12867984D01*
X7381134Y-12867984D02*
X7400182Y-12877508D01*
X7400182Y-12877508D02*
X7409705Y-12887031D01*
X7409705Y-12887031D02*
X7419229Y-12906079D01*
X7419229Y-12906079D02*
X7428753Y-12944174D01*
X7428753Y-12944174D02*
X7428753Y-12991793D01*
X7428753Y-12991793D02*
X7419229Y-13029888D01*
X7419229Y-13029888D02*
X7409705Y-13048936D01*
X7409705Y-13048936D02*
X7400182Y-13058460D01*
X7400182Y-13058460D02*
X7381134Y-13067984D01*
X7381134Y-13067984D02*
X7362086Y-13067984D01*
X7362086Y-13067984D02*
X7343039Y-13058460D01*
X7343039Y-13058460D02*
X7333515Y-13048936D01*
X7333515Y-13048936D02*
X7323991Y-13029888D01*
X7323991Y-13029888D02*
X7314467Y-12991793D01*
X7314467Y-12991793D02*
X7314467Y-12944174D01*
X7314467Y-12944174D02*
X7323991Y-12906079D01*
X7323991Y-12906079D02*
X7333515Y-12887031D01*
X7333515Y-12887031D02*
X7343039Y-12877508D01*
X7343039Y-12877508D02*
X7362086Y-12867984D01*
X7552562Y-12867984D02*
X7571610Y-12867984D01*
X7571610Y-12867984D02*
X7590658Y-12877508D01*
X7590658Y-12877508D02*
X7600182Y-12887031D01*
X7600182Y-12887031D02*
X7609705Y-12906079D01*
X7609705Y-12906079D02*
X7619229Y-12944174D01*
X7619229Y-12944174D02*
X7619229Y-12991793D01*
X7619229Y-12991793D02*
X7609705Y-13029888D01*
X7609705Y-13029888D02*
X7600182Y-13048936D01*
X7600182Y-13048936D02*
X7590658Y-13058460D01*
X7590658Y-13058460D02*
X7571610Y-13067984D01*
X7571610Y-13067984D02*
X7552562Y-13067984D01*
X7552562Y-13067984D02*
X7533515Y-13058460D01*
X7533515Y-13058460D02*
X7523991Y-13048936D01*
X7523991Y-13048936D02*
X7514467Y-13029888D01*
X7514467Y-13029888D02*
X7504943Y-12991793D01*
X7504943Y-12991793D02*
X7504943Y-12944174D01*
X7504943Y-12944174D02*
X7514467Y-12906079D01*
X7514467Y-12906079D02*
X7523991Y-12887031D01*
X7523991Y-12887031D02*
X7533515Y-12877508D01*
X7533515Y-12877508D02*
X7552562Y-12867984D01*
X7743039Y-12867984D02*
X7762086Y-12867984D01*
X7762086Y-12867984D02*
X7781134Y-12877508D01*
X7781134Y-12877508D02*
X7790658Y-12887031D01*
X7790658Y-12887031D02*
X7800182Y-12906079D01*
X7800182Y-12906079D02*
X7809705Y-12944174D01*
X7809705Y-12944174D02*
X7809705Y-12991793D01*
X7809705Y-12991793D02*
X7800182Y-13029888D01*
X7800182Y-13029888D02*
X7790658Y-13048936D01*
X7790658Y-13048936D02*
X7781134Y-13058460D01*
X7781134Y-13058460D02*
X7762086Y-13067984D01*
X7762086Y-13067984D02*
X7743039Y-13067984D01*
X7743039Y-13067984D02*
X7723991Y-13058460D01*
X7723991Y-13058460D02*
X7714467Y-13048936D01*
X7714467Y-13048936D02*
X7704943Y-13029888D01*
X7704943Y-13029888D02*
X7695420Y-12991793D01*
X7695420Y-12991793D02*
X7695420Y-12944174D01*
X7695420Y-12944174D02*
X7704943Y-12906079D01*
X7704943Y-12906079D02*
X7714467Y-12887031D01*
X7714467Y-12887031D02*
X7723991Y-12877508D01*
X7723991Y-12877508D02*
X7743039Y-12867984D01*
X7895420Y-13067984D02*
X7895420Y-12934650D01*
X7895420Y-12953698D02*
X7904943Y-12944174D01*
X7904943Y-12944174D02*
X7923991Y-12934650D01*
X7923991Y-12934650D02*
X7952563Y-12934650D01*
X7952563Y-12934650D02*
X7971610Y-12944174D01*
X7971610Y-12944174D02*
X7981134Y-12963222D01*
X7981134Y-12963222D02*
X7981134Y-13067984D01*
X7981134Y-12963222D02*
X7990658Y-12944174D01*
X7990658Y-12944174D02*
X8009705Y-12934650D01*
X8009705Y-12934650D02*
X8038277Y-12934650D01*
X8038277Y-12934650D02*
X8057324Y-12944174D01*
X8057324Y-12944174D02*
X8066848Y-12963222D01*
X8066848Y-12963222D02*
X8066848Y-13067984D01*
X8162086Y-13067984D02*
X8162086Y-12934650D01*
X8162086Y-12953698D02*
X8171610Y-12944174D01*
X8171610Y-12944174D02*
X8190658Y-12934650D01*
X8190658Y-12934650D02*
X8219229Y-12934650D01*
X8219229Y-12934650D02*
X8238277Y-12944174D01*
X8238277Y-12944174D02*
X8247801Y-12963222D01*
X8247801Y-12963222D02*
X8247801Y-13067984D01*
X8247801Y-12963222D02*
X8257324Y-12944174D01*
X8257324Y-12944174D02*
X8276372Y-12934650D01*
X8276372Y-12934650D02*
X8304943Y-12934650D01*
X8304943Y-12934650D02*
X8323991Y-12944174D01*
X8323991Y-12944174D02*
X8333515Y-12963222D01*
X8333515Y-12963222D02*
X8333515Y-13067984D01*
X8723991Y-12858460D02*
X8552563Y-13115603D01*
X8981134Y-12867984D02*
X9000182Y-12867984D01*
X9000182Y-12867984D02*
X9019229Y-12877508D01*
X9019229Y-12877508D02*
X9028753Y-12887031D01*
X9028753Y-12887031D02*
X9038277Y-12906079D01*
X9038277Y-12906079D02*
X9047801Y-12944174D01*
X9047801Y-12944174D02*
X9047801Y-12991793D01*
X9047801Y-12991793D02*
X9038277Y-13029888D01*
X9038277Y-13029888D02*
X9028753Y-13048936D01*
X9028753Y-13048936D02*
X9019229Y-13058460D01*
X9019229Y-13058460D02*
X9000182Y-13067984D01*
X9000182Y-13067984D02*
X8981134Y-13067984D01*
X8981134Y-13067984D02*
X8962087Y-13058460D01*
X8962087Y-13058460D02*
X8952563Y-13048936D01*
X8952563Y-13048936D02*
X8943039Y-13029888D01*
X8943039Y-13029888D02*
X8933515Y-12991793D01*
X8933515Y-12991793D02*
X8933515Y-12944174D01*
X8933515Y-12944174D02*
X8943039Y-12906079D01*
X8943039Y-12906079D02*
X8952563Y-12887031D01*
X8952563Y-12887031D02*
X8962087Y-12877508D01*
X8962087Y-12877508D02*
X8981134Y-12867984D01*
X9133515Y-13048936D02*
X9143039Y-13058460D01*
X9143039Y-13058460D02*
X9133515Y-13067984D01*
X9133515Y-13067984D02*
X9123991Y-13058460D01*
X9123991Y-13058460D02*
X9133515Y-13048936D01*
X9133515Y-13048936D02*
X9133515Y-13067984D01*
X9266848Y-12867984D02*
X9285896Y-12867984D01*
X9285896Y-12867984D02*
X9304944Y-12877508D01*
X9304944Y-12877508D02*
X9314468Y-12887031D01*
X9314468Y-12887031D02*
X9323991Y-12906079D01*
X9323991Y-12906079D02*
X9333515Y-12944174D01*
X9333515Y-12944174D02*
X9333515Y-12991793D01*
X9333515Y-12991793D02*
X9323991Y-13029888D01*
X9323991Y-13029888D02*
X9314468Y-13048936D01*
X9314468Y-13048936D02*
X9304944Y-13058460D01*
X9304944Y-13058460D02*
X9285896Y-13067984D01*
X9285896Y-13067984D02*
X9266848Y-13067984D01*
X9266848Y-13067984D02*
X9247801Y-13058460D01*
X9247801Y-13058460D02*
X9238277Y-13048936D01*
X9238277Y-13048936D02*
X9228753Y-13029888D01*
X9228753Y-13029888D02*
X9219229Y-12991793D01*
X9219229Y-12991793D02*
X9219229Y-12944174D01*
X9219229Y-12944174D02*
X9228753Y-12906079D01*
X9228753Y-12906079D02*
X9238277Y-12887031D01*
X9238277Y-12887031D02*
X9247801Y-12877508D01*
X9247801Y-12877508D02*
X9266848Y-12867984D01*
X9400182Y-12867984D02*
X9523991Y-12867984D01*
X9523991Y-12867984D02*
X9457325Y-12944174D01*
X9457325Y-12944174D02*
X9485896Y-12944174D01*
X9485896Y-12944174D02*
X9504944Y-12953698D01*
X9504944Y-12953698D02*
X9514468Y-12963222D01*
X9514468Y-12963222D02*
X9523991Y-12982269D01*
X9523991Y-12982269D02*
X9523991Y-13029888D01*
X9523991Y-13029888D02*
X9514468Y-13048936D01*
X9514468Y-13048936D02*
X9504944Y-13058460D01*
X9504944Y-13058460D02*
X9485896Y-13067984D01*
X9485896Y-13067984D02*
X9428753Y-13067984D01*
X9428753Y-13067984D02*
X9409706Y-13058460D01*
X9409706Y-13058460D02*
X9400182Y-13048936D01*
X9619229Y-13067984D02*
X9657325Y-13067984D01*
X9657325Y-13067984D02*
X9676372Y-13058460D01*
X9676372Y-13058460D02*
X9685896Y-13048936D01*
X9685896Y-13048936D02*
X9704944Y-13020365D01*
X9704944Y-13020365D02*
X9714468Y-12982269D01*
X9714468Y-12982269D02*
X9714468Y-12906079D01*
X9714468Y-12906079D02*
X9704944Y-12887031D01*
X9704944Y-12887031D02*
X9695420Y-12877508D01*
X9695420Y-12877508D02*
X9676372Y-12867984D01*
X9676372Y-12867984D02*
X9638277Y-12867984D01*
X9638277Y-12867984D02*
X9619229Y-12877508D01*
X9619229Y-12877508D02*
X9609706Y-12887031D01*
X9609706Y-12887031D02*
X9600182Y-12906079D01*
X9600182Y-12906079D02*
X9600182Y-12953698D01*
X9600182Y-12953698D02*
X9609706Y-12972746D01*
X9609706Y-12972746D02*
X9619229Y-12982269D01*
X9619229Y-12982269D02*
X9638277Y-12991793D01*
X9638277Y-12991793D02*
X9676372Y-12991793D01*
X9676372Y-12991793D02*
X9695420Y-12982269D01*
X9695420Y-12982269D02*
X9704944Y-12972746D01*
X9704944Y-12972746D02*
X9714468Y-12953698D01*
X9885896Y-12934650D02*
X9885896Y-13067984D01*
X9838277Y-12858460D02*
X9790658Y-13001317D01*
X9790658Y-13001317D02*
X9914468Y-13001317D01*
X9981134Y-12867984D02*
X9981134Y-12906079D01*
X10057325Y-12867984D02*
X10057325Y-12906079D01*
X10352563Y-13144174D02*
X10343039Y-13134650D01*
X10343039Y-13134650D02*
X10323991Y-13106079D01*
X10323991Y-13106079D02*
X10314468Y-13087031D01*
X10314468Y-13087031D02*
X10304944Y-13058460D01*
X10304944Y-13058460D02*
X10295420Y-13010841D01*
X10295420Y-13010841D02*
X10295420Y-12972746D01*
X10295420Y-12972746D02*
X10304944Y-12925127D01*
X10304944Y-12925127D02*
X10314468Y-12896555D01*
X10314468Y-12896555D02*
X10323991Y-12877508D01*
X10323991Y-12877508D02*
X10343039Y-12848936D01*
X10343039Y-12848936D02*
X10352563Y-12839412D01*
X10514468Y-12867984D02*
X10476372Y-12867984D01*
X10476372Y-12867984D02*
X10457325Y-12877508D01*
X10457325Y-12877508D02*
X10447801Y-12887031D01*
X10447801Y-12887031D02*
X10428753Y-12915603D01*
X10428753Y-12915603D02*
X10419230Y-12953698D01*
X10419230Y-12953698D02*
X10419230Y-13029888D01*
X10419230Y-13029888D02*
X10428753Y-13048936D01*
X10428753Y-13048936D02*
X10438277Y-13058460D01*
X10438277Y-13058460D02*
X10457325Y-13067984D01*
X10457325Y-13067984D02*
X10495420Y-13067984D01*
X10495420Y-13067984D02*
X10514468Y-13058460D01*
X10514468Y-13058460D02*
X10523991Y-13048936D01*
X10523991Y-13048936D02*
X10533515Y-13029888D01*
X10533515Y-13029888D02*
X10533515Y-12982269D01*
X10533515Y-12982269D02*
X10523991Y-12963222D01*
X10523991Y-12963222D02*
X10514468Y-12953698D01*
X10514468Y-12953698D02*
X10495420Y-12944174D01*
X10495420Y-12944174D02*
X10457325Y-12944174D01*
X10457325Y-12944174D02*
X10438277Y-12953698D01*
X10438277Y-12953698D02*
X10428753Y-12963222D01*
X10428753Y-12963222D02*
X10419230Y-12982269D01*
X10647801Y-12953698D02*
X10628753Y-12944174D01*
X10628753Y-12944174D02*
X10619230Y-12934650D01*
X10619230Y-12934650D02*
X10609706Y-12915603D01*
X10609706Y-12915603D02*
X10609706Y-12906079D01*
X10609706Y-12906079D02*
X10619230Y-12887031D01*
X10619230Y-12887031D02*
X10628753Y-12877508D01*
X10628753Y-12877508D02*
X10647801Y-12867984D01*
X10647801Y-12867984D02*
X10685896Y-12867984D01*
X10685896Y-12867984D02*
X10704944Y-12877508D01*
X10704944Y-12877508D02*
X10714468Y-12887031D01*
X10714468Y-12887031D02*
X10723991Y-12906079D01*
X10723991Y-12906079D02*
X10723991Y-12915603D01*
X10723991Y-12915603D02*
X10714468Y-12934650D01*
X10714468Y-12934650D02*
X10704944Y-12944174D01*
X10704944Y-12944174D02*
X10685896Y-12953698D01*
X10685896Y-12953698D02*
X10647801Y-12953698D01*
X10647801Y-12953698D02*
X10628753Y-12963222D01*
X10628753Y-12963222D02*
X10619230Y-12972746D01*
X10619230Y-12972746D02*
X10609706Y-12991793D01*
X10609706Y-12991793D02*
X10609706Y-13029888D01*
X10609706Y-13029888D02*
X10619230Y-13048936D01*
X10619230Y-13048936D02*
X10628753Y-13058460D01*
X10628753Y-13058460D02*
X10647801Y-13067984D01*
X10647801Y-13067984D02*
X10685896Y-13067984D01*
X10685896Y-13067984D02*
X10704944Y-13058460D01*
X10704944Y-13058460D02*
X10714468Y-13048936D01*
X10714468Y-13048936D02*
X10723991Y-13029888D01*
X10723991Y-13029888D02*
X10723991Y-12991793D01*
X10723991Y-12991793D02*
X10714468Y-12972746D01*
X10714468Y-12972746D02*
X10704944Y-12963222D01*
X10704944Y-12963222D02*
X10685896Y-12953698D01*
X10962087Y-13067984D02*
X10962087Y-12867984D01*
X11047801Y-13067984D02*
X11047801Y-12963222D01*
X11047801Y-12963222D02*
X11038277Y-12944174D01*
X11038277Y-12944174D02*
X11019230Y-12934650D01*
X11019230Y-12934650D02*
X10990658Y-12934650D01*
X10990658Y-12934650D02*
X10971611Y-12944174D01*
X10971611Y-12944174D02*
X10962087Y-12953698D01*
X11171611Y-13067984D02*
X11152563Y-13058460D01*
X11152563Y-13058460D02*
X11143039Y-13048936D01*
X11143039Y-13048936D02*
X11133515Y-13029888D01*
X11133515Y-13029888D02*
X11133515Y-12972746D01*
X11133515Y-12972746D02*
X11143039Y-12953698D01*
X11143039Y-12953698D02*
X11152563Y-12944174D01*
X11152563Y-12944174D02*
X11171611Y-12934650D01*
X11171611Y-12934650D02*
X11200182Y-12934650D01*
X11200182Y-12934650D02*
X11219230Y-12944174D01*
X11219230Y-12944174D02*
X11228753Y-12953698D01*
X11228753Y-12953698D02*
X11238277Y-12972746D01*
X11238277Y-12972746D02*
X11238277Y-13029888D01*
X11238277Y-13029888D02*
X11228753Y-13048936D01*
X11228753Y-13048936D02*
X11219230Y-13058460D01*
X11219230Y-13058460D02*
X11200182Y-13067984D01*
X11200182Y-13067984D02*
X11171611Y-13067984D01*
X11352563Y-13067984D02*
X11333515Y-13058460D01*
X11333515Y-13058460D02*
X11323991Y-13039412D01*
X11323991Y-13039412D02*
X11323991Y-12867984D01*
X11504944Y-13058460D02*
X11485896Y-13067984D01*
X11485896Y-13067984D02*
X11447801Y-13067984D01*
X11447801Y-13067984D02*
X11428753Y-13058460D01*
X11428753Y-13058460D02*
X11419230Y-13039412D01*
X11419230Y-13039412D02*
X11419230Y-12963222D01*
X11419230Y-12963222D02*
X11428753Y-12944174D01*
X11428753Y-12944174D02*
X11447801Y-12934650D01*
X11447801Y-12934650D02*
X11485896Y-12934650D01*
X11485896Y-12934650D02*
X11504944Y-12944174D01*
X11504944Y-12944174D02*
X11514468Y-12963222D01*
X11514468Y-12963222D02*
X11514468Y-12982269D01*
X11514468Y-12982269D02*
X11419230Y-13001317D01*
X11590658Y-13058460D02*
X11609706Y-13067984D01*
X11609706Y-13067984D02*
X11647801Y-13067984D01*
X11647801Y-13067984D02*
X11666849Y-13058460D01*
X11666849Y-13058460D02*
X11676372Y-13039412D01*
X11676372Y-13039412D02*
X11676372Y-13029888D01*
X11676372Y-13029888D02*
X11666849Y-13010841D01*
X11666849Y-13010841D02*
X11647801Y-13001317D01*
X11647801Y-13001317D02*
X11619230Y-13001317D01*
X11619230Y-13001317D02*
X11600182Y-12991793D01*
X11600182Y-12991793D02*
X11590658Y-12972746D01*
X11590658Y-12972746D02*
X11590658Y-12963222D01*
X11590658Y-12963222D02*
X11600182Y-12944174D01*
X11600182Y-12944174D02*
X11619230Y-12934650D01*
X11619230Y-12934650D02*
X11647801Y-12934650D01*
X11647801Y-12934650D02*
X11666849Y-12944174D01*
X11743039Y-13144174D02*
X11752563Y-13134650D01*
X11752563Y-13134650D02*
X11771611Y-13106079D01*
X11771611Y-13106079D02*
X11781134Y-13087031D01*
X11781134Y-13087031D02*
X11790658Y-13058460D01*
X11790658Y-13058460D02*
X11800182Y-13010841D01*
X11800182Y-13010841D02*
X11800182Y-12972746D01*
X11800182Y-12972746D02*
X11790658Y-12925127D01*
X11790658Y-12925127D02*
X11781134Y-12896555D01*
X11781134Y-12896555D02*
X11771611Y-12877508D01*
X11771611Y-12877508D02*
X11752563Y-12848936D01*
X11752563Y-12848936D02*
X11743039Y-12839412D01*
X6677500Y-13140500D02*
X6677500Y-13340500D01*
X6577500Y-13240500D02*
X6777500Y-13240500D01*
X7019229Y-13131984D02*
X7143039Y-13131984D01*
X7143039Y-13131984D02*
X7076372Y-13208174D01*
X7076372Y-13208174D02*
X7104943Y-13208174D01*
X7104943Y-13208174D02*
X7123991Y-13217698D01*
X7123991Y-13217698D02*
X7133515Y-13227222D01*
X7133515Y-13227222D02*
X7143039Y-13246269D01*
X7143039Y-13246269D02*
X7143039Y-13293888D01*
X7143039Y-13293888D02*
X7133515Y-13312936D01*
X7133515Y-13312936D02*
X7123991Y-13322460D01*
X7123991Y-13322460D02*
X7104943Y-13331984D01*
X7104943Y-13331984D02*
X7047801Y-13331984D01*
X7047801Y-13331984D02*
X7028753Y-13322460D01*
X7028753Y-13322460D02*
X7019229Y-13312936D01*
X7228753Y-13312936D02*
X7238277Y-13322460D01*
X7238277Y-13322460D02*
X7228753Y-13331984D01*
X7228753Y-13331984D02*
X7219229Y-13322460D01*
X7219229Y-13322460D02*
X7228753Y-13312936D01*
X7228753Y-13312936D02*
X7228753Y-13331984D01*
X7314467Y-13151031D02*
X7323991Y-13141508D01*
X7323991Y-13141508D02*
X7343039Y-13131984D01*
X7343039Y-13131984D02*
X7390658Y-13131984D01*
X7390658Y-13131984D02*
X7409705Y-13141508D01*
X7409705Y-13141508D02*
X7419229Y-13151031D01*
X7419229Y-13151031D02*
X7428753Y-13170079D01*
X7428753Y-13170079D02*
X7428753Y-13189127D01*
X7428753Y-13189127D02*
X7419229Y-13217698D01*
X7419229Y-13217698D02*
X7304943Y-13331984D01*
X7304943Y-13331984D02*
X7428753Y-13331984D01*
X7552562Y-13131984D02*
X7571610Y-13131984D01*
X7571610Y-13131984D02*
X7590658Y-13141508D01*
X7590658Y-13141508D02*
X7600182Y-13151031D01*
X7600182Y-13151031D02*
X7609705Y-13170079D01*
X7609705Y-13170079D02*
X7619229Y-13208174D01*
X7619229Y-13208174D02*
X7619229Y-13255793D01*
X7619229Y-13255793D02*
X7609705Y-13293888D01*
X7609705Y-13293888D02*
X7600182Y-13312936D01*
X7600182Y-13312936D02*
X7590658Y-13322460D01*
X7590658Y-13322460D02*
X7571610Y-13331984D01*
X7571610Y-13331984D02*
X7552562Y-13331984D01*
X7552562Y-13331984D02*
X7533515Y-13322460D01*
X7533515Y-13322460D02*
X7523991Y-13312936D01*
X7523991Y-13312936D02*
X7514467Y-13293888D01*
X7514467Y-13293888D02*
X7504943Y-13255793D01*
X7504943Y-13255793D02*
X7504943Y-13208174D01*
X7504943Y-13208174D02*
X7514467Y-13170079D01*
X7514467Y-13170079D02*
X7523991Y-13151031D01*
X7523991Y-13151031D02*
X7533515Y-13141508D01*
X7533515Y-13141508D02*
X7552562Y-13131984D01*
X7743039Y-13131984D02*
X7762086Y-13131984D01*
X7762086Y-13131984D02*
X7781134Y-13141508D01*
X7781134Y-13141508D02*
X7790658Y-13151031D01*
X7790658Y-13151031D02*
X7800182Y-13170079D01*
X7800182Y-13170079D02*
X7809705Y-13208174D01*
X7809705Y-13208174D02*
X7809705Y-13255793D01*
X7809705Y-13255793D02*
X7800182Y-13293888D01*
X7800182Y-13293888D02*
X7790658Y-13312936D01*
X7790658Y-13312936D02*
X7781134Y-13322460D01*
X7781134Y-13322460D02*
X7762086Y-13331984D01*
X7762086Y-13331984D02*
X7743039Y-13331984D01*
X7743039Y-13331984D02*
X7723991Y-13322460D01*
X7723991Y-13322460D02*
X7714467Y-13312936D01*
X7714467Y-13312936D02*
X7704943Y-13293888D01*
X7704943Y-13293888D02*
X7695420Y-13255793D01*
X7695420Y-13255793D02*
X7695420Y-13208174D01*
X7695420Y-13208174D02*
X7704943Y-13170079D01*
X7704943Y-13170079D02*
X7714467Y-13151031D01*
X7714467Y-13151031D02*
X7723991Y-13141508D01*
X7723991Y-13141508D02*
X7743039Y-13131984D01*
X7895420Y-13331984D02*
X7895420Y-13198650D01*
X7895420Y-13217698D02*
X7904943Y-13208174D01*
X7904943Y-13208174D02*
X7923991Y-13198650D01*
X7923991Y-13198650D02*
X7952563Y-13198650D01*
X7952563Y-13198650D02*
X7971610Y-13208174D01*
X7971610Y-13208174D02*
X7981134Y-13227222D01*
X7981134Y-13227222D02*
X7981134Y-13331984D01*
X7981134Y-13227222D02*
X7990658Y-13208174D01*
X7990658Y-13208174D02*
X8009705Y-13198650D01*
X8009705Y-13198650D02*
X8038277Y-13198650D01*
X8038277Y-13198650D02*
X8057324Y-13208174D01*
X8057324Y-13208174D02*
X8066848Y-13227222D01*
X8066848Y-13227222D02*
X8066848Y-13331984D01*
X8162086Y-13331984D02*
X8162086Y-13198650D01*
X8162086Y-13217698D02*
X8171610Y-13208174D01*
X8171610Y-13208174D02*
X8190658Y-13198650D01*
X8190658Y-13198650D02*
X8219229Y-13198650D01*
X8219229Y-13198650D02*
X8238277Y-13208174D01*
X8238277Y-13208174D02*
X8247801Y-13227222D01*
X8247801Y-13227222D02*
X8247801Y-13331984D01*
X8247801Y-13227222D02*
X8257324Y-13208174D01*
X8257324Y-13208174D02*
X8276372Y-13198650D01*
X8276372Y-13198650D02*
X8304943Y-13198650D01*
X8304943Y-13198650D02*
X8323991Y-13208174D01*
X8323991Y-13208174D02*
X8333515Y-13227222D01*
X8333515Y-13227222D02*
X8333515Y-13331984D01*
X8723991Y-13122460D02*
X8552563Y-13379603D01*
X8981134Y-13131984D02*
X9000182Y-13131984D01*
X9000182Y-13131984D02*
X9019229Y-13141508D01*
X9019229Y-13141508D02*
X9028753Y-13151031D01*
X9028753Y-13151031D02*
X9038277Y-13170079D01*
X9038277Y-13170079D02*
X9047801Y-13208174D01*
X9047801Y-13208174D02*
X9047801Y-13255793D01*
X9047801Y-13255793D02*
X9038277Y-13293888D01*
X9038277Y-13293888D02*
X9028753Y-13312936D01*
X9028753Y-13312936D02*
X9019229Y-13322460D01*
X9019229Y-13322460D02*
X9000182Y-13331984D01*
X9000182Y-13331984D02*
X8981134Y-13331984D01*
X8981134Y-13331984D02*
X8962087Y-13322460D01*
X8962087Y-13322460D02*
X8952563Y-13312936D01*
X8952563Y-13312936D02*
X8943039Y-13293888D01*
X8943039Y-13293888D02*
X8933515Y-13255793D01*
X8933515Y-13255793D02*
X8933515Y-13208174D01*
X8933515Y-13208174D02*
X8943039Y-13170079D01*
X8943039Y-13170079D02*
X8952563Y-13151031D01*
X8952563Y-13151031D02*
X8962087Y-13141508D01*
X8962087Y-13141508D02*
X8981134Y-13131984D01*
X9133515Y-13312936D02*
X9143039Y-13322460D01*
X9143039Y-13322460D02*
X9133515Y-13331984D01*
X9133515Y-13331984D02*
X9123991Y-13322460D01*
X9123991Y-13322460D02*
X9133515Y-13312936D01*
X9133515Y-13312936D02*
X9133515Y-13331984D01*
X9333515Y-13331984D02*
X9219229Y-13331984D01*
X9276372Y-13331984D02*
X9276372Y-13131984D01*
X9276372Y-13131984D02*
X9257325Y-13160555D01*
X9257325Y-13160555D02*
X9238277Y-13179603D01*
X9238277Y-13179603D02*
X9219229Y-13189127D01*
X9409706Y-13151031D02*
X9419229Y-13141508D01*
X9419229Y-13141508D02*
X9438277Y-13131984D01*
X9438277Y-13131984D02*
X9485896Y-13131984D01*
X9485896Y-13131984D02*
X9504944Y-13141508D01*
X9504944Y-13141508D02*
X9514468Y-13151031D01*
X9514468Y-13151031D02*
X9523991Y-13170079D01*
X9523991Y-13170079D02*
X9523991Y-13189127D01*
X9523991Y-13189127D02*
X9514468Y-13217698D01*
X9514468Y-13217698D02*
X9400182Y-13331984D01*
X9400182Y-13331984D02*
X9523991Y-13331984D01*
X9695420Y-13131984D02*
X9657325Y-13131984D01*
X9657325Y-13131984D02*
X9638277Y-13141508D01*
X9638277Y-13141508D02*
X9628753Y-13151031D01*
X9628753Y-13151031D02*
X9609706Y-13179603D01*
X9609706Y-13179603D02*
X9600182Y-13217698D01*
X9600182Y-13217698D02*
X9600182Y-13293888D01*
X9600182Y-13293888D02*
X9609706Y-13312936D01*
X9609706Y-13312936D02*
X9619229Y-13322460D01*
X9619229Y-13322460D02*
X9638277Y-13331984D01*
X9638277Y-13331984D02*
X9676372Y-13331984D01*
X9676372Y-13331984D02*
X9695420Y-13322460D01*
X9695420Y-13322460D02*
X9704944Y-13312936D01*
X9704944Y-13312936D02*
X9714468Y-13293888D01*
X9714468Y-13293888D02*
X9714468Y-13246269D01*
X9714468Y-13246269D02*
X9704944Y-13227222D01*
X9704944Y-13227222D02*
X9695420Y-13217698D01*
X9695420Y-13217698D02*
X9676372Y-13208174D01*
X9676372Y-13208174D02*
X9638277Y-13208174D01*
X9638277Y-13208174D02*
X9619229Y-13217698D01*
X9619229Y-13217698D02*
X9609706Y-13227222D01*
X9609706Y-13227222D02*
X9600182Y-13246269D01*
X9838277Y-13131984D02*
X9857325Y-13131984D01*
X9857325Y-13131984D02*
X9876372Y-13141508D01*
X9876372Y-13141508D02*
X9885896Y-13151031D01*
X9885896Y-13151031D02*
X9895420Y-13170079D01*
X9895420Y-13170079D02*
X9904944Y-13208174D01*
X9904944Y-13208174D02*
X9904944Y-13255793D01*
X9904944Y-13255793D02*
X9895420Y-13293888D01*
X9895420Y-13293888D02*
X9885896Y-13312936D01*
X9885896Y-13312936D02*
X9876372Y-13322460D01*
X9876372Y-13322460D02*
X9857325Y-13331984D01*
X9857325Y-13331984D02*
X9838277Y-13331984D01*
X9838277Y-13331984D02*
X9819229Y-13322460D01*
X9819229Y-13322460D02*
X9809706Y-13312936D01*
X9809706Y-13312936D02*
X9800182Y-13293888D01*
X9800182Y-13293888D02*
X9790658Y-13255793D01*
X9790658Y-13255793D02*
X9790658Y-13208174D01*
X9790658Y-13208174D02*
X9800182Y-13170079D01*
X9800182Y-13170079D02*
X9809706Y-13151031D01*
X9809706Y-13151031D02*
X9819229Y-13141508D01*
X9819229Y-13141508D02*
X9838277Y-13131984D01*
X9981134Y-13131984D02*
X9981134Y-13170079D01*
X10057325Y-13131984D02*
X10057325Y-13170079D01*
X10352563Y-13408174D02*
X10343039Y-13398650D01*
X10343039Y-13398650D02*
X10323991Y-13370079D01*
X10323991Y-13370079D02*
X10314468Y-13351031D01*
X10314468Y-13351031D02*
X10304944Y-13322460D01*
X10304944Y-13322460D02*
X10295420Y-13274841D01*
X10295420Y-13274841D02*
X10295420Y-13236746D01*
X10295420Y-13236746D02*
X10304944Y-13189127D01*
X10304944Y-13189127D02*
X10314468Y-13160555D01*
X10314468Y-13160555D02*
X10323991Y-13141508D01*
X10323991Y-13141508D02*
X10343039Y-13112936D01*
X10343039Y-13112936D02*
X10352563Y-13103412D01*
X10514468Y-13198650D02*
X10514468Y-13331984D01*
X10466849Y-13122460D02*
X10419230Y-13265317D01*
X10419230Y-13265317D02*
X10543039Y-13265317D01*
X10771611Y-13331984D02*
X10771611Y-13131984D01*
X10857325Y-13331984D02*
X10857325Y-13227222D01*
X10857325Y-13227222D02*
X10847801Y-13208174D01*
X10847801Y-13208174D02*
X10828753Y-13198650D01*
X10828753Y-13198650D02*
X10800182Y-13198650D01*
X10800182Y-13198650D02*
X10781134Y-13208174D01*
X10781134Y-13208174D02*
X10771611Y-13217698D01*
X10981134Y-13331984D02*
X10962087Y-13322460D01*
X10962087Y-13322460D02*
X10952563Y-13312936D01*
X10952563Y-13312936D02*
X10943039Y-13293888D01*
X10943039Y-13293888D02*
X10943039Y-13236746D01*
X10943039Y-13236746D02*
X10952563Y-13217698D01*
X10952563Y-13217698D02*
X10962087Y-13208174D01*
X10962087Y-13208174D02*
X10981134Y-13198650D01*
X10981134Y-13198650D02*
X11009706Y-13198650D01*
X11009706Y-13198650D02*
X11028753Y-13208174D01*
X11028753Y-13208174D02*
X11038277Y-13217698D01*
X11038277Y-13217698D02*
X11047801Y-13236746D01*
X11047801Y-13236746D02*
X11047801Y-13293888D01*
X11047801Y-13293888D02*
X11038277Y-13312936D01*
X11038277Y-13312936D02*
X11028753Y-13322460D01*
X11028753Y-13322460D02*
X11009706Y-13331984D01*
X11009706Y-13331984D02*
X10981134Y-13331984D01*
X11162087Y-13331984D02*
X11143039Y-13322460D01*
X11143039Y-13322460D02*
X11133515Y-13303412D01*
X11133515Y-13303412D02*
X11133515Y-13131984D01*
X11314468Y-13322460D02*
X11295420Y-13331984D01*
X11295420Y-13331984D02*
X11257325Y-13331984D01*
X11257325Y-13331984D02*
X11238277Y-13322460D01*
X11238277Y-13322460D02*
X11228753Y-13303412D01*
X11228753Y-13303412D02*
X11228753Y-13227222D01*
X11228753Y-13227222D02*
X11238277Y-13208174D01*
X11238277Y-13208174D02*
X11257325Y-13198650D01*
X11257325Y-13198650D02*
X11295420Y-13198650D01*
X11295420Y-13198650D02*
X11314468Y-13208174D01*
X11314468Y-13208174D02*
X11323991Y-13227222D01*
X11323991Y-13227222D02*
X11323991Y-13246269D01*
X11323991Y-13246269D02*
X11228753Y-13265317D01*
X11400182Y-13322460D02*
X11419230Y-13331984D01*
X11419230Y-13331984D02*
X11457325Y-13331984D01*
X11457325Y-13331984D02*
X11476372Y-13322460D01*
X11476372Y-13322460D02*
X11485896Y-13303412D01*
X11485896Y-13303412D02*
X11485896Y-13293888D01*
X11485896Y-13293888D02*
X11476372Y-13274841D01*
X11476372Y-13274841D02*
X11457325Y-13265317D01*
X11457325Y-13265317D02*
X11428753Y-13265317D01*
X11428753Y-13265317D02*
X11409706Y-13255793D01*
X11409706Y-13255793D02*
X11400182Y-13236746D01*
X11400182Y-13236746D02*
X11400182Y-13227222D01*
X11400182Y-13227222D02*
X11409706Y-13208174D01*
X11409706Y-13208174D02*
X11428753Y-13198650D01*
X11428753Y-13198650D02*
X11457325Y-13198650D01*
X11457325Y-13198650D02*
X11476372Y-13208174D01*
X11552563Y-13408174D02*
X11562087Y-13398650D01*
X11562087Y-13398650D02*
X11581134Y-13370079D01*
X11581134Y-13370079D02*
X11590658Y-13351031D01*
X11590658Y-13351031D02*
X11600182Y-13322460D01*
X11600182Y-13322460D02*
X11609706Y-13274841D01*
X11609706Y-13274841D02*
X11609706Y-13236746D01*
X11609706Y-13236746D02*
X11600182Y-13189127D01*
X11600182Y-13189127D02*
X11590658Y-13160555D01*
X11590658Y-13160555D02*
X11581134Y-13141508D01*
X11581134Y-13141508D02*
X11562087Y-13112936D01*
X11562087Y-13112936D02*
X11552563Y-13103412D01*
M02*
