M48
; DRILL file {KiCad 8.0.5} date 2026-03-12T21:46:02+0100
; FORMAT={-:-/ absolute / inch / decimal}
; #@! TF.CreationDate,2026-03-12T21:46:02+01:00
; #@! TF.GenerationSoftware,Kicad,Pcbnew,8.0.5
; #@! TF.FileFunction,Plated,1,2,PTH
FMAT,2
INCH
; #@! TA.AperFunction,Plated,PTH,ViaDrill
T1C0.0118
; #@! TA.AperFunction,Plated,PTH,ComponentDrill
T2C0.0295
; #@! TA.AperFunction,Plated,PTH,ComponentDrill
T3C0.0394
; #@! TA.AperFunction,Plated,PTH,ComponentDrill
T4C0.1260
%
G90
G05
T1
X2.8543Y-3.7717
X2.8661Y-2.8976
X2.874Y-2.5197
X2.874Y-2.5472
X2.874Y-2.5748
X2.874Y-2.6024
X2.874Y-2.6299
X2.8819Y-3.2402
X2.8819Y-3.437
X2.8819Y-3.4646
X2.8819Y-3.4921
X2.8819Y-3.5197
X2.8819Y-3.5472
X2.9094Y-2.5197
X2.9094Y-2.5472
X2.9094Y-2.5748
X2.9094Y-2.6024
X2.9094Y-2.6299
X2.9173Y-3.437
X2.9173Y-3.4646
X2.9173Y-3.4921
X2.9173Y-3.5197
X2.9173Y-3.5472
X2.9409Y-2.5197
X2.9409Y-2.5472
X2.9409Y-2.5748
X2.9409Y-2.6024
X2.9409Y-2.6299
X2.9488Y-3.437
X2.9488Y-3.4646
X2.9488Y-3.4921
X2.9488Y-3.5197
X2.9488Y-3.5472
X2.9488Y-4.185
X2.9764Y-2.5197
X2.9764Y-2.5472
X2.9764Y-2.5748
X2.9764Y-2.6024
X2.9764Y-2.6299
X2.9843Y-3.437
X2.9843Y-3.4646
X2.9843Y-3.4921
X2.9843Y-3.5197
X2.9843Y-3.5472
X3.0118Y-2.5197
X3.0118Y-2.5472
X3.0118Y-2.5748
X3.0118Y-2.6024
X3.0118Y-2.6299
X3.0197Y-3.437
X3.0197Y-3.4646
X3.0197Y-3.4921
X3.0197Y-3.5197
X3.0197Y-3.5472
X3.0433Y-2.5197
X3.0433Y-2.5472
X3.0433Y-2.5748
X3.0433Y-2.6024
X3.0433Y-2.6299
X3.0512Y-3.437
X3.0512Y-3.4646
X3.0512Y-3.4921
X3.0512Y-3.5197
X3.0512Y-3.5472
X3.126Y-2.2244
X3.2283Y-3.878
X3.2579Y-3.8287
X3.2677Y-4.0787
X3.2756Y-2.1417
X3.3071Y-3.4154
X3.311Y-3.8504
X3.3661Y-2.1417
X3.3976Y-3.7087
X3.4094Y-3.1142
X3.4094Y-4.1457
X3.4094Y-4.1732
X3.4094Y-4.2008
X3.4213Y-3.4173
X3.4331Y-3.0945
X3.4409Y-4.1457
X3.4409Y-4.1732
X3.4409Y-4.2008
X3.4488Y-2.9016
X3.4724Y-4.1457
X3.4724Y-4.1732
X3.4724Y-4.2008
X3.4882Y-2.2795
X3.4961Y-2.2283
X3.4961Y-2.4646
X3.4961Y-3.6063
X3.5Y-2.1811
X3.5236Y-3.6299
X3.5354Y-2.9094
X3.5482Y-3.1841
X3.5512Y-3.6575
X3.5531Y-3.1398
X3.5591Y-3.0827
X3.5709Y-2.4764
X3.5748Y-4.5236
X3.5748Y-4.5512
X3.5748Y-4.5787
X3.5748Y-4.6063
X3.5748Y-4.6339
X3.5886Y-3.25
X3.6102Y-4.5236
X3.6102Y-4.5512
X3.6102Y-4.5787
X3.6102Y-4.6063
X3.6102Y-4.6339
X3.6142Y-3.8425
X3.6378Y-3.7362
X3.6417Y-3.3346
X3.6417Y-4.5236
X3.6417Y-4.5512
X3.6417Y-4.5787
X3.6417Y-4.6063
X3.6417Y-4.6339
X3.6654Y-3.8189
X3.6772Y-4.5236
X3.6772Y-4.5512
X3.6772Y-4.5787
X3.6772Y-4.6063
X3.6772Y-4.6339
X3.685Y-3.5866
X3.6929Y-3.2205
X3.7008Y-3.0079
X3.7126Y-3.0512
X3.7126Y-4.5236
X3.7126Y-4.5512
X3.7126Y-4.5787
X3.7126Y-4.6063
X3.7126Y-4.6339
X3.7165Y-3.7835
X3.7244Y-2.9803
X3.7244Y-3.4016
X3.7244Y-3.5315
X3.7323Y-3.1614
X3.7441Y-4.5236
X3.7441Y-4.5512
X3.7441Y-4.5787
X3.7441Y-4.6063
X3.7441Y-4.6339
X3.75Y-2.9272
X3.753Y-3.3803
X3.7874Y-2.9291
X3.7894Y-2.8957
X3.8091Y-2.752
X3.8189Y-3.3976
X3.8307Y-3.2402
X3.8386Y-2.6732
X3.8404Y-3.427
X3.8465Y-2.9016
X3.8504Y-3.5827
X3.8661Y-2.9449
X3.878Y-3.2402
X3.8858Y-3.1614
X3.8937Y-2.9173
X3.9134Y-3.6102
X3.9252Y-3.2402
X3.937Y-2.9094
X3.9488Y-4.1417
X3.9724Y-2.9961
X3.9724Y-3.2402
X3.9764Y-4.1417
X3.9803Y-2.6417
X3.9862Y-2.8937
X3.9882Y-2.4094
X4.0Y-2.7913
X4.0039Y-4.1417
X4.0118Y-3.0236
X4.0118Y-3.1969
X4.0472Y-2.7087
X4.0748Y-2.3386
X4.0945Y-2.8346
X4.0984Y-3.6142
X4.1063Y-2.689
X4.1102Y-2.3189
X4.1181Y-3.2638
X4.126Y-3.622
X4.1339Y-2.6535
X4.1378Y-2.5472
X4.1535Y-3.2913
X4.1535Y-4.1299
X4.1535Y-4.1575
X4.1535Y-4.185
X4.1535Y-4.2126
X4.1535Y-4.2402
X4.185Y-2.4882
X4.189Y-4.1299
X4.189Y-4.1575
X4.189Y-4.185
X4.189Y-4.2126
X4.189Y-4.2402
X4.1929Y-4.7441
X4.2165Y-2.4606
X4.2205Y-4.1299
X4.2205Y-4.1575
X4.2205Y-4.185
X4.2205Y-4.2126
X4.2205Y-4.2402
X4.2402Y-2.4331
X4.2677Y-2.4055
X4.2677Y-3.3228
X4.2819Y-3.374
X4.2953Y-2.374
X4.3268Y-3.3465
X4.3386Y-3.6181
X4.3858Y-3.6181
X4.4055Y-4.185
X4.4055Y-4.2165
X4.4213Y-4.7008
X4.4331Y-3.6181
X4.437Y-2.4961
X4.4409Y-4.185
X4.4409Y-4.2165
X4.4724Y-4.185
X4.4724Y-4.2165
X4.4961Y-3.8307
X4.5236Y-4.4803
X4.5512Y-3.6181
X4.5787Y-3.7717
X4.5787Y-3.8031
X4.5787Y-3.8307
X4.5866Y-2.626
X4.5906Y-3.9331
X4.5906Y-3.9606
X4.5906Y-3.9882
X4.5945Y-3.0709
X4.6063Y-4.1969
X4.6063Y-4.2244
X4.6063Y-4.252
X4.6181Y-3.1693
X4.6417Y-3.2402
X4.6452Y-3.6417
X4.6457Y-2.6299
X4.6457Y-3.0709
X4.6654Y-4.626
X4.6969Y-4.0748
X4.6969Y-4.1063
X4.6969Y-4.1378
X4.7047Y-3.6181
X4.7244Y-4.4646
X4.7283Y-4.4252
X4.7283Y-4.5079
X4.7283Y-4.5433
X4.7441Y-3.6575
X4.7559Y-4.6732
X4.7717Y-4.4252
X4.7717Y-4.4646
X4.7717Y-4.5118
X4.7795Y-4.5394
X4.8031Y-3.9724
X4.8031Y-4.0039
X4.8189Y-2.1575
X4.8268Y-2.5433
X4.8268Y-2.5984
X4.8268Y-4.2323
X4.8307Y-3.9724
X4.8307Y-4.0039
X4.8386Y-4.5866
X4.8425Y-4.6457
X4.8465Y-2.6575
X4.8622Y-3.6575
X4.8622Y-4.2323
X4.8701Y-2.9685
X4.9134Y-2.6732
X4.9488Y-3.7717
X4.9606Y-2.8543
X4.9843Y-3.6339
X5.0079Y-2.9252
X5.0315Y-3.748
X5.0709Y-3.7008
X5.0984Y-3.6693
X5.0984Y-3.9961
X5.1378Y-3.0591
X5.1378Y-3.5276
X5.1417Y-2.6654
X5.1417Y-2.6929
X5.1417Y-2.7205
X5.1417Y-2.748
X5.1417Y-2.7756
X5.1417Y-3.311
X5.1417Y-4.0354
X5.1417Y-4.063
X5.1417Y-4.0906
X5.1417Y-4.1181
X5.1417Y-4.1457
X5.1457Y-3.122
X5.1496Y-3.4173
X5.1772Y-2.6654
X5.1772Y-2.6929
X5.1772Y-2.7205
X5.1772Y-2.748
X5.1772Y-2.7756
X5.1772Y-4.0354
X5.1772Y-4.063
X5.1772Y-4.0906
X5.1772Y-4.1181
X5.1772Y-4.1457
X5.2087Y-2.6654
X5.2087Y-2.6929
X5.2087Y-2.7205
X5.2087Y-2.748
X5.2087Y-2.7756
X5.2087Y-4.0354
X5.2087Y-4.063
X5.2087Y-4.0906
X5.2087Y-4.1181
X5.2087Y-4.1457
X5.2441Y-2.6654
X5.2441Y-2.6929
X5.2441Y-2.7205
X5.2441Y-2.748
X5.2441Y-2.7756
X5.2441Y-4.0354
X5.2441Y-4.063
X5.2441Y-4.0906
X5.2441Y-4.1181
X5.2441Y-4.1457
X5.2795Y-2.6654
X5.2795Y-2.6929
X5.2795Y-2.7205
X5.2795Y-2.748
X5.2795Y-2.7756
X5.2795Y-3.1575
X5.2795Y-3.3268
X5.2795Y-4.0354
X5.2795Y-4.063
X5.2795Y-4.0906
X5.2795Y-4.1181
X5.2795Y-4.1457
X5.2874Y-3.4921
X5.311Y-2.6654
X5.311Y-2.6929
X5.311Y-2.7205
X5.311Y-2.748
X5.311Y-2.7756
X5.311Y-4.0354
X5.311Y-4.063
X5.311Y-4.0906
X5.311Y-4.1181
X5.311Y-4.1457
T2
X4.252Y-4.4866
X4.252Y-4.5366
X4.252Y-4.5866
X4.4035Y-4.4933
X4.4035Y-4.5433
X4.4035Y-4.5933
T3
X3.1299Y-2.8823
X3.1299Y-2.9823
X3.1299Y-3.0823
X3.1299Y-3.1823
X3.2244Y-2.2402
X3.2244Y-2.4961
X3.4016Y-2.2402
X3.4016Y-2.4961
X3.5433Y-2.5984
X3.5433Y-2.6984
X3.5433Y-2.7984
X3.5894Y-2.2461
X3.5906Y-2.3937
X3.6894Y-2.2461
X3.7528Y-3.6969
X3.7894Y-2.2461
X3.8484Y-4.7116
X3.8528Y-3.6969
X3.8894Y-2.2461
X3.9484Y-4.7116
X3.9528Y-3.6969
X3.9894Y-2.2461
X4.0894Y-2.2461
X4.1894Y-2.2461
X4.1953Y-3.5512
X4.198Y-3.7697
X4.2618Y-2.6528
X4.2618Y-2.7528
X4.2618Y-2.8528
X4.2618Y-2.9528
X4.2953Y-3.5512
X4.298Y-3.7697
X4.3846Y-2.25
X4.3953Y-3.5512
X4.398Y-3.7697
X4.4094Y-2.9719
X4.4094Y-3.0719
X4.4846Y-2.25
X4.4953Y-3.5512
X4.498Y-3.7697
X4.5846Y-2.25
X4.6846Y-2.25
X4.8157Y-3.2669
X4.8157Y-3.3669
X4.8157Y-3.4669
X4.8157Y-3.5669
X4.9157Y-3.2669
X4.9157Y-3.3669
X4.9157Y-3.4669
X4.9157Y-3.5669
X4.9724Y-2.2567
X4.9724Y-2.3567
X4.9724Y-2.4567
X4.9724Y-2.5567
X5.0157Y-3.2669
X5.0157Y-3.3669
X5.0157Y-3.4669
X5.0157Y-3.5669
X5.1929Y-4.3346
X5.1929Y-4.4346
T4
X2.874Y-4.6969
X2.8858Y-2.2244
X5.1969Y-4.6969
X5.2087Y-2.2244
M30
