%TF.GenerationSoftware,KiCad,Pcbnew,8.0.5*%
%TF.CreationDate,2025-07-26T22:53:34+02:00*%
%TF.ProjectId,kontroler_lotu,6b6f6e74-726f-46c6-9572-5f6c6f74752e,rev?*%
%TF.SameCoordinates,Original*%
%TF.FileFunction,Soldermask,Bot*%
%TF.FilePolarity,Negative*%
%FSLAX46Y46*%
G04 Gerber Fmt 4.6, Leading zero omitted, Abs format (unit mm)*
G04 Created by KiCad (PCBNEW 8.0.5) date 2025-07-26 22:53:34*
%MOMM*%
%LPD*%
G01*
G04 APERTURE LIST*
%ADD10R,1.700000X1.700000*%
%ADD11O,1.700000X1.700000*%
%ADD12C,6.400000*%
%ADD13C,0.900000*%
%ADD14R,1.500000X1.500000*%
%ADD15C,1.500000*%
G04 APERTURE END LIST*
D10*
%TO.C,J12*%
X115960000Y-78000000D03*
D11*
X118500000Y-78000000D03*
X121040000Y-78000000D03*
X123580000Y-78000000D03*
X126120000Y-78000000D03*
%TD*%
D10*
%TO.C,J17*%
X79500000Y-73210000D03*
D11*
X79500000Y-75750000D03*
X79500000Y-78290000D03*
X79500000Y-80830000D03*
%TD*%
D10*
%TO.C,J15*%
X106560000Y-90200000D03*
D11*
X109100000Y-90200000D03*
X111640000Y-90200000D03*
X114180000Y-90200000D03*
%TD*%
D10*
%TO.C,J1*%
X125450000Y-113725000D03*
D11*
X122910000Y-113725000D03*
%TD*%
D10*
%TO.C,J8*%
X106410000Y-57050000D03*
D11*
X103870000Y-57050000D03*
X101330000Y-57050000D03*
X98790000Y-57050000D03*
X96250000Y-57050000D03*
X93710000Y-57050000D03*
X91170000Y-57050000D03*
%TD*%
D10*
%TO.C,J5*%
X122320000Y-90600000D03*
D11*
X122320000Y-88060000D03*
X122320000Y-85520000D03*
X122320000Y-82980000D03*
%TD*%
D10*
%TO.C,J6*%
X118990000Y-57150000D03*
D11*
X116450000Y-57150000D03*
X113910000Y-57150000D03*
X111370000Y-57150000D03*
%TD*%
D12*
%TO.C,H4*%
X132300000Y-115200000D03*
%TD*%
D10*
%TO.C,J11*%
X126300000Y-64940000D03*
D11*
X126300000Y-62400000D03*
X126300000Y-59860000D03*
X126300000Y-57320000D03*
%TD*%
D12*
%TO.C,H1*%
X73300000Y-56500000D03*
%TD*%
D13*
%TO.C,J14*%
X81200000Y-114400000D03*
X85600000Y-114400000D03*
%TD*%
D10*
%TO.C,J3*%
X127400000Y-90600000D03*
D11*
X127400000Y-88060000D03*
X127400000Y-85520000D03*
X127400000Y-82980000D03*
%TD*%
D12*
%TO.C,H3*%
X132300000Y-56500000D03*
%TD*%
D10*
%TO.C,J9*%
X112000000Y-78025000D03*
D11*
X112000000Y-75485000D03*
%TD*%
D10*
%TO.C,J2*%
X108250000Y-75000000D03*
D11*
X108250000Y-72460000D03*
X108250000Y-69920000D03*
X108250000Y-67380000D03*
%TD*%
D14*
%TO.C,S1*%
X86400000Y-56900000D03*
D15*
X86400000Y-63400000D03*
X81900000Y-56900000D03*
X81900000Y-63400000D03*
%TD*%
D10*
%TO.C,J18*%
X91200000Y-60800000D03*
%TD*%
%TO.C,J7*%
X114250000Y-95750000D03*
D11*
X111710000Y-95750000D03*
X109170000Y-95750000D03*
X106630000Y-95750000D03*
%TD*%
D10*
%TO.C,J4*%
X124860000Y-90600000D03*
D11*
X124860000Y-88060000D03*
X124860000Y-85520000D03*
X124860000Y-82980000D03*
%TD*%
D10*
%TO.C,J10*%
X90000000Y-66000000D03*
D11*
X90000000Y-68540000D03*
X90000000Y-71080000D03*
%TD*%
D12*
%TO.C,H2*%
X73300000Y-115200000D03*
%TD*%
D10*
%TO.C,J13*%
X115960000Y-70380000D03*
D11*
X118500000Y-70380000D03*
X121040000Y-70380000D03*
X123580000Y-70380000D03*
X126120000Y-70380000D03*
%TD*%
D10*
%TO.C,J16*%
X100400000Y-93900000D03*
D11*
X97860000Y-93900000D03*
X95320000Y-93900000D03*
%TD*%
M02*
