%TF.GenerationSoftware,KiCad,Pcbnew,8.0.5*%
%TF.CreationDate,2026-03-12T21:46:18+01:00*%
%TF.ProjectId,kontroler_lotu,6b6f6e74-726f-46c6-9572-5f6c6f74752e,rev?*%
%TF.SameCoordinates,Original*%
%TF.FileFunction,Legend,Bot*%
%TF.FilePolarity,Positive*%
%FSLAX46Y46*%
G04 Gerber Fmt 4.6, Leading zero omitted, Abs format (unit mm)*
G04 Created by KiCad (PCBNEW 8.0.5) date 2026-03-12 21:46:18*
%MOMM*%
%LPD*%
G01*
G04 APERTURE LIST*
%ADD10C,0.150000*%
%ADD11C,0.120000*%
G04 APERTURE END LIST*
D10*
X94967857Y-86324819D02*
X95301190Y-85848628D01*
X95539285Y-86324819D02*
X95539285Y-85324819D01*
X95539285Y-85324819D02*
X95158333Y-85324819D01*
X95158333Y-85324819D02*
X95063095Y-85372438D01*
X95063095Y-85372438D02*
X95015476Y-85420057D01*
X95015476Y-85420057D02*
X94967857Y-85515295D01*
X94967857Y-85515295D02*
X94967857Y-85658152D01*
X94967857Y-85658152D02*
X95015476Y-85753390D01*
X95015476Y-85753390D02*
X95063095Y-85801009D01*
X95063095Y-85801009D02*
X95158333Y-85848628D01*
X95158333Y-85848628D02*
X95539285Y-85848628D01*
X94015476Y-86324819D02*
X94586904Y-86324819D01*
X94301190Y-86324819D02*
X94301190Y-85324819D01*
X94301190Y-85324819D02*
X94396428Y-85467676D01*
X94396428Y-85467676D02*
X94491666Y-85562914D01*
X94491666Y-85562914D02*
X94586904Y-85610533D01*
X93682142Y-85324819D02*
X93015476Y-85324819D01*
X93015476Y-85324819D02*
X93444047Y-86324819D01*
D11*
%TO.C,R17*%
X94087742Y-86777500D02*
X94562258Y-86777500D01*
X94087742Y-87822500D02*
X94562258Y-87822500D01*
%TD*%
M02*
