%TF.GenerationSoftware,KiCad,Pcbnew,8.0.5*%
%TF.CreationDate,2026-03-12T21:46:17+01:00*%
%TF.ProjectId,kontroler_lotu,6b6f6e74-726f-46c6-9572-5f6c6f74752e,rev?*%
%TF.SameCoordinates,Original*%
%TF.FileFunction,Copper,L2,Bot*%
%TF.FilePolarity,Positive*%
%FSLAX46Y46*%
G04 Gerber Fmt 4.6, Leading zero omitted, Abs format (unit mm)*
G04 Created by KiCad (PCBNEW 8.0.5) date 2026-03-12 21:46:17*
%MOMM*%
%LPD*%
G01*
G04 APERTURE LIST*
G04 Aperture macros list*
%AMRoundRect*
0 Rectangle with rounded corners*
0 $1 Rounding radius*
0 $2 $3 $4 $5 $6 $7 $8 $9 X,Y pos of 4 corners*
0 Add a 4 corners polygon primitive as box body*
4,1,4,$2,$3,$4,$5,$6,$7,$8,$9,$2,$3,0*
0 Add four circle primitives for the rounded corners*
1,1,$1+$1,$2,$3*
1,1,$1+$1,$4,$5*
1,1,$1+$1,$6,$7*
1,1,$1+$1,$8,$9*
0 Add four rect primitives between the rounded corners*
20,1,$1+$1,$2,$3,$4,$5,0*
20,1,$1+$1,$4,$5,$6,$7,0*
20,1,$1+$1,$6,$7,$8,$9,0*
20,1,$1+$1,$8,$9,$2,$3,0*%
G04 Aperture macros list end*
%TA.AperFunction,ComponentPad*%
%ADD10R,1.700000X1.700000*%
%TD*%
%TA.AperFunction,ComponentPad*%
%ADD11O,1.700000X1.700000*%
%TD*%
%TA.AperFunction,ComponentPad*%
%ADD12R,1.500000X1.050000*%
%TD*%
%TA.AperFunction,ComponentPad*%
%ADD13O,1.500000X1.050000*%
%TD*%
%TA.AperFunction,ComponentPad*%
%ADD14C,6.400000*%
%TD*%
%TA.AperFunction,ComponentPad*%
%ADD15R,1.500000X1.500000*%
%TD*%
%TA.AperFunction,ComponentPad*%
%ADD16C,1.500000*%
%TD*%
%TA.AperFunction,SMDPad,CuDef*%
%ADD17RoundRect,0.200000X0.200000X0.275000X-0.200000X0.275000X-0.200000X-0.275000X0.200000X-0.275000X0*%
%TD*%
%TA.AperFunction,ViaPad*%
%ADD18C,0.600000*%
%TD*%
%TA.AperFunction,Conductor*%
%ADD19C,0.200000*%
%TD*%
%TA.AperFunction,Conductor*%
%ADD20C,0.400000*%
%TD*%
%TA.AperFunction,Conductor*%
%ADD21C,0.600000*%
%TD*%
%TA.AperFunction,Conductor*%
%ADD22C,0.300000*%
%TD*%
G04 APERTURE END LIST*
D10*
%TO.P,J17,1,Pin_1*%
%TO.N,/STM32/PC13*%
X79500000Y-73210000D03*
D11*
%TO.P,J17,2,Pin_2*%
%TO.N,/STM32/PC14*%
X79500000Y-75750000D03*
%TO.P,J17,3,Pin_3*%
%TO.N,/STM32/PC15*%
X79500000Y-78290000D03*
%TO.P,J17,4,Pin_4*%
%TO.N,/STM32/PC0*%
X79500000Y-80830000D03*
%TD*%
D12*
%TO.P,Q3,1,C*%
%TO.N,Net-(Q1-G)*%
X111850000Y-114130000D03*
D13*
%TO.P,Q3,2,B*%
%TO.N,Net-(Q2-B)*%
X111850000Y-115400000D03*
%TO.P,Q3,3,E*%
%TO.N,Net-(Q1-S)*%
X111850000Y-116670000D03*
%TD*%
D10*
%TO.P,J15,1,Pin_1*%
%TO.N,/STM32/PB15*%
X106560000Y-90200000D03*
D11*
%TO.P,J15,2,Pin_2*%
%TO.N,/STM32/PA8*%
X109100000Y-90200000D03*
%TO.P,J15,3,Pin_3*%
%TO.N,/STM32/PA11*%
X111640000Y-90200000D03*
%TO.P,J15,4,Pin_4*%
%TO.N,/STM32/PA12*%
X114180000Y-90200000D03*
%TD*%
D10*
%TO.P,J8,1,Pin_1*%
%TO.N,/STM32/PC10*%
X106410000Y-57050000D03*
D11*
%TO.P,J8,2,Pin_2*%
%TO.N,/STM32/PC11*%
X103870000Y-57050000D03*
%TO.P,J8,3,Pin_3*%
%TO.N,/STM32/PB3*%
X101330000Y-57050000D03*
%TO.P,J8,4,Pin_4*%
%TO.N,/STM32/PB4*%
X98790000Y-57050000D03*
%TO.P,J8,5,Pin_5*%
%TO.N,/STM32/PB5*%
X96250000Y-57050000D03*
%TO.P,J8,6,Pin_6*%
%TO.N,/STM32/PB8*%
X93710000Y-57050000D03*
%TO.P,J8,7,Pin_7*%
%TO.N,/STM32/PB9*%
X91170000Y-57050000D03*
%TD*%
D10*
%TO.P,J5,1,Pin_1*%
%TO.N,/STM32/motor1*%
X122320000Y-90600000D03*
D11*
%TO.P,J5,2,Pin_2*%
%TO.N,/STM32/motor2*%
X122320000Y-88060000D03*
%TO.P,J5,3,Pin_3*%
%TO.N,/STM32/motor3*%
X122320000Y-85520000D03*
%TO.P,J5,4,Pin_4*%
%TO.N,/STM32/motor4*%
X122320000Y-82980000D03*
%TD*%
D10*
%TO.P,J6,1,Pin_1*%
%TO.N,GND*%
X118990000Y-57150000D03*
D11*
%TO.P,J6,2,Pin_2*%
%TO.N,Net-(J6-Pin_2)*%
X116450000Y-57150000D03*
%TO.P,J6,3,Pin_3*%
%TO.N,Net-(J6-Pin_3)*%
X113910000Y-57150000D03*
%TO.P,J6,4,Pin_4*%
%TO.N,/+5v_supply*%
X111370000Y-57150000D03*
%TD*%
D14*
%TO.P,H4,1*%
%TO.N,N/C*%
X132000000Y-119300000D03*
%TD*%
D10*
%TO.P,J1,1,Pin_1*%
%TO.N,GND*%
X97750000Y-119675000D03*
D11*
%TO.P,J1,2,Pin_2*%
%TO.N,Net-(D5-K)*%
X100290000Y-119675000D03*
%TD*%
D10*
%TO.P,J11,1,Pin_1*%
%TO.N,GND*%
X126300000Y-64940000D03*
D11*
%TO.P,J11,2,Pin_2*%
%TO.N,/STM32/uart5_tx*%
X126300000Y-62400000D03*
%TO.P,J11,3,Pin_3*%
%TO.N,/STM32/uart5_rx*%
X126300000Y-59860000D03*
%TO.P,J11,4,Pin_4*%
%TO.N,/FRAM/3\u002C3V_fram*%
X126300000Y-57320000D03*
%TD*%
D14*
%TO.P,H1,1*%
%TO.N,N/C*%
X73300000Y-56500000D03*
%TD*%
D10*
%TO.P,J3,1,Pin_1*%
%TO.N,GND*%
X127400000Y-90600000D03*
D11*
%TO.P,J3,2,Pin_2*%
X127400000Y-88060000D03*
%TO.P,J3,3,Pin_3*%
X127400000Y-85520000D03*
%TO.P,J3,4,Pin_4*%
X127400000Y-82980000D03*
%TD*%
D14*
%TO.P,H3,1*%
%TO.N,N/C*%
X132300000Y-56500000D03*
%TD*%
D10*
%TO.P,J9,1,Pin_1*%
%TO.N,/STM32/USART1_TX*%
X112000000Y-78025000D03*
D11*
%TO.P,J9,2,Pin_2*%
%TO.N,/STM32/USART1_RX*%
X112000000Y-75485000D03*
%TD*%
D10*
%TO.P,J2,1,Pin_1*%
%TO.N,/STM32/SWDIO*%
X108250000Y-75000000D03*
D11*
%TO.P,J2,2,Pin_2*%
%TO.N,/STM32/SWCLK*%
X108250000Y-72460000D03*
%TO.P,J2,3,Pin_3*%
%TO.N,/IMU/3\u002C3V_imu*%
X108250000Y-69920000D03*
%TO.P,J2,4,Pin_4*%
%TO.N,GND*%
X108250000Y-67380000D03*
%TD*%
D15*
%TO.P,S1,1,NO_1*%
%TO.N,unconnected-(S1-NO_1-Pad1)*%
X86400000Y-56900000D03*
D16*
%TO.P,S1,2,NO_2*%
%TO.N,Net-(J18-Pin_1)*%
X86400000Y-63400000D03*
%TO.P,S1,3,COM_1*%
%TO.N,GND*%
X81900000Y-56900000D03*
%TO.P,S1,4,COM_2*%
%TO.N,unconnected-(S1-COM_2-Pad4)*%
X81900000Y-63400000D03*
%TD*%
D10*
%TO.P,J18,1,Pin_1*%
%TO.N,Net-(J18-Pin_1)*%
X91200000Y-60800000D03*
%TD*%
%TO.P,J7,1,Pin_1*%
%TO.N,GND*%
X114250000Y-95750000D03*
D11*
%TO.P,J7,2,Pin_2*%
%TO.N,/STM32/sda_outlet*%
X111710000Y-95750000D03*
%TO.P,J7,3,Pin_3*%
%TO.N,/STM32/scl_outlet*%
X109170000Y-95750000D03*
%TO.P,J7,4,Pin_4*%
%TO.N,/FRAM/3\u002C3V_fram*%
X106630000Y-95750000D03*
%TD*%
D10*
%TO.P,J4,1,Pin_1*%
%TO.N,/+5v_supply*%
X124860000Y-90600000D03*
D11*
%TO.P,J4,2,Pin_2*%
X124860000Y-88060000D03*
%TO.P,J4,3,Pin_3*%
X124860000Y-85520000D03*
%TO.P,J4,4,Pin_4*%
X124860000Y-82980000D03*
%TD*%
D10*
%TO.P,J10,1,Pin_1*%
%TO.N,GND*%
X90000000Y-66000000D03*
D11*
%TO.P,J10,2,Pin_2*%
%TO.N,/STM32/BOOT0*%
X90000000Y-68540000D03*
%TO.P,J10,3,Pin_3*%
%TO.N,/IMU/3\u002C3V_imu*%
X90000000Y-71080000D03*
%TD*%
D14*
%TO.P,H2,1*%
%TO.N,N/C*%
X73000000Y-119300000D03*
%TD*%
D10*
%TO.P,J16,1,Pin_1*%
%TO.N,/STM32/PC4*%
X100400000Y-93900000D03*
D11*
%TO.P,J16,2,Pin_2*%
%TO.N,/STM32/PB1*%
X97860000Y-93900000D03*
%TO.P,J16,3,Pin_3*%
%TO.N,/STM32/PB2*%
X95320000Y-93900000D03*
%TD*%
D12*
%TO.P,Q2,1,C*%
%TO.N,Net-(Q2-B)*%
X108000000Y-116500000D03*
D13*
%TO.P,Q2,2,B*%
X108000000Y-115230000D03*
%TO.P,Q2,3,E*%
%TO.N,Net-(D5-K)*%
X108000000Y-113960000D03*
%TD*%
D10*
%TO.P,J12,1,Pin_1*%
%TO.N,GND*%
X131900000Y-110100000D03*
D11*
%TO.P,J12,2,Pin_2*%
%TO.N,/+5v_supply*%
X131900000Y-112640000D03*
%TD*%
D17*
%TO.P,R17,1*%
%TO.N,/IMU/CS_imu*%
X95150000Y-87300000D03*
%TO.P,R17,2*%
%TO.N,/IMU/3\u002C3V_imu*%
X93500000Y-87300000D03*
%TD*%
D18*
%TO.N,GND*%
X79400000Y-56500000D03*
X76500000Y-65400000D03*
X75800000Y-88700000D03*
X112800000Y-107100000D03*
X134100000Y-69800000D03*
X75800000Y-88000000D03*
X92500000Y-115600000D03*
X113600000Y-107100000D03*
X74100000Y-87300000D03*
X116300000Y-95800000D03*
X72500000Y-95800000D03*
X92400000Y-94900000D03*
X74100000Y-89400000D03*
X132300000Y-104600000D03*
X77500000Y-87300000D03*
X121200000Y-112400000D03*
X107200000Y-106300000D03*
X87400000Y-106700000D03*
X116600000Y-101300000D03*
X120000000Y-113400000D03*
X90800000Y-117700000D03*
X75800000Y-90100000D03*
X133200000Y-69100000D03*
X87400000Y-106000000D03*
X111900000Y-107100000D03*
X75800000Y-87300000D03*
X111400000Y-91900000D03*
X133200000Y-105300000D03*
X88200000Y-106700000D03*
X134900000Y-105300000D03*
X123500000Y-107500000D03*
X131500000Y-69800000D03*
X105500000Y-107000000D03*
X106400000Y-104900000D03*
X131500000Y-102500000D03*
X86900000Y-86800000D03*
X101000000Y-105200000D03*
X130600000Y-103200000D03*
X122600000Y-64600000D03*
X98700000Y-80300000D03*
X109100000Y-60300000D03*
X130600000Y-68400000D03*
X125700000Y-95800000D03*
X117000000Y-107300000D03*
X130800000Y-86800000D03*
X95100000Y-117000000D03*
X133200000Y-103200000D03*
X134900000Y-69100000D03*
X74700000Y-64000000D03*
X132300000Y-69100000D03*
X133200000Y-102500000D03*
X121200000Y-113400000D03*
X134900000Y-104600000D03*
X92500000Y-117700000D03*
X77500000Y-88000000D03*
X106400000Y-105600000D03*
X94300000Y-116300000D03*
X134100000Y-70500000D03*
X76500000Y-64000000D03*
X134100000Y-103900000D03*
X75800000Y-89400000D03*
X73000000Y-66100000D03*
X105500000Y-107700000D03*
X75600000Y-66800000D03*
X73200000Y-89400000D03*
X73900000Y-64000000D03*
X105500000Y-106300000D03*
X128800000Y-94000000D03*
X132300000Y-105300000D03*
X116300000Y-97300000D03*
X73200000Y-82300000D03*
X107200000Y-105600000D03*
X134100000Y-104600000D03*
X74700000Y-65400000D03*
X133200000Y-69800000D03*
X74900000Y-90100000D03*
X73200000Y-87300000D03*
X73000000Y-64700000D03*
X88800000Y-91600000D03*
X106400000Y-107700000D03*
X73000000Y-65400000D03*
X91700000Y-115600000D03*
X134900000Y-70500000D03*
X105500000Y-104900000D03*
X76500000Y-66800000D03*
X116600000Y-99900000D03*
X134100000Y-68400000D03*
X104800000Y-92000000D03*
X134100000Y-102500000D03*
X134900000Y-103900000D03*
X77300000Y-65400000D03*
X91700000Y-117700000D03*
X103500000Y-59400000D03*
X93400000Y-116300000D03*
X74100000Y-90100000D03*
X126000000Y-72500000D03*
X129500000Y-93200000D03*
X104300000Y-68300000D03*
X108400000Y-61100000D03*
X134900000Y-69800000D03*
X90800000Y-114900000D03*
X132300000Y-103200000D03*
X101700000Y-105200000D03*
X83200000Y-54400000D03*
X106300000Y-63200000D03*
X94300000Y-115600000D03*
X94300000Y-117000000D03*
X122700000Y-100900000D03*
X122000000Y-100900000D03*
X134900000Y-102500000D03*
X132300000Y-69800000D03*
X74900000Y-88000000D03*
X94800000Y-80300000D03*
X120800000Y-118700000D03*
X77300000Y-66100000D03*
X74900000Y-106300000D03*
X124800000Y-67900000D03*
X86600000Y-106000000D03*
X101300000Y-61200000D03*
X119500000Y-91900000D03*
X74900000Y-88700000D03*
X104400000Y-58900000D03*
X123100000Y-67500000D03*
X91700000Y-114900000D03*
X93400000Y-114900000D03*
X76700000Y-88700000D03*
X104100000Y-91800000D03*
X117000000Y-108000000D03*
X130700000Y-79300000D03*
X107200000Y-107000000D03*
X120100000Y-114500000D03*
X133200000Y-67700000D03*
X77300000Y-64700000D03*
X73900000Y-65400000D03*
X77500000Y-89400000D03*
X85500000Y-54400000D03*
X117000000Y-106600000D03*
X106400000Y-106300000D03*
X74700000Y-66100000D03*
X100900000Y-82300000D03*
X75600000Y-65400000D03*
X93400000Y-115600000D03*
X88800000Y-56600000D03*
X107200000Y-107700000D03*
X74100000Y-88700000D03*
X119300000Y-103500000D03*
X86300000Y-94200000D03*
X73200000Y-90100000D03*
X73200000Y-88000000D03*
X114900000Y-113800000D03*
X134900000Y-68400000D03*
X88200000Y-105300000D03*
X77300000Y-64000000D03*
X74700000Y-66800000D03*
X130600000Y-103900000D03*
X90800000Y-117000000D03*
X73000000Y-64000000D03*
X76700000Y-88000000D03*
X122000000Y-101700000D03*
X116600000Y-100600000D03*
X130600000Y-105300000D03*
X76700000Y-87300000D03*
X90800000Y-115600000D03*
X92500000Y-114900000D03*
X86600000Y-106700000D03*
X74100000Y-88000000D03*
X122900000Y-116500000D03*
X134100000Y-80200000D03*
X113600000Y-106300000D03*
X132300000Y-103900000D03*
X73000000Y-66800000D03*
X107700000Y-61800000D03*
X89500000Y-92200000D03*
X86600000Y-79100000D03*
X134900000Y-67700000D03*
X77500000Y-88700000D03*
X87400000Y-105300000D03*
X73900000Y-66100000D03*
X112800000Y-106300000D03*
X131500000Y-104600000D03*
X93400000Y-117000000D03*
X94300000Y-114900000D03*
X74700000Y-64700000D03*
X101100000Y-67100000D03*
X91700000Y-117000000D03*
X100300000Y-105200000D03*
X88900000Y-55400000D03*
X123500000Y-92900000D03*
X77300000Y-66800000D03*
X95100000Y-116300000D03*
X73900000Y-66800000D03*
X134100000Y-69100000D03*
X131500000Y-70500000D03*
X94300000Y-117700000D03*
X130600000Y-69100000D03*
X123000000Y-118000000D03*
X105500000Y-105600000D03*
X130600000Y-69800000D03*
X120500000Y-92900000D03*
X120100000Y-115400000D03*
X134100000Y-67700000D03*
X83000000Y-103600000D03*
X116300000Y-96600000D03*
X132300000Y-68400000D03*
X88600000Y-57900000D03*
X120100000Y-112400000D03*
X110200000Y-91900000D03*
X93400000Y-117700000D03*
X88800000Y-62600000D03*
X75600000Y-64000000D03*
X92500000Y-116300000D03*
X118500000Y-117500000D03*
X134100000Y-105300000D03*
X75600000Y-66100000D03*
X106500000Y-120500000D03*
X87200000Y-78600000D03*
X90800000Y-116300000D03*
X114200000Y-97300000D03*
X90700000Y-62900000D03*
X95100000Y-114900000D03*
X104600000Y-82900000D03*
X126600000Y-92300000D03*
X122600000Y-66000000D03*
X91700000Y-116300000D03*
X119300000Y-104300000D03*
X133200000Y-70500000D03*
X131500000Y-103900000D03*
X88200000Y-106000000D03*
X131500000Y-68400000D03*
X76700000Y-89400000D03*
X77500000Y-90100000D03*
X72800000Y-73600000D03*
X95100000Y-117700000D03*
X92500000Y-117000000D03*
X107200000Y-104900000D03*
X75600000Y-64700000D03*
X131500000Y-103200000D03*
X112600000Y-91900000D03*
X91150000Y-82550000D03*
X133200000Y-68400000D03*
X132300000Y-102500000D03*
X122600000Y-107500000D03*
X95100000Y-115600000D03*
X130600000Y-70500000D03*
X130500000Y-89600000D03*
X133200000Y-104600000D03*
X121400000Y-115300000D03*
X133200000Y-103900000D03*
X134300000Y-88700000D03*
X130600000Y-84100000D03*
X86600000Y-105300000D03*
X105100000Y-64700000D03*
X134900000Y-103200000D03*
X121200000Y-114600000D03*
X130600000Y-104600000D03*
X134100000Y-84500000D03*
X76500000Y-64700000D03*
X84100000Y-97800000D03*
X132300000Y-67700000D03*
X73900000Y-64700000D03*
X130500000Y-77700000D03*
X134100000Y-103200000D03*
X132300000Y-70500000D03*
X111900000Y-106300000D03*
X119300000Y-105100000D03*
X106400000Y-107000000D03*
X76700000Y-90100000D03*
X130600000Y-67700000D03*
X76500000Y-66100000D03*
X130600000Y-102500000D03*
X122400000Y-54800000D03*
X131500000Y-69100000D03*
X73200000Y-88700000D03*
X131500000Y-67700000D03*
X74900000Y-89400000D03*
X107100000Y-62500000D03*
X122700000Y-101700000D03*
X131500000Y-105300000D03*
X74900000Y-87300000D03*
X115600000Y-91900000D03*
X90200000Y-92900000D03*
%TO.N,/IMU/3\u002C3V_imu*%
X117987500Y-92500000D03*
X104000000Y-72000000D03*
X127200000Y-74300000D03*
X102800000Y-68800000D03*
X99400000Y-91700000D03*
X123700000Y-75400000D03*
X93600000Y-91100000D03*
%TO.N,/+5v_supply*%
X112700000Y-63400000D03*
X127800000Y-95200000D03*
X129500000Y-101500000D03*
%TO.N,Net-(U1-VCAP_1)*%
X117300000Y-80500000D03*
X105500000Y-83600000D03*
%TO.N,/STM32/LED_R*%
X93100000Y-97000000D03*
X90250000Y-79750000D03*
%TO.N,/STM32/LED_G*%
X94400000Y-96100000D03*
X90125000Y-80875000D03*
%TO.N,/STM32/LED_B*%
X91800000Y-97600000D03*
X90400000Y-78300000D03*
%TO.N,/IMU/SCK_imu*%
X97000000Y-86300000D03*
X95325228Y-85859087D03*
%TO.N,/IMU/int1_imu*%
X108400000Y-84400000D03*
X94600000Y-89700000D03*
%TO.N,/IMU/CS_imu*%
X97545064Y-87045064D03*
X94600000Y-86400000D03*
%TO.N,/IMU/int2_imu*%
X97800000Y-91000000D03*
X108760000Y-85700000D03*
%TO.N,/FRAM/SDA_fram*%
X96750000Y-69900000D03*
X97500000Y-67900000D03*
%TO.N,/STM32/PB5*%
X97700000Y-73700000D03*
%TO.N,/STM32/PC10*%
X101600000Y-70900000D03*
%TO.N,/STM32/PC11*%
X100000000Y-73900000D03*
%TO.N,/STM32/PB9*%
X95250000Y-74350000D03*
%TO.N,/STM32/PB8*%
X96200000Y-74400000D03*
%TO.N,/STM32/PB3*%
X98900000Y-74100000D03*
%TO.N,/STM32/PB4*%
X98200000Y-74800000D03*
%TO.N,/STM32/BOOT0*%
X96250000Y-73550000D03*
%TO.N,/STM32/outlet_rx*%
X93800000Y-81800000D03*
X116700000Y-78000000D03*
%TO.N,/STM32/outlet_tx*%
X92500000Y-84700000D03*
X118000000Y-78000000D03*
%TO.N,/STM32/PB15*%
X109900000Y-85000000D03*
%TO.N,/STM32/PA8*%
X117900000Y-82300000D03*
%TO.N,/STM32/PA12*%
X100900000Y-76100000D03*
%TO.N,/STM32/PA11*%
X101900000Y-76800000D03*
%TO.N,/STM32/PC4*%
X97300000Y-82300000D03*
%TO.N,/STM32/PB2*%
X99700000Y-82300000D03*
%TO.N,/STM32/PB1*%
X98500000Y-82300000D03*
%TO.N,/STM32/PC14*%
X94600000Y-75700000D03*
%TO.N,/STM32/PC13*%
X89800000Y-73900000D03*
%TO.N,/STM32/PC15*%
X94000000Y-76400000D03*
%TO.N,/STM32/PC0*%
X94300000Y-77500000D03*
%TO.N,/FRAM/INT1_BMP*%
X101900000Y-81200000D03*
X105000000Y-67400000D03*
%TO.N,/STM32/RTS#*%
X84000000Y-86750000D03*
X101250000Y-73500000D03*
%TO.N,/USB/d-*%
X82000000Y-98500000D03*
X82750000Y-97250000D03*
%TO.N,Net-(J18-Pin_1)*%
X87600000Y-73700000D03*
%TO.N,Net-(J6-Pin_2)*%
X118000000Y-66800000D03*
%TO.N,Net-(J6-Pin_3)*%
X116500000Y-66700000D03*
%TO.N,Net-(Q1-G)*%
X112300000Y-119400000D03*
%TD*%
D19*
%TO.N,GND*%
X104600000Y-82900000D02*
X104000000Y-82300000D01*
X104000000Y-82300000D02*
X100900000Y-82300000D01*
X107330000Y-68300000D02*
X108250000Y-67380000D01*
X93400000Y-80300000D02*
X91150000Y-82550000D01*
X104300000Y-68300000D02*
X107330000Y-68300000D01*
X94800000Y-80300000D02*
X93400000Y-80300000D01*
X98700000Y-80300000D02*
X94800000Y-80300000D01*
X91150000Y-82550000D02*
X86900000Y-86800000D01*
%TO.N,/IMU/3\u002C3V_imu*%
X103800000Y-68800000D02*
X104000000Y-69000000D01*
D20*
X99400000Y-91700000D02*
X100700000Y-91700000D01*
X94200000Y-91700000D02*
X93600000Y-91100000D01*
X117200000Y-92500000D02*
X117987500Y-92500000D01*
D21*
X127200000Y-74300000D02*
X124800000Y-74300000D01*
D20*
X116700000Y-93000000D02*
X117200000Y-92500000D01*
D19*
X104000000Y-69000000D02*
X104000000Y-72000000D01*
X93500000Y-91000000D02*
X93600000Y-91100000D01*
D20*
X102000000Y-93000000D02*
X116700000Y-93000000D01*
D21*
X124800000Y-74300000D02*
X123700000Y-75400000D01*
D20*
X100700000Y-91700000D02*
X102000000Y-93000000D01*
D22*
X106080000Y-69920000D02*
X108250000Y-69920000D01*
D20*
X99400000Y-91700000D02*
X94200000Y-91700000D01*
D19*
X103800000Y-68800000D02*
X102800000Y-68800000D01*
X93500000Y-87300000D02*
X93500000Y-91000000D01*
D22*
X104000000Y-72000000D02*
X106080000Y-69920000D01*
D20*
%TO.N,/+5v_supply*%
X112700000Y-63400000D02*
X111370000Y-62070000D01*
X111370000Y-62070000D02*
X111370000Y-57150000D01*
D21*
X129500000Y-96900000D02*
X129500000Y-101500000D01*
X127800000Y-95200000D02*
X129500000Y-96900000D01*
D19*
%TO.N,Net-(U1-VCAP_1)*%
X105700000Y-83400000D02*
X114400000Y-83400000D01*
X105500000Y-83600000D02*
X105700000Y-83400000D01*
X114400000Y-83400000D02*
X117300000Y-80500000D01*
D21*
%TO.N,/FRAM/3\u002C3V_fram*%
X128900000Y-91800000D02*
X128900000Y-59920000D01*
X107980000Y-94400000D02*
X126300000Y-94400000D01*
X106630000Y-95750000D02*
X107980000Y-94400000D01*
X128900000Y-59920000D02*
X126300000Y-57320000D01*
X126300000Y-94400000D02*
X128900000Y-91800000D01*
D19*
%TO.N,/STM32/LED_R*%
X93100000Y-97000000D02*
X91234314Y-97000000D01*
X82800000Y-85134314D02*
X88184314Y-79750000D01*
X91234314Y-97000000D02*
X82800000Y-88565686D01*
X88184314Y-79750000D02*
X90250000Y-79750000D01*
X82800000Y-88565686D02*
X82800000Y-85134314D01*
%TO.N,/STM32/LED_G*%
X87625000Y-80875000D02*
X90125000Y-80875000D01*
X83200000Y-88400000D02*
X83200000Y-85300000D01*
X83200000Y-85300000D02*
X87625000Y-80875000D01*
X94400000Y-96100000D02*
X90900000Y-96100000D01*
X90900000Y-96100000D02*
X83200000Y-88400000D01*
%TO.N,/STM32/LED_B*%
X91268628Y-97600000D02*
X82400000Y-88731372D01*
X82400000Y-84900000D02*
X89000000Y-78300000D01*
X91800000Y-97600000D02*
X91268628Y-97600000D01*
X82400000Y-88731372D02*
X82400000Y-84900000D01*
X89000000Y-78300000D02*
X90400000Y-78300000D01*
%TO.N,/IMU/SCK_imu*%
X95766141Y-86300000D02*
X95325228Y-85859087D01*
X97000000Y-86300000D02*
X95766141Y-86300000D01*
%TO.N,/IMU/int1_imu*%
X103100000Y-89700000D02*
X108400000Y-84400000D01*
X94600000Y-89700000D02*
X103100000Y-89700000D01*
%TO.N,/IMU/CS_imu*%
X95245064Y-87045064D02*
X97545064Y-87045064D01*
X94600000Y-86400000D02*
X95245064Y-87045064D01*
%TO.N,/IMU/int2_imu*%
X103460000Y-91000000D02*
X108760000Y-85700000D01*
X97800000Y-91000000D02*
X103460000Y-91000000D01*
X108760000Y-85700000D02*
X108800000Y-85700000D01*
%TO.N,/FRAM/SDA_fram*%
X97500000Y-67900000D02*
X96750000Y-68650000D01*
X96750000Y-69900000D02*
X96750000Y-68650000D01*
%TO.N,/STM32/PB5*%
X97700000Y-73700000D02*
X98100000Y-73300000D01*
X98100000Y-58900000D02*
X96250000Y-57050000D01*
X98100000Y-73300000D02*
X98100000Y-58900000D01*
%TO.N,/STM32/PC10*%
X101600000Y-67934314D02*
X102934314Y-66600000D01*
X102934314Y-66600000D02*
X102934314Y-62034314D01*
X106410000Y-58558628D02*
X106410000Y-57050000D01*
X106150000Y-57050000D02*
X106410000Y-57050000D01*
X102934314Y-62034314D02*
X106410000Y-58558628D01*
X101600000Y-70900000D02*
X101600000Y-67934314D01*
%TO.N,/STM32/PC11*%
X100000000Y-60920000D02*
X103870000Y-57050000D01*
X100000000Y-73900000D02*
X100000000Y-60920000D01*
%TO.N,/STM32/PB9*%
X87800000Y-70950000D02*
X87800000Y-60420000D01*
X95250000Y-74350000D02*
X91200000Y-74350000D01*
X87800000Y-60420000D02*
X91170000Y-57050000D01*
X91200000Y-74350000D02*
X87800000Y-70950000D01*
%TO.N,/STM32/PB8*%
X93710000Y-67810000D02*
X93710000Y-57050000D01*
X96200000Y-74400000D02*
X96400000Y-74400000D01*
X96850000Y-70950000D02*
X93710000Y-67810000D01*
X96400000Y-74400000D02*
X96850000Y-73950000D01*
X96850000Y-73950000D02*
X96850000Y-70950000D01*
%TO.N,/STM32/PB3*%
X98900000Y-74100000D02*
X99190000Y-73810000D01*
X99190000Y-73810000D02*
X99190000Y-59190000D01*
X99190000Y-59190000D02*
X101330000Y-57050000D01*
%TO.N,/STM32/PB4*%
X98790000Y-73175686D02*
X98790000Y-57050000D01*
X98300000Y-74700000D02*
X98300000Y-73665686D01*
X98200000Y-74800000D02*
X98300000Y-74700000D01*
X98300000Y-73665686D02*
X98790000Y-73175686D01*
%TO.N,/STM32/BOOT0*%
X95010000Y-73550000D02*
X90000000Y-68540000D01*
X96250000Y-73550000D02*
X95010000Y-73550000D01*
%TO.N,/STM32/outlet_rx*%
X94200000Y-81400000D02*
X101251471Y-81400000D01*
X101251471Y-81400000D02*
X101651471Y-81800000D01*
X116700000Y-79800000D02*
X116700000Y-78000000D01*
X114700000Y-81800000D02*
X116700000Y-79800000D01*
X101651471Y-81800000D02*
X114700000Y-81800000D01*
X93800000Y-81800000D02*
X94200000Y-81400000D01*
%TO.N,/STM32/outlet_tx*%
X115240000Y-83800000D02*
X118000000Y-81040000D01*
X118000000Y-78100000D02*
X118000000Y-78000000D01*
X107600000Y-84300000D02*
X108100000Y-83800000D01*
X118000000Y-78000000D02*
X118000000Y-77900000D01*
X118000000Y-81040000D02*
X118000000Y-78100000D01*
X108100000Y-83800000D02*
X115240000Y-83800000D01*
X92500000Y-84700000D02*
X96000000Y-84700000D01*
X96400000Y-84300000D02*
X107600000Y-84300000D01*
X96000000Y-84700000D02*
X96400000Y-84300000D01*
%TO.N,/STM32/PB15*%
X109900000Y-85000000D02*
X109900000Y-85408529D01*
X106560000Y-88748529D02*
X106560000Y-90200000D01*
X109900000Y-85408529D02*
X106560000Y-88748529D01*
%TO.N,/STM32/PA8*%
X117900000Y-82300000D02*
X114000000Y-86200000D01*
X109100000Y-88100000D02*
X109100000Y-90200000D01*
X114000000Y-86200000D02*
X111000000Y-86200000D01*
X111000000Y-86200000D02*
X109100000Y-88100000D01*
%TO.N,/STM32/PA12*%
X103150000Y-73850000D02*
X121056346Y-73850000D01*
X100900000Y-76100000D02*
X103150000Y-73850000D01*
X124730000Y-77523654D02*
X124730000Y-78570000D01*
X114180000Y-89120000D02*
X114180000Y-90200000D01*
X121056346Y-73850000D02*
X124730000Y-77523654D01*
X124730000Y-78570000D02*
X114180000Y-89120000D01*
%TO.N,/STM32/PA11*%
X101900000Y-76800000D02*
X121466346Y-76800000D01*
X122190000Y-77523654D02*
X122190000Y-79650000D01*
X122190000Y-79650000D02*
X111640000Y-90200000D01*
X121466346Y-76800000D02*
X122190000Y-77523654D01*
%TO.N,/STM32/PC4*%
X97100000Y-82500000D02*
X97300000Y-82300000D01*
X92720099Y-82500000D02*
X97100000Y-82500000D01*
X100400000Y-93900000D02*
X98850000Y-95450000D01*
X94584314Y-95450000D02*
X91000000Y-91865686D01*
X91000000Y-91865686D02*
X91000000Y-84220099D01*
X91000000Y-84220099D02*
X92720099Y-82500000D01*
X98850000Y-95450000D02*
X94584314Y-95450000D01*
%TO.N,/STM32/PB2*%
X92451471Y-83900000D02*
X91900000Y-84451471D01*
X98100000Y-83900000D02*
X92451471Y-83900000D01*
X99700000Y-82300000D02*
X98100000Y-83900000D01*
X91900000Y-84451471D02*
X91900000Y-90480000D01*
X91900000Y-90480000D02*
X95320000Y-93900000D01*
%TO.N,/STM32/PB1*%
X91500000Y-84285785D02*
X91500000Y-91800000D01*
X96710000Y-95050000D02*
X97860000Y-93900000D01*
X97300000Y-83500000D02*
X92285785Y-83500000D01*
X98500000Y-82300000D02*
X97300000Y-83500000D01*
X91500000Y-91800000D02*
X94750000Y-95050000D01*
X94750000Y-95050000D02*
X96710000Y-95050000D01*
X92285785Y-83500000D02*
X91500000Y-84285785D01*
%TO.N,/STM32/PC14*%
X79500000Y-75750000D02*
X94550000Y-75750000D01*
X94550000Y-75750000D02*
X94600000Y-75700000D01*
%TO.N,/STM32/PC13*%
X89800000Y-73900000D02*
X89800000Y-74800000D01*
X89500000Y-75100000D02*
X81390000Y-75100000D01*
X89800000Y-74800000D02*
X89500000Y-75100000D01*
X81390000Y-75100000D02*
X79500000Y-73210000D01*
%TO.N,/STM32/PC15*%
X81390000Y-76400000D02*
X79500000Y-78290000D01*
X94000000Y-76400000D02*
X81390000Y-76400000D01*
%TO.N,/STM32/PC0*%
X82830000Y-77500000D02*
X94300000Y-77500000D01*
X79500000Y-80830000D02*
X82830000Y-77500000D01*
%TO.N,/FRAM/INT1_BMP*%
X101900000Y-81200000D02*
X99100000Y-78400000D01*
X102700000Y-67400000D02*
X105000000Y-67400000D01*
X102200000Y-67900000D02*
X102700000Y-67400000D01*
X99100000Y-78400000D02*
X99100000Y-76400000D01*
X99100000Y-76400000D02*
X101200000Y-74300000D01*
X101200000Y-74300000D02*
X101400000Y-74300000D01*
X102200000Y-73500000D02*
X102200000Y-67900000D01*
X101400000Y-74300000D02*
X102200000Y-73500000D01*
%TO.N,/STM32/RTS#*%
X86750000Y-85750000D02*
X85800000Y-85750000D01*
X85500000Y-85750000D02*
X85000000Y-85750000D01*
X95350000Y-79400000D02*
X93100000Y-79400000D01*
X101250000Y-73500000D02*
X95350000Y-79400000D01*
X85000000Y-85750000D02*
X84000000Y-86750000D01*
X85800000Y-85750000D02*
X85500000Y-85750000D01*
X93100000Y-79400000D02*
X86750000Y-85750000D01*
%TO.N,/USB/d-*%
X82000000Y-98000000D02*
X82750000Y-97250000D01*
X82000000Y-98500000D02*
X82000000Y-98000000D01*
%TO.N,Net-(J18-Pin_1)*%
X87600000Y-73700000D02*
X86400000Y-72500000D01*
X86400000Y-72500000D02*
X86400000Y-63400000D01*
%TO.N,Net-(J6-Pin_2)*%
X116450000Y-57150000D02*
X118000000Y-58700000D01*
X118000000Y-58700000D02*
X118000000Y-66800000D01*
%TO.N,Net-(J6-Pin_3)*%
X113910000Y-57150000D02*
X113910000Y-64110000D01*
X113910000Y-64110000D02*
X116500000Y-66700000D01*
D21*
%TO.N,Net-(Q1-G)*%
X114000000Y-114800000D02*
X113330000Y-114130000D01*
X114000000Y-114800000D02*
X114000000Y-117700000D01*
X112300000Y-119400000D02*
X113500000Y-118200000D01*
X113330000Y-114130000D02*
X111850000Y-114130000D01*
X114000000Y-117700000D02*
X113500000Y-118200000D01*
%TD*%
%TA.AperFunction,Conductor*%
%TO.N,GND*%
G36*
X98418834Y-77282914D02*
G01*
X98474767Y-77324786D01*
X98499184Y-77390250D01*
X98499500Y-77399096D01*
X98499500Y-78313330D01*
X98499499Y-78313348D01*
X98499499Y-78479054D01*
X98499498Y-78479054D01*
X98540423Y-78631785D01*
X98569358Y-78681900D01*
X98569359Y-78681904D01*
X98569360Y-78681904D01*
X98616284Y-78763181D01*
X98619479Y-78768714D01*
X98619481Y-78768717D01*
X98738349Y-78887585D01*
X98738355Y-78887590D01*
X100438584Y-80587819D01*
X100472069Y-80649142D01*
X100467085Y-80718834D01*
X100425213Y-80774767D01*
X100359749Y-80799184D01*
X100350903Y-80799500D01*
X94120939Y-80799500D01*
X94088413Y-80808215D01*
X94088414Y-80808216D01*
X93968214Y-80840423D01*
X93968209Y-80840426D01*
X93831285Y-80919478D01*
X93781462Y-80969300D01*
X93720138Y-81002784D01*
X93707666Y-81004837D01*
X93620750Y-81014630D01*
X93450478Y-81074210D01*
X93297737Y-81170184D01*
X93170184Y-81297737D01*
X93074211Y-81450476D01*
X93014631Y-81620745D01*
X93014630Y-81620750D01*
X92995631Y-81789383D01*
X92968565Y-81853797D01*
X92910970Y-81893352D01*
X92872411Y-81899500D01*
X92641039Y-81899500D01*
X92600118Y-81910464D01*
X92600118Y-81910465D01*
X92562850Y-81920451D01*
X92488313Y-81940423D01*
X92488308Y-81940426D01*
X92351389Y-82019475D01*
X92351381Y-82019481D01*
X90519479Y-83851383D01*
X90497915Y-83888734D01*
X90488800Y-83904523D01*
X90440423Y-83988314D01*
X90399499Y-84141042D01*
X90399499Y-84141044D01*
X90399499Y-84309145D01*
X90399500Y-84309158D01*
X90399500Y-91779016D01*
X90399499Y-91779034D01*
X90399499Y-91944740D01*
X90399498Y-91944740D01*
X90401042Y-91950501D01*
X90440423Y-92097471D01*
X90461819Y-92134530D01*
X90519477Y-92234398D01*
X90519481Y-92234403D01*
X90638349Y-92353271D01*
X90638355Y-92353276D01*
X93572898Y-95287819D01*
X93606383Y-95349142D01*
X93601399Y-95418834D01*
X93559527Y-95474767D01*
X93494063Y-95499184D01*
X93485217Y-95499500D01*
X91200097Y-95499500D01*
X91133058Y-95479815D01*
X91112416Y-95463181D01*
X83836819Y-88187584D01*
X83803334Y-88126261D01*
X83800500Y-88099903D01*
X83800500Y-87671842D01*
X83820185Y-87604803D01*
X83872989Y-87559048D01*
X83938382Y-87548622D01*
X83991675Y-87554627D01*
X83999999Y-87555565D01*
X84000000Y-87555565D01*
X84000004Y-87555565D01*
X84179249Y-87535369D01*
X84179252Y-87535368D01*
X84179255Y-87535368D01*
X84349522Y-87475789D01*
X84502262Y-87379816D01*
X84629816Y-87252262D01*
X84725789Y-87099522D01*
X84785368Y-86929255D01*
X84795161Y-86842329D01*
X84822226Y-86777918D01*
X84830680Y-86768553D01*
X85212418Y-86386816D01*
X85273740Y-86353334D01*
X85300098Y-86350500D01*
X85420943Y-86350500D01*
X85720943Y-86350500D01*
X86663331Y-86350500D01*
X86663347Y-86350501D01*
X86670943Y-86350501D01*
X86829054Y-86350501D01*
X86829057Y-86350501D01*
X86981785Y-86309577D01*
X87034647Y-86279057D01*
X87034648Y-86279057D01*
X87118709Y-86230524D01*
X87118708Y-86230524D01*
X87118716Y-86230520D01*
X87230520Y-86118716D01*
X87230520Y-86118714D01*
X87240724Y-86108511D01*
X87240727Y-86108506D01*
X93312416Y-80036819D01*
X93373739Y-80003334D01*
X93400097Y-80000500D01*
X95263331Y-80000500D01*
X95263347Y-80000501D01*
X95270943Y-80000501D01*
X95429054Y-80000501D01*
X95429057Y-80000501D01*
X95581785Y-79959577D01*
X95634304Y-79929255D01*
X95634305Y-79929255D01*
X95718709Y-79880524D01*
X95718708Y-79880524D01*
X95718716Y-79880520D01*
X95830520Y-79768716D01*
X95830520Y-79768714D01*
X95840724Y-79758511D01*
X95840727Y-79758506D01*
X98287821Y-77311413D01*
X98349142Y-77277930D01*
X98418834Y-77282914D01*
G37*
%TD.AperFunction*%
%TA.AperFunction,Conductor*%
G36*
X120953282Y-83298465D02*
G01*
X121009215Y-83340337D01*
X121029723Y-83382554D01*
X121046094Y-83443655D01*
X121046096Y-83443659D01*
X121046097Y-83443663D01*
X121126004Y-83615023D01*
X121145965Y-83657830D01*
X121145967Y-83657834D01*
X121203205Y-83739577D01*
X121281501Y-83851396D01*
X121281506Y-83851402D01*
X121448597Y-84018493D01*
X121448603Y-84018498D01*
X121634158Y-84148425D01*
X121677783Y-84203002D01*
X121684977Y-84272500D01*
X121653454Y-84334855D01*
X121634158Y-84351575D01*
X121448597Y-84481505D01*
X121281505Y-84648597D01*
X121145965Y-84842169D01*
X121145964Y-84842171D01*
X121046098Y-85056335D01*
X121046094Y-85056344D01*
X120984938Y-85284586D01*
X120984936Y-85284596D01*
X120964341Y-85519999D01*
X120964341Y-85520000D01*
X120984936Y-85755403D01*
X120984938Y-85755413D01*
X121046094Y-85983655D01*
X121046096Y-85983659D01*
X121046097Y-85983663D01*
X121126004Y-86155023D01*
X121145965Y-86197830D01*
X121145967Y-86197834D01*
X121252866Y-86350500D01*
X121281501Y-86391396D01*
X121281506Y-86391402D01*
X121448597Y-86558493D01*
X121448603Y-86558498D01*
X121634158Y-86688425D01*
X121677783Y-86743002D01*
X121684977Y-86812500D01*
X121653454Y-86874855D01*
X121634158Y-86891575D01*
X121448597Y-87021505D01*
X121281505Y-87188597D01*
X121145965Y-87382169D01*
X121145964Y-87382171D01*
X121046098Y-87596335D01*
X121046094Y-87596344D01*
X120984938Y-87824586D01*
X120984936Y-87824596D01*
X120964341Y-88059999D01*
X120964341Y-88060000D01*
X120984936Y-88295403D01*
X120984938Y-88295413D01*
X121046094Y-88523655D01*
X121046096Y-88523659D01*
X121046097Y-88523663D01*
X121126004Y-88695023D01*
X121145965Y-88737830D01*
X121145967Y-88737834D01*
X121220545Y-88844341D01*
X121281501Y-88931396D01*
X121281506Y-88931402D01*
X121403430Y-89053326D01*
X121436915Y-89114649D01*
X121431931Y-89184341D01*
X121390059Y-89240274D01*
X121359083Y-89257189D01*
X121227669Y-89306203D01*
X121227664Y-89306206D01*
X121112455Y-89392452D01*
X121112452Y-89392455D01*
X121026206Y-89507664D01*
X121026202Y-89507671D01*
X120975908Y-89642517D01*
X120969501Y-89702116D01*
X120969500Y-89702135D01*
X120969500Y-91497870D01*
X120969501Y-91497876D01*
X120975908Y-91557483D01*
X121026202Y-91692328D01*
X121026206Y-91692335D01*
X121112452Y-91807544D01*
X121112455Y-91807547D01*
X121227664Y-91893793D01*
X121227671Y-91893797D01*
X121362517Y-91944091D01*
X121362516Y-91944091D01*
X121368553Y-91944740D01*
X121422127Y-91950500D01*
X123217872Y-91950499D01*
X123277483Y-91944091D01*
X123412331Y-91893796D01*
X123515690Y-91816421D01*
X123581152Y-91792004D01*
X123649425Y-91806855D01*
X123664303Y-91816416D01*
X123747696Y-91878844D01*
X123767668Y-91893795D01*
X123767671Y-91893797D01*
X123902517Y-91944091D01*
X123902516Y-91944091D01*
X123908553Y-91944740D01*
X123962127Y-91950500D01*
X125757872Y-91950499D01*
X125817483Y-91944091D01*
X125952331Y-91893796D01*
X126056106Y-91816109D01*
X126121570Y-91791692D01*
X126189843Y-91806543D01*
X126204729Y-91816110D01*
X126307910Y-91893352D01*
X126307913Y-91893354D01*
X126442620Y-91943596D01*
X126442627Y-91943598D01*
X126502155Y-91949999D01*
X126502172Y-91950000D01*
X127150000Y-91950000D01*
X127150000Y-91033012D01*
X127207007Y-91065925D01*
X127334174Y-91100000D01*
X127465826Y-91100000D01*
X127592993Y-91065925D01*
X127650000Y-91033012D01*
X127650000Y-91866560D01*
X127630315Y-91933599D01*
X127613681Y-91954241D01*
X126004741Y-93563181D01*
X125943418Y-93596666D01*
X125917060Y-93599500D01*
X117390520Y-93599500D01*
X117323481Y-93579815D01*
X117277726Y-93527011D01*
X117267782Y-93457853D01*
X117296807Y-93394297D01*
X117302838Y-93387819D01*
X117453839Y-93236817D01*
X117515161Y-93203334D01*
X117541519Y-93200500D01*
X117562006Y-93200500D01*
X117627977Y-93219506D01*
X117637974Y-93225787D01*
X117637975Y-93225787D01*
X117637978Y-93225789D01*
X117722416Y-93255335D01*
X117808245Y-93285368D01*
X117808250Y-93285369D01*
X117987496Y-93305565D01*
X117987500Y-93305565D01*
X117987504Y-93305565D01*
X118166749Y-93285369D01*
X118166752Y-93285368D01*
X118166755Y-93285368D01*
X118337022Y-93225789D01*
X118489762Y-93129816D01*
X118617316Y-93002262D01*
X118713289Y-92849522D01*
X118772868Y-92679255D01*
X118772869Y-92679249D01*
X118793065Y-92500003D01*
X118793065Y-92499996D01*
X118772869Y-92320750D01*
X118772868Y-92320745D01*
X118752725Y-92263181D01*
X118713289Y-92150478D01*
X118617316Y-91997738D01*
X118489762Y-91870184D01*
X118420114Y-91826421D01*
X118337023Y-91774211D01*
X118166754Y-91714631D01*
X118166749Y-91714630D01*
X117987504Y-91694435D01*
X117987496Y-91694435D01*
X117808250Y-91714630D01*
X117808245Y-91714631D01*
X117637974Y-91774212D01*
X117627977Y-91780494D01*
X117562006Y-91799500D01*
X117131004Y-91799500D01*
X116995677Y-91826418D01*
X116995667Y-91826421D01*
X116868192Y-91879222D01*
X116753454Y-91955887D01*
X116753453Y-91955888D01*
X116446162Y-92263181D01*
X116384839Y-92296666D01*
X116358481Y-92299500D01*
X102341519Y-92299500D01*
X102274480Y-92279815D01*
X102253838Y-92263181D01*
X101802838Y-91812181D01*
X101769353Y-91750858D01*
X101774337Y-91681166D01*
X101816209Y-91625233D01*
X101881673Y-91600816D01*
X101890519Y-91600500D01*
X103373331Y-91600500D01*
X103373347Y-91600501D01*
X103380943Y-91600501D01*
X103539054Y-91600501D01*
X103539057Y-91600501D01*
X103691785Y-91559577D01*
X103741904Y-91530639D01*
X103828716Y-91480520D01*
X103940520Y-91368716D01*
X103940520Y-91368714D01*
X103950728Y-91358507D01*
X103950730Y-91358504D01*
X104997821Y-90311412D01*
X105059142Y-90277929D01*
X105128834Y-90282913D01*
X105184767Y-90324785D01*
X105209184Y-90390249D01*
X105209500Y-90399095D01*
X105209500Y-91097870D01*
X105209501Y-91097876D01*
X105215908Y-91157483D01*
X105266202Y-91292328D01*
X105266206Y-91292335D01*
X105352452Y-91407544D01*
X105352455Y-91407547D01*
X105467664Y-91493793D01*
X105467671Y-91493797D01*
X105602517Y-91544091D01*
X105602516Y-91544091D01*
X105609444Y-91544835D01*
X105662127Y-91550500D01*
X107457872Y-91550499D01*
X107517483Y-91544091D01*
X107652331Y-91493796D01*
X107767546Y-91407546D01*
X107853796Y-91292331D01*
X107902810Y-91160916D01*
X107944681Y-91104984D01*
X108010145Y-91080566D01*
X108078418Y-91095417D01*
X108106673Y-91116569D01*
X108228599Y-91238495D01*
X108325384Y-91306265D01*
X108422165Y-91374032D01*
X108422167Y-91374033D01*
X108422170Y-91374035D01*
X108636337Y-91473903D01*
X108636343Y-91473904D01*
X108636344Y-91473905D01*
X108661032Y-91480520D01*
X108864592Y-91535063D01*
X109052918Y-91551539D01*
X109099999Y-91555659D01*
X109100000Y-91555659D01*
X109100001Y-91555659D01*
X109139234Y-91552226D01*
X109335408Y-91535063D01*
X109563663Y-91473903D01*
X109777830Y-91374035D01*
X109971401Y-91238495D01*
X110138495Y-91071401D01*
X110258014Y-90900710D01*
X110268425Y-90885842D01*
X110323002Y-90842217D01*
X110392500Y-90835023D01*
X110454855Y-90866546D01*
X110471575Y-90885842D01*
X110601500Y-91071395D01*
X110601505Y-91071401D01*
X110768599Y-91238495D01*
X110865384Y-91306265D01*
X110962165Y-91374032D01*
X110962167Y-91374033D01*
X110962170Y-91374035D01*
X111176337Y-91473903D01*
X111176343Y-91473904D01*
X111176344Y-91473905D01*
X111201032Y-91480520D01*
X111404592Y-91535063D01*
X111592918Y-91551539D01*
X111639999Y-91555659D01*
X111640000Y-91555659D01*
X111640001Y-91555659D01*
X111679234Y-91552226D01*
X111875408Y-91535063D01*
X112103663Y-91473903D01*
X112317830Y-91374035D01*
X112511401Y-91238495D01*
X112678495Y-91071401D01*
X112798014Y-90900710D01*
X112808425Y-90885842D01*
X112863002Y-90842217D01*
X112932500Y-90835023D01*
X112994855Y-90866546D01*
X113011575Y-90885842D01*
X113141500Y-91071395D01*
X113141505Y-91071401D01*
X113308599Y-91238495D01*
X113405384Y-91306265D01*
X113502165Y-91374032D01*
X113502167Y-91374033D01*
X113502170Y-91374035D01*
X113716337Y-91473903D01*
X113716343Y-91473904D01*
X113716344Y-91473905D01*
X113741032Y-91480520D01*
X113944592Y-91535063D01*
X114132918Y-91551539D01*
X114179999Y-91555659D01*
X114180000Y-91555659D01*
X114180001Y-91555659D01*
X114219234Y-91552226D01*
X114415408Y-91535063D01*
X114643663Y-91473903D01*
X114857830Y-91374035D01*
X115051401Y-91238495D01*
X115218495Y-91071401D01*
X115354035Y-90877830D01*
X115453903Y-90663663D01*
X115515063Y-90435408D01*
X115535659Y-90200000D01*
X115515063Y-89964592D01*
X115453903Y-89736337D01*
X115354035Y-89522171D01*
X115348425Y-89514158D01*
X115218494Y-89328597D01*
X115107246Y-89217349D01*
X115073761Y-89156026D01*
X115078745Y-89086334D01*
X115107244Y-89041989D01*
X120822269Y-83326964D01*
X120883590Y-83293481D01*
X120953282Y-83298465D01*
G37*
%TD.AperFunction*%
%TA.AperFunction,Conductor*%
G36*
X127650000Y-90166988D02*
G01*
X127592993Y-90134075D01*
X127465826Y-90100000D01*
X127334174Y-90100000D01*
X127207007Y-90134075D01*
X127150000Y-90166988D01*
X127150000Y-88493012D01*
X127207007Y-88525925D01*
X127334174Y-88560000D01*
X127465826Y-88560000D01*
X127592993Y-88525925D01*
X127650000Y-88493012D01*
X127650000Y-90166988D01*
G37*
%TD.AperFunction*%
%TA.AperFunction,Conductor*%
G36*
X127650000Y-87626988D02*
G01*
X127592993Y-87594075D01*
X127465826Y-87560000D01*
X127334174Y-87560000D01*
X127207007Y-87594075D01*
X127150000Y-87626988D01*
X127150000Y-85953012D01*
X127207007Y-85985925D01*
X127334174Y-86020000D01*
X127465826Y-86020000D01*
X127592993Y-85985925D01*
X127650000Y-85953012D01*
X127650000Y-87626988D01*
G37*
%TD.AperFunction*%
%TA.AperFunction,Conductor*%
G36*
X127650000Y-85086988D02*
G01*
X127592993Y-85054075D01*
X127465826Y-85020000D01*
X127334174Y-85020000D01*
X127207007Y-85054075D01*
X127150000Y-85086988D01*
X127150000Y-83413012D01*
X127207007Y-83445925D01*
X127334174Y-83480000D01*
X127465826Y-83480000D01*
X127592993Y-83445925D01*
X127650000Y-83413012D01*
X127650000Y-85086988D01*
G37*
%TD.AperFunction*%
%TA.AperFunction,Conductor*%
G36*
X101018413Y-82020185D02*
G01*
X101039055Y-82036819D01*
X101166610Y-82164374D01*
X101166620Y-82164385D01*
X101170950Y-82168715D01*
X101170951Y-82168716D01*
X101282755Y-82280520D01*
X101282757Y-82280521D01*
X101282761Y-82280524D01*
X101394399Y-82344977D01*
X101419687Y-82359577D01*
X101531490Y-82389534D01*
X101572413Y-82400500D01*
X101572414Y-82400500D01*
X114250903Y-82400500D01*
X114317942Y-82420185D01*
X114363697Y-82472989D01*
X114373641Y-82542147D01*
X114344616Y-82605703D01*
X114338584Y-82612181D01*
X114187584Y-82763181D01*
X114126261Y-82796666D01*
X114099903Y-82799500D01*
X105786670Y-82799500D01*
X105786654Y-82799499D01*
X105779058Y-82799499D01*
X105620943Y-82799499D01*
X105620941Y-82799499D01*
X105612887Y-82800560D01*
X105612823Y-82800076D01*
X105575130Y-82802900D01*
X105500003Y-82794435D01*
X105499996Y-82794435D01*
X105320750Y-82814630D01*
X105320745Y-82814631D01*
X105150476Y-82874211D01*
X104997737Y-82970184D01*
X104870184Y-83097737D01*
X104774211Y-83250476D01*
X104714631Y-83420745D01*
X104714630Y-83420750D01*
X104695631Y-83589383D01*
X104668565Y-83653797D01*
X104610970Y-83693352D01*
X104572411Y-83699500D01*
X99449097Y-83699500D01*
X99382058Y-83679815D01*
X99336303Y-83627011D01*
X99326359Y-83557853D01*
X99355384Y-83494297D01*
X99361416Y-83487819D01*
X99522269Y-83326966D01*
X99718536Y-83130698D01*
X99779857Y-83097215D01*
X99792310Y-83095163D01*
X99879255Y-83085368D01*
X100049522Y-83025789D01*
X100202262Y-82929816D01*
X100329816Y-82802262D01*
X100425789Y-82649522D01*
X100485368Y-82479255D01*
X100492024Y-82420185D01*
X100505565Y-82300003D01*
X100505565Y-82299996D01*
X100487356Y-82138383D01*
X100499411Y-82069561D01*
X100546760Y-82018182D01*
X100610576Y-82000500D01*
X100951374Y-82000500D01*
X101018413Y-82020185D01*
G37*
%TD.AperFunction*%
%TA.AperFunction,Conductor*%
G36*
X128055742Y-74708937D02*
G01*
X128094114Y-74767326D01*
X128099500Y-74803474D01*
X128099500Y-81621981D01*
X128079815Y-81689020D01*
X128027011Y-81734775D01*
X127957853Y-81744719D01*
X127923095Y-81734363D01*
X127863492Y-81706570D01*
X127863486Y-81706567D01*
X127650000Y-81649364D01*
X127650000Y-82546988D01*
X127592993Y-82514075D01*
X127465826Y-82480000D01*
X127334174Y-82480000D01*
X127207007Y-82514075D01*
X127150000Y-82546988D01*
X127150000Y-81649364D01*
X127149999Y-81649364D01*
X126936513Y-81706567D01*
X126936507Y-81706570D01*
X126722422Y-81806399D01*
X126722420Y-81806400D01*
X126528926Y-81941886D01*
X126528920Y-81941891D01*
X126361891Y-82108920D01*
X126361890Y-82108922D01*
X126231880Y-82294595D01*
X126177303Y-82338219D01*
X126107804Y-82345412D01*
X126045450Y-82313890D01*
X126028730Y-82294594D01*
X125898494Y-82108597D01*
X125731402Y-81941506D01*
X125731395Y-81941501D01*
X125729855Y-81940423D01*
X125671412Y-81899500D01*
X125537834Y-81805967D01*
X125537830Y-81805965D01*
X125484290Y-81780999D01*
X125323663Y-81706097D01*
X125323659Y-81706096D01*
X125323655Y-81706094D01*
X125095413Y-81644938D01*
X125095403Y-81644936D01*
X124860001Y-81624341D01*
X124859999Y-81624341D01*
X124624596Y-81644936D01*
X124624586Y-81644938D01*
X124396344Y-81706094D01*
X124396335Y-81706098D01*
X124182171Y-81805964D01*
X124182169Y-81805965D01*
X123988597Y-81941505D01*
X123821505Y-82108597D01*
X123691575Y-82294158D01*
X123636998Y-82337783D01*
X123567500Y-82344977D01*
X123505145Y-82313454D01*
X123488425Y-82294158D01*
X123358494Y-82108597D01*
X123191402Y-81941506D01*
X123191395Y-81941501D01*
X123189855Y-81940423D01*
X123131412Y-81899500D01*
X122997834Y-81805967D01*
X122997830Y-81805965D01*
X122944290Y-81780999D01*
X122783663Y-81706097D01*
X122783659Y-81706096D01*
X122783655Y-81706094D01*
X122722554Y-81689723D01*
X122662894Y-81653359D01*
X122632364Y-81590512D01*
X122640658Y-81521136D01*
X122666963Y-81482270D01*
X125088506Y-79060728D01*
X125088511Y-79060724D01*
X125098714Y-79050520D01*
X125098716Y-79050520D01*
X125210520Y-78938716D01*
X125267927Y-78839283D01*
X125289577Y-78801785D01*
X125330500Y-78649057D01*
X125330500Y-78490943D01*
X125330500Y-77444597D01*
X125326540Y-77429816D01*
X125289577Y-77291869D01*
X125239749Y-77205565D01*
X125210520Y-77154938D01*
X125098716Y-77043134D01*
X125098715Y-77043133D01*
X125094385Y-77038803D01*
X125094374Y-77038793D01*
X124231510Y-76175929D01*
X124198025Y-76114606D01*
X124203009Y-76044914D01*
X124231506Y-76000571D01*
X124329816Y-75902262D01*
X125095259Y-75136819D01*
X125156582Y-75103334D01*
X125182940Y-75100500D01*
X127148085Y-75100500D01*
X127161969Y-75101280D01*
X127199998Y-75105565D01*
X127200000Y-75105565D01*
X127200002Y-75105565D01*
X127238031Y-75101280D01*
X127251915Y-75100500D01*
X127278841Y-75100500D01*
X127278842Y-75100500D01*
X127318017Y-75092707D01*
X127328283Y-75091110D01*
X127379255Y-75085368D01*
X127403100Y-75077023D01*
X127419862Y-75072448D01*
X127433497Y-75069737D01*
X127482389Y-75049484D01*
X127488837Y-75047023D01*
X127549522Y-75025789D01*
X127559868Y-75019287D01*
X127578390Y-75009720D01*
X127579179Y-75009394D01*
X127633987Y-74972771D01*
X127636825Y-74970931D01*
X127702262Y-74929816D01*
X127829816Y-74802262D01*
X127870507Y-74737500D01*
X127922839Y-74691211D01*
X127991893Y-74680562D01*
X128055742Y-74708937D01*
G37*
%TD.AperFunction*%
%TA.AperFunction,Conductor*%
G36*
X92524855Y-57716546D02*
G01*
X92541575Y-57735842D01*
X92651152Y-57892335D01*
X92671505Y-57921401D01*
X92838599Y-58088495D01*
X92917998Y-58144091D01*
X93032165Y-58224032D01*
X93032167Y-58224033D01*
X93032170Y-58224035D01*
X93037898Y-58226706D01*
X93090339Y-58272872D01*
X93109500Y-58339090D01*
X93109500Y-67723330D01*
X93109499Y-67723348D01*
X93109499Y-67889054D01*
X93109498Y-67889054D01*
X93147215Y-68029816D01*
X93150423Y-68041785D01*
X93170372Y-68076337D01*
X93224148Y-68169480D01*
X93229479Y-68178714D01*
X93229481Y-68178717D01*
X93348349Y-68297585D01*
X93348355Y-68297590D01*
X96213181Y-71162416D01*
X96246666Y-71223739D01*
X96249500Y-71250097D01*
X96249500Y-72633677D01*
X96229815Y-72700716D01*
X96177011Y-72746471D01*
X96139384Y-72756897D01*
X96070750Y-72764630D01*
X95900478Y-72824210D01*
X95747736Y-72920185D01*
X95744903Y-72922445D01*
X95742724Y-72923334D01*
X95741842Y-72923889D01*
X95741744Y-72923734D01*
X95680217Y-72948855D01*
X95667588Y-72949500D01*
X95310097Y-72949500D01*
X95243058Y-72929815D01*
X95222416Y-72913181D01*
X91332766Y-69023531D01*
X91299281Y-68962208D01*
X91300672Y-68903757D01*
X91302018Y-68898735D01*
X91335063Y-68775408D01*
X91355659Y-68540000D01*
X91335063Y-68304592D01*
X91273903Y-68076337D01*
X91174035Y-67862171D01*
X91169195Y-67855259D01*
X91038496Y-67668600D01*
X90999896Y-67630000D01*
X90916179Y-67546283D01*
X90882696Y-67484963D01*
X90887680Y-67415271D01*
X90929551Y-67359337D01*
X90960529Y-67342422D01*
X91092086Y-67293354D01*
X91092093Y-67293350D01*
X91207187Y-67207190D01*
X91207190Y-67207187D01*
X91293350Y-67092093D01*
X91293354Y-67092086D01*
X91343596Y-66957379D01*
X91343598Y-66957372D01*
X91349999Y-66897844D01*
X91350000Y-66897827D01*
X91350000Y-66250000D01*
X90433012Y-66250000D01*
X90465925Y-66192993D01*
X90500000Y-66065826D01*
X90500000Y-65934174D01*
X90465925Y-65807007D01*
X90433012Y-65750000D01*
X91350000Y-65750000D01*
X91350000Y-65102172D01*
X91349999Y-65102155D01*
X91343598Y-65042627D01*
X91343596Y-65042620D01*
X91293354Y-64907913D01*
X91293350Y-64907906D01*
X91207190Y-64792812D01*
X91207187Y-64792809D01*
X91092093Y-64706649D01*
X91092086Y-64706645D01*
X90957379Y-64656403D01*
X90957372Y-64656401D01*
X90897844Y-64650000D01*
X90250000Y-64650000D01*
X90250000Y-65566988D01*
X90192993Y-65534075D01*
X90065826Y-65500000D01*
X89934174Y-65500000D01*
X89807007Y-65534075D01*
X89750000Y-65566988D01*
X89750000Y-64650000D01*
X89102155Y-64650000D01*
X89042627Y-64656401D01*
X89042620Y-64656403D01*
X88907913Y-64706645D01*
X88907906Y-64706649D01*
X88792812Y-64792809D01*
X88792809Y-64792812D01*
X88706649Y-64907906D01*
X88706645Y-64907913D01*
X88656403Y-65042620D01*
X88656401Y-65042627D01*
X88650000Y-65102155D01*
X88650000Y-65750000D01*
X89566988Y-65750000D01*
X89534075Y-65807007D01*
X89500000Y-65934174D01*
X89500000Y-66065826D01*
X89534075Y-66192993D01*
X89566988Y-66250000D01*
X88650000Y-66250000D01*
X88650000Y-66897844D01*
X88656401Y-66957372D01*
X88656403Y-66957379D01*
X88706645Y-67092086D01*
X88706649Y-67092093D01*
X88792809Y-67207187D01*
X88792812Y-67207190D01*
X88907906Y-67293350D01*
X88907913Y-67293354D01*
X89039470Y-67342421D01*
X89095403Y-67384292D01*
X89119821Y-67449756D01*
X89104970Y-67518029D01*
X89083819Y-67546284D01*
X88961503Y-67668600D01*
X88825965Y-67862169D01*
X88825964Y-67862171D01*
X88726098Y-68076335D01*
X88726094Y-68076344D01*
X88664938Y-68304586D01*
X88664936Y-68304596D01*
X88648028Y-68497858D01*
X88631678Y-68539654D01*
X88643477Y-68558014D01*
X88648028Y-68582141D01*
X88664936Y-68775403D01*
X88664938Y-68775413D01*
X88726094Y-69003655D01*
X88726096Y-69003659D01*
X88726097Y-69003663D01*
X88802701Y-69167941D01*
X88825965Y-69217830D01*
X88825967Y-69217834D01*
X88961501Y-69411395D01*
X88961506Y-69411402D01*
X89128597Y-69578493D01*
X89128603Y-69578498D01*
X89314158Y-69708425D01*
X89357783Y-69763002D01*
X89364977Y-69832500D01*
X89333454Y-69894855D01*
X89314158Y-69911575D01*
X89128597Y-70041505D01*
X88961505Y-70208597D01*
X88825965Y-70402169D01*
X88825964Y-70402171D01*
X88726098Y-70616335D01*
X88726095Y-70616342D01*
X88694930Y-70732652D01*
X88658565Y-70792312D01*
X88595718Y-70822841D01*
X88526342Y-70814546D01*
X88487474Y-70788239D01*
X88436819Y-70737584D01*
X88403334Y-70676261D01*
X88400500Y-70649903D01*
X88400500Y-68592949D01*
X88416718Y-68537714D01*
X88402931Y-68511482D01*
X88400500Y-68487050D01*
X88400500Y-60720097D01*
X88420185Y-60653058D01*
X88436819Y-60632416D01*
X89167100Y-59902135D01*
X89849500Y-59902135D01*
X89849500Y-61697870D01*
X89849501Y-61697876D01*
X89855908Y-61757483D01*
X89906202Y-61892328D01*
X89906206Y-61892335D01*
X89992452Y-62007544D01*
X89992455Y-62007547D01*
X90107664Y-62093793D01*
X90107671Y-62093797D01*
X90242517Y-62144091D01*
X90242516Y-62144091D01*
X90248395Y-62144723D01*
X90302127Y-62150500D01*
X92097872Y-62150499D01*
X92157483Y-62144091D01*
X92292331Y-62093796D01*
X92407546Y-62007546D01*
X92493796Y-61892331D01*
X92544091Y-61757483D01*
X92550500Y-61697873D01*
X92550499Y-59902128D01*
X92544091Y-59842517D01*
X92543582Y-59841153D01*
X92493797Y-59707671D01*
X92493793Y-59707664D01*
X92407547Y-59592455D01*
X92407544Y-59592452D01*
X92292335Y-59506206D01*
X92292328Y-59506202D01*
X92157482Y-59455908D01*
X92157483Y-59455908D01*
X92097883Y-59449501D01*
X92097881Y-59449500D01*
X92097873Y-59449500D01*
X92097864Y-59449500D01*
X90302129Y-59449500D01*
X90302123Y-59449501D01*
X90242516Y-59455908D01*
X90107671Y-59506202D01*
X90107664Y-59506206D01*
X89992455Y-59592452D01*
X89992452Y-59592455D01*
X89906206Y-59707664D01*
X89906202Y-59707671D01*
X89855908Y-59842517D01*
X89851318Y-59885214D01*
X89849501Y-59902123D01*
X89849500Y-59902135D01*
X89167100Y-59902135D01*
X89528421Y-59540814D01*
X90686470Y-58382764D01*
X90747791Y-58349281D01*
X90806242Y-58350672D01*
X90835450Y-58358498D01*
X90934592Y-58385063D01*
X91111034Y-58400500D01*
X91169999Y-58405659D01*
X91170000Y-58405659D01*
X91170001Y-58405659D01*
X91228966Y-58400500D01*
X91405408Y-58385063D01*
X91633663Y-58323903D01*
X91847830Y-58224035D01*
X92041401Y-58088495D01*
X92208495Y-57921401D01*
X92338425Y-57735842D01*
X92393002Y-57692217D01*
X92462500Y-57685023D01*
X92524855Y-57716546D01*
G37*
%TD.AperFunction*%
%TA.AperFunction,Conductor*%
G36*
X104994340Y-57938068D02*
G01*
X105050274Y-57979939D01*
X105067189Y-58010917D01*
X105116202Y-58142328D01*
X105116206Y-58142335D01*
X105202452Y-58257544D01*
X105202455Y-58257547D01*
X105317664Y-58343793D01*
X105317671Y-58343797D01*
X105452517Y-58394091D01*
X105456769Y-58395096D01*
X105459727Y-58396780D01*
X105459785Y-58396802D01*
X105459781Y-58396811D01*
X105517486Y-58429668D01*
X105549873Y-58491578D01*
X105543647Y-58561170D01*
X105515937Y-58603454D01*
X102565600Y-61553792D01*
X102453795Y-61665596D01*
X102453793Y-61665598D01*
X102435154Y-61697883D01*
X102421132Y-61722171D01*
X102374737Y-61802529D01*
X102333813Y-61955257D01*
X102333813Y-61955259D01*
X102333813Y-62123360D01*
X102333814Y-62123373D01*
X102333814Y-66299902D01*
X102314129Y-66366941D01*
X102297495Y-66387583D01*
X101119481Y-67565596D01*
X101119479Y-67565598D01*
X101096405Y-67605565D01*
X101081268Y-67631784D01*
X101040423Y-67702529D01*
X100999499Y-67855257D01*
X100999499Y-67855259D01*
X100999499Y-68023360D01*
X100999500Y-68023373D01*
X100999500Y-70317587D01*
X100979815Y-70384626D01*
X100972450Y-70394896D01*
X100970186Y-70397734D01*
X100874209Y-70550480D01*
X100841541Y-70643840D01*
X100800820Y-70700616D01*
X100735867Y-70726363D01*
X100667305Y-70712907D01*
X100616903Y-70664519D01*
X100600500Y-70602885D01*
X100600500Y-61220096D01*
X100620185Y-61153057D01*
X100636814Y-61132420D01*
X103386470Y-58382763D01*
X103447791Y-58349280D01*
X103506238Y-58350670D01*
X103634592Y-58385063D01*
X103811034Y-58400500D01*
X103869999Y-58405659D01*
X103870000Y-58405659D01*
X103870001Y-58405659D01*
X103928966Y-58400500D01*
X104105408Y-58385063D01*
X104333663Y-58323903D01*
X104547830Y-58224035D01*
X104741401Y-58088495D01*
X104863329Y-57966566D01*
X104924648Y-57933084D01*
X104994340Y-57938068D01*
G37*
%TD.AperFunction*%
%TA.AperFunction,Conductor*%
G36*
X130568627Y-53019685D02*
G01*
X130614382Y-53072489D01*
X130624326Y-53141647D01*
X130595301Y-53205203D01*
X130557883Y-53234485D01*
X130447206Y-53290877D01*
X130121917Y-53502122D01*
X129820488Y-53746215D01*
X129820480Y-53746222D01*
X129546222Y-54020480D01*
X129546215Y-54020488D01*
X129302122Y-54321917D01*
X129090877Y-54647206D01*
X128914787Y-54992802D01*
X128775788Y-55354905D01*
X128675397Y-55729570D01*
X128675397Y-55729572D01*
X128614722Y-56112660D01*
X128594422Y-56499999D01*
X128594422Y-56500000D01*
X128614722Y-56887339D01*
X128619039Y-56914596D01*
X128675398Y-57270433D01*
X128769608Y-57622032D01*
X128775788Y-57645094D01*
X128914787Y-58007197D01*
X129090877Y-58352793D01*
X129302122Y-58678082D01*
X129418264Y-58821505D01*
X129546219Y-58979516D01*
X129820484Y-59253781D01*
X129875352Y-59298212D01*
X130121917Y-59497877D01*
X130412368Y-59686498D01*
X130447211Y-59709125D01*
X130792806Y-59885214D01*
X131154913Y-60024214D01*
X131529567Y-60124602D01*
X131912662Y-60185278D01*
X132278576Y-60204455D01*
X132299999Y-60205578D01*
X132300000Y-60205578D01*
X132300001Y-60205578D01*
X132320301Y-60204514D01*
X132687338Y-60185278D01*
X133070433Y-60124602D01*
X133445087Y-60024214D01*
X133807194Y-59885214D01*
X134152789Y-59709125D01*
X134478084Y-59497876D01*
X134779516Y-59253781D01*
X135053781Y-58979516D01*
X135297876Y-58678084D01*
X135426792Y-58479571D01*
X135509124Y-58352791D01*
X135509125Y-58352789D01*
X135542547Y-58287195D01*
X135590521Y-58236398D01*
X135658342Y-58219603D01*
X135724477Y-58242140D01*
X135767929Y-58296855D01*
X135777031Y-58344022D01*
X135522579Y-117546437D01*
X135502606Y-117613391D01*
X135449606Y-117658919D01*
X135380406Y-117668565D01*
X135316975Y-117639267D01*
X135288095Y-117602199D01*
X135276166Y-117578787D01*
X135209125Y-117447211D01*
X135128928Y-117323718D01*
X134997877Y-117121917D01*
X134753784Y-116820488D01*
X134753781Y-116820484D01*
X134479516Y-116546219D01*
X134178084Y-116302124D01*
X134178082Y-116302122D01*
X133852793Y-116090877D01*
X133507197Y-115914787D01*
X133145094Y-115775788D01*
X133145087Y-115775786D01*
X132770433Y-115675398D01*
X132770429Y-115675397D01*
X132770428Y-115675397D01*
X132387339Y-115614722D01*
X132000001Y-115594422D01*
X131999999Y-115594422D01*
X131612660Y-115614722D01*
X131229572Y-115675397D01*
X131229570Y-115675397D01*
X130854905Y-115775788D01*
X130492802Y-115914787D01*
X130147206Y-116090877D01*
X129821917Y-116302122D01*
X129520488Y-116546215D01*
X129520480Y-116546222D01*
X129246222Y-116820480D01*
X129246215Y-116820488D01*
X129002122Y-117121917D01*
X128790877Y-117447206D01*
X128614787Y-117792802D01*
X128475788Y-118154905D01*
X128375397Y-118529570D01*
X128375397Y-118529572D01*
X128314722Y-118912660D01*
X128294422Y-119299999D01*
X128294422Y-119300000D01*
X128314722Y-119687339D01*
X128324571Y-119749522D01*
X128375398Y-120070433D01*
X128411606Y-120205565D01*
X128475788Y-120445094D01*
X128614787Y-120807197D01*
X128790877Y-121152793D01*
X129002122Y-121478082D01*
X129002124Y-121478084D01*
X129246219Y-121779516D01*
X129520484Y-122053781D01*
X129520488Y-122053784D01*
X129821917Y-122297877D01*
X129876938Y-122333608D01*
X130147211Y-122509125D01*
X130257883Y-122565515D01*
X130308679Y-122613489D01*
X130325474Y-122681310D01*
X130302937Y-122747445D01*
X130248222Y-122790897D01*
X130201588Y-122800000D01*
X74798412Y-122800000D01*
X74731373Y-122780315D01*
X74685618Y-122727511D01*
X74675674Y-122658353D01*
X74704699Y-122594797D01*
X74742117Y-122565515D01*
X74852789Y-122509125D01*
X75178084Y-122297876D01*
X75479516Y-122053781D01*
X75753781Y-121779516D01*
X75997876Y-121478084D01*
X76209125Y-121152789D01*
X76385214Y-120807194D01*
X76524214Y-120445087D01*
X76624602Y-120070433D01*
X76685278Y-119687338D01*
X76705578Y-119300000D01*
X76685278Y-118912662D01*
X76624602Y-118529567D01*
X76527987Y-118168995D01*
X80499499Y-118168995D01*
X80526418Y-118304322D01*
X80526421Y-118304332D01*
X80579221Y-118431804D01*
X80579228Y-118431817D01*
X80655885Y-118546541D01*
X80655888Y-118546545D01*
X80753454Y-118644111D01*
X80753458Y-118644114D01*
X80868182Y-118720771D01*
X80868195Y-118720778D01*
X80987471Y-118770183D01*
X80995672Y-118773580D01*
X80995676Y-118773580D01*
X80995677Y-118773581D01*
X81131004Y-118800500D01*
X81131007Y-118800500D01*
X81268995Y-118800500D01*
X81386355Y-118777155D01*
X81404328Y-118773580D01*
X81531811Y-118720775D01*
X81646542Y-118644114D01*
X81744114Y-118546542D01*
X81820775Y-118431811D01*
X81873580Y-118304328D01*
X81900500Y-118168995D01*
X84899499Y-118168995D01*
X84926418Y-118304322D01*
X84926421Y-118304332D01*
X84979221Y-118431804D01*
X84979228Y-118431817D01*
X85055885Y-118546541D01*
X85055888Y-118546545D01*
X85153454Y-118644111D01*
X85153458Y-118644114D01*
X85268182Y-118720771D01*
X85268195Y-118720778D01*
X85387471Y-118770183D01*
X85395672Y-118773580D01*
X85395676Y-118773580D01*
X85395677Y-118773581D01*
X85531004Y-118800500D01*
X85531007Y-118800500D01*
X85668995Y-118800500D01*
X85786355Y-118777155D01*
X96400000Y-118777155D01*
X96400000Y-119425000D01*
X97316988Y-119425000D01*
X97284075Y-119482007D01*
X97250000Y-119609174D01*
X97250000Y-119740826D01*
X97284075Y-119867993D01*
X97316988Y-119925000D01*
X96400000Y-119925000D01*
X96400000Y-120572844D01*
X96406401Y-120632372D01*
X96406403Y-120632379D01*
X96456645Y-120767086D01*
X96456649Y-120767093D01*
X96542809Y-120882187D01*
X96542812Y-120882190D01*
X96657906Y-120968350D01*
X96657913Y-120968354D01*
X96792620Y-121018596D01*
X96792627Y-121018598D01*
X96852155Y-121024999D01*
X96852172Y-121025000D01*
X97500000Y-121025000D01*
X97500000Y-120108012D01*
X97557007Y-120140925D01*
X97684174Y-120175000D01*
X97815826Y-120175000D01*
X97942993Y-120140925D01*
X98000000Y-120108012D01*
X98000000Y-121025000D01*
X98647828Y-121025000D01*
X98647844Y-121024999D01*
X98707372Y-121018598D01*
X98707379Y-121018596D01*
X98842086Y-120968354D01*
X98842093Y-120968350D01*
X98957187Y-120882190D01*
X98957190Y-120882187D01*
X99043350Y-120767093D01*
X99043354Y-120767086D01*
X99092422Y-120635529D01*
X99134293Y-120579595D01*
X99199757Y-120555178D01*
X99268030Y-120570030D01*
X99296285Y-120591181D01*
X99418599Y-120713495D01*
X99495135Y-120767086D01*
X99612165Y-120849032D01*
X99612167Y-120849033D01*
X99612170Y-120849035D01*
X99826337Y-120948903D01*
X99826343Y-120948904D01*
X99826344Y-120948905D01*
X99881285Y-120963626D01*
X100054592Y-121010063D01*
X100225319Y-121025000D01*
X100289999Y-121030659D01*
X100290000Y-121030659D01*
X100290001Y-121030659D01*
X100354681Y-121025000D01*
X100525408Y-121010063D01*
X100753663Y-120948903D01*
X100967830Y-120849035D01*
X101161401Y-120713495D01*
X101328495Y-120546401D01*
X101464035Y-120352830D01*
X101563903Y-120138663D01*
X101625063Y-119910408D01*
X101645659Y-119675000D01*
X101625063Y-119439592D01*
X101563903Y-119211337D01*
X101464035Y-118997171D01*
X101441228Y-118964598D01*
X101328494Y-118803597D01*
X101161402Y-118636506D01*
X101161395Y-118636501D01*
X100967834Y-118500967D01*
X100967830Y-118500965D01*
X100896727Y-118467809D01*
X100753663Y-118401097D01*
X100753659Y-118401096D01*
X100753655Y-118401094D01*
X100525413Y-118339938D01*
X100525403Y-118339936D01*
X100290001Y-118319341D01*
X100289999Y-118319341D01*
X100054596Y-118339936D01*
X100054586Y-118339938D01*
X99826344Y-118401094D01*
X99826335Y-118401098D01*
X99612171Y-118500964D01*
X99612169Y-118500965D01*
X99418600Y-118636503D01*
X99296284Y-118758819D01*
X99234961Y-118792303D01*
X99165269Y-118787319D01*
X99109336Y-118745447D01*
X99092421Y-118714470D01*
X99043354Y-118582913D01*
X99043350Y-118582906D01*
X98957190Y-118467812D01*
X98957187Y-118467809D01*
X98842093Y-118381649D01*
X98842086Y-118381645D01*
X98707379Y-118331403D01*
X98707372Y-118331401D01*
X98647844Y-118325000D01*
X98000000Y-118325000D01*
X98000000Y-119241988D01*
X97942993Y-119209075D01*
X97815826Y-119175000D01*
X97684174Y-119175000D01*
X97557007Y-119209075D01*
X97500000Y-119241988D01*
X97500000Y-118325000D01*
X96852155Y-118325000D01*
X96792627Y-118331401D01*
X96792620Y-118331403D01*
X96657913Y-118381645D01*
X96657906Y-118381649D01*
X96542812Y-118467809D01*
X96542809Y-118467812D01*
X96456649Y-118582906D01*
X96456645Y-118582913D01*
X96406403Y-118717620D01*
X96406401Y-118717627D01*
X96400000Y-118777155D01*
X85786355Y-118777155D01*
X85804328Y-118773580D01*
X85931811Y-118720775D01*
X86046542Y-118644114D01*
X86144114Y-118546542D01*
X86220775Y-118431811D01*
X86273580Y-118304328D01*
X86300500Y-118168993D01*
X86300500Y-118031007D01*
X86300500Y-118031004D01*
X86273581Y-117895677D01*
X86273580Y-117895676D01*
X86273580Y-117895672D01*
X86230970Y-117792802D01*
X86220778Y-117768195D01*
X86220771Y-117768182D01*
X86144114Y-117653458D01*
X86144111Y-117653454D01*
X86046545Y-117555888D01*
X86046541Y-117555885D01*
X85931817Y-117479228D01*
X85931804Y-117479221D01*
X85804332Y-117426421D01*
X85804322Y-117426418D01*
X85668995Y-117399500D01*
X85668993Y-117399500D01*
X85531007Y-117399500D01*
X85531005Y-117399500D01*
X85395677Y-117426418D01*
X85395667Y-117426421D01*
X85268195Y-117479221D01*
X85268182Y-117479228D01*
X85153458Y-117555885D01*
X85153454Y-117555888D01*
X85055888Y-117653454D01*
X85055885Y-117653458D01*
X84979228Y-117768182D01*
X84979221Y-117768195D01*
X84926421Y-117895667D01*
X84926418Y-117895677D01*
X84899500Y-118031004D01*
X84899500Y-118031007D01*
X84899500Y-118168993D01*
X84899500Y-118168995D01*
X84899499Y-118168995D01*
X81900500Y-118168995D01*
X81900500Y-118168993D01*
X81900500Y-118031007D01*
X81900500Y-118031004D01*
X81873581Y-117895677D01*
X81873580Y-117895676D01*
X81873580Y-117895672D01*
X81830970Y-117792802D01*
X81820778Y-117768195D01*
X81820771Y-117768182D01*
X81744114Y-117653458D01*
X81744111Y-117653454D01*
X81646545Y-117555888D01*
X81646541Y-117555885D01*
X81531817Y-117479228D01*
X81531804Y-117479221D01*
X81404332Y-117426421D01*
X81404322Y-117426418D01*
X81268995Y-117399500D01*
X81268993Y-117399500D01*
X81131007Y-117399500D01*
X81131005Y-117399500D01*
X80995677Y-117426418D01*
X80995667Y-117426421D01*
X80868195Y-117479221D01*
X80868182Y-117479228D01*
X80753458Y-117555885D01*
X80753454Y-117555888D01*
X80655888Y-117653454D01*
X80655885Y-117653458D01*
X80579228Y-117768182D01*
X80579221Y-117768195D01*
X80526421Y-117895667D01*
X80526418Y-117895677D01*
X80499500Y-118031004D01*
X80499500Y-118031007D01*
X80499500Y-118168993D01*
X80499500Y-118168995D01*
X80499499Y-118168995D01*
X76527987Y-118168995D01*
X76524214Y-118154913D01*
X76385214Y-117792806D01*
X76209125Y-117447211D01*
X76128928Y-117323718D01*
X75997877Y-117121917D01*
X75753784Y-116820488D01*
X75753781Y-116820484D01*
X75479516Y-116546219D01*
X75178084Y-116302124D01*
X75178082Y-116302122D01*
X74852793Y-116090877D01*
X74507197Y-115914787D01*
X74145094Y-115775788D01*
X74145087Y-115775786D01*
X73770433Y-115675398D01*
X73770429Y-115675397D01*
X73770428Y-115675397D01*
X73387339Y-115614722D01*
X73000001Y-115594422D01*
X72999999Y-115594422D01*
X72612660Y-115614722D01*
X72229572Y-115675397D01*
X72229570Y-115675397D01*
X71854905Y-115775788D01*
X71492802Y-115914787D01*
X71147206Y-116090877D01*
X70821917Y-116302122D01*
X70520488Y-116546215D01*
X70520480Y-116546222D01*
X70246222Y-116820480D01*
X70246215Y-116820488D01*
X70002122Y-117121917D01*
X69790875Y-117447208D01*
X69790873Y-117447212D01*
X69757450Y-117512808D01*
X69709475Y-117563604D01*
X69641654Y-117580398D01*
X69575519Y-117557860D01*
X69532068Y-117503144D01*
X69522968Y-117455986D01*
X69538428Y-113858992D01*
X106749500Y-113858992D01*
X106749500Y-114061007D01*
X106788907Y-114259119D01*
X106788909Y-114259127D01*
X106866213Y-114445755D01*
X106919904Y-114526109D01*
X106940782Y-114592787D01*
X106922297Y-114660167D01*
X106919904Y-114663891D01*
X106866213Y-114744244D01*
X106788909Y-114930872D01*
X106788907Y-114930880D01*
X106749500Y-115128992D01*
X106749500Y-115331007D01*
X106788907Y-115529119D01*
X106788909Y-115529127D01*
X106822325Y-115609800D01*
X106829794Y-115679270D01*
X106810038Y-115724660D01*
X106810454Y-115724887D01*
X106807919Y-115729528D01*
X106807037Y-115731556D01*
X106806206Y-115732665D01*
X106806202Y-115732672D01*
X106755908Y-115867517D01*
X106749501Y-115927116D01*
X106749501Y-115927123D01*
X106749500Y-115927135D01*
X106749500Y-117072870D01*
X106749501Y-117072876D01*
X106755908Y-117132483D01*
X106806202Y-117267328D01*
X106806206Y-117267335D01*
X106892452Y-117382544D01*
X106892455Y-117382547D01*
X107007664Y-117468793D01*
X107007671Y-117468797D01*
X107142517Y-117519091D01*
X107142516Y-117519091D01*
X107149444Y-117519835D01*
X107202127Y-117525500D01*
X108797872Y-117525499D01*
X108857483Y-117519091D01*
X108992331Y-117468796D01*
X109107546Y-117382546D01*
X109193796Y-117267331D01*
X109244091Y-117132483D01*
X109250500Y-117072873D01*
X109250499Y-115927128D01*
X109244091Y-115867517D01*
X109209878Y-115775788D01*
X109193797Y-115732671D01*
X109193796Y-115732670D01*
X109193796Y-115732669D01*
X109192967Y-115731562D01*
X109192485Y-115730268D01*
X109189546Y-115724886D01*
X109190319Y-115724463D01*
X109168551Y-115666099D01*
X109177675Y-115609798D01*
X109211089Y-115529132D01*
X109211089Y-115529131D01*
X109211091Y-115529127D01*
X109250500Y-115331003D01*
X109250500Y-115128997D01*
X109211091Y-114930873D01*
X109133786Y-114744244D01*
X109080094Y-114663889D01*
X109059217Y-114597214D01*
X109077701Y-114529834D01*
X109080078Y-114526134D01*
X109133786Y-114445756D01*
X109211091Y-114259127D01*
X109250500Y-114061003D01*
X109250500Y-113858997D01*
X109211091Y-113660873D01*
X109168121Y-113557135D01*
X110599500Y-113557135D01*
X110599500Y-114702870D01*
X110599501Y-114702876D01*
X110605908Y-114762483D01*
X110656202Y-114897328D01*
X110656203Y-114897330D01*
X110656204Y-114897331D01*
X110657028Y-114898432D01*
X110657509Y-114899721D01*
X110660454Y-114905114D01*
X110659678Y-114905537D01*
X110681448Y-114963895D01*
X110672325Y-115020198D01*
X110638910Y-115100868D01*
X110638907Y-115100880D01*
X110599500Y-115298992D01*
X110599500Y-115501007D01*
X110638907Y-115699119D01*
X110638909Y-115699127D01*
X110716213Y-115885755D01*
X110769904Y-115966109D01*
X110790782Y-116032787D01*
X110772297Y-116100167D01*
X110769904Y-116103891D01*
X110716213Y-116184244D01*
X110638909Y-116370872D01*
X110638907Y-116370880D01*
X110599500Y-116568992D01*
X110599500Y-116771007D01*
X110638907Y-116969119D01*
X110638909Y-116969127D01*
X110716212Y-117155752D01*
X110716217Y-117155762D01*
X110828441Y-117323718D01*
X110971281Y-117466558D01*
X111139237Y-117578782D01*
X111139241Y-117578784D01*
X111139244Y-117578786D01*
X111325873Y-117656091D01*
X111494904Y-117689713D01*
X111523992Y-117695499D01*
X111523996Y-117695500D01*
X111523997Y-117695500D01*
X112176004Y-117695500D01*
X112176005Y-117695499D01*
X112374127Y-117656091D01*
X112560756Y-117578786D01*
X112728718Y-117466558D01*
X112871558Y-117323718D01*
X112909232Y-117267335D01*
X112972398Y-117172801D01*
X113026010Y-117127995D01*
X113095335Y-117119288D01*
X113158362Y-117149442D01*
X113195082Y-117208885D01*
X113199500Y-117241691D01*
X113199500Y-117317060D01*
X113179815Y-117384099D01*
X113163181Y-117404741D01*
X112878209Y-117689713D01*
X111780297Y-118787624D01*
X111780296Y-118787624D01*
X111780297Y-118787625D01*
X111670180Y-118897742D01*
X111629092Y-118963132D01*
X111627204Y-118966047D01*
X111590604Y-119020824D01*
X111590600Y-119020832D01*
X111590266Y-119021639D01*
X111580713Y-119040127D01*
X111574212Y-119050474D01*
X111574210Y-119050477D01*
X111552982Y-119111140D01*
X111550504Y-119117631D01*
X111530264Y-119166496D01*
X111530263Y-119166502D01*
X111527550Y-119180140D01*
X111522975Y-119196898D01*
X111514634Y-119220735D01*
X111514632Y-119220742D01*
X111508890Y-119271696D01*
X111507288Y-119281994D01*
X111499500Y-119321152D01*
X111499500Y-119348085D01*
X111498720Y-119361969D01*
X111494435Y-119399998D01*
X111494435Y-119400001D01*
X111498720Y-119438029D01*
X111499500Y-119451914D01*
X111499500Y-119478844D01*
X111507288Y-119518003D01*
X111508890Y-119528303D01*
X111514632Y-119579252D01*
X111514633Y-119579260D01*
X111522976Y-119603104D01*
X111527550Y-119619860D01*
X111530262Y-119633496D01*
X111550509Y-119682377D01*
X111552988Y-119688872D01*
X111574212Y-119749524D01*
X111580709Y-119759865D01*
X111590268Y-119778365D01*
X111590603Y-119779173D01*
X111590605Y-119779179D01*
X111627223Y-119833982D01*
X111629114Y-119836900D01*
X111670180Y-119902257D01*
X111670182Y-119902260D01*
X111670183Y-119902261D01*
X111670184Y-119902262D01*
X111797738Y-120029816D01*
X111863096Y-120070883D01*
X111863131Y-120070905D01*
X111866040Y-120072790D01*
X111920821Y-120109394D01*
X111921606Y-120109719D01*
X111940134Y-120119289D01*
X111950478Y-120125789D01*
X112011175Y-120147028D01*
X112017607Y-120149484D01*
X112046021Y-120161253D01*
X112066497Y-120169735D01*
X112066498Y-120169735D01*
X112066503Y-120169737D01*
X112080139Y-120172449D01*
X112096898Y-120177023D01*
X112120745Y-120185368D01*
X112171714Y-120191110D01*
X112181992Y-120192709D01*
X112209140Y-120198109D01*
X112221157Y-120200500D01*
X112221158Y-120200500D01*
X112248085Y-120200500D01*
X112261969Y-120201280D01*
X112299998Y-120205565D01*
X112300000Y-120205565D01*
X112300002Y-120205565D01*
X112338031Y-120201280D01*
X112351915Y-120200500D01*
X112378841Y-120200500D01*
X112378842Y-120200500D01*
X112418017Y-120192707D01*
X112428283Y-120191110D01*
X112479255Y-120185368D01*
X112503100Y-120177023D01*
X112519862Y-120172448D01*
X112533497Y-120169737D01*
X112582389Y-120149484D01*
X112588837Y-120147023D01*
X112649522Y-120125789D01*
X112659868Y-120119287D01*
X112678390Y-120109720D01*
X112679179Y-120109394D01*
X112733987Y-120072771D01*
X112736825Y-120070931D01*
X112802262Y-120029816D01*
X112929816Y-119902262D01*
X112929816Y-119902261D01*
X114000079Y-118831996D01*
X114000084Y-118831993D01*
X114010287Y-118821789D01*
X114010289Y-118821789D01*
X114621789Y-118210289D01*
X114709394Y-118079179D01*
X114769738Y-117933497D01*
X114800500Y-117778842D01*
X114800500Y-117621157D01*
X114800500Y-114721158D01*
X114800500Y-114721155D01*
X114800499Y-114721153D01*
X114769738Y-114566510D01*
X114769737Y-114566503D01*
X114769735Y-114566498D01*
X114709397Y-114420827D01*
X114709390Y-114420814D01*
X114621790Y-114289712D01*
X114591197Y-114259119D01*
X114510289Y-114178211D01*
X114191070Y-113858992D01*
X113840292Y-113508213D01*
X113840288Y-113508210D01*
X113709185Y-113420609D01*
X113709172Y-113420602D01*
X113563501Y-113360264D01*
X113563489Y-113360261D01*
X113408845Y-113329500D01*
X113408842Y-113329500D01*
X113081035Y-113329500D01*
X113013996Y-113309815D01*
X112981768Y-113279810D01*
X112957550Y-113247458D01*
X112957547Y-113247455D01*
X112957546Y-113247454D01*
X112957542Y-113247451D01*
X112842335Y-113161206D01*
X112842328Y-113161202D01*
X112707482Y-113110908D01*
X112707483Y-113110908D01*
X112647883Y-113104501D01*
X112647881Y-113104500D01*
X112647873Y-113104500D01*
X112647864Y-113104500D01*
X111052129Y-113104500D01*
X111052123Y-113104501D01*
X110992516Y-113110908D01*
X110857671Y-113161202D01*
X110857664Y-113161206D01*
X110742455Y-113247452D01*
X110742452Y-113247455D01*
X110656206Y-113362664D01*
X110656202Y-113362671D01*
X110605908Y-113497517D01*
X110599501Y-113557116D01*
X110599500Y-113557135D01*
X109168121Y-113557135D01*
X109133786Y-113474244D01*
X109133784Y-113474241D01*
X109133782Y-113474237D01*
X109021558Y-113306281D01*
X108878718Y-113163441D01*
X108710762Y-113051217D01*
X108710752Y-113051212D01*
X108524127Y-112973909D01*
X108524119Y-112973907D01*
X108326007Y-112934500D01*
X108326003Y-112934500D01*
X107673997Y-112934500D01*
X107673992Y-112934500D01*
X107475880Y-112973907D01*
X107475872Y-112973909D01*
X107289247Y-113051212D01*
X107289237Y-113051217D01*
X107121281Y-113163441D01*
X106978441Y-113306281D01*
X106866217Y-113474237D01*
X106866212Y-113474247D01*
X106788909Y-113660872D01*
X106788907Y-113660880D01*
X106749500Y-113858992D01*
X69538428Y-113858992D01*
X69543667Y-112639999D01*
X130544341Y-112639999D01*
X130544341Y-112640000D01*
X130564936Y-112875403D01*
X130564938Y-112875413D01*
X130626094Y-113103655D01*
X130626096Y-113103659D01*
X130626097Y-113103663D01*
X130693147Y-113247451D01*
X130725965Y-113317830D01*
X130725967Y-113317834D01*
X130834281Y-113472521D01*
X130861505Y-113511401D01*
X131028599Y-113678495D01*
X131125384Y-113746265D01*
X131222165Y-113814032D01*
X131222167Y-113814033D01*
X131222170Y-113814035D01*
X131436337Y-113913903D01*
X131664592Y-113975063D01*
X131852918Y-113991539D01*
X131899999Y-113995659D01*
X131900000Y-113995659D01*
X131900001Y-113995659D01*
X131939234Y-113992226D01*
X132135408Y-113975063D01*
X132363663Y-113913903D01*
X132577830Y-113814035D01*
X132771401Y-113678495D01*
X132938495Y-113511401D01*
X133074035Y-113317830D01*
X133173903Y-113103663D01*
X133235063Y-112875408D01*
X133255659Y-112640000D01*
X133235063Y-112404592D01*
X133173903Y-112176337D01*
X133074035Y-111962171D01*
X132938495Y-111768599D01*
X132816179Y-111646283D01*
X132782696Y-111584963D01*
X132787680Y-111515271D01*
X132829551Y-111459337D01*
X132860529Y-111442422D01*
X132992086Y-111393354D01*
X132992093Y-111393350D01*
X133107187Y-111307190D01*
X133107190Y-111307187D01*
X133193350Y-111192093D01*
X133193354Y-111192086D01*
X133243596Y-111057379D01*
X133243598Y-111057372D01*
X133249999Y-110997844D01*
X133250000Y-110997827D01*
X133250000Y-110350000D01*
X132333012Y-110350000D01*
X132365925Y-110292993D01*
X132400000Y-110165826D01*
X132400000Y-110034174D01*
X132365925Y-109907007D01*
X132333012Y-109850000D01*
X133250000Y-109850000D01*
X133250000Y-109202172D01*
X133249999Y-109202155D01*
X133243598Y-109142627D01*
X133243596Y-109142620D01*
X133193354Y-109007913D01*
X133193350Y-109007906D01*
X133107190Y-108892812D01*
X133107187Y-108892809D01*
X132992093Y-108806649D01*
X132992086Y-108806645D01*
X132857379Y-108756403D01*
X132857372Y-108756401D01*
X132797844Y-108750000D01*
X132150000Y-108750000D01*
X132150000Y-109666988D01*
X132092993Y-109634075D01*
X131965826Y-109600000D01*
X131834174Y-109600000D01*
X131707007Y-109634075D01*
X131650000Y-109666988D01*
X131650000Y-108750000D01*
X131002155Y-108750000D01*
X130942627Y-108756401D01*
X130942620Y-108756403D01*
X130807913Y-108806645D01*
X130807906Y-108806649D01*
X130692812Y-108892809D01*
X130692809Y-108892812D01*
X130606649Y-109007906D01*
X130606645Y-109007913D01*
X130556403Y-109142620D01*
X130556401Y-109142627D01*
X130550000Y-109202155D01*
X130550000Y-109850000D01*
X131466988Y-109850000D01*
X131434075Y-109907007D01*
X131400000Y-110034174D01*
X131400000Y-110165826D01*
X131434075Y-110292993D01*
X131466988Y-110350000D01*
X130550000Y-110350000D01*
X130550000Y-110997844D01*
X130556401Y-111057372D01*
X130556403Y-111057379D01*
X130606645Y-111192086D01*
X130606649Y-111192093D01*
X130692809Y-111307187D01*
X130692812Y-111307190D01*
X130807906Y-111393350D01*
X130807913Y-111393354D01*
X130939470Y-111442421D01*
X130995403Y-111484292D01*
X131019821Y-111549756D01*
X131004970Y-111618029D01*
X130983819Y-111646284D01*
X130861503Y-111768600D01*
X130725965Y-111962169D01*
X130725964Y-111962171D01*
X130626098Y-112176335D01*
X130626094Y-112176344D01*
X130564938Y-112404586D01*
X130564936Y-112404596D01*
X130544341Y-112639999D01*
X69543667Y-112639999D01*
X69604441Y-98499996D01*
X81194435Y-98499996D01*
X81194435Y-98500003D01*
X81214630Y-98679249D01*
X81214631Y-98679254D01*
X81274211Y-98849523D01*
X81370184Y-99002262D01*
X81497738Y-99129816D01*
X81650478Y-99225789D01*
X81820745Y-99285368D01*
X81820750Y-99285369D01*
X81999996Y-99305565D01*
X82000000Y-99305565D01*
X82000004Y-99305565D01*
X82179249Y-99285369D01*
X82179252Y-99285368D01*
X82179255Y-99285368D01*
X82349522Y-99225789D01*
X82502262Y-99129816D01*
X82629816Y-99002262D01*
X82725789Y-98849522D01*
X82785368Y-98679255D01*
X82805565Y-98500000D01*
X82792649Y-98385369D01*
X82785369Y-98320750D01*
X82785366Y-98320737D01*
X82746111Y-98208554D01*
X82742549Y-98138775D01*
X82777277Y-98078148D01*
X82839270Y-98045920D01*
X82849236Y-98044383D01*
X82929255Y-98035368D01*
X83099522Y-97975789D01*
X83252262Y-97879816D01*
X83379816Y-97752262D01*
X83475789Y-97599522D01*
X83535368Y-97429255D01*
X83551854Y-97282940D01*
X83555565Y-97250003D01*
X83555565Y-97249996D01*
X83535369Y-97070750D01*
X83535368Y-97070745D01*
X83518977Y-97023903D01*
X83475789Y-96900478D01*
X83471174Y-96893134D01*
X83379815Y-96747737D01*
X83252262Y-96620184D01*
X83099523Y-96524211D01*
X82929254Y-96464631D01*
X82929249Y-96464630D01*
X82750004Y-96444435D01*
X82749996Y-96444435D01*
X82570750Y-96464630D01*
X82570745Y-96464631D01*
X82400476Y-96524211D01*
X82247737Y-96620184D01*
X82120184Y-96747737D01*
X82024210Y-96900478D01*
X81964630Y-97070750D01*
X81954837Y-97157668D01*
X81927770Y-97222082D01*
X81919298Y-97231465D01*
X81631286Y-97519478D01*
X81519482Y-97631281D01*
X81519478Y-97631287D01*
X81471359Y-97714632D01*
X81440424Y-97768212D01*
X81440423Y-97768213D01*
X81399498Y-97920945D01*
X81398438Y-97929003D01*
X81396232Y-97928712D01*
X81379814Y-97984628D01*
X81372445Y-97994903D01*
X81370184Y-97997737D01*
X81274211Y-98150476D01*
X81214631Y-98320745D01*
X81214630Y-98320750D01*
X81194435Y-98499996D01*
X69604441Y-98499996D01*
X69702220Y-75749999D01*
X78144341Y-75749999D01*
X78144341Y-75750000D01*
X78164936Y-75985403D01*
X78164938Y-75985413D01*
X78226094Y-76213655D01*
X78226096Y-76213659D01*
X78226097Y-76213663D01*
X78275441Y-76319481D01*
X78325965Y-76427830D01*
X78325967Y-76427834D01*
X78461501Y-76621395D01*
X78461506Y-76621402D01*
X78628597Y-76788493D01*
X78628603Y-76788498D01*
X78814158Y-76918425D01*
X78857783Y-76973002D01*
X78864977Y-77042500D01*
X78833454Y-77104855D01*
X78814158Y-77121575D01*
X78628597Y-77251505D01*
X78461505Y-77418597D01*
X78325965Y-77612169D01*
X78325964Y-77612171D01*
X78226098Y-77826335D01*
X78226094Y-77826344D01*
X78164938Y-78054586D01*
X78164936Y-78054596D01*
X78144341Y-78289999D01*
X78144341Y-78290000D01*
X78164936Y-78525403D01*
X78164938Y-78525413D01*
X78226094Y-78753655D01*
X78226096Y-78753659D01*
X78226097Y-78753663D01*
X78303748Y-78920185D01*
X78325965Y-78967830D01*
X78325967Y-78967834D01*
X78461501Y-79161395D01*
X78461506Y-79161402D01*
X78628597Y-79328493D01*
X78628603Y-79328498D01*
X78814158Y-79458425D01*
X78857783Y-79513002D01*
X78864977Y-79582500D01*
X78833454Y-79644855D01*
X78814158Y-79661575D01*
X78628597Y-79791505D01*
X78461505Y-79958597D01*
X78325965Y-80152169D01*
X78325964Y-80152171D01*
X78226098Y-80366335D01*
X78226094Y-80366344D01*
X78164938Y-80594586D01*
X78164936Y-80594596D01*
X78144341Y-80829999D01*
X78144341Y-80830000D01*
X78164936Y-81065403D01*
X78164938Y-81065413D01*
X78226094Y-81293655D01*
X78226096Y-81293659D01*
X78226097Y-81293663D01*
X78279744Y-81408709D01*
X78325965Y-81507830D01*
X78325967Y-81507834D01*
X78425068Y-81649364D01*
X78461505Y-81701401D01*
X78628599Y-81868495D01*
X78725384Y-81936265D01*
X78822165Y-82004032D01*
X78822167Y-82004033D01*
X78822170Y-82004035D01*
X79036337Y-82103903D01*
X79264592Y-82165063D01*
X79452918Y-82181539D01*
X79499999Y-82185659D01*
X79500000Y-82185659D01*
X79500001Y-82185659D01*
X79539234Y-82182226D01*
X79735408Y-82165063D01*
X79963663Y-82103903D01*
X80177830Y-82004035D01*
X80371401Y-81868495D01*
X80538495Y-81701401D01*
X80674035Y-81507830D01*
X80773903Y-81293663D01*
X80835063Y-81065408D01*
X80855659Y-80830000D01*
X80835063Y-80594592D01*
X80800671Y-80466239D01*
X80802334Y-80396393D01*
X80832763Y-80346470D01*
X83042416Y-78136819D01*
X83103739Y-78103334D01*
X83130097Y-78100500D01*
X88050902Y-78100500D01*
X88117941Y-78120185D01*
X88163696Y-78172989D01*
X88173640Y-78242147D01*
X88144615Y-78305703D01*
X88138583Y-78312181D01*
X81919481Y-84531282D01*
X81919479Y-84531284D01*
X81913208Y-84542147D01*
X81886265Y-84588815D01*
X81840423Y-84668215D01*
X81799499Y-84820943D01*
X81799499Y-84820945D01*
X81799499Y-84989046D01*
X81799500Y-84989059D01*
X81799500Y-88644702D01*
X81799499Y-88644720D01*
X81799499Y-88810426D01*
X81799498Y-88810426D01*
X81799499Y-88810429D01*
X81840423Y-88963157D01*
X81840424Y-88963159D01*
X81840423Y-88963159D01*
X81850329Y-88980315D01*
X81850330Y-88980317D01*
X81919475Y-89100081D01*
X81919481Y-89100089D01*
X82038349Y-89218957D01*
X82038355Y-89218962D01*
X90783767Y-97964374D01*
X90783777Y-97964385D01*
X90788107Y-97968715D01*
X90788108Y-97968716D01*
X90899912Y-98080520D01*
X90986723Y-98130639D01*
X90986725Y-98130641D01*
X91021080Y-98150476D01*
X91036843Y-98159577D01*
X91189571Y-98200501D01*
X91217589Y-98200501D01*
X91284628Y-98220186D01*
X91294903Y-98227555D01*
X91297737Y-98229815D01*
X91297738Y-98229816D01*
X91388080Y-98286582D01*
X91442450Y-98320745D01*
X91450478Y-98325789D01*
X91620745Y-98385368D01*
X91620750Y-98385369D01*
X91799996Y-98405565D01*
X91800000Y-98405565D01*
X91800004Y-98405565D01*
X91979249Y-98385369D01*
X91979252Y-98385368D01*
X91979255Y-98385368D01*
X92149522Y-98325789D01*
X92302262Y-98229816D01*
X92429816Y-98102262D01*
X92525789Y-97949522D01*
X92579361Y-97796421D01*
X92620082Y-97739647D01*
X92685034Y-97713899D01*
X92743564Y-97724461D01*
X92743905Y-97723489D01*
X92750004Y-97725623D01*
X92750213Y-97725661D01*
X92750471Y-97725784D01*
X92750478Y-97725789D01*
X92871719Y-97768213D01*
X92920745Y-97785368D01*
X92920750Y-97785369D01*
X93099996Y-97805565D01*
X93100000Y-97805565D01*
X93100004Y-97805565D01*
X93279249Y-97785369D01*
X93279252Y-97785368D01*
X93279255Y-97785368D01*
X93449522Y-97725789D01*
X93602262Y-97629816D01*
X93729816Y-97502262D01*
X93825789Y-97349522D01*
X93885368Y-97179255D01*
X93885369Y-97179249D01*
X93905565Y-97000003D01*
X93905565Y-96999999D01*
X93904789Y-96993121D01*
X93901278Y-96961954D01*
X93913332Y-96893134D01*
X93960680Y-96841754D01*
X94028290Y-96824129D01*
X94065453Y-96831029D01*
X94220745Y-96885368D01*
X94220750Y-96885369D01*
X94399996Y-96905565D01*
X94400000Y-96905565D01*
X94400004Y-96905565D01*
X94579249Y-96885369D01*
X94579252Y-96885368D01*
X94579255Y-96885368D01*
X94749522Y-96825789D01*
X94902262Y-96729816D01*
X95029816Y-96602262D01*
X95125789Y-96449522D01*
X95185368Y-96279255D01*
X95185486Y-96278211D01*
X95198736Y-96160616D01*
X95225803Y-96096202D01*
X95283397Y-96056647D01*
X95321956Y-96050500D01*
X98763331Y-96050500D01*
X98763347Y-96050501D01*
X98770943Y-96050501D01*
X98929054Y-96050501D01*
X98929057Y-96050501D01*
X99081785Y-96009577D01*
X99131904Y-95980639D01*
X99218716Y-95930520D01*
X99330520Y-95818716D01*
X99330520Y-95818714D01*
X99340728Y-95808507D01*
X99340730Y-95808504D01*
X99862416Y-95286818D01*
X99923739Y-95253333D01*
X99950097Y-95250499D01*
X101297871Y-95250499D01*
X101297872Y-95250499D01*
X101357483Y-95244091D01*
X101492331Y-95193796D01*
X101607546Y-95107546D01*
X101693796Y-94992331D01*
X101744091Y-94857483D01*
X101750500Y-94797873D01*
X101750499Y-93815688D01*
X101770183Y-93748650D01*
X101822987Y-93702895D01*
X101892146Y-93692951D01*
X101898682Y-93694070D01*
X101916743Y-93697662D01*
X101931005Y-93700500D01*
X101931006Y-93700500D01*
X101931007Y-93700500D01*
X107248060Y-93700500D01*
X107315099Y-93720185D01*
X107360854Y-93772989D01*
X107370798Y-93842147D01*
X107341773Y-93905703D01*
X107335741Y-93912181D01*
X106876480Y-94371441D01*
X106815157Y-94404926D01*
X106777992Y-94407288D01*
X106630002Y-94394341D01*
X106629999Y-94394341D01*
X106394596Y-94414936D01*
X106394586Y-94414938D01*
X106166344Y-94476094D01*
X106166335Y-94476098D01*
X105952171Y-94575964D01*
X105952169Y-94575965D01*
X105758597Y-94711505D01*
X105591505Y-94878597D01*
X105455965Y-95072169D01*
X105455964Y-95072171D01*
X105356098Y-95286335D01*
X105356094Y-95286344D01*
X105294938Y-95514586D01*
X105294936Y-95514596D01*
X105274341Y-95749999D01*
X105274341Y-95750000D01*
X105294936Y-95985403D01*
X105294938Y-95985413D01*
X105356094Y-96213655D01*
X105356096Y-96213659D01*
X105356097Y-96213663D01*
X105436004Y-96385023D01*
X105455965Y-96427830D01*
X105455967Y-96427834D01*
X105564281Y-96582521D01*
X105591505Y-96621401D01*
X105758599Y-96788495D01*
X105819344Y-96831029D01*
X105952165Y-96924032D01*
X105952167Y-96924033D01*
X105952170Y-96924035D01*
X106166337Y-97023903D01*
X106394592Y-97085063D01*
X106565319Y-97100000D01*
X106629999Y-97105659D01*
X106630000Y-97105659D01*
X106630001Y-97105659D01*
X106694681Y-97100000D01*
X106865408Y-97085063D01*
X107093663Y-97023903D01*
X107307830Y-96924035D01*
X107501401Y-96788495D01*
X107668495Y-96621401D01*
X107798425Y-96435842D01*
X107853002Y-96392217D01*
X107922500Y-96385023D01*
X107984855Y-96416546D01*
X108001575Y-96435842D01*
X108131500Y-96621395D01*
X108131505Y-96621401D01*
X108298599Y-96788495D01*
X108359344Y-96831029D01*
X108492165Y-96924032D01*
X108492167Y-96924033D01*
X108492170Y-96924035D01*
X108706337Y-97023903D01*
X108934592Y-97085063D01*
X109105319Y-97100000D01*
X109169999Y-97105659D01*
X109170000Y-97105659D01*
X109170001Y-97105659D01*
X109234681Y-97100000D01*
X109405408Y-97085063D01*
X109633663Y-97023903D01*
X109847830Y-96924035D01*
X110041401Y-96788495D01*
X110208495Y-96621401D01*
X110338425Y-96435842D01*
X110393002Y-96392217D01*
X110462500Y-96385023D01*
X110524855Y-96416546D01*
X110541575Y-96435842D01*
X110671500Y-96621395D01*
X110671505Y-96621401D01*
X110838599Y-96788495D01*
X110899344Y-96831029D01*
X111032165Y-96924032D01*
X111032167Y-96924033D01*
X111032170Y-96924035D01*
X111246337Y-97023903D01*
X111474592Y-97085063D01*
X111645319Y-97100000D01*
X111709999Y-97105659D01*
X111710000Y-97105659D01*
X111710001Y-97105659D01*
X111774681Y-97100000D01*
X111945408Y-97085063D01*
X112173663Y-97023903D01*
X112387830Y-96924035D01*
X112581401Y-96788495D01*
X112703717Y-96666178D01*
X112765036Y-96632696D01*
X112834728Y-96637680D01*
X112890662Y-96679551D01*
X112907577Y-96710528D01*
X112956646Y-96842088D01*
X112956649Y-96842093D01*
X113042809Y-96957187D01*
X113042812Y-96957190D01*
X113157906Y-97043350D01*
X113157913Y-97043354D01*
X113292620Y-97093596D01*
X113292627Y-97093598D01*
X113352155Y-97099999D01*
X113352172Y-97100000D01*
X114000000Y-97100000D01*
X114000000Y-96183012D01*
X114057007Y-96215925D01*
X114184174Y-96250000D01*
X114315826Y-96250000D01*
X114442993Y-96215925D01*
X114500000Y-96183012D01*
X114500000Y-97100000D01*
X115147828Y-97100000D01*
X115147844Y-97099999D01*
X115207372Y-97093598D01*
X115207379Y-97093596D01*
X115342086Y-97043354D01*
X115342093Y-97043350D01*
X115457187Y-96957190D01*
X115457190Y-96957187D01*
X115543350Y-96842093D01*
X115543354Y-96842086D01*
X115593596Y-96707379D01*
X115593598Y-96707372D01*
X115599999Y-96647844D01*
X115600000Y-96647827D01*
X115600000Y-96000000D01*
X114683012Y-96000000D01*
X114715925Y-95942993D01*
X114750000Y-95815826D01*
X114750000Y-95684174D01*
X114715925Y-95557007D01*
X114683012Y-95500000D01*
X115600000Y-95500000D01*
X115600000Y-95324500D01*
X115619685Y-95257461D01*
X115672489Y-95211706D01*
X115724000Y-95200500D01*
X126378844Y-95200500D01*
X126378845Y-95200499D01*
X126533497Y-95169737D01*
X126679179Y-95109394D01*
X126806609Y-95024248D01*
X126873286Y-95003370D01*
X126940666Y-95021854D01*
X126987357Y-95073833D01*
X126999500Y-95127350D01*
X126999500Y-95148085D01*
X126998720Y-95161969D01*
X126994435Y-95199998D01*
X126994435Y-95200001D01*
X126998720Y-95238029D01*
X126999500Y-95251914D01*
X126999500Y-95278844D01*
X127007288Y-95318003D01*
X127008890Y-95328303D01*
X127014632Y-95379252D01*
X127014633Y-95379260D01*
X127022976Y-95403104D01*
X127027550Y-95419860D01*
X127030262Y-95433496D01*
X127050509Y-95482377D01*
X127052986Y-95488867D01*
X127061989Y-95514596D01*
X127074212Y-95549524D01*
X127080709Y-95559865D01*
X127090268Y-95578365D01*
X127090603Y-95579173D01*
X127090605Y-95579179D01*
X127127223Y-95633982D01*
X127129114Y-95636900D01*
X127170180Y-95702257D01*
X127170182Y-95702260D01*
X128663181Y-97195259D01*
X128696666Y-97256582D01*
X128699500Y-97282940D01*
X128699500Y-101448085D01*
X128698720Y-101461969D01*
X128694435Y-101499998D01*
X128694435Y-101500001D01*
X128698720Y-101538029D01*
X128699500Y-101551914D01*
X128699500Y-101578844D01*
X128707288Y-101618003D01*
X128708890Y-101628303D01*
X128714632Y-101679252D01*
X128714633Y-101679260D01*
X128722976Y-101703104D01*
X128727550Y-101719860D01*
X128730262Y-101733496D01*
X128750509Y-101782377D01*
X128752988Y-101788872D01*
X128774212Y-101849524D01*
X128780709Y-101859865D01*
X128790268Y-101878365D01*
X128790603Y-101879173D01*
X128790605Y-101879179D01*
X128827223Y-101933982D01*
X128829114Y-101936900D01*
X128870180Y-102002257D01*
X128870182Y-102002260D01*
X128870184Y-102002262D01*
X128997738Y-102129816D01*
X129063096Y-102170883D01*
X129063131Y-102170905D01*
X129066040Y-102172790D01*
X129120821Y-102209394D01*
X129121606Y-102209719D01*
X129140134Y-102219289D01*
X129150478Y-102225789D01*
X129211175Y-102247028D01*
X129217607Y-102249484D01*
X129246021Y-102261253D01*
X129266497Y-102269735D01*
X129266498Y-102269735D01*
X129266503Y-102269737D01*
X129280139Y-102272449D01*
X129296898Y-102277023D01*
X129320745Y-102285368D01*
X129371714Y-102291110D01*
X129381992Y-102292709D01*
X129409140Y-102298109D01*
X129421157Y-102300500D01*
X129421158Y-102300500D01*
X129448085Y-102300500D01*
X129461969Y-102301280D01*
X129499998Y-102305565D01*
X129500000Y-102305565D01*
X129500002Y-102305565D01*
X129538031Y-102301280D01*
X129551915Y-102300500D01*
X129578841Y-102300500D01*
X129578842Y-102300500D01*
X129618017Y-102292707D01*
X129628283Y-102291110D01*
X129679255Y-102285368D01*
X129703100Y-102277023D01*
X129719862Y-102272448D01*
X129733497Y-102269737D01*
X129782389Y-102249484D01*
X129788837Y-102247023D01*
X129849522Y-102225789D01*
X129859868Y-102219287D01*
X129878390Y-102209720D01*
X129879179Y-102209394D01*
X129933987Y-102172771D01*
X129936825Y-102170931D01*
X130002262Y-102129816D01*
X130129816Y-102002262D01*
X130170931Y-101936825D01*
X130172777Y-101933979D01*
X130209389Y-101879186D01*
X130209394Y-101879179D01*
X130209720Y-101878390D01*
X130219287Y-101859868D01*
X130225789Y-101849522D01*
X130247023Y-101788837D01*
X130249490Y-101782377D01*
X130269737Y-101733497D01*
X130272449Y-101719860D01*
X130277023Y-101703100D01*
X130285368Y-101679255D01*
X130291110Y-101628283D01*
X130292707Y-101618017D01*
X130300500Y-101578842D01*
X130300500Y-101551914D01*
X130301280Y-101538029D01*
X130305565Y-101500001D01*
X130305565Y-101499998D01*
X130301280Y-101461969D01*
X130300500Y-101448085D01*
X130300500Y-96821155D01*
X130300499Y-96821153D01*
X130285896Y-96747738D01*
X130269737Y-96666503D01*
X130243128Y-96602262D01*
X130209397Y-96520827D01*
X130209390Y-96520814D01*
X130121790Y-96389712D01*
X130117101Y-96385023D01*
X130010289Y-96278211D01*
X128310289Y-94578211D01*
X128302262Y-94570184D01*
X128302260Y-94570182D01*
X128302257Y-94570180D01*
X128236900Y-94529114D01*
X128233982Y-94527223D01*
X128179179Y-94490605D01*
X128179173Y-94490603D01*
X128178365Y-94490268D01*
X128159865Y-94480709D01*
X128149524Y-94474212D01*
X128149523Y-94474211D01*
X128149522Y-94474211D01*
X128088867Y-94452986D01*
X128082377Y-94450509D01*
X128033496Y-94430262D01*
X128019860Y-94427550D01*
X128003104Y-94422976D01*
X127979260Y-94414633D01*
X127979256Y-94414632D01*
X127979255Y-94414632D01*
X127958575Y-94412301D01*
X127928303Y-94408890D01*
X127918003Y-94407288D01*
X127878844Y-94399500D01*
X127878842Y-94399500D01*
X127851915Y-94399500D01*
X127838031Y-94398720D01*
X127800002Y-94394435D01*
X127799998Y-94394435D01*
X127761969Y-94398720D01*
X127748085Y-94399500D01*
X127731941Y-94399500D01*
X127664902Y-94379815D01*
X127619147Y-94327011D01*
X127609203Y-94257853D01*
X127638228Y-94194297D01*
X127644260Y-94187819D01*
X129521786Y-92310292D01*
X129521787Y-92310291D01*
X129521789Y-92310289D01*
X129541680Y-92280520D01*
X129609394Y-92179179D01*
X129669737Y-92033497D01*
X129685174Y-91955888D01*
X129686246Y-91950501D01*
X129686246Y-91950499D01*
X129686346Y-91949999D01*
X129697526Y-91893793D01*
X129700500Y-91878844D01*
X129700500Y-59841155D01*
X129700499Y-59841153D01*
X129692855Y-59802726D01*
X129669737Y-59686503D01*
X129669735Y-59686498D01*
X129609397Y-59540827D01*
X129609390Y-59540814D01*
X129521790Y-59409712D01*
X129508413Y-59396335D01*
X129410289Y-59298211D01*
X127678557Y-57566479D01*
X127645072Y-57505156D01*
X127642710Y-57467995D01*
X127655659Y-57320000D01*
X127635063Y-57084592D01*
X127573903Y-56856337D01*
X127474035Y-56642171D01*
X127439601Y-56592993D01*
X127338494Y-56448597D01*
X127171402Y-56281506D01*
X127171395Y-56281501D01*
X127154714Y-56269821D01*
X127129485Y-56252155D01*
X126977834Y-56145967D01*
X126977830Y-56145965D01*
X126950949Y-56133430D01*
X126763663Y-56046097D01*
X126763659Y-56046096D01*
X126763655Y-56046094D01*
X126535413Y-55984938D01*
X126535403Y-55984936D01*
X126300001Y-55964341D01*
X126299999Y-55964341D01*
X126064596Y-55984936D01*
X126064586Y-55984938D01*
X125836344Y-56046094D01*
X125836335Y-56046098D01*
X125622171Y-56145964D01*
X125622169Y-56145965D01*
X125428597Y-56281505D01*
X125261505Y-56448597D01*
X125125965Y-56642169D01*
X125125964Y-56642171D01*
X125026098Y-56856335D01*
X125026094Y-56856344D01*
X124964938Y-57084586D01*
X124964936Y-57084596D01*
X124944341Y-57319999D01*
X124944341Y-57320000D01*
X124964936Y-57555403D01*
X124964938Y-57555413D01*
X125026094Y-57783655D01*
X125026096Y-57783659D01*
X125026097Y-57783663D01*
X125102669Y-57947872D01*
X125125965Y-57997830D01*
X125125967Y-57997834D01*
X125182874Y-58079105D01*
X125259469Y-58188494D01*
X125261501Y-58191395D01*
X125261506Y-58191402D01*
X125428597Y-58358493D01*
X125428603Y-58358498D01*
X125614158Y-58488425D01*
X125657783Y-58543002D01*
X125664977Y-58612500D01*
X125633454Y-58674855D01*
X125614158Y-58691575D01*
X125428597Y-58821505D01*
X125261505Y-58988597D01*
X125125965Y-59182169D01*
X125125964Y-59182171D01*
X125026098Y-59396335D01*
X125026094Y-59396344D01*
X124964938Y-59624586D01*
X124964936Y-59624596D01*
X124944341Y-59859999D01*
X124944341Y-59860000D01*
X124964936Y-60095403D01*
X124964938Y-60095413D01*
X125026094Y-60323655D01*
X125026096Y-60323659D01*
X125026097Y-60323663D01*
X125034155Y-60340943D01*
X125125965Y-60537830D01*
X125125967Y-60537834D01*
X125261501Y-60731395D01*
X125261506Y-60731402D01*
X125428597Y-60898493D01*
X125428603Y-60898498D01*
X125614158Y-61028425D01*
X125657783Y-61083002D01*
X125664977Y-61152500D01*
X125633454Y-61214855D01*
X125614158Y-61231575D01*
X125428597Y-61361505D01*
X125261505Y-61528597D01*
X125125965Y-61722169D01*
X125125965Y-61722170D01*
X125026098Y-61936335D01*
X125026094Y-61936344D01*
X124964938Y-62164586D01*
X124964936Y-62164596D01*
X124944341Y-62399999D01*
X124944341Y-62400000D01*
X124964936Y-62635403D01*
X124964938Y-62635413D01*
X125026094Y-62863655D01*
X125026096Y-62863659D01*
X125026097Y-62863663D01*
X125075999Y-62970677D01*
X125125965Y-63077830D01*
X125125967Y-63077834D01*
X125198922Y-63182023D01*
X125261501Y-63271396D01*
X125261506Y-63271402D01*
X125383818Y-63393714D01*
X125417303Y-63455037D01*
X125412319Y-63524729D01*
X125370447Y-63580662D01*
X125339471Y-63597577D01*
X125207912Y-63646646D01*
X125207906Y-63646649D01*
X125092812Y-63732809D01*
X125092809Y-63732812D01*
X125006649Y-63847906D01*
X125006645Y-63847913D01*
X124956403Y-63982620D01*
X124956401Y-63982627D01*
X124950000Y-64042155D01*
X124950000Y-64690000D01*
X125866988Y-64690000D01*
X125834075Y-64747007D01*
X125800000Y-64874174D01*
X125800000Y-65005826D01*
X125834075Y-65132993D01*
X125866988Y-65190000D01*
X124950000Y-65190000D01*
X124950000Y-65837844D01*
X124956401Y-65897372D01*
X124956403Y-65897379D01*
X125006645Y-66032086D01*
X125006649Y-66032093D01*
X125092809Y-66147187D01*
X125092812Y-66147190D01*
X125207906Y-66233350D01*
X125207913Y-66233354D01*
X125342620Y-66283596D01*
X125342627Y-66283598D01*
X125402155Y-66289999D01*
X125402172Y-66290000D01*
X126050000Y-66290000D01*
X126050000Y-65373012D01*
X126107007Y-65405925D01*
X126234174Y-65440000D01*
X126365826Y-65440000D01*
X126492993Y-65405925D01*
X126550000Y-65373012D01*
X126550000Y-66290000D01*
X127197828Y-66290000D01*
X127197844Y-66289999D01*
X127257372Y-66283598D01*
X127257379Y-66283596D01*
X127392086Y-66233354D01*
X127392093Y-66233350D01*
X127507187Y-66147190D01*
X127507190Y-66147187D01*
X127593350Y-66032093D01*
X127593354Y-66032086D01*
X127643596Y-65897379D01*
X127643598Y-65897372D01*
X127649999Y-65837844D01*
X127650000Y-65837827D01*
X127650000Y-65190000D01*
X126733012Y-65190000D01*
X126765925Y-65132993D01*
X126800000Y-65005826D01*
X126800000Y-64874174D01*
X126765925Y-64747007D01*
X126733012Y-64690000D01*
X127650000Y-64690000D01*
X127650000Y-64042172D01*
X127649999Y-64042155D01*
X127643598Y-63982627D01*
X127643596Y-63982620D01*
X127593354Y-63847913D01*
X127593350Y-63847906D01*
X127507190Y-63732812D01*
X127507187Y-63732809D01*
X127392093Y-63646649D01*
X127392088Y-63646646D01*
X127260528Y-63597577D01*
X127204595Y-63555705D01*
X127180178Y-63490241D01*
X127195030Y-63421968D01*
X127216175Y-63393720D01*
X127338495Y-63271401D01*
X127474035Y-63077830D01*
X127573903Y-62863663D01*
X127635063Y-62635408D01*
X127655659Y-62400000D01*
X127635063Y-62164592D01*
X127573903Y-61936337D01*
X127500928Y-61779843D01*
X127474035Y-61722170D01*
X127474034Y-61722169D01*
X127338494Y-61528597D01*
X127171402Y-61361506D01*
X127171396Y-61361501D01*
X126985842Y-61231575D01*
X126942217Y-61176998D01*
X126935023Y-61107500D01*
X126966546Y-61045145D01*
X126985842Y-61028425D01*
X127008026Y-61012891D01*
X127171401Y-60898495D01*
X127338495Y-60731401D01*
X127474035Y-60537830D01*
X127573903Y-60323663D01*
X127635063Y-60095408D01*
X127636686Y-60076849D01*
X127662136Y-60011781D01*
X127718725Y-59970801D01*
X127788487Y-59966920D01*
X127847895Y-59999973D01*
X128063181Y-60215259D01*
X128096666Y-60276582D01*
X128099500Y-60302940D01*
X128099500Y-73796523D01*
X128079815Y-73863562D01*
X128027011Y-73909317D01*
X127957853Y-73919261D01*
X127894297Y-73890236D01*
X127870507Y-73862496D01*
X127829817Y-73797739D01*
X127702260Y-73670182D01*
X127702257Y-73670180D01*
X127636900Y-73629114D01*
X127633982Y-73627223D01*
X127579179Y-73590605D01*
X127579173Y-73590603D01*
X127578365Y-73590268D01*
X127559865Y-73580709D01*
X127549524Y-73574212D01*
X127549523Y-73574211D01*
X127549522Y-73574211D01*
X127488867Y-73552986D01*
X127482377Y-73550509D01*
X127482302Y-73550478D01*
X127451740Y-73537819D01*
X127433496Y-73530262D01*
X127419860Y-73527550D01*
X127403104Y-73522976D01*
X127379260Y-73514633D01*
X127379256Y-73514632D01*
X127379255Y-73514632D01*
X127358575Y-73512301D01*
X127328303Y-73508890D01*
X127318003Y-73507288D01*
X127278844Y-73499500D01*
X127278842Y-73499500D01*
X127251915Y-73499500D01*
X127238031Y-73498720D01*
X127200002Y-73494435D01*
X127199998Y-73494435D01*
X127161969Y-73498720D01*
X127148085Y-73499500D01*
X124721155Y-73499500D01*
X124566510Y-73530261D01*
X124566498Y-73530264D01*
X124420827Y-73590602D01*
X124420814Y-73590609D01*
X124289711Y-73678210D01*
X124289707Y-73678213D01*
X123468738Y-74499184D01*
X123197738Y-74770184D01*
X123137402Y-74830520D01*
X123099432Y-74868490D01*
X123038108Y-74901974D01*
X122968417Y-74896990D01*
X122924070Y-74868489D01*
X121543936Y-73488355D01*
X121543934Y-73488352D01*
X121425063Y-73369481D01*
X121425055Y-73369475D01*
X121319513Y-73308541D01*
X121319510Y-73308540D01*
X121288133Y-73290424D01*
X121288132Y-73290423D01*
X121288131Y-73290423D01*
X121135403Y-73249499D01*
X120977289Y-73249499D01*
X120969693Y-73249499D01*
X120969677Y-73249500D01*
X109566603Y-73249500D01*
X109499564Y-73229815D01*
X109453809Y-73177011D01*
X109443865Y-73107853D01*
X109454220Y-73073098D01*
X109523903Y-72923663D01*
X109585063Y-72695408D01*
X109605659Y-72460000D01*
X109585063Y-72224592D01*
X109525542Y-72002454D01*
X109523905Y-71996344D01*
X109523904Y-71996343D01*
X109523903Y-71996337D01*
X109424035Y-71782171D01*
X109420947Y-71777760D01*
X109288494Y-71588597D01*
X109121402Y-71421506D01*
X109121396Y-71421501D01*
X108935842Y-71291575D01*
X108892217Y-71236998D01*
X108885023Y-71167500D01*
X108916546Y-71105145D01*
X108935842Y-71088425D01*
X109020622Y-71029061D01*
X109121401Y-70958495D01*
X109288495Y-70791401D01*
X109424035Y-70597830D01*
X109523903Y-70383663D01*
X109585063Y-70155408D01*
X109605659Y-69920000D01*
X109585063Y-69684592D01*
X109523903Y-69456337D01*
X109424035Y-69242171D01*
X109406995Y-69217834D01*
X109288494Y-69048597D01*
X109121402Y-68881506D01*
X109121401Y-68881505D01*
X108935405Y-68751269D01*
X108891781Y-68696692D01*
X108884588Y-68627193D01*
X108916110Y-68564839D01*
X108935405Y-68548119D01*
X109121082Y-68418105D01*
X109288105Y-68251082D01*
X109423600Y-68057578D01*
X109523429Y-67843492D01*
X109523432Y-67843486D01*
X109580636Y-67630000D01*
X108683012Y-67630000D01*
X108715925Y-67572993D01*
X108750000Y-67445826D01*
X108750000Y-67314174D01*
X108715925Y-67187007D01*
X108683012Y-67130000D01*
X109580636Y-67130000D01*
X109580635Y-67129999D01*
X109523432Y-66916513D01*
X109523429Y-66916507D01*
X109423600Y-66702422D01*
X109423599Y-66702420D01*
X109288113Y-66508926D01*
X109288108Y-66508920D01*
X109121082Y-66341894D01*
X108927578Y-66206399D01*
X108713492Y-66106570D01*
X108713486Y-66106567D01*
X108500000Y-66049364D01*
X108500000Y-66946988D01*
X108442993Y-66914075D01*
X108315826Y-66880000D01*
X108184174Y-66880000D01*
X108057007Y-66914075D01*
X108000000Y-66946988D01*
X108000000Y-66049364D01*
X107999999Y-66049364D01*
X107786513Y-66106567D01*
X107786507Y-66106570D01*
X107572422Y-66206399D01*
X107572420Y-66206400D01*
X107378926Y-66341886D01*
X107378920Y-66341891D01*
X107211891Y-66508920D01*
X107211886Y-66508926D01*
X107076400Y-66702420D01*
X107076399Y-66702422D01*
X106976570Y-66916507D01*
X106976567Y-66916513D01*
X106919364Y-67129999D01*
X106919364Y-67130000D01*
X107816988Y-67130000D01*
X107784075Y-67187007D01*
X107750000Y-67314174D01*
X107750000Y-67445826D01*
X107784075Y-67572993D01*
X107816988Y-67630000D01*
X106919364Y-67630000D01*
X106976567Y-67843486D01*
X106976570Y-67843492D01*
X107076399Y-68057578D01*
X107211894Y-68251082D01*
X107378917Y-68418105D01*
X107564595Y-68548119D01*
X107608219Y-68602696D01*
X107615412Y-68672195D01*
X107583890Y-68734549D01*
X107564595Y-68751269D01*
X107378594Y-68881508D01*
X107211506Y-69048596D01*
X107093854Y-69216623D01*
X107039277Y-69260248D01*
X106992279Y-69269500D01*
X106015929Y-69269500D01*
X105890261Y-69294497D01*
X105890255Y-69294499D01*
X105771875Y-69343533D01*
X105771866Y-69343538D01*
X105665331Y-69414723D01*
X105665327Y-69414726D01*
X104812181Y-70267873D01*
X104750858Y-70301358D01*
X104681166Y-70296374D01*
X104625233Y-70254502D01*
X104600816Y-70189038D01*
X104600500Y-70180192D01*
X104600500Y-69089060D01*
X104600501Y-69089047D01*
X104600501Y-68920944D01*
X104589934Y-68881508D01*
X104559577Y-68768216D01*
X104548907Y-68749735D01*
X104480524Y-68631290D01*
X104480518Y-68631282D01*
X104397355Y-68548119D01*
X104297960Y-68448725D01*
X104297959Y-68448723D01*
X104168717Y-68319481D01*
X104168709Y-68319475D01*
X104066936Y-68260717D01*
X104066934Y-68260716D01*
X104031794Y-68240427D01*
X104031786Y-68240423D01*
X104031785Y-68240423D01*
X104031783Y-68240422D01*
X104028502Y-68239064D01*
X104026149Y-68237168D01*
X104024746Y-68236358D01*
X104024872Y-68236139D01*
X103974097Y-68195225D01*
X103952028Y-68128932D01*
X103969304Y-68061232D01*
X104020439Y-68013619D01*
X104075949Y-68000500D01*
X104417588Y-68000500D01*
X104484627Y-68020185D01*
X104494903Y-68027555D01*
X104497736Y-68029814D01*
X104497738Y-68029816D01*
X104650478Y-68125789D01*
X104775334Y-68169478D01*
X104820745Y-68185368D01*
X104820750Y-68185369D01*
X104999996Y-68205565D01*
X105000000Y-68205565D01*
X105000004Y-68205565D01*
X105179249Y-68185369D01*
X105179252Y-68185368D01*
X105179255Y-68185368D01*
X105349522Y-68125789D01*
X105502262Y-68029816D01*
X105629816Y-67902262D01*
X105725789Y-67749522D01*
X105785368Y-67579255D01*
X105787395Y-67561264D01*
X105805565Y-67400003D01*
X105805565Y-67399996D01*
X105785369Y-67220750D01*
X105785368Y-67220745D01*
X105779223Y-67203183D01*
X105725789Y-67050478D01*
X105725188Y-67049522D01*
X105667291Y-66957379D01*
X105629816Y-66897738D01*
X105502262Y-66770184D01*
X105433553Y-66727011D01*
X105349523Y-66674211D01*
X105179254Y-66614631D01*
X105179249Y-66614630D01*
X105000004Y-66594435D01*
X104999996Y-66594435D01*
X104820750Y-66614630D01*
X104820745Y-66614631D01*
X104650476Y-66674211D01*
X104497736Y-66770185D01*
X104494903Y-66772445D01*
X104492724Y-66773334D01*
X104491842Y-66773889D01*
X104491744Y-66773734D01*
X104430217Y-66798855D01*
X104417588Y-66799500D01*
X103658815Y-66799500D01*
X103591776Y-66779815D01*
X103546021Y-66727011D01*
X103534815Y-66675500D01*
X103534815Y-66513348D01*
X103534814Y-66513330D01*
X103534814Y-62334410D01*
X103554499Y-62267371D01*
X103571128Y-62246734D01*
X106768506Y-59049355D01*
X106768511Y-59049352D01*
X106778714Y-59039148D01*
X106778716Y-59039148D01*
X106890520Y-58927344D01*
X106951950Y-58820943D01*
X106969577Y-58790413D01*
X107010500Y-58637686D01*
X107010500Y-58524499D01*
X107030185Y-58457460D01*
X107082989Y-58411705D01*
X107134500Y-58400499D01*
X107307871Y-58400499D01*
X107307872Y-58400499D01*
X107367483Y-58394091D01*
X107502331Y-58343796D01*
X107617546Y-58257546D01*
X107703796Y-58142331D01*
X107754091Y-58007483D01*
X107760500Y-57947873D01*
X107760500Y-57149999D01*
X110014341Y-57149999D01*
X110014341Y-57150000D01*
X110034936Y-57385403D01*
X110034938Y-57385413D01*
X110096094Y-57613655D01*
X110096096Y-57613659D01*
X110096097Y-57613663D01*
X110149334Y-57727830D01*
X110195965Y-57827830D01*
X110195967Y-57827834D01*
X110276695Y-57943124D01*
X110331501Y-58021396D01*
X110331506Y-58021402D01*
X110498597Y-58188494D01*
X110549354Y-58224034D01*
X110591514Y-58253555D01*
X110616623Y-58271136D01*
X110660248Y-58325713D01*
X110669500Y-58372711D01*
X110669500Y-62001006D01*
X110669500Y-62138994D01*
X110669500Y-62138996D01*
X110669499Y-62138996D01*
X110696418Y-62274322D01*
X110696421Y-62274332D01*
X110749222Y-62401807D01*
X110825887Y-62516545D01*
X110825888Y-62516546D01*
X111908630Y-63599287D01*
X111937990Y-63646013D01*
X111974209Y-63749519D01*
X111974211Y-63749522D01*
X112070184Y-63902262D01*
X112197738Y-64029816D01*
X112350478Y-64125789D01*
X112380903Y-64136435D01*
X112520745Y-64185368D01*
X112520750Y-64185369D01*
X112699996Y-64205565D01*
X112700000Y-64205565D01*
X112700004Y-64205565D01*
X112879249Y-64185369D01*
X112879252Y-64185368D01*
X112879255Y-64185368D01*
X113049522Y-64125789D01*
X113119527Y-64081801D01*
X113186762Y-64062801D01*
X113253598Y-64083168D01*
X113298812Y-64136435D01*
X113308273Y-64181018D01*
X113308438Y-64180997D01*
X113308714Y-64183100D01*
X113309499Y-64186795D01*
X113309499Y-64189054D01*
X113309498Y-64189054D01*
X113309499Y-64189057D01*
X113350423Y-64341785D01*
X113350424Y-64341787D01*
X113350423Y-64341787D01*
X113362124Y-64362052D01*
X113362125Y-64362054D01*
X113429475Y-64478709D01*
X113429481Y-64478717D01*
X113548349Y-64597585D01*
X113548355Y-64597590D01*
X115669298Y-66718533D01*
X115702783Y-66779856D01*
X115704837Y-66792330D01*
X115714630Y-66879249D01*
X115774210Y-67049521D01*
X115800960Y-67092093D01*
X115870184Y-67202262D01*
X115997738Y-67329816D01*
X116055269Y-67365965D01*
X116133738Y-67415271D01*
X116150478Y-67425789D01*
X116218972Y-67449756D01*
X116320745Y-67485368D01*
X116320750Y-67485369D01*
X116499996Y-67505565D01*
X116500000Y-67505565D01*
X116500004Y-67505565D01*
X116679249Y-67485369D01*
X116679252Y-67485368D01*
X116679255Y-67485368D01*
X116849522Y-67425789D01*
X117002262Y-67329816D01*
X117128897Y-67203180D01*
X117190216Y-67169698D01*
X117259908Y-67174682D01*
X117315842Y-67216553D01*
X117321569Y-67224892D01*
X117370184Y-67302262D01*
X117497738Y-67429816D01*
X117650478Y-67525789D01*
X117751860Y-67561264D01*
X117820745Y-67585368D01*
X117820750Y-67585369D01*
X117999996Y-67605565D01*
X118000000Y-67605565D01*
X118000004Y-67605565D01*
X118179249Y-67585369D01*
X118179252Y-67585368D01*
X118179255Y-67585368D01*
X118349522Y-67525789D01*
X118502262Y-67429816D01*
X118629816Y-67302262D01*
X118725789Y-67149522D01*
X118785368Y-66979255D01*
X118787834Y-66957372D01*
X118805565Y-66800003D01*
X118805565Y-66799996D01*
X118785369Y-66620750D01*
X118785368Y-66620745D01*
X118725788Y-66450476D01*
X118657556Y-66341886D01*
X118629816Y-66297738D01*
X118629814Y-66297736D01*
X118629813Y-66297734D01*
X118627550Y-66294896D01*
X118626659Y-66292715D01*
X118626111Y-66291842D01*
X118626264Y-66291745D01*
X118601144Y-66230209D01*
X118600500Y-66217587D01*
X118600500Y-58789059D01*
X118600501Y-58789046D01*
X118600501Y-58624000D01*
X118620186Y-58556961D01*
X118672990Y-58511206D01*
X118724501Y-58500000D01*
X118740000Y-58500000D01*
X118740000Y-57583012D01*
X118797007Y-57615925D01*
X118924174Y-57650000D01*
X119055826Y-57650000D01*
X119182993Y-57615925D01*
X119240000Y-57583012D01*
X119240000Y-58500000D01*
X119887828Y-58500000D01*
X119887844Y-58499999D01*
X119947372Y-58493598D01*
X119947379Y-58493596D01*
X120082086Y-58443354D01*
X120082093Y-58443350D01*
X120197187Y-58357190D01*
X120197190Y-58357187D01*
X120283350Y-58242093D01*
X120283354Y-58242086D01*
X120333596Y-58107379D01*
X120333598Y-58107372D01*
X120339999Y-58047844D01*
X120340000Y-58047827D01*
X120340000Y-57400000D01*
X119423012Y-57400000D01*
X119455925Y-57342993D01*
X119490000Y-57215826D01*
X119490000Y-57084174D01*
X119455925Y-56957007D01*
X119423012Y-56900000D01*
X120340000Y-56900000D01*
X120340000Y-56252172D01*
X120339999Y-56252155D01*
X120333598Y-56192627D01*
X120333596Y-56192620D01*
X120283354Y-56057913D01*
X120283350Y-56057906D01*
X120197190Y-55942812D01*
X120197187Y-55942809D01*
X120082093Y-55856649D01*
X120082086Y-55856645D01*
X119947379Y-55806403D01*
X119947372Y-55806401D01*
X119887844Y-55800000D01*
X119240000Y-55800000D01*
X119240000Y-56716988D01*
X119182993Y-56684075D01*
X119055826Y-56650000D01*
X118924174Y-56650000D01*
X118797007Y-56684075D01*
X118740000Y-56716988D01*
X118740000Y-55800000D01*
X118092155Y-55800000D01*
X118032627Y-55806401D01*
X118032620Y-55806403D01*
X117897913Y-55856645D01*
X117897906Y-55856649D01*
X117782812Y-55942809D01*
X117782809Y-55942812D01*
X117696649Y-56057906D01*
X117696645Y-56057913D01*
X117647578Y-56189470D01*
X117605707Y-56245404D01*
X117540242Y-56269821D01*
X117471969Y-56254969D01*
X117443715Y-56233819D01*
X117388493Y-56178597D01*
X117321401Y-56111505D01*
X117321397Y-56111502D01*
X117321396Y-56111501D01*
X117127834Y-55975967D01*
X117127830Y-55975965D01*
X117102902Y-55964341D01*
X116913663Y-55876097D01*
X116913659Y-55876096D01*
X116913655Y-55876094D01*
X116685413Y-55814938D01*
X116685403Y-55814936D01*
X116450001Y-55794341D01*
X116449999Y-55794341D01*
X116214596Y-55814936D01*
X116214586Y-55814938D01*
X115986344Y-55876094D01*
X115986335Y-55876098D01*
X115772171Y-55975964D01*
X115772169Y-55975965D01*
X115578597Y-56111505D01*
X115411505Y-56278597D01*
X115281575Y-56464158D01*
X115226998Y-56507783D01*
X115157500Y-56514977D01*
X115095145Y-56483454D01*
X115078425Y-56464158D01*
X114948494Y-56278597D01*
X114781402Y-56111506D01*
X114781395Y-56111501D01*
X114587834Y-55975967D01*
X114587830Y-55975965D01*
X114562902Y-55964341D01*
X114373663Y-55876097D01*
X114373659Y-55876096D01*
X114373655Y-55876094D01*
X114145413Y-55814938D01*
X114145403Y-55814936D01*
X113910001Y-55794341D01*
X113909999Y-55794341D01*
X113674596Y-55814936D01*
X113674586Y-55814938D01*
X113446344Y-55876094D01*
X113446335Y-55876098D01*
X113232171Y-55975964D01*
X113232169Y-55975965D01*
X113038597Y-56111505D01*
X112871505Y-56278597D01*
X112741575Y-56464158D01*
X112686998Y-56507783D01*
X112617500Y-56514977D01*
X112555145Y-56483454D01*
X112538425Y-56464158D01*
X112408494Y-56278597D01*
X112241402Y-56111506D01*
X112241395Y-56111501D01*
X112047834Y-55975967D01*
X112047830Y-55975965D01*
X112022902Y-55964341D01*
X111833663Y-55876097D01*
X111833659Y-55876096D01*
X111833655Y-55876094D01*
X111605413Y-55814938D01*
X111605403Y-55814936D01*
X111370001Y-55794341D01*
X111369999Y-55794341D01*
X111134596Y-55814936D01*
X111134586Y-55814938D01*
X110906344Y-55876094D01*
X110906335Y-55876098D01*
X110692171Y-55975964D01*
X110692169Y-55975965D01*
X110498597Y-56111505D01*
X110331505Y-56278597D01*
X110195965Y-56472169D01*
X110195964Y-56472171D01*
X110096098Y-56686335D01*
X110096094Y-56686344D01*
X110034938Y-56914586D01*
X110034936Y-56914596D01*
X110014341Y-57149999D01*
X107760500Y-57149999D01*
X107760499Y-56152128D01*
X107754091Y-56092517D01*
X107752810Y-56089083D01*
X107703797Y-55957671D01*
X107703793Y-55957664D01*
X107617547Y-55842455D01*
X107617544Y-55842452D01*
X107502335Y-55756206D01*
X107502328Y-55756202D01*
X107367482Y-55705908D01*
X107367483Y-55705908D01*
X107307883Y-55699501D01*
X107307881Y-55699500D01*
X107307873Y-55699500D01*
X107307864Y-55699500D01*
X105512129Y-55699500D01*
X105512123Y-55699501D01*
X105452516Y-55705908D01*
X105317671Y-55756202D01*
X105317664Y-55756206D01*
X105202455Y-55842452D01*
X105202452Y-55842455D01*
X105116206Y-55957664D01*
X105116203Y-55957669D01*
X105067189Y-56089083D01*
X105025317Y-56145016D01*
X104959853Y-56169433D01*
X104891580Y-56154581D01*
X104863326Y-56133430D01*
X104741402Y-56011506D01*
X104741395Y-56011501D01*
X104547834Y-55875967D01*
X104547830Y-55875965D01*
X104506398Y-55856645D01*
X104333663Y-55776097D01*
X104333659Y-55776096D01*
X104333655Y-55776094D01*
X104105413Y-55714938D01*
X104105403Y-55714936D01*
X103870001Y-55694341D01*
X103869999Y-55694341D01*
X103634596Y-55714936D01*
X103634586Y-55714938D01*
X103406344Y-55776094D01*
X103406335Y-55776098D01*
X103192171Y-55875964D01*
X103192169Y-55875965D01*
X102998597Y-56011505D01*
X102831505Y-56178597D01*
X102701575Y-56364158D01*
X102646998Y-56407783D01*
X102577500Y-56414977D01*
X102515145Y-56383454D01*
X102498425Y-56364158D01*
X102368494Y-56178597D01*
X102201402Y-56011506D01*
X102201395Y-56011501D01*
X102007834Y-55875967D01*
X102007830Y-55875965D01*
X101966398Y-55856645D01*
X101793663Y-55776097D01*
X101793659Y-55776096D01*
X101793655Y-55776094D01*
X101565413Y-55714938D01*
X101565403Y-55714936D01*
X101330001Y-55694341D01*
X101329999Y-55694341D01*
X101094596Y-55714936D01*
X101094586Y-55714938D01*
X100866344Y-55776094D01*
X100866335Y-55776098D01*
X100652171Y-55875964D01*
X100652169Y-55875965D01*
X100458597Y-56011505D01*
X100291505Y-56178597D01*
X100161575Y-56364158D01*
X100106998Y-56407783D01*
X100037500Y-56414977D01*
X99975145Y-56383454D01*
X99958425Y-56364158D01*
X99828494Y-56178597D01*
X99661402Y-56011506D01*
X99661395Y-56011501D01*
X99467834Y-55875967D01*
X99467830Y-55875965D01*
X99426398Y-55856645D01*
X99253663Y-55776097D01*
X99253659Y-55776096D01*
X99253655Y-55776094D01*
X99025413Y-55714938D01*
X99025403Y-55714936D01*
X98790001Y-55694341D01*
X98789999Y-55694341D01*
X98554596Y-55714936D01*
X98554586Y-55714938D01*
X98326344Y-55776094D01*
X98326335Y-55776098D01*
X98112171Y-55875964D01*
X98112169Y-55875965D01*
X97918597Y-56011505D01*
X97751505Y-56178597D01*
X97621575Y-56364158D01*
X97566998Y-56407783D01*
X97497500Y-56414977D01*
X97435145Y-56383454D01*
X97418425Y-56364158D01*
X97288494Y-56178597D01*
X97121402Y-56011506D01*
X97121395Y-56011501D01*
X96927834Y-55875967D01*
X96927830Y-55875965D01*
X96886398Y-55856645D01*
X96713663Y-55776097D01*
X96713659Y-55776096D01*
X96713655Y-55776094D01*
X96485413Y-55714938D01*
X96485403Y-55714936D01*
X96250001Y-55694341D01*
X96249999Y-55694341D01*
X96014596Y-55714936D01*
X96014586Y-55714938D01*
X95786344Y-55776094D01*
X95786335Y-55776098D01*
X95572171Y-55875964D01*
X95572169Y-55875965D01*
X95378597Y-56011505D01*
X95211505Y-56178597D01*
X95081575Y-56364158D01*
X95026998Y-56407783D01*
X94957500Y-56414977D01*
X94895145Y-56383454D01*
X94878425Y-56364158D01*
X94748494Y-56178597D01*
X94581402Y-56011506D01*
X94581395Y-56011501D01*
X94387834Y-55875967D01*
X94387830Y-55875965D01*
X94346398Y-55856645D01*
X94173663Y-55776097D01*
X94173659Y-55776096D01*
X94173655Y-55776094D01*
X93945413Y-55714938D01*
X93945403Y-55714936D01*
X93710001Y-55694341D01*
X93709999Y-55694341D01*
X93474596Y-55714936D01*
X93474586Y-55714938D01*
X93246344Y-55776094D01*
X93246335Y-55776098D01*
X93032171Y-55875964D01*
X93032169Y-55875965D01*
X92838597Y-56011505D01*
X92671505Y-56178597D01*
X92541575Y-56364158D01*
X92486998Y-56407783D01*
X92417500Y-56414977D01*
X92355145Y-56383454D01*
X92338425Y-56364158D01*
X92208494Y-56178597D01*
X92041402Y-56011506D01*
X92041395Y-56011501D01*
X91847834Y-55875967D01*
X91847830Y-55875965D01*
X91806398Y-55856645D01*
X91633663Y-55776097D01*
X91633659Y-55776096D01*
X91633655Y-55776094D01*
X91405413Y-55714938D01*
X91405403Y-55714936D01*
X91170001Y-55694341D01*
X91169999Y-55694341D01*
X90934596Y-55714936D01*
X90934586Y-55714938D01*
X90706344Y-55776094D01*
X90706335Y-55776098D01*
X90492171Y-55875964D01*
X90492169Y-55875965D01*
X90298597Y-56011505D01*
X90131505Y-56178597D01*
X89995965Y-56372169D01*
X89995964Y-56372171D01*
X89896098Y-56586335D01*
X89896094Y-56586344D01*
X89834938Y-56814586D01*
X89834936Y-56814596D01*
X89814341Y-57049999D01*
X89814341Y-57050000D01*
X89834936Y-57285403D01*
X89834938Y-57285413D01*
X89869327Y-57413755D01*
X89867664Y-57483605D01*
X89837233Y-57533529D01*
X87431286Y-59939478D01*
X87319481Y-60051282D01*
X87319475Y-60051290D01*
X87277150Y-60124601D01*
X87277150Y-60124602D01*
X87240423Y-60188215D01*
X87199499Y-60340943D01*
X87199499Y-60340945D01*
X87199499Y-60509046D01*
X87199500Y-60509059D01*
X87199500Y-62198397D01*
X87179815Y-62265436D01*
X87127011Y-62311191D01*
X87057853Y-62321135D01*
X87023095Y-62310779D01*
X86993002Y-62296746D01*
X86829330Y-62220425D01*
X86829326Y-62220424D01*
X86829322Y-62220422D01*
X86617977Y-62163793D01*
X86400002Y-62144723D01*
X86399998Y-62144723D01*
X86254682Y-62157436D01*
X86182023Y-62163793D01*
X86182020Y-62163793D01*
X85970677Y-62220422D01*
X85970668Y-62220426D01*
X85772361Y-62312898D01*
X85772357Y-62312900D01*
X85593121Y-62438402D01*
X85438402Y-62593121D01*
X85312900Y-62772357D01*
X85312898Y-62772361D01*
X85220426Y-62970668D01*
X85220422Y-62970677D01*
X85163793Y-63182020D01*
X85163793Y-63182023D01*
X85144723Y-63400000D01*
X85160528Y-63580662D01*
X85163793Y-63617975D01*
X85163793Y-63617979D01*
X85220422Y-63829322D01*
X85220424Y-63829326D01*
X85220425Y-63829330D01*
X85254434Y-63902262D01*
X85312897Y-64027638D01*
X85315211Y-64030943D01*
X85438402Y-64206877D01*
X85593123Y-64361598D01*
X85746625Y-64469081D01*
X85790249Y-64523657D01*
X85799500Y-64570655D01*
X85799500Y-72413330D01*
X85799499Y-72413348D01*
X85799499Y-72579054D01*
X85799498Y-72579054D01*
X85840423Y-72731785D01*
X85854921Y-72756897D01*
X85864918Y-72774211D01*
X85904035Y-72841964D01*
X85919479Y-72868714D01*
X85919481Y-72868717D01*
X86038349Y-72987585D01*
X86038355Y-72987590D01*
X86769298Y-73718533D01*
X86802783Y-73779856D01*
X86804837Y-73792330D01*
X86814630Y-73879249D01*
X86874210Y-74049521D01*
X86970184Y-74202262D01*
X87055741Y-74287819D01*
X87089226Y-74349142D01*
X87084242Y-74418834D01*
X87042370Y-74474767D01*
X86976906Y-74499184D01*
X86968060Y-74499500D01*
X81690098Y-74499500D01*
X81623059Y-74479815D01*
X81602417Y-74463181D01*
X80886818Y-73747582D01*
X80853333Y-73686259D01*
X80850499Y-73659901D01*
X80850499Y-72312129D01*
X80850498Y-72312123D01*
X80850497Y-72312116D01*
X80844091Y-72252517D01*
X80834298Y-72226261D01*
X80793797Y-72117671D01*
X80793793Y-72117664D01*
X80707547Y-72002455D01*
X80707544Y-72002452D01*
X80592335Y-71916206D01*
X80592328Y-71916202D01*
X80457482Y-71865908D01*
X80457483Y-71865908D01*
X80397883Y-71859501D01*
X80397881Y-71859500D01*
X80397873Y-71859500D01*
X80397864Y-71859500D01*
X78602129Y-71859500D01*
X78602123Y-71859501D01*
X78542516Y-71865908D01*
X78407671Y-71916202D01*
X78407664Y-71916206D01*
X78292455Y-72002452D01*
X78292452Y-72002455D01*
X78206206Y-72117664D01*
X78206202Y-72117671D01*
X78155908Y-72252517D01*
X78149501Y-72312116D01*
X78149501Y-72312123D01*
X78149500Y-72312135D01*
X78149500Y-74107870D01*
X78149501Y-74107876D01*
X78155908Y-74167483D01*
X78206202Y-74302328D01*
X78206206Y-74302335D01*
X78292452Y-74417544D01*
X78292455Y-74417547D01*
X78407664Y-74503793D01*
X78407671Y-74503797D01*
X78539081Y-74552810D01*
X78595015Y-74594681D01*
X78619432Y-74660145D01*
X78604580Y-74728418D01*
X78583430Y-74756673D01*
X78461503Y-74878600D01*
X78325965Y-75072169D01*
X78325964Y-75072171D01*
X78226098Y-75286335D01*
X78226094Y-75286344D01*
X78164938Y-75514586D01*
X78164936Y-75514596D01*
X78144341Y-75749999D01*
X69702220Y-75749999D01*
X69755300Y-63400000D01*
X80644723Y-63400000D01*
X80660528Y-63580662D01*
X80663793Y-63617975D01*
X80663793Y-63617979D01*
X80720422Y-63829322D01*
X80720424Y-63829326D01*
X80720425Y-63829330D01*
X80754434Y-63902262D01*
X80812897Y-64027638D01*
X80815211Y-64030943D01*
X80938402Y-64206877D01*
X81093123Y-64361598D01*
X81272361Y-64487102D01*
X81470670Y-64579575D01*
X81682023Y-64636207D01*
X81864926Y-64652208D01*
X81899998Y-64655277D01*
X81900000Y-64655277D01*
X81900002Y-64655277D01*
X81928254Y-64652805D01*
X82117977Y-64636207D01*
X82329330Y-64579575D01*
X82527639Y-64487102D01*
X82706877Y-64361598D01*
X82861598Y-64206877D01*
X82987102Y-64027639D01*
X83079575Y-63829330D01*
X83136207Y-63617977D01*
X83155277Y-63400000D01*
X83136207Y-63182023D01*
X83079575Y-62970670D01*
X82987102Y-62772362D01*
X82987100Y-62772359D01*
X82987099Y-62772357D01*
X82861599Y-62593124D01*
X82785018Y-62516543D01*
X82706877Y-62438402D01*
X82527639Y-62312898D01*
X82527640Y-62312898D01*
X82527638Y-62312897D01*
X82385739Y-62246729D01*
X82329330Y-62220425D01*
X82329326Y-62220424D01*
X82329322Y-62220422D01*
X82117977Y-62163793D01*
X81900002Y-62144723D01*
X81899998Y-62144723D01*
X81754682Y-62157436D01*
X81682023Y-62163793D01*
X81682020Y-62163793D01*
X81470677Y-62220422D01*
X81470668Y-62220426D01*
X81272361Y-62312898D01*
X81272357Y-62312900D01*
X81093121Y-62438402D01*
X80938402Y-62593121D01*
X80812900Y-62772357D01*
X80812898Y-62772361D01*
X80720426Y-62970668D01*
X80720422Y-62970677D01*
X80663793Y-63182020D01*
X80663793Y-63182023D01*
X80644723Y-63400000D01*
X69755300Y-63400000D01*
X69777420Y-58253555D01*
X69797392Y-58186606D01*
X69850392Y-58141078D01*
X69919592Y-58131432D01*
X69983023Y-58160730D01*
X70011903Y-58197798D01*
X70090877Y-58352793D01*
X70302122Y-58678082D01*
X70418264Y-58821505D01*
X70546219Y-58979516D01*
X70820484Y-59253781D01*
X70875352Y-59298212D01*
X71121917Y-59497877D01*
X71412368Y-59686498D01*
X71447211Y-59709125D01*
X71792806Y-59885214D01*
X72154913Y-60024214D01*
X72529567Y-60124602D01*
X72912662Y-60185278D01*
X73278576Y-60204455D01*
X73299999Y-60205578D01*
X73300000Y-60205578D01*
X73300001Y-60205578D01*
X73320301Y-60204514D01*
X73687338Y-60185278D01*
X74070433Y-60124602D01*
X74445087Y-60024214D01*
X74807194Y-59885214D01*
X75152789Y-59709125D01*
X75478084Y-59497876D01*
X75779516Y-59253781D01*
X76053781Y-58979516D01*
X76297876Y-58678084D01*
X76509125Y-58352789D01*
X76685214Y-58007194D01*
X76824214Y-57645087D01*
X76924602Y-57270433D01*
X76983273Y-56899999D01*
X80645225Y-56899999D01*
X80645225Y-56900000D01*
X80664287Y-57117884D01*
X80664289Y-57117894D01*
X80720894Y-57329150D01*
X80720898Y-57329159D01*
X80813333Y-57527387D01*
X80856874Y-57589571D01*
X81417037Y-57029408D01*
X81434075Y-57092993D01*
X81499901Y-57207007D01*
X81592993Y-57300099D01*
X81707007Y-57365925D01*
X81770590Y-57382962D01*
X81210427Y-57943124D01*
X81272612Y-57986666D01*
X81470840Y-58079101D01*
X81470849Y-58079105D01*
X81682105Y-58135710D01*
X81682115Y-58135712D01*
X81899999Y-58154775D01*
X81900001Y-58154775D01*
X82117884Y-58135712D01*
X82117894Y-58135710D01*
X82329150Y-58079105D01*
X82329164Y-58079100D01*
X82527383Y-57986669D01*
X82527385Y-57986668D01*
X82589571Y-57943124D01*
X82029410Y-57382962D01*
X82092993Y-57365925D01*
X82207007Y-57300099D01*
X82300099Y-57207007D01*
X82365925Y-57092993D01*
X82382962Y-57029409D01*
X82943124Y-57589570D01*
X82986668Y-57527385D01*
X82986669Y-57527383D01*
X83079100Y-57329164D01*
X83079105Y-57329150D01*
X83135710Y-57117894D01*
X83135712Y-57117884D01*
X83154775Y-56900000D01*
X83154775Y-56899999D01*
X83135712Y-56682115D01*
X83135710Y-56682105D01*
X83079105Y-56470849D01*
X83079101Y-56470840D01*
X82986667Y-56272614D01*
X82986666Y-56272612D01*
X82943124Y-56210428D01*
X82943124Y-56210427D01*
X82382962Y-56770589D01*
X82365925Y-56707007D01*
X82300099Y-56592993D01*
X82207007Y-56499901D01*
X82092993Y-56434075D01*
X82029409Y-56417037D01*
X82344310Y-56102135D01*
X85149500Y-56102135D01*
X85149500Y-57697870D01*
X85149501Y-57697876D01*
X85155908Y-57757483D01*
X85206202Y-57892328D01*
X85206206Y-57892335D01*
X85292452Y-58007544D01*
X85292455Y-58007547D01*
X85407664Y-58093793D01*
X85407671Y-58093797D01*
X85542517Y-58144091D01*
X85542516Y-58144091D01*
X85549444Y-58144835D01*
X85602127Y-58150500D01*
X87197872Y-58150499D01*
X87257483Y-58144091D01*
X87392331Y-58093796D01*
X87507546Y-58007546D01*
X87593796Y-57892331D01*
X87644091Y-57757483D01*
X87650500Y-57697873D01*
X87650499Y-56102128D01*
X87644091Y-56042517D01*
X87632524Y-56011505D01*
X87593797Y-55907671D01*
X87593793Y-55907664D01*
X87507547Y-55792455D01*
X87507544Y-55792452D01*
X87392335Y-55706206D01*
X87392328Y-55706202D01*
X87257482Y-55655908D01*
X87257483Y-55655908D01*
X87197883Y-55649501D01*
X87197881Y-55649500D01*
X87197873Y-55649500D01*
X87197864Y-55649500D01*
X85602129Y-55649500D01*
X85602123Y-55649501D01*
X85542516Y-55655908D01*
X85407671Y-55706202D01*
X85407664Y-55706206D01*
X85292455Y-55792452D01*
X85292452Y-55792455D01*
X85206206Y-55907664D01*
X85206202Y-55907671D01*
X85155908Y-56042517D01*
X85150902Y-56089083D01*
X85149501Y-56102123D01*
X85149500Y-56102135D01*
X82344310Y-56102135D01*
X82589571Y-55856874D01*
X82527387Y-55813333D01*
X82329159Y-55720898D01*
X82329150Y-55720894D01*
X82117894Y-55664289D01*
X82117884Y-55664287D01*
X81900001Y-55645225D01*
X81899999Y-55645225D01*
X81682115Y-55664287D01*
X81682105Y-55664289D01*
X81470849Y-55720894D01*
X81470840Y-55720898D01*
X81272613Y-55813333D01*
X81210428Y-55856874D01*
X81770591Y-56417037D01*
X81707007Y-56434075D01*
X81592993Y-56499901D01*
X81499901Y-56592993D01*
X81434075Y-56707007D01*
X81417037Y-56770591D01*
X80856874Y-56210428D01*
X80813333Y-56272613D01*
X80720898Y-56470840D01*
X80720894Y-56470849D01*
X80664289Y-56682105D01*
X80664287Y-56682115D01*
X80645225Y-56899999D01*
X76983273Y-56899999D01*
X76985278Y-56887338D01*
X77005578Y-56500000D01*
X76985278Y-56112662D01*
X76924602Y-55729567D01*
X76824214Y-55354913D01*
X76685214Y-54992806D01*
X76509125Y-54647211D01*
X76297876Y-54321916D01*
X76053781Y-54020484D01*
X75779516Y-53746219D01*
X75478084Y-53502124D01*
X75478082Y-53502122D01*
X75152793Y-53290877D01*
X75042117Y-53234485D01*
X74991321Y-53186511D01*
X74974526Y-53118690D01*
X74997063Y-53052555D01*
X75051778Y-53009103D01*
X75098412Y-53000000D01*
X130501588Y-53000000D01*
X130568627Y-53019685D01*
G37*
%TD.AperFunction*%
%TD*%
M02*
