%TF.GenerationSoftware,KiCad,Pcbnew,8.0.5*%
%TF.CreationDate,2025-07-26T22:53:34+02:00*%
%TF.ProjectId,kontroler_lotu,6b6f6e74-726f-46c6-9572-5f6c6f74752e,rev?*%
%TF.SameCoordinates,Original*%
%TF.FileFunction,Soldermask,Top*%
%TF.FilePolarity,Negative*%
%FSLAX46Y46*%
G04 Gerber Fmt 4.6, Leading zero omitted, Abs format (unit mm)*
G04 Created by KiCad (PCBNEW 8.0.5) date 2025-07-26 22:53:34*
%MOMM*%
%LPD*%
G01*
G04 APERTURE LIST*
G04 Aperture macros list*
%AMRoundRect*
0 Rectangle with rounded corners*
0 $1 Rounding radius*
0 $2 $3 $4 $5 $6 $7 $8 $9 X,Y pos of 4 corners*
0 Add a 4 corners polygon primitive as box body*
4,1,4,$2,$3,$4,$5,$6,$7,$8,$9,$2,$3,0*
0 Add four circle primitives for the rounded corners*
1,1,$1+$1,$2,$3*
1,1,$1+$1,$4,$5*
1,1,$1+$1,$6,$7*
1,1,$1+$1,$8,$9*
0 Add four rect primitives between the rounded corners*
20,1,$1+$1,$2,$3,$4,$5,0*
20,1,$1+$1,$4,$5,$6,$7,0*
20,1,$1+$1,$6,$7,$8,$9,0*
20,1,$1+$1,$8,$9,$2,$3,0*%
G04 Aperture macros list end*
%ADD10RoundRect,0.375000X0.375000X-0.625000X0.375000X0.625000X-0.375000X0.625000X-0.375000X-0.625000X0*%
%ADD11RoundRect,0.500000X1.400000X-0.500000X1.400000X0.500000X-1.400000X0.500000X-1.400000X-0.500000X0*%
%ADD12R,1.700000X1.700000*%
%ADD13O,1.700000X1.700000*%
%ADD14RoundRect,0.225000X-0.225000X-0.250000X0.225000X-0.250000X0.225000X0.250000X-0.225000X0.250000X0*%
%ADD15RoundRect,0.250000X-0.325000X-0.650000X0.325000X-0.650000X0.325000X0.650000X-0.325000X0.650000X0*%
%ADD16R,1.551000X0.650000*%
%ADD17RoundRect,0.250000X-1.425000X0.362500X-1.425000X-0.362500X1.425000X-0.362500X1.425000X0.362500X0*%
%ADD18RoundRect,0.225000X-0.250000X0.225000X-0.250000X-0.225000X0.250000X-0.225000X0.250000X0.225000X0*%
%ADD19RoundRect,0.150000X0.150000X-0.512500X0.150000X0.512500X-0.150000X0.512500X-0.150000X-0.512500X0*%
%ADD20C,6.400000*%
%ADD21RoundRect,0.200000X-0.200000X-0.275000X0.200000X-0.275000X0.200000X0.275000X-0.200000X0.275000X0*%
%ADD22RoundRect,0.250000X0.325000X0.650000X-0.325000X0.650000X-0.325000X-0.650000X0.325000X-0.650000X0*%
%ADD23RoundRect,0.200000X0.200000X0.275000X-0.200000X0.275000X-0.200000X-0.275000X0.200000X-0.275000X0*%
%ADD24RoundRect,0.225000X0.225000X0.250000X-0.225000X0.250000X-0.225000X-0.250000X0.225000X-0.250000X0*%
%ADD25RoundRect,0.225000X0.250000X-0.225000X0.250000X0.225000X-0.250000X0.225000X-0.250000X-0.225000X0*%
%ADD26C,0.900000*%
%ADD27R,0.500000X2.300000*%
%ADD28R,2.000000X2.500000*%
%ADD29R,1.800000X3.400000*%
%ADD30R,0.325000X0.300000*%
%ADD31R,0.300000X0.325000*%
%ADD32RoundRect,0.075000X-0.700000X-0.075000X0.700000X-0.075000X0.700000X0.075000X-0.700000X0.075000X0*%
%ADD33RoundRect,0.075000X-0.075000X-0.700000X0.075000X-0.700000X0.075000X0.700000X-0.075000X0.700000X0*%
%ADD34RoundRect,0.200000X0.275000X-0.200000X0.275000X0.200000X-0.275000X0.200000X-0.275000X-0.200000X0*%
%ADD35RoundRect,0.250000X0.412500X0.925000X-0.412500X0.925000X-0.412500X-0.925000X0.412500X-0.925000X0*%
%ADD36R,2.100000X5.600000*%
%ADD37R,1.500000X1.500000*%
%ADD38C,1.500000*%
%ADD39RoundRect,0.243750X0.243750X0.456250X-0.243750X0.456250X-0.243750X-0.456250X0.243750X-0.456250X0*%
%ADD40R,1.400000X2.000000*%
%ADD41R,1.000000X2.000000*%
%ADD42RoundRect,0.250000X-0.925000X0.412500X-0.925000X-0.412500X0.925000X-0.412500X0.925000X0.412500X0*%
%ADD43RoundRect,0.243750X-0.456250X0.243750X-0.456250X-0.243750X0.456250X-0.243750X0.456250X0.243750X0*%
%ADD44RoundRect,0.250000X-1.100000X0.325000X-1.100000X-0.325000X1.100000X-0.325000X1.100000X0.325000X0*%
%ADD45RoundRect,0.250000X0.650000X-0.325000X0.650000X0.325000X-0.650000X0.325000X-0.650000X-0.325000X0*%
%ADD46R,0.600000X0.300000*%
%ADD47R,0.300000X0.600000*%
%ADD48RoundRect,0.250000X-0.650000X0.325000X-0.650000X-0.325000X0.650000X-0.325000X0.650000X0.325000X0*%
%ADD49R,0.450000X1.750000*%
G04 APERTURE END LIST*
D10*
%TO.C,U2*%
X122000000Y-104550000D03*
X124300000Y-104550000D03*
D11*
X124300000Y-98250000D03*
D10*
X126600000Y-104550000D03*
%TD*%
D12*
%TO.C,J12*%
X115960000Y-78000000D03*
D13*
X118500000Y-78000000D03*
X121040000Y-78000000D03*
X123580000Y-78000000D03*
X126120000Y-78000000D03*
%TD*%
D14*
%TO.C,C8*%
X89700000Y-86700000D03*
X91250000Y-86700000D03*
%TD*%
D12*
%TO.C,J17*%
X79500000Y-73210000D03*
D13*
X79500000Y-75750000D03*
X79500000Y-78290000D03*
X79500000Y-80830000D03*
%TD*%
D12*
%TO.C,J15*%
X106560000Y-90200000D03*
D13*
X109100000Y-90200000D03*
X111640000Y-90200000D03*
X114180000Y-90200000D03*
%TD*%
D15*
%TO.C,C13*%
X99825000Y-90000000D03*
X102775000Y-90000000D03*
%TD*%
D12*
%TO.C,J1*%
X125450000Y-113725000D03*
D13*
X122910000Y-113725000D03*
%TD*%
D16*
%TO.C,IC3*%
X93275000Y-63995000D03*
X93275000Y-65265000D03*
X93275000Y-66535000D03*
X93275000Y-67805000D03*
X98725000Y-67805000D03*
X98725000Y-66535000D03*
X98725000Y-65265000D03*
X98725000Y-63995000D03*
%TD*%
D14*
%TO.C,C11*%
X102725000Y-63400000D03*
X104275000Y-63400000D03*
%TD*%
D12*
%TO.C,J8*%
X106410000Y-57050000D03*
D13*
X103870000Y-57050000D03*
X101330000Y-57050000D03*
X98790000Y-57050000D03*
X96250000Y-57050000D03*
X93710000Y-57050000D03*
X91170000Y-57050000D03*
%TD*%
D14*
%TO.C,C12*%
X99800000Y-87700000D03*
X101350000Y-87700000D03*
%TD*%
D17*
%TO.C,R7*%
X98500000Y-107737500D03*
X98500000Y-113662500D03*
%TD*%
D15*
%TO.C,C2*%
X126725000Y-107100000D03*
X129675000Y-107100000D03*
%TD*%
D12*
%TO.C,J5*%
X122320000Y-90600000D03*
D13*
X122320000Y-88060000D03*
X122320000Y-85520000D03*
X122320000Y-82980000D03*
%TD*%
D18*
%TO.C,C4*%
X88900000Y-78225000D03*
X88900000Y-79775000D03*
%TD*%
D19*
%TO.C,U7*%
X82100000Y-102275000D03*
X83050000Y-102275000D03*
X84000000Y-102275000D03*
X84000000Y-100000000D03*
X83050000Y-100000000D03*
X82100000Y-100000000D03*
%TD*%
D12*
%TO.C,J6*%
X118990000Y-57150000D03*
D13*
X116450000Y-57150000D03*
X113910000Y-57150000D03*
X111370000Y-57150000D03*
%TD*%
D20*
%TO.C,H4*%
X132300000Y-115200000D03*
%TD*%
D10*
%TO.C,U5*%
X112600000Y-110250000D03*
X114900000Y-110250000D03*
D11*
X114900000Y-103950000D03*
D10*
X117200000Y-110250000D03*
%TD*%
D21*
%TO.C,R10*%
X96650000Y-105100000D03*
X98300000Y-105100000D03*
%TD*%
D22*
%TO.C,C10*%
X80375000Y-102600000D03*
X77425000Y-102600000D03*
%TD*%
D23*
%TO.C,R11*%
X101800000Y-102800000D03*
X100150000Y-102800000D03*
%TD*%
D14*
%TO.C,C5*%
X105425000Y-85900000D03*
X106975000Y-85900000D03*
%TD*%
D21*
%TO.C,R1*%
X121500000Y-95600000D03*
X123150000Y-95600000D03*
%TD*%
D12*
%TO.C,J11*%
X126300000Y-64940000D03*
D13*
X126300000Y-62400000D03*
X126300000Y-59860000D03*
X126300000Y-57320000D03*
%TD*%
D20*
%TO.C,H1*%
X73300000Y-56500000D03*
%TD*%
D24*
%TO.C,C21*%
X80375000Y-69500000D03*
X78825000Y-69500000D03*
%TD*%
D25*
%TO.C,C7*%
X79100000Y-94775000D03*
X79100000Y-93225000D03*
%TD*%
D26*
%TO.C,J14*%
X81200000Y-114400000D03*
X85600000Y-114400000D03*
D27*
X81800000Y-111750000D03*
X82600000Y-111750000D03*
X83400000Y-111750000D03*
X84200000Y-111750000D03*
X85000000Y-111750000D03*
D28*
X87850000Y-111850000D03*
X78950000Y-111850000D03*
X78950000Y-117350000D03*
X87850000Y-117350000D03*
%TD*%
D23*
%TO.C,R6*%
X94800000Y-105200000D03*
X93150000Y-105200000D03*
%TD*%
D12*
%TO.C,J3*%
X127400000Y-90600000D03*
D13*
X127400000Y-88060000D03*
X127400000Y-85520000D03*
X127400000Y-82980000D03*
%TD*%
D29*
%TO.C,TP2*%
X106100000Y-112400000D03*
%TD*%
D30*
%TO.C,U6*%
X103000000Y-65925000D03*
X103000000Y-66425000D03*
D31*
X103250000Y-66950000D03*
X103750000Y-66950000D03*
X104250000Y-66950000D03*
D30*
X104500000Y-66425000D03*
X104500000Y-65925000D03*
D31*
X104250000Y-65400000D03*
X103750000Y-65400000D03*
X103250000Y-65400000D03*
%TD*%
D32*
%TO.C,U1*%
X92325000Y-74250000D03*
X92325000Y-74750000D03*
X92325000Y-75250000D03*
X92325000Y-75750000D03*
X92325000Y-76250000D03*
X92325000Y-76750000D03*
X92325000Y-77250000D03*
X92325000Y-77750000D03*
X92325000Y-78250000D03*
X92325000Y-78750000D03*
X92325000Y-79250000D03*
X92325000Y-79750000D03*
X92325000Y-80250000D03*
X92325000Y-80750000D03*
X92325000Y-81250000D03*
X92325000Y-81750000D03*
D33*
X94250000Y-83675000D03*
X94750000Y-83675000D03*
X95250000Y-83675000D03*
X95750000Y-83675000D03*
X96250000Y-83675000D03*
X96750000Y-83675000D03*
X97250000Y-83675000D03*
X97750000Y-83675000D03*
X98250000Y-83675000D03*
X98750000Y-83675000D03*
X99250000Y-83675000D03*
X99750000Y-83675000D03*
X100250000Y-83675000D03*
X100750000Y-83675000D03*
X101250000Y-83675000D03*
X101750000Y-83675000D03*
D32*
X103675000Y-81750000D03*
X103675000Y-81250000D03*
X103675000Y-80750000D03*
X103675000Y-80250000D03*
X103675000Y-79750000D03*
X103675000Y-79250000D03*
X103675000Y-78750000D03*
X103675000Y-78250000D03*
X103675000Y-77750000D03*
X103675000Y-77250000D03*
X103675000Y-76750000D03*
X103675000Y-76250000D03*
X103675000Y-75750000D03*
X103675000Y-75250000D03*
X103675000Y-74750000D03*
X103675000Y-74250000D03*
D33*
X101750000Y-72325000D03*
X101250000Y-72325000D03*
X100750000Y-72325000D03*
X100250000Y-72325000D03*
X99750000Y-72325000D03*
X99250000Y-72325000D03*
X98750000Y-72325000D03*
X98250000Y-72325000D03*
X97750000Y-72325000D03*
X97250000Y-72325000D03*
X96750000Y-72325000D03*
X96250000Y-72325000D03*
X95750000Y-72325000D03*
X95250000Y-72325000D03*
X94750000Y-72325000D03*
X94250000Y-72325000D03*
%TD*%
D34*
%TO.C,R3*%
X86600000Y-99575000D03*
X86600000Y-97925000D03*
%TD*%
D20*
%TO.C,H3*%
X132300000Y-56500000D03*
%TD*%
D12*
%TO.C,J9*%
X112000000Y-78025000D03*
D13*
X112000000Y-75485000D03*
%TD*%
D12*
%TO.C,J2*%
X108250000Y-75000000D03*
D13*
X108250000Y-72460000D03*
X108250000Y-69920000D03*
X108250000Y-67380000D03*
%TD*%
D21*
%TO.C,R8*%
X98475000Y-85900000D03*
X100125000Y-85900000D03*
%TD*%
D35*
%TO.C,C16*%
X114937500Y-100700000D03*
X111862500Y-100700000D03*
%TD*%
D36*
%TO.C,Y2*%
X84750000Y-72250000D03*
X84750000Y-81750000D03*
%TD*%
D37*
%TO.C,S1*%
X86400000Y-56900000D03*
D38*
X86400000Y-63400000D03*
X81900000Y-56900000D03*
X81900000Y-63400000D03*
%TD*%
D39*
%TO.C,D1*%
X119862500Y-95600000D03*
X117987500Y-95600000D03*
%TD*%
D12*
%TO.C,J18*%
X91200000Y-60800000D03*
%TD*%
D40*
%TO.C,D4*%
X94800000Y-102800000D03*
D41*
X96600000Y-102800000D03*
D40*
X98400000Y-102800000D03*
X98400000Y-98400000D03*
D41*
X96600000Y-98400000D03*
D40*
X94800000Y-98400000D03*
%TD*%
D23*
%TO.C,R9*%
X103850000Y-86200000D03*
X102200000Y-86200000D03*
%TD*%
D12*
%TO.C,J7*%
X114250000Y-95750000D03*
D13*
X111710000Y-95750000D03*
X109170000Y-95750000D03*
X106630000Y-95750000D03*
%TD*%
D34*
%TO.C,R2*%
X90500000Y-99500000D03*
X90500000Y-97850000D03*
%TD*%
D42*
%TO.C,C1*%
X118900000Y-97862500D03*
X118900000Y-100937500D03*
%TD*%
D24*
%TO.C,C18*%
X105575000Y-73100000D03*
X104025000Y-73100000D03*
%TD*%
D43*
%TO.C,D3*%
X86600000Y-101062500D03*
X86600000Y-102937500D03*
%TD*%
D23*
%TO.C,R15*%
X90500000Y-76750000D03*
X88850000Y-76750000D03*
%TD*%
%TO.C,R4*%
X99825000Y-69400000D03*
X98175000Y-69400000D03*
%TD*%
D12*
%TO.C,J4*%
X124860000Y-90600000D03*
D13*
X124860000Y-88060000D03*
X124860000Y-85520000D03*
X124860000Y-82980000D03*
%TD*%
D44*
%TO.C,C19*%
X92500000Y-107750000D03*
X92500000Y-110700000D03*
%TD*%
D25*
%TO.C,C14*%
X93200000Y-89850000D03*
X93200000Y-88300000D03*
%TD*%
D21*
%TO.C,R5*%
X94275000Y-69400000D03*
X95925000Y-69400000D03*
%TD*%
D25*
%TO.C,C9*%
X77300000Y-100575000D03*
X77300000Y-99025000D03*
%TD*%
D18*
%TO.C,C23*%
X92800000Y-70150000D03*
X92800000Y-71700000D03*
%TD*%
D43*
%TO.C,D2*%
X90400000Y-100937500D03*
X90400000Y-102812500D03*
%TD*%
D12*
%TO.C,J10*%
X90000000Y-66000000D03*
D13*
X90000000Y-68540000D03*
X90000000Y-71080000D03*
%TD*%
D45*
%TO.C,C15*%
X120000000Y-110275000D03*
X120000000Y-107325000D03*
%TD*%
D46*
%TO.C,IC1*%
X95600000Y-87900000D03*
X95600000Y-88400000D03*
X95600000Y-88900000D03*
X95600000Y-89400000D03*
D47*
X96250000Y-89550000D03*
X96750000Y-89550000D03*
X97250000Y-89550000D03*
D46*
X97900000Y-89400000D03*
X97900000Y-88900000D03*
X97900000Y-88400000D03*
X97900000Y-87900000D03*
D47*
X97250000Y-87750000D03*
X96750000Y-87750000D03*
X96250000Y-87750000D03*
%TD*%
D48*
%TO.C,C6*%
X79500000Y-96525000D03*
X79500000Y-99475000D03*
%TD*%
D49*
%TO.C,U3*%
X90475000Y-88650000D03*
X89825000Y-88650000D03*
X89175000Y-88650000D03*
X88525000Y-88650000D03*
X87875000Y-88650000D03*
X87225000Y-88650000D03*
X86575000Y-88650000D03*
X85925000Y-88650000D03*
X85275000Y-88650000D03*
X84625000Y-88650000D03*
X83975000Y-88650000D03*
X83325000Y-88650000D03*
X82675000Y-88650000D03*
X82025000Y-88650000D03*
X82025000Y-95850000D03*
X82675000Y-95850000D03*
X83325000Y-95850000D03*
X83975000Y-95850000D03*
X84625000Y-95850000D03*
X85275000Y-95850000D03*
X85925000Y-95850000D03*
X86575000Y-95850000D03*
X87225000Y-95850000D03*
X87875000Y-95850000D03*
X88525000Y-95850000D03*
X89175000Y-95850000D03*
X89825000Y-95850000D03*
X90475000Y-95850000D03*
%TD*%
D20*
%TO.C,H2*%
X73300000Y-115200000D03*
%TD*%
D24*
%TO.C,C22*%
X80475000Y-83700000D03*
X78925000Y-83700000D03*
%TD*%
D12*
%TO.C,J13*%
X115960000Y-70380000D03*
D13*
X118500000Y-70380000D03*
X121040000Y-70380000D03*
X123580000Y-70380000D03*
X126120000Y-70380000D03*
%TD*%
D12*
%TO.C,J16*%
X100400000Y-93900000D03*
D13*
X97860000Y-93900000D03*
X95320000Y-93900000D03*
%TD*%
D14*
%TO.C,C20*%
X98725000Y-62400000D03*
X100275000Y-62400000D03*
%TD*%
D25*
%TO.C,C17*%
X101000000Y-65450000D03*
X101000000Y-63900000D03*
%TD*%
D29*
%TO.C,TP1*%
X112300000Y-66700000D03*
%TD*%
D24*
%TO.C,C3*%
X104475000Y-84000000D03*
X102925000Y-84000000D03*
%TD*%
M02*
