%TF.GenerationSoftware,KiCad,Pcbnew,8.0.5*%
%TF.CreationDate,2026-03-12T21:46:00+01:00*%
%TF.ProjectId,kontroler_lotu,6b6f6e74-726f-46c6-9572-5f6c6f74752e,rev?*%
%TF.SameCoordinates,Original*%
%TF.FileFunction,Drillmap*%
%TF.FilePolarity,Positive*%
%FSLAX45Y45*%
G04 Gerber Fmt 4.5, Leading zero omitted, Abs format (unit mm)*
G04 Created by KiCad (PCBNEW 8.0.5) date 2026-03-12 21:46:00*
%MOMM*%
%LPD*%
G01*
G04 APERTURE LIST*
%ADD10C,0.050000*%
%ADD11C,0.200000*%
%ADD12C,0.100000*%
%ADD13C,0.320000*%
G04 APERTURE END LIST*
D10*
X6780000Y-12280000D02*
X6780000Y-5300000D01*
X6980000Y-5100000D02*
X13580000Y-5100000D01*
X13780000Y-12280000D02*
G75*
G02*
X13580000Y-12480000I-200000J0D01*
G01*
X13580000Y-12480000D02*
X6980000Y-12480000D01*
X6980000Y-12480000D02*
G75*
G02*
X6780000Y-12280000I0J200000D01*
G01*
X6780000Y-5300000D02*
G75*
G02*
X6980000Y-5100000I200000J0D01*
G01*
X13580000Y-5100000D02*
G75*
G02*
X13780000Y-5300000I0J-200000D01*
G01*
X13780000Y-5300000D02*
X13780000Y-12280000D01*
D11*
D12*
X7235000Y-9565000D02*
X7265000Y-9595000D01*
X7265000Y-9565000D02*
X7235000Y-9595000D01*
X7265000Y-7345000D02*
X7295000Y-7375000D01*
X7295000Y-7345000D02*
X7265000Y-7375000D01*
X7285000Y-6385000D02*
X7315000Y-6415000D01*
X7315000Y-6385000D02*
X7285000Y-6415000D01*
X7285000Y-6455000D02*
X7315000Y-6485000D01*
X7315000Y-6455000D02*
X7285000Y-6485000D01*
X7285000Y-6525000D02*
X7315000Y-6555000D01*
X7315000Y-6525000D02*
X7285000Y-6555000D01*
X7285000Y-6595000D02*
X7315000Y-6625000D01*
X7315000Y-6595000D02*
X7285000Y-6625000D01*
X7285000Y-6665000D02*
X7315000Y-6695000D01*
X7315000Y-6665000D02*
X7285000Y-6695000D01*
X7305000Y-8215000D02*
X7335000Y-8245000D01*
X7335000Y-8215000D02*
X7305000Y-8245000D01*
X7305000Y-8715000D02*
X7335000Y-8745000D01*
X7335000Y-8715000D02*
X7305000Y-8745000D01*
X7305000Y-8785000D02*
X7335000Y-8815000D01*
X7335000Y-8785000D02*
X7305000Y-8815000D01*
X7305000Y-8855000D02*
X7335000Y-8885000D01*
X7335000Y-8855000D02*
X7305000Y-8885000D01*
X7305000Y-8925000D02*
X7335000Y-8955000D01*
X7335000Y-8925000D02*
X7305000Y-8955000D01*
X7305000Y-8995000D02*
X7335000Y-9025000D01*
X7335000Y-8995000D02*
X7305000Y-9025000D01*
X7375000Y-6385000D02*
X7405000Y-6415000D01*
X7405000Y-6385000D02*
X7375000Y-6415000D01*
X7375000Y-6455000D02*
X7405000Y-6485000D01*
X7405000Y-6455000D02*
X7375000Y-6485000D01*
X7375000Y-6525000D02*
X7405000Y-6555000D01*
X7405000Y-6525000D02*
X7375000Y-6555000D01*
X7375000Y-6595000D02*
X7405000Y-6625000D01*
X7405000Y-6595000D02*
X7375000Y-6625000D01*
X7375000Y-6665000D02*
X7405000Y-6695000D01*
X7405000Y-6665000D02*
X7375000Y-6695000D01*
X7395000Y-8715000D02*
X7425000Y-8745000D01*
X7425000Y-8715000D02*
X7395000Y-8745000D01*
X7395000Y-8785000D02*
X7425000Y-8815000D01*
X7425000Y-8785000D02*
X7395000Y-8815000D01*
X7395000Y-8855000D02*
X7425000Y-8885000D01*
X7425000Y-8855000D02*
X7395000Y-8885000D01*
X7395000Y-8925000D02*
X7425000Y-8955000D01*
X7425000Y-8925000D02*
X7395000Y-8955000D01*
X7395000Y-8995000D02*
X7425000Y-9025000D01*
X7425000Y-8995000D02*
X7395000Y-9025000D01*
X7455000Y-6385000D02*
X7485000Y-6415000D01*
X7485000Y-6385000D02*
X7455000Y-6415000D01*
X7455000Y-6455000D02*
X7485000Y-6485000D01*
X7485000Y-6455000D02*
X7455000Y-6485000D01*
X7455000Y-6525000D02*
X7485000Y-6555000D01*
X7485000Y-6525000D02*
X7455000Y-6555000D01*
X7455000Y-6595000D02*
X7485000Y-6625000D01*
X7485000Y-6595000D02*
X7455000Y-6625000D01*
X7455000Y-6665000D02*
X7485000Y-6695000D01*
X7485000Y-6665000D02*
X7455000Y-6695000D01*
X7475000Y-8715000D02*
X7505000Y-8745000D01*
X7505000Y-8715000D02*
X7475000Y-8745000D01*
X7475000Y-8785000D02*
X7505000Y-8815000D01*
X7505000Y-8785000D02*
X7475000Y-8815000D01*
X7475000Y-8855000D02*
X7505000Y-8885000D01*
X7505000Y-8855000D02*
X7475000Y-8885000D01*
X7475000Y-8925000D02*
X7505000Y-8955000D01*
X7505000Y-8925000D02*
X7475000Y-8955000D01*
X7475000Y-8995000D02*
X7505000Y-9025000D01*
X7505000Y-8995000D02*
X7475000Y-9025000D01*
X7475000Y-10615000D02*
X7505000Y-10645000D01*
X7505000Y-10615000D02*
X7475000Y-10645000D01*
X7545000Y-6385000D02*
X7575000Y-6415000D01*
X7575000Y-6385000D02*
X7545000Y-6415000D01*
X7545000Y-6455000D02*
X7575000Y-6485000D01*
X7575000Y-6455000D02*
X7545000Y-6485000D01*
X7545000Y-6525000D02*
X7575000Y-6555000D01*
X7575000Y-6525000D02*
X7545000Y-6555000D01*
X7545000Y-6595000D02*
X7575000Y-6625000D01*
X7575000Y-6595000D02*
X7545000Y-6625000D01*
X7545000Y-6665000D02*
X7575000Y-6695000D01*
X7575000Y-6665000D02*
X7545000Y-6695000D01*
X7565000Y-8715000D02*
X7595000Y-8745000D01*
X7595000Y-8715000D02*
X7565000Y-8745000D01*
X7565000Y-8785000D02*
X7595000Y-8815000D01*
X7595000Y-8785000D02*
X7565000Y-8815000D01*
X7565000Y-8855000D02*
X7595000Y-8885000D01*
X7595000Y-8855000D02*
X7565000Y-8885000D01*
X7565000Y-8925000D02*
X7595000Y-8955000D01*
X7595000Y-8925000D02*
X7565000Y-8955000D01*
X7565000Y-8995000D02*
X7595000Y-9025000D01*
X7595000Y-8995000D02*
X7565000Y-9025000D01*
X7635000Y-6385000D02*
X7665000Y-6415000D01*
X7665000Y-6385000D02*
X7635000Y-6415000D01*
X7635000Y-6455000D02*
X7665000Y-6485000D01*
X7665000Y-6455000D02*
X7635000Y-6485000D01*
X7635000Y-6525000D02*
X7665000Y-6555000D01*
X7665000Y-6525000D02*
X7635000Y-6555000D01*
X7635000Y-6595000D02*
X7665000Y-6625000D01*
X7665000Y-6595000D02*
X7635000Y-6625000D01*
X7635000Y-6665000D02*
X7665000Y-6695000D01*
X7665000Y-6665000D02*
X7635000Y-6695000D01*
X7655000Y-8715000D02*
X7685000Y-8745000D01*
X7685000Y-8715000D02*
X7655000Y-8745000D01*
X7655000Y-8785000D02*
X7685000Y-8815000D01*
X7685000Y-8785000D02*
X7655000Y-8815000D01*
X7655000Y-8855000D02*
X7685000Y-8885000D01*
X7685000Y-8855000D02*
X7655000Y-8885000D01*
X7655000Y-8925000D02*
X7685000Y-8955000D01*
X7685000Y-8925000D02*
X7655000Y-8955000D01*
X7655000Y-8995000D02*
X7685000Y-9025000D01*
X7685000Y-8995000D02*
X7655000Y-9025000D01*
X7715000Y-6385000D02*
X7745000Y-6415000D01*
X7745000Y-6385000D02*
X7715000Y-6415000D01*
X7715000Y-6455000D02*
X7745000Y-6485000D01*
X7745000Y-6455000D02*
X7715000Y-6485000D01*
X7715000Y-6525000D02*
X7745000Y-6555000D01*
X7745000Y-6525000D02*
X7715000Y-6555000D01*
X7715000Y-6595000D02*
X7745000Y-6625000D01*
X7745000Y-6595000D02*
X7715000Y-6625000D01*
X7715000Y-6665000D02*
X7745000Y-6695000D01*
X7745000Y-6665000D02*
X7715000Y-6695000D01*
X7735000Y-8715000D02*
X7765000Y-8745000D01*
X7765000Y-8715000D02*
X7735000Y-8745000D01*
X7735000Y-8785000D02*
X7765000Y-8815000D01*
X7765000Y-8785000D02*
X7735000Y-8815000D01*
X7735000Y-8855000D02*
X7765000Y-8885000D01*
X7765000Y-8855000D02*
X7735000Y-8885000D01*
X7735000Y-8925000D02*
X7765000Y-8955000D01*
X7765000Y-8925000D02*
X7735000Y-8955000D01*
X7735000Y-8995000D02*
X7765000Y-9025000D01*
X7765000Y-8995000D02*
X7735000Y-9025000D01*
X7925000Y-5635000D02*
X7955000Y-5665000D01*
X7955000Y-5635000D02*
X7925000Y-5665000D01*
X8185000Y-9835000D02*
X8215000Y-9865000D01*
X8215000Y-9835000D02*
X8185000Y-9865000D01*
X8260000Y-9710000D02*
X8290000Y-9740000D01*
X8290000Y-9710000D02*
X8260000Y-9740000D01*
X8285000Y-10345000D02*
X8315000Y-10375000D01*
X8315000Y-10345000D02*
X8285000Y-10375000D01*
X8305000Y-5425000D02*
X8335000Y-5455000D01*
X8335000Y-5425000D02*
X8305000Y-5455000D01*
X8385000Y-8660000D02*
X8415000Y-8690000D01*
X8415000Y-8660000D02*
X8385000Y-8690000D01*
X8395000Y-9765000D02*
X8425000Y-9795000D01*
X8425000Y-9765000D02*
X8395000Y-9795000D01*
X8535000Y-5425000D02*
X8565000Y-5455000D01*
X8565000Y-5425000D02*
X8535000Y-5455000D01*
X8615000Y-9405000D02*
X8645000Y-9435000D01*
X8645000Y-9405000D02*
X8615000Y-9435000D01*
X8645000Y-7895000D02*
X8675000Y-7925000D01*
X8675000Y-7895000D02*
X8645000Y-7925000D01*
X8645000Y-10515000D02*
X8675000Y-10545000D01*
X8675000Y-10515000D02*
X8645000Y-10545000D01*
X8645000Y-10585000D02*
X8675000Y-10615000D01*
X8675000Y-10585000D02*
X8645000Y-10615000D01*
X8645000Y-10655000D02*
X8675000Y-10685000D01*
X8675000Y-10655000D02*
X8645000Y-10685000D01*
X8675000Y-8665000D02*
X8705000Y-8695000D01*
X8705000Y-8665000D02*
X8675000Y-8695000D01*
X8705000Y-7845000D02*
X8735000Y-7875000D01*
X8735000Y-7845000D02*
X8705000Y-7875000D01*
X8725000Y-10515000D02*
X8755000Y-10545000D01*
X8755000Y-10515000D02*
X8725000Y-10545000D01*
X8725000Y-10585000D02*
X8755000Y-10615000D01*
X8755000Y-10585000D02*
X8725000Y-10615000D01*
X8725000Y-10655000D02*
X8755000Y-10685000D01*
X8755000Y-10655000D02*
X8725000Y-10685000D01*
X8745000Y-7355000D02*
X8775000Y-7385000D01*
X8775000Y-7355000D02*
X8745000Y-7385000D01*
X8805000Y-10515000D02*
X8835000Y-10545000D01*
X8835000Y-10515000D02*
X8805000Y-10545000D01*
X8805000Y-10585000D02*
X8835000Y-10615000D01*
X8835000Y-10585000D02*
X8805000Y-10615000D01*
X8805000Y-10655000D02*
X8835000Y-10685000D01*
X8835000Y-10655000D02*
X8805000Y-10685000D01*
X8845000Y-5775000D02*
X8875000Y-5805000D01*
X8875000Y-5775000D02*
X8845000Y-5805000D01*
X8865000Y-5645000D02*
X8895000Y-5675000D01*
X8895000Y-5645000D02*
X8865000Y-5675000D01*
X8865000Y-6245000D02*
X8895000Y-6275000D01*
X8895000Y-6245000D02*
X8865000Y-6275000D01*
X8865000Y-9145000D02*
X8895000Y-9175000D01*
X8895000Y-9145000D02*
X8865000Y-9175000D01*
X8875000Y-5525000D02*
X8905000Y-5555000D01*
X8905000Y-5525000D02*
X8875000Y-5555000D01*
X8935000Y-9205000D02*
X8965000Y-9235000D01*
X8965000Y-9205000D02*
X8935000Y-9235000D01*
X8965000Y-7375000D02*
X8995000Y-7405000D01*
X8995000Y-7375000D02*
X8965000Y-7405000D01*
X8997500Y-8072500D02*
X9027500Y-8102500D01*
X9027500Y-8072500D02*
X8997500Y-8102500D01*
X9005000Y-9275000D02*
X9035000Y-9305000D01*
X9035000Y-9275000D02*
X9005000Y-9305000D01*
X9010000Y-7960000D02*
X9040000Y-7990000D01*
X9040000Y-7960000D02*
X9010000Y-7990000D01*
X9025000Y-7815000D02*
X9055000Y-7845000D01*
X9055000Y-7815000D02*
X9025000Y-7845000D01*
X9055000Y-6275000D02*
X9085000Y-6305000D01*
X9085000Y-6275000D02*
X9055000Y-6305000D01*
X9065000Y-11475000D02*
X9095000Y-11505000D01*
X9095000Y-11475000D02*
X9065000Y-11505000D01*
X9065000Y-11545000D02*
X9095000Y-11575000D01*
X9095000Y-11545000D02*
X9065000Y-11575000D01*
X9065000Y-11615000D02*
X9095000Y-11645000D01*
X9095000Y-11615000D02*
X9065000Y-11645000D01*
X9065000Y-11685000D02*
X9095000Y-11715000D01*
X9095000Y-11685000D02*
X9065000Y-11715000D01*
X9065000Y-11755000D02*
X9095000Y-11785000D01*
X9095000Y-11755000D02*
X9065000Y-11785000D01*
X9100000Y-8240000D02*
X9130000Y-8270000D01*
X9130000Y-8240000D02*
X9100000Y-8270000D01*
X9155000Y-11475000D02*
X9185000Y-11505000D01*
X9185000Y-11475000D02*
X9155000Y-11505000D01*
X9155000Y-11545000D02*
X9185000Y-11575000D01*
X9185000Y-11545000D02*
X9155000Y-11575000D01*
X9155000Y-11615000D02*
X9185000Y-11645000D01*
X9185000Y-11615000D02*
X9155000Y-11645000D01*
X9155000Y-11685000D02*
X9185000Y-11715000D01*
X9185000Y-11685000D02*
X9155000Y-11715000D01*
X9155000Y-11755000D02*
X9185000Y-11785000D01*
X9185000Y-11755000D02*
X9155000Y-11785000D01*
X9165000Y-9745000D02*
X9195000Y-9775000D01*
X9195000Y-9745000D02*
X9165000Y-9775000D01*
X9225000Y-9475000D02*
X9255000Y-9505000D01*
X9255000Y-9475000D02*
X9225000Y-9505000D01*
X9235000Y-8455000D02*
X9265000Y-8485000D01*
X9265000Y-8455000D02*
X9235000Y-8485000D01*
X9235000Y-11475000D02*
X9265000Y-11505000D01*
X9265000Y-11475000D02*
X9235000Y-11505000D01*
X9235000Y-11545000D02*
X9265000Y-11575000D01*
X9265000Y-11545000D02*
X9235000Y-11575000D01*
X9235000Y-11615000D02*
X9265000Y-11645000D01*
X9265000Y-11615000D02*
X9235000Y-11645000D01*
X9235000Y-11685000D02*
X9265000Y-11715000D01*
X9265000Y-11685000D02*
X9235000Y-11715000D01*
X9235000Y-11755000D02*
X9265000Y-11785000D01*
X9265000Y-11755000D02*
X9235000Y-11785000D01*
X9295000Y-9685000D02*
X9325000Y-9715000D01*
X9325000Y-9685000D02*
X9295000Y-9715000D01*
X9325000Y-11475000D02*
X9355000Y-11505000D01*
X9355000Y-11475000D02*
X9325000Y-11505000D01*
X9325000Y-11545000D02*
X9355000Y-11575000D01*
X9355000Y-11545000D02*
X9325000Y-11575000D01*
X9325000Y-11615000D02*
X9355000Y-11645000D01*
X9355000Y-11615000D02*
X9325000Y-11645000D01*
X9325000Y-11685000D02*
X9355000Y-11715000D01*
X9355000Y-11685000D02*
X9325000Y-11715000D01*
X9325000Y-11755000D02*
X9355000Y-11785000D01*
X9355000Y-11755000D02*
X9325000Y-11785000D01*
X9345000Y-9095000D02*
X9375000Y-9125000D01*
X9375000Y-9095000D02*
X9345000Y-9125000D01*
X9365000Y-8165000D02*
X9395000Y-8195000D01*
X9395000Y-8165000D02*
X9365000Y-8195000D01*
X9385000Y-7625000D02*
X9415000Y-7655000D01*
X9415000Y-7625000D02*
X9385000Y-7655000D01*
X9415000Y-7735000D02*
X9445000Y-7765000D01*
X9445000Y-7735000D02*
X9415000Y-7765000D01*
X9415000Y-11475000D02*
X9445000Y-11505000D01*
X9445000Y-11475000D02*
X9415000Y-11505000D01*
X9415000Y-11545000D02*
X9445000Y-11575000D01*
X9445000Y-11545000D02*
X9415000Y-11575000D01*
X9415000Y-11615000D02*
X9445000Y-11645000D01*
X9445000Y-11615000D02*
X9415000Y-11645000D01*
X9415000Y-11685000D02*
X9445000Y-11715000D01*
X9445000Y-11685000D02*
X9415000Y-11715000D01*
X9415000Y-11755000D02*
X9445000Y-11785000D01*
X9445000Y-11755000D02*
X9415000Y-11785000D01*
X9425000Y-9595000D02*
X9455000Y-9625000D01*
X9455000Y-9595000D02*
X9425000Y-9625000D01*
X9445000Y-7555000D02*
X9475000Y-7585000D01*
X9475000Y-7555000D02*
X9445000Y-7585000D01*
X9445000Y-8625000D02*
X9475000Y-8655000D01*
X9475000Y-8625000D02*
X9445000Y-8655000D01*
X9445000Y-8955000D02*
X9475000Y-8985000D01*
X9475000Y-8955000D02*
X9445000Y-8985000D01*
X9465000Y-8015000D02*
X9495000Y-8045000D01*
X9495000Y-8015000D02*
X9465000Y-8045000D01*
X9495000Y-11475000D02*
X9525000Y-11505000D01*
X9525000Y-11475000D02*
X9495000Y-11505000D01*
X9495000Y-11545000D02*
X9525000Y-11575000D01*
X9525000Y-11545000D02*
X9495000Y-11575000D01*
X9495000Y-11615000D02*
X9525000Y-11645000D01*
X9525000Y-11615000D02*
X9495000Y-11645000D01*
X9495000Y-11685000D02*
X9525000Y-11715000D01*
X9525000Y-11685000D02*
X9495000Y-11715000D01*
X9495000Y-11755000D02*
X9525000Y-11785000D01*
X9525000Y-11755000D02*
X9495000Y-11785000D01*
X9510000Y-7420000D02*
X9540000Y-7450000D01*
X9540000Y-7420000D02*
X9510000Y-7450000D01*
X9517523Y-8570909D02*
X9547523Y-8600909D01*
X9547523Y-8570909D02*
X9517523Y-8600909D01*
X9605000Y-7425000D02*
X9635000Y-7455000D01*
X9635000Y-7425000D02*
X9605000Y-7455000D01*
X9610000Y-7340000D02*
X9640000Y-7370000D01*
X9640000Y-7340000D02*
X9610000Y-7370000D01*
X9660000Y-6975000D02*
X9690000Y-7005000D01*
X9690000Y-6975000D02*
X9660000Y-7005000D01*
X9685000Y-8615000D02*
X9715000Y-8645000D01*
X9715000Y-8615000D02*
X9685000Y-8645000D01*
X9715000Y-8215000D02*
X9745000Y-8245000D01*
X9745000Y-8215000D02*
X9715000Y-8245000D01*
X9735000Y-6775000D02*
X9765000Y-6805000D01*
X9765000Y-6775000D02*
X9735000Y-6805000D01*
X9739506Y-8689506D02*
X9769506Y-8719506D01*
X9769506Y-8689506D02*
X9739506Y-8719506D01*
X9755000Y-7355000D02*
X9785000Y-7385000D01*
X9785000Y-7355000D02*
X9755000Y-7385000D01*
X9765000Y-9085000D02*
X9795000Y-9115000D01*
X9795000Y-9085000D02*
X9765000Y-9115000D01*
X9805000Y-7465000D02*
X9835000Y-7495000D01*
X9835000Y-7465000D02*
X9805000Y-7495000D01*
X9835000Y-8215000D02*
X9865000Y-8245000D01*
X9865000Y-8215000D02*
X9835000Y-8245000D01*
X9855000Y-8015000D02*
X9885000Y-8045000D01*
X9885000Y-8015000D02*
X9855000Y-8045000D01*
X9875000Y-7395000D02*
X9905000Y-7425000D01*
X9905000Y-7395000D02*
X9875000Y-7425000D01*
X9925000Y-9155000D02*
X9955000Y-9185000D01*
X9955000Y-9155000D02*
X9925000Y-9185000D01*
X9955000Y-8215000D02*
X9985000Y-8245000D01*
X9985000Y-8215000D02*
X9955000Y-8245000D01*
X9985000Y-7375000D02*
X10015000Y-7405000D01*
X10015000Y-7375000D02*
X9985000Y-7405000D01*
X10015000Y-10505000D02*
X10045000Y-10535000D01*
X10045000Y-10505000D02*
X10015000Y-10535000D01*
X10075000Y-7595000D02*
X10105000Y-7625000D01*
X10105000Y-7595000D02*
X10075000Y-7625000D01*
X10075000Y-8215000D02*
X10105000Y-8245000D01*
X10105000Y-8215000D02*
X10075000Y-8245000D01*
X10085000Y-10505000D02*
X10115000Y-10535000D01*
X10115000Y-10505000D02*
X10085000Y-10535000D01*
X10095000Y-6695000D02*
X10125000Y-6725000D01*
X10125000Y-6695000D02*
X10095000Y-6725000D01*
X10110000Y-7335000D02*
X10140000Y-7365000D01*
X10140000Y-7335000D02*
X10110000Y-7365000D01*
X10115000Y-6105000D02*
X10145000Y-6135000D01*
X10145000Y-6105000D02*
X10115000Y-6135000D01*
X10145000Y-7075000D02*
X10175000Y-7105000D01*
X10175000Y-7075000D02*
X10145000Y-7105000D01*
X10155000Y-10505000D02*
X10185000Y-10535000D01*
X10185000Y-10505000D02*
X10155000Y-10535000D01*
X10175000Y-7665000D02*
X10205000Y-7695000D01*
X10205000Y-7665000D02*
X10175000Y-7695000D01*
X10175000Y-8105000D02*
X10205000Y-8135000D01*
X10205000Y-8105000D02*
X10175000Y-8135000D01*
X10265000Y-6865000D02*
X10295000Y-6895000D01*
X10295000Y-6865000D02*
X10265000Y-6895000D01*
X10335000Y-5925000D02*
X10365000Y-5955000D01*
X10365000Y-5925000D02*
X10335000Y-5955000D01*
X10385000Y-7185000D02*
X10415000Y-7215000D01*
X10415000Y-7185000D02*
X10385000Y-7215000D01*
X10395000Y-9165000D02*
X10425000Y-9195000D01*
X10425000Y-9165000D02*
X10395000Y-9195000D01*
X10415000Y-6815000D02*
X10445000Y-6845000D01*
X10445000Y-6815000D02*
X10415000Y-6845000D01*
X10425000Y-5875000D02*
X10455000Y-5905000D01*
X10455000Y-5875000D02*
X10425000Y-5905000D01*
X10445000Y-8275000D02*
X10475000Y-8305000D01*
X10475000Y-8275000D02*
X10445000Y-8305000D01*
X10465000Y-9185000D02*
X10495000Y-9215000D01*
X10495000Y-9185000D02*
X10465000Y-9215000D01*
X10485000Y-6725000D02*
X10515000Y-6755000D01*
X10515000Y-6725000D02*
X10485000Y-6755000D01*
X10495000Y-6455000D02*
X10525000Y-6485000D01*
X10525000Y-6455000D02*
X10495000Y-6485000D01*
X10535000Y-8345000D02*
X10565000Y-8375000D01*
X10565000Y-8345000D02*
X10535000Y-8375000D01*
X10535000Y-10475000D02*
X10565000Y-10505000D01*
X10565000Y-10475000D02*
X10535000Y-10505000D01*
X10535000Y-10545000D02*
X10565000Y-10575000D01*
X10565000Y-10545000D02*
X10535000Y-10575000D01*
X10535000Y-10615000D02*
X10565000Y-10645000D01*
X10565000Y-10615000D02*
X10535000Y-10645000D01*
X10535000Y-10685000D02*
X10565000Y-10715000D01*
X10565000Y-10685000D02*
X10535000Y-10715000D01*
X10535000Y-10755000D02*
X10565000Y-10785000D01*
X10565000Y-10755000D02*
X10535000Y-10785000D01*
X10615000Y-6305000D02*
X10645000Y-6335000D01*
X10645000Y-6305000D02*
X10615000Y-6335000D01*
X10625000Y-10475000D02*
X10655000Y-10505000D01*
X10655000Y-10475000D02*
X10625000Y-10505000D01*
X10625000Y-10545000D02*
X10655000Y-10575000D01*
X10655000Y-10545000D02*
X10625000Y-10575000D01*
X10625000Y-10615000D02*
X10655000Y-10645000D01*
X10655000Y-10615000D02*
X10625000Y-10645000D01*
X10625000Y-10685000D02*
X10655000Y-10715000D01*
X10655000Y-10685000D02*
X10625000Y-10715000D01*
X10625000Y-10755000D02*
X10655000Y-10785000D01*
X10655000Y-10755000D02*
X10625000Y-10785000D01*
X10635000Y-12035000D02*
X10665000Y-12065000D01*
X10665000Y-12035000D02*
X10635000Y-12065000D01*
X10695000Y-6235000D02*
X10725000Y-6265000D01*
X10725000Y-6235000D02*
X10695000Y-6265000D01*
X10705000Y-10475000D02*
X10735000Y-10505000D01*
X10735000Y-10475000D02*
X10705000Y-10505000D01*
X10705000Y-10545000D02*
X10735000Y-10575000D01*
X10735000Y-10545000D02*
X10705000Y-10575000D01*
X10705000Y-10615000D02*
X10735000Y-10645000D01*
X10735000Y-10615000D02*
X10705000Y-10645000D01*
X10705000Y-10685000D02*
X10735000Y-10715000D01*
X10735000Y-10685000D02*
X10705000Y-10715000D01*
X10705000Y-10755000D02*
X10735000Y-10785000D01*
X10735000Y-10755000D02*
X10705000Y-10785000D01*
X10755000Y-6165000D02*
X10785000Y-6195000D01*
X10785000Y-6165000D02*
X10755000Y-6195000D01*
X10825000Y-6095000D02*
X10855000Y-6125000D01*
X10855000Y-6095000D02*
X10825000Y-6125000D01*
X10825000Y-8425000D02*
X10855000Y-8455000D01*
X10855000Y-8425000D02*
X10825000Y-8455000D01*
X10861000Y-8555000D02*
X10891000Y-8585000D01*
X10891000Y-8555000D02*
X10861000Y-8585000D01*
X10895000Y-6015000D02*
X10925000Y-6045000D01*
X10925000Y-6015000D02*
X10895000Y-6045000D01*
X10975000Y-8485000D02*
X11005000Y-8515000D01*
X11005000Y-8485000D02*
X10975000Y-8515000D01*
X11005000Y-9175000D02*
X11035000Y-9205000D01*
X11035000Y-9175000D02*
X11005000Y-9205000D01*
X11125000Y-9175000D02*
X11155000Y-9205000D01*
X11155000Y-9175000D02*
X11125000Y-9205000D01*
X11175000Y-10615000D02*
X11205000Y-10645000D01*
X11205000Y-10615000D02*
X11175000Y-10645000D01*
X11175000Y-10695000D02*
X11205000Y-10725000D01*
X11205000Y-10695000D02*
X11175000Y-10725000D01*
X11215000Y-11925000D02*
X11245000Y-11955000D01*
X11245000Y-11925000D02*
X11215000Y-11955000D01*
X11245000Y-9175000D02*
X11275000Y-9205000D01*
X11275000Y-9175000D02*
X11245000Y-9205000D01*
X11255000Y-6325000D02*
X11285000Y-6355000D01*
X11285000Y-6325000D02*
X11255000Y-6355000D01*
X11265000Y-10615000D02*
X11295000Y-10645000D01*
X11295000Y-10615000D02*
X11265000Y-10645000D01*
X11265000Y-10695000D02*
X11295000Y-10725000D01*
X11295000Y-10695000D02*
X11265000Y-10725000D01*
X11345000Y-10615000D02*
X11375000Y-10645000D01*
X11375000Y-10615000D02*
X11345000Y-10645000D01*
X11345000Y-10695000D02*
X11375000Y-10725000D01*
X11375000Y-10695000D02*
X11345000Y-10725000D01*
X11405000Y-9715000D02*
X11435000Y-9745000D01*
X11435000Y-9715000D02*
X11405000Y-9745000D01*
X11475000Y-11365000D02*
X11505000Y-11395000D01*
X11505000Y-11365000D02*
X11475000Y-11395000D01*
X11545000Y-9175000D02*
X11575000Y-9205000D01*
X11575000Y-9175000D02*
X11545000Y-9205000D01*
X11615000Y-9565000D02*
X11645000Y-9595000D01*
X11645000Y-9565000D02*
X11615000Y-9595000D01*
X11615000Y-9645000D02*
X11645000Y-9675000D01*
X11645000Y-9645000D02*
X11615000Y-9675000D01*
X11615000Y-9715000D02*
X11645000Y-9745000D01*
X11645000Y-9715000D02*
X11615000Y-9745000D01*
X11635000Y-6655000D02*
X11665000Y-6685000D01*
X11665000Y-6655000D02*
X11635000Y-6685000D01*
X11645000Y-9975000D02*
X11675000Y-10005000D01*
X11675000Y-9975000D02*
X11645000Y-10005000D01*
X11645000Y-10045000D02*
X11675000Y-10075000D01*
X11675000Y-10045000D02*
X11645000Y-10075000D01*
X11645000Y-10115000D02*
X11675000Y-10145000D01*
X11675000Y-10115000D02*
X11645000Y-10145000D01*
X11655000Y-7785000D02*
X11685000Y-7815000D01*
X11685000Y-7785000D02*
X11655000Y-7815000D01*
X11685000Y-10645000D02*
X11715000Y-10675000D01*
X11715000Y-10645000D02*
X11685000Y-10675000D01*
X11685000Y-10715000D02*
X11715000Y-10745000D01*
X11715000Y-10715000D02*
X11685000Y-10745000D01*
X11685000Y-10785000D02*
X11715000Y-10815000D01*
X11715000Y-10785000D02*
X11685000Y-10815000D01*
X11715000Y-8035000D02*
X11745000Y-8065000D01*
X11745000Y-8035000D02*
X11715000Y-8065000D01*
X11775000Y-8215000D02*
X11805000Y-8245000D01*
X11805000Y-8215000D02*
X11775000Y-8245000D01*
X11783750Y-9235000D02*
X11813750Y-9265000D01*
X11813750Y-9235000D02*
X11783750Y-9265000D01*
X11785000Y-6665000D02*
X11815000Y-6695000D01*
X11815000Y-6665000D02*
X11785000Y-6695000D01*
X11785000Y-7785000D02*
X11815000Y-7815000D01*
X11815000Y-7785000D02*
X11785000Y-7815000D01*
X11835000Y-11735000D02*
X11865000Y-11765000D01*
X11865000Y-11735000D02*
X11835000Y-11765000D01*
X11915000Y-10335000D02*
X11945000Y-10365000D01*
X11945000Y-10335000D02*
X11915000Y-10365000D01*
X11915000Y-10415000D02*
X11945000Y-10445000D01*
X11945000Y-10415000D02*
X11915000Y-10445000D01*
X11915000Y-10495000D02*
X11945000Y-10525000D01*
X11945000Y-10495000D02*
X11915000Y-10525000D01*
X11935000Y-9175000D02*
X11965000Y-9205000D01*
X11965000Y-9175000D02*
X11935000Y-9205000D01*
X11985000Y-11325000D02*
X12015000Y-11355000D01*
X12015000Y-11325000D02*
X11985000Y-11355000D01*
X11995000Y-11225000D02*
X12025000Y-11255000D01*
X12025000Y-11225000D02*
X11995000Y-11255000D01*
X11995000Y-11435000D02*
X12025000Y-11465000D01*
X12025000Y-11435000D02*
X11995000Y-11465000D01*
X11995000Y-11525000D02*
X12025000Y-11555000D01*
X12025000Y-11525000D02*
X11995000Y-11555000D01*
X12035000Y-9275000D02*
X12065000Y-9305000D01*
X12065000Y-9275000D02*
X12035000Y-9305000D01*
X12065000Y-11855000D02*
X12095000Y-11885000D01*
X12095000Y-11855000D02*
X12065000Y-11885000D01*
X12105000Y-11225000D02*
X12135000Y-11255000D01*
X12135000Y-11225000D02*
X12105000Y-11255000D01*
X12105000Y-11325000D02*
X12135000Y-11355000D01*
X12135000Y-11325000D02*
X12105000Y-11355000D01*
X12105000Y-11445000D02*
X12135000Y-11475000D01*
X12135000Y-11445000D02*
X12105000Y-11475000D01*
X12125000Y-11515000D02*
X12155000Y-11545000D01*
X12155000Y-11515000D02*
X12125000Y-11545000D01*
X12185000Y-10075000D02*
X12215000Y-10105000D01*
X12215000Y-10075000D02*
X12185000Y-10105000D01*
X12185000Y-10155000D02*
X12215000Y-10185000D01*
X12215000Y-10155000D02*
X12185000Y-10185000D01*
X12225000Y-5465000D02*
X12255000Y-5495000D01*
X12255000Y-5465000D02*
X12225000Y-5495000D01*
X12245000Y-6445000D02*
X12275000Y-6475000D01*
X12275000Y-6445000D02*
X12245000Y-6475000D01*
X12245000Y-6585000D02*
X12275000Y-6615000D01*
X12275000Y-6585000D02*
X12245000Y-6615000D01*
X12245000Y-10735000D02*
X12275000Y-10765000D01*
X12275000Y-10735000D02*
X12245000Y-10765000D01*
X12255000Y-10075000D02*
X12285000Y-10105000D01*
X12285000Y-10075000D02*
X12255000Y-10105000D01*
X12255000Y-10155000D02*
X12285000Y-10185000D01*
X12285000Y-10155000D02*
X12255000Y-10185000D01*
X12275000Y-11635000D02*
X12305000Y-11665000D01*
X12305000Y-11635000D02*
X12275000Y-11665000D01*
X12285000Y-11785000D02*
X12315000Y-11815000D01*
X12315000Y-11785000D02*
X12285000Y-11815000D01*
X12295000Y-6735000D02*
X12325000Y-6765000D01*
X12325000Y-6735000D02*
X12295000Y-6765000D01*
X12335000Y-9275000D02*
X12365000Y-9305000D01*
X12365000Y-9275000D02*
X12335000Y-9305000D01*
X12335000Y-10735000D02*
X12365000Y-10765000D01*
X12365000Y-10735000D02*
X12335000Y-10765000D01*
X12355000Y-7525000D02*
X12385000Y-7555000D01*
X12385000Y-7525000D02*
X12355000Y-7555000D01*
X12465000Y-6775000D02*
X12495000Y-6805000D01*
X12495000Y-6775000D02*
X12465000Y-6805000D01*
X12555000Y-9565000D02*
X12585000Y-9595000D01*
X12585000Y-9565000D02*
X12555000Y-9595000D01*
X12585000Y-7235000D02*
X12615000Y-7265000D01*
X12615000Y-7235000D02*
X12585000Y-7265000D01*
X12645000Y-9215000D02*
X12675000Y-9245000D01*
X12675000Y-9215000D02*
X12645000Y-9245000D01*
X12705000Y-7415000D02*
X12735000Y-7445000D01*
X12735000Y-7415000D02*
X12705000Y-7445000D01*
X12765000Y-9505000D02*
X12795000Y-9535000D01*
X12795000Y-9505000D02*
X12765000Y-9535000D01*
X12865000Y-9385000D02*
X12895000Y-9415000D01*
X12895000Y-9385000D02*
X12865000Y-9415000D01*
X12935000Y-9305000D02*
X12965000Y-9335000D01*
X12965000Y-9305000D02*
X12935000Y-9335000D01*
X12935000Y-10135000D02*
X12965000Y-10165000D01*
X12965000Y-10135000D02*
X12935000Y-10165000D01*
X13035000Y-7755000D02*
X13065000Y-7785000D01*
X13065000Y-7755000D02*
X13035000Y-7785000D01*
X13035000Y-8945000D02*
X13065000Y-8975000D01*
X13065000Y-8945000D02*
X13035000Y-8975000D01*
X13045000Y-6755000D02*
X13075000Y-6785000D01*
X13075000Y-6755000D02*
X13045000Y-6785000D01*
X13045000Y-6825000D02*
X13075000Y-6855000D01*
X13075000Y-6825000D02*
X13045000Y-6855000D01*
X13045000Y-6895000D02*
X13075000Y-6925000D01*
X13075000Y-6895000D02*
X13045000Y-6925000D01*
X13045000Y-6965000D02*
X13075000Y-6995000D01*
X13075000Y-6965000D02*
X13045000Y-6995000D01*
X13045000Y-7035000D02*
X13075000Y-7065000D01*
X13075000Y-7035000D02*
X13045000Y-7065000D01*
X13045000Y-8395000D02*
X13075000Y-8425000D01*
X13075000Y-8395000D02*
X13045000Y-8425000D01*
X13045000Y-10235000D02*
X13075000Y-10265000D01*
X13075000Y-10235000D02*
X13045000Y-10265000D01*
X13045000Y-10305000D02*
X13075000Y-10335000D01*
X13075000Y-10305000D02*
X13045000Y-10335000D01*
X13045000Y-10375000D02*
X13075000Y-10405000D01*
X13075000Y-10375000D02*
X13045000Y-10405000D01*
X13045000Y-10445000D02*
X13075000Y-10475000D01*
X13075000Y-10445000D02*
X13045000Y-10475000D01*
X13045000Y-10515000D02*
X13075000Y-10545000D01*
X13075000Y-10515000D02*
X13045000Y-10545000D01*
X13055000Y-7915000D02*
X13085000Y-7945000D01*
X13085000Y-7915000D02*
X13055000Y-7945000D01*
X13065000Y-8665000D02*
X13095000Y-8695000D01*
X13095000Y-8665000D02*
X13065000Y-8695000D01*
X13135000Y-6755000D02*
X13165000Y-6785000D01*
X13165000Y-6755000D02*
X13135000Y-6785000D01*
X13135000Y-6825000D02*
X13165000Y-6855000D01*
X13165000Y-6825000D02*
X13135000Y-6855000D01*
X13135000Y-6895000D02*
X13165000Y-6925000D01*
X13165000Y-6895000D02*
X13135000Y-6925000D01*
X13135000Y-6965000D02*
X13165000Y-6995000D01*
X13165000Y-6965000D02*
X13135000Y-6995000D01*
X13135000Y-7035000D02*
X13165000Y-7065000D01*
X13165000Y-7035000D02*
X13135000Y-7065000D01*
X13135000Y-10235000D02*
X13165000Y-10265000D01*
X13165000Y-10235000D02*
X13135000Y-10265000D01*
X13135000Y-10305000D02*
X13165000Y-10335000D01*
X13165000Y-10305000D02*
X13135000Y-10335000D01*
X13135000Y-10375000D02*
X13165000Y-10405000D01*
X13165000Y-10375000D02*
X13135000Y-10405000D01*
X13135000Y-10445000D02*
X13165000Y-10475000D01*
X13165000Y-10445000D02*
X13135000Y-10475000D01*
X13135000Y-10515000D02*
X13165000Y-10545000D01*
X13165000Y-10515000D02*
X13135000Y-10545000D01*
X13215000Y-6755000D02*
X13245000Y-6785000D01*
X13245000Y-6755000D02*
X13215000Y-6785000D01*
X13215000Y-6825000D02*
X13245000Y-6855000D01*
X13245000Y-6825000D02*
X13215000Y-6855000D01*
X13215000Y-6895000D02*
X13245000Y-6925000D01*
X13245000Y-6895000D02*
X13215000Y-6925000D01*
X13215000Y-6965000D02*
X13245000Y-6995000D01*
X13245000Y-6965000D02*
X13215000Y-6995000D01*
X13215000Y-7035000D02*
X13245000Y-7065000D01*
X13245000Y-7035000D02*
X13215000Y-7065000D01*
X13215000Y-10235000D02*
X13245000Y-10265000D01*
X13245000Y-10235000D02*
X13215000Y-10265000D01*
X13215000Y-10305000D02*
X13245000Y-10335000D01*
X13245000Y-10305000D02*
X13215000Y-10335000D01*
X13215000Y-10375000D02*
X13245000Y-10405000D01*
X13245000Y-10375000D02*
X13215000Y-10405000D01*
X13215000Y-10445000D02*
X13245000Y-10475000D01*
X13245000Y-10445000D02*
X13215000Y-10475000D01*
X13215000Y-10515000D02*
X13245000Y-10545000D01*
X13245000Y-10515000D02*
X13215000Y-10545000D01*
X13305000Y-6755000D02*
X13335000Y-6785000D01*
X13335000Y-6755000D02*
X13305000Y-6785000D01*
X13305000Y-6825000D02*
X13335000Y-6855000D01*
X13335000Y-6825000D02*
X13305000Y-6855000D01*
X13305000Y-6895000D02*
X13335000Y-6925000D01*
X13335000Y-6895000D02*
X13305000Y-6925000D01*
X13305000Y-6965000D02*
X13335000Y-6995000D01*
X13335000Y-6965000D02*
X13305000Y-6995000D01*
X13305000Y-7035000D02*
X13335000Y-7065000D01*
X13335000Y-7035000D02*
X13305000Y-7065000D01*
X13305000Y-10235000D02*
X13335000Y-10265000D01*
X13335000Y-10235000D02*
X13305000Y-10265000D01*
X13305000Y-10305000D02*
X13335000Y-10335000D01*
X13335000Y-10305000D02*
X13305000Y-10335000D01*
X13305000Y-10375000D02*
X13335000Y-10405000D01*
X13335000Y-10375000D02*
X13305000Y-10405000D01*
X13305000Y-10445000D02*
X13335000Y-10475000D01*
X13335000Y-10445000D02*
X13305000Y-10475000D01*
X13305000Y-10515000D02*
X13335000Y-10545000D01*
X13335000Y-10515000D02*
X13305000Y-10545000D01*
X13395000Y-6755000D02*
X13425000Y-6785000D01*
X13425000Y-6755000D02*
X13395000Y-6785000D01*
X13395000Y-6825000D02*
X13425000Y-6855000D01*
X13425000Y-6825000D02*
X13395000Y-6855000D01*
X13395000Y-6895000D02*
X13425000Y-6925000D01*
X13425000Y-6895000D02*
X13395000Y-6925000D01*
X13395000Y-6965000D02*
X13425000Y-6995000D01*
X13425000Y-6965000D02*
X13395000Y-6995000D01*
X13395000Y-7035000D02*
X13425000Y-7065000D01*
X13425000Y-7035000D02*
X13395000Y-7065000D01*
X13395000Y-8005000D02*
X13425000Y-8035000D01*
X13425000Y-8005000D02*
X13395000Y-8035000D01*
X13395000Y-8435000D02*
X13425000Y-8465000D01*
X13425000Y-8435000D02*
X13395000Y-8465000D01*
X13395000Y-10235000D02*
X13425000Y-10265000D01*
X13425000Y-10235000D02*
X13395000Y-10265000D01*
X13395000Y-10305000D02*
X13425000Y-10335000D01*
X13425000Y-10305000D02*
X13395000Y-10335000D01*
X13395000Y-10375000D02*
X13425000Y-10405000D01*
X13425000Y-10375000D02*
X13395000Y-10405000D01*
X13395000Y-10445000D02*
X13425000Y-10475000D01*
X13425000Y-10445000D02*
X13395000Y-10475000D01*
X13395000Y-10515000D02*
X13425000Y-10545000D01*
X13425000Y-10515000D02*
X13395000Y-10545000D01*
X13415000Y-8855000D02*
X13445000Y-8885000D01*
X13445000Y-8855000D02*
X13415000Y-8885000D01*
X13475000Y-6755000D02*
X13505000Y-6785000D01*
X13505000Y-6755000D02*
X13475000Y-6785000D01*
X13475000Y-6825000D02*
X13505000Y-6855000D01*
X13505000Y-6825000D02*
X13475000Y-6855000D01*
X13475000Y-6895000D02*
X13505000Y-6925000D01*
X13505000Y-6895000D02*
X13475000Y-6925000D01*
X13475000Y-6965000D02*
X13505000Y-6995000D01*
X13505000Y-6965000D02*
X13475000Y-6995000D01*
X13475000Y-7035000D02*
X13505000Y-7065000D01*
X13505000Y-7035000D02*
X13475000Y-7065000D01*
X13475000Y-10235000D02*
X13505000Y-10265000D01*
X13505000Y-10235000D02*
X13475000Y-10265000D01*
X13475000Y-10305000D02*
X13505000Y-10335000D01*
X13505000Y-10305000D02*
X13475000Y-10335000D01*
X13475000Y-10375000D02*
X13505000Y-10405000D01*
X13505000Y-10375000D02*
X13475000Y-10405000D01*
X13475000Y-10445000D02*
X13505000Y-10475000D01*
X13505000Y-10445000D02*
X13475000Y-10475000D01*
X13475000Y-10515000D02*
X13505000Y-10545000D01*
X13505000Y-10515000D02*
X13475000Y-10545000D01*
X10837500Y-11396000D02*
G75*
G02*
X10762500Y-11396000I-37500J0D01*
G01*
X10762500Y-11396000D02*
G75*
G02*
X10837500Y-11396000I37500J0D01*
G01*
X10837500Y-11523000D02*
G75*
G02*
X10762500Y-11523000I-37500J0D01*
G01*
X10762500Y-11523000D02*
G75*
G02*
X10837500Y-11523000I37500J0D01*
G01*
X10837500Y-11650000D02*
G75*
G02*
X10762500Y-11650000I-37500J0D01*
G01*
X10762500Y-11650000D02*
G75*
G02*
X10837500Y-11650000I37500J0D01*
G01*
X11222500Y-11413000D02*
G75*
G02*
X11147500Y-11413000I-37500J0D01*
G01*
X11147500Y-11413000D02*
G75*
G02*
X11222500Y-11413000I37500J0D01*
G01*
X11222500Y-11540000D02*
G75*
G02*
X11147500Y-11540000I-37500J0D01*
G01*
X11147500Y-11540000D02*
G75*
G02*
X11222500Y-11540000I37500J0D01*
G01*
X11222500Y-11667000D02*
G75*
G02*
X11147500Y-11667000I-37500J0D01*
G01*
X11147500Y-11667000D02*
G75*
G02*
X11222500Y-11667000I37500J0D01*
G01*
X7950000Y-7271000D02*
X7950000Y-7371000D01*
X7900000Y-7321000D02*
X8000000Y-7321000D01*
X7950000Y-7525000D02*
X7950000Y-7625000D01*
X7900000Y-7575000D02*
X8000000Y-7575000D01*
X7950000Y-7779000D02*
X7950000Y-7879000D01*
X7900000Y-7829000D02*
X8000000Y-7829000D01*
X7950000Y-8033000D02*
X7950000Y-8133000D01*
X7900000Y-8083000D02*
X8000000Y-8083000D01*
X8190000Y-5640000D02*
X8190000Y-5740000D01*
X8140000Y-5690000D02*
X8240000Y-5690000D01*
X8190000Y-6290000D02*
X8190000Y-6390000D01*
X8140000Y-6340000D02*
X8240000Y-6340000D01*
X8640000Y-5640000D02*
X8640000Y-5740000D01*
X8590000Y-5690000D02*
X8690000Y-5690000D01*
X8640000Y-6290000D02*
X8640000Y-6390000D01*
X8590000Y-6340000D02*
X8690000Y-6340000D01*
X9000000Y-6550000D02*
X9000000Y-6650000D01*
X8950000Y-6600000D02*
X9050000Y-6600000D01*
X9000000Y-6804000D02*
X9000000Y-6904000D01*
X8950000Y-6854000D02*
X9050000Y-6854000D01*
X9000000Y-7058000D02*
X9000000Y-7158000D01*
X8950000Y-7108000D02*
X9050000Y-7108000D01*
X9117000Y-5655000D02*
X9117000Y-5755000D01*
X9067000Y-5705000D02*
X9167000Y-5705000D01*
X9120000Y-6030000D02*
X9120000Y-6130000D01*
X9070000Y-6080000D02*
X9170000Y-6080000D01*
X9371000Y-5655000D02*
X9371000Y-5755000D01*
X9321000Y-5705000D02*
X9421000Y-5705000D01*
X9532000Y-9340000D02*
X9532000Y-9440000D01*
X9482000Y-9390000D02*
X9582000Y-9390000D01*
X9625000Y-5655000D02*
X9625000Y-5755000D01*
X9575000Y-5705000D02*
X9675000Y-5705000D01*
X9775000Y-11917500D02*
X9775000Y-12017500D01*
X9725000Y-11967500D02*
X9825000Y-11967500D01*
X9786000Y-9340000D02*
X9786000Y-9440000D01*
X9736000Y-9390000D02*
X9836000Y-9390000D01*
X9879000Y-5655000D02*
X9879000Y-5755000D01*
X9829000Y-5705000D02*
X9929000Y-5705000D01*
X10029000Y-11917500D02*
X10029000Y-12017500D01*
X9979000Y-11967500D02*
X10079000Y-11967500D01*
X10040000Y-9340000D02*
X10040000Y-9440000D01*
X9990000Y-9390000D02*
X10090000Y-9390000D01*
X10133000Y-5655000D02*
X10133000Y-5755000D01*
X10083000Y-5705000D02*
X10183000Y-5705000D01*
X10387000Y-5655000D02*
X10387000Y-5755000D01*
X10337000Y-5705000D02*
X10437000Y-5705000D01*
X10641000Y-5655000D02*
X10641000Y-5755000D01*
X10591000Y-5705000D02*
X10691000Y-5705000D01*
X10656000Y-8970000D02*
X10656000Y-9070000D01*
X10606000Y-9020000D02*
X10706000Y-9020000D01*
X10663000Y-9525000D02*
X10663000Y-9625000D01*
X10613000Y-9575000D02*
X10713000Y-9575000D01*
X10825000Y-6688000D02*
X10825000Y-6788000D01*
X10775000Y-6738000D02*
X10875000Y-6738000D01*
X10825000Y-6942000D02*
X10825000Y-7042000D01*
X10775000Y-6992000D02*
X10875000Y-6992000D01*
X10825000Y-7196000D02*
X10825000Y-7296000D01*
X10775000Y-7246000D02*
X10875000Y-7246000D01*
X10825000Y-7450000D02*
X10825000Y-7550000D01*
X10775000Y-7500000D02*
X10875000Y-7500000D01*
X10910000Y-8970000D02*
X10910000Y-9070000D01*
X10860000Y-9020000D02*
X10960000Y-9020000D01*
X10917000Y-9525000D02*
X10917000Y-9625000D01*
X10867000Y-9575000D02*
X10967000Y-9575000D01*
X11137000Y-5665000D02*
X11137000Y-5765000D01*
X11087000Y-5715000D02*
X11187000Y-5715000D01*
X11164000Y-8970000D02*
X11164000Y-9070000D01*
X11114000Y-9020000D02*
X11214000Y-9020000D01*
X11171000Y-9525000D02*
X11171000Y-9625000D01*
X11121000Y-9575000D02*
X11221000Y-9575000D01*
X11200000Y-7498500D02*
X11200000Y-7598500D01*
X11150000Y-7548500D02*
X11250000Y-7548500D01*
X11200000Y-7752500D02*
X11200000Y-7852500D01*
X11150000Y-7802500D02*
X11250000Y-7802500D01*
X11391000Y-5665000D02*
X11391000Y-5765000D01*
X11341000Y-5715000D02*
X11441000Y-5715000D01*
X11418000Y-8970000D02*
X11418000Y-9070000D01*
X11368000Y-9020000D02*
X11468000Y-9020000D01*
X11425000Y-9525000D02*
X11425000Y-9625000D01*
X11375000Y-9575000D02*
X11475000Y-9575000D01*
X11645000Y-5665000D02*
X11645000Y-5765000D01*
X11595000Y-5715000D02*
X11695000Y-5715000D01*
X11899000Y-5665000D02*
X11899000Y-5765000D01*
X11849000Y-5715000D02*
X11949000Y-5715000D01*
X12232000Y-8248000D02*
X12232000Y-8348000D01*
X12182000Y-8298000D02*
X12282000Y-8298000D01*
X12232000Y-8502000D02*
X12232000Y-8602000D01*
X12182000Y-8552000D02*
X12282000Y-8552000D01*
X12232000Y-8756000D02*
X12232000Y-8856000D01*
X12182000Y-8806000D02*
X12282000Y-8806000D01*
X12232000Y-9010000D02*
X12232000Y-9110000D01*
X12182000Y-9060000D02*
X12282000Y-9060000D01*
X12486000Y-8248000D02*
X12486000Y-8348000D01*
X12436000Y-8298000D02*
X12536000Y-8298000D01*
X12486000Y-8502000D02*
X12486000Y-8602000D01*
X12436000Y-8552000D02*
X12536000Y-8552000D01*
X12486000Y-8756000D02*
X12486000Y-8856000D01*
X12436000Y-8806000D02*
X12536000Y-8806000D01*
X12486000Y-9010000D02*
X12486000Y-9110000D01*
X12436000Y-9060000D02*
X12536000Y-9060000D01*
X12630000Y-5682000D02*
X12630000Y-5782000D01*
X12580000Y-5732000D02*
X12680000Y-5732000D01*
X12630000Y-5936000D02*
X12630000Y-6036000D01*
X12580000Y-5986000D02*
X12680000Y-5986000D01*
X12630000Y-6190000D02*
X12630000Y-6290000D01*
X12580000Y-6240000D02*
X12680000Y-6240000D01*
X12630000Y-6444000D02*
X12630000Y-6544000D01*
X12580000Y-6494000D02*
X12680000Y-6494000D01*
X12740000Y-8248000D02*
X12740000Y-8348000D01*
X12690000Y-8298000D02*
X12790000Y-8298000D01*
X12740000Y-8502000D02*
X12740000Y-8602000D01*
X12690000Y-8552000D02*
X12790000Y-8552000D01*
X12740000Y-8756000D02*
X12740000Y-8856000D01*
X12690000Y-8806000D02*
X12790000Y-8806000D01*
X12740000Y-9010000D02*
X12740000Y-9110000D01*
X12690000Y-9060000D02*
X12790000Y-9060000D01*
X13190000Y-10960000D02*
X13190000Y-11060000D01*
X13140000Y-11010000D02*
X13240000Y-11010000D01*
X13190000Y-11214000D02*
X13190000Y-11314000D01*
X13140000Y-11264000D02*
X13240000Y-11264000D01*
D13*
X7413138Y-12043138D02*
X7413138Y-11816862D01*
X7186862Y-11816862D01*
X7186862Y-12043138D01*
X7413138Y-12043138D01*
X7443138Y-5763138D02*
X7443138Y-5536862D01*
X7216862Y-5536862D01*
X7216862Y-5763138D01*
X7443138Y-5763138D01*
X13313138Y-12043138D02*
X13313138Y-11816862D01*
X13086862Y-11816862D01*
X13086862Y-12043138D01*
X13313138Y-12043138D01*
X13343138Y-5763138D02*
X13343138Y-5536862D01*
X13116862Y-5536862D01*
X13116862Y-5763138D01*
X13343138Y-5763138D01*
D11*
X7038277Y-12793984D02*
X7038277Y-12593984D01*
X7038277Y-12593984D02*
X7085896Y-12593984D01*
X7085896Y-12593984D02*
X7114467Y-12603508D01*
X7114467Y-12603508D02*
X7133515Y-12622555D01*
X7133515Y-12622555D02*
X7143039Y-12641603D01*
X7143039Y-12641603D02*
X7152562Y-12679698D01*
X7152562Y-12679698D02*
X7152562Y-12708269D01*
X7152562Y-12708269D02*
X7143039Y-12746365D01*
X7143039Y-12746365D02*
X7133515Y-12765412D01*
X7133515Y-12765412D02*
X7114467Y-12784460D01*
X7114467Y-12784460D02*
X7085896Y-12793984D01*
X7085896Y-12793984D02*
X7038277Y-12793984D01*
X7238277Y-12793984D02*
X7238277Y-12660650D01*
X7238277Y-12698746D02*
X7247801Y-12679698D01*
X7247801Y-12679698D02*
X7257324Y-12670174D01*
X7257324Y-12670174D02*
X7276372Y-12660650D01*
X7276372Y-12660650D02*
X7295420Y-12660650D01*
X7362086Y-12793984D02*
X7362086Y-12660650D01*
X7362086Y-12593984D02*
X7352562Y-12603508D01*
X7352562Y-12603508D02*
X7362086Y-12613031D01*
X7362086Y-12613031D02*
X7371610Y-12603508D01*
X7371610Y-12603508D02*
X7362086Y-12593984D01*
X7362086Y-12593984D02*
X7362086Y-12613031D01*
X7485896Y-12793984D02*
X7466848Y-12784460D01*
X7466848Y-12784460D02*
X7457324Y-12765412D01*
X7457324Y-12765412D02*
X7457324Y-12593984D01*
X7590658Y-12793984D02*
X7571610Y-12784460D01*
X7571610Y-12784460D02*
X7562086Y-12765412D01*
X7562086Y-12765412D02*
X7562086Y-12593984D01*
X7819229Y-12793984D02*
X7819229Y-12593984D01*
X7819229Y-12593984D02*
X7885896Y-12736841D01*
X7885896Y-12736841D02*
X7952562Y-12593984D01*
X7952562Y-12593984D02*
X7952562Y-12793984D01*
X8133515Y-12793984D02*
X8133515Y-12689222D01*
X8133515Y-12689222D02*
X8123991Y-12670174D01*
X8123991Y-12670174D02*
X8104943Y-12660650D01*
X8104943Y-12660650D02*
X8066848Y-12660650D01*
X8066848Y-12660650D02*
X8047801Y-12670174D01*
X8133515Y-12784460D02*
X8114467Y-12793984D01*
X8114467Y-12793984D02*
X8066848Y-12793984D01*
X8066848Y-12793984D02*
X8047801Y-12784460D01*
X8047801Y-12784460D02*
X8038277Y-12765412D01*
X8038277Y-12765412D02*
X8038277Y-12746365D01*
X8038277Y-12746365D02*
X8047801Y-12727317D01*
X8047801Y-12727317D02*
X8066848Y-12717793D01*
X8066848Y-12717793D02*
X8114467Y-12717793D01*
X8114467Y-12717793D02*
X8133515Y-12708269D01*
X8228753Y-12660650D02*
X8228753Y-12860650D01*
X8228753Y-12670174D02*
X8247801Y-12660650D01*
X8247801Y-12660650D02*
X8285896Y-12660650D01*
X8285896Y-12660650D02*
X8304943Y-12670174D01*
X8304943Y-12670174D02*
X8314467Y-12679698D01*
X8314467Y-12679698D02*
X8323991Y-12698746D01*
X8323991Y-12698746D02*
X8323991Y-12755888D01*
X8323991Y-12755888D02*
X8314467Y-12774936D01*
X8314467Y-12774936D02*
X8304943Y-12784460D01*
X8304943Y-12784460D02*
X8285896Y-12793984D01*
X8285896Y-12793984D02*
X8247801Y-12793984D01*
X8247801Y-12793984D02*
X8228753Y-12784460D01*
X8409705Y-12774936D02*
X8419229Y-12784460D01*
X8419229Y-12784460D02*
X8409705Y-12793984D01*
X8409705Y-12793984D02*
X8400182Y-12784460D01*
X8400182Y-12784460D02*
X8409705Y-12774936D01*
X8409705Y-12774936D02*
X8409705Y-12793984D01*
X8409705Y-12670174D02*
X8419229Y-12679698D01*
X8419229Y-12679698D02*
X8409705Y-12689222D01*
X8409705Y-12689222D02*
X8400182Y-12679698D01*
X8400182Y-12679698D02*
X8409705Y-12670174D01*
X8409705Y-12670174D02*
X8409705Y-12689222D01*
D12*
X6747500Y-13107500D02*
X6777500Y-13137500D01*
X6777500Y-13107500D02*
X6747500Y-13137500D01*
D11*
X7076372Y-13013984D02*
X7095420Y-13013984D01*
X7095420Y-13013984D02*
X7114467Y-13023508D01*
X7114467Y-13023508D02*
X7123991Y-13033031D01*
X7123991Y-13033031D02*
X7133515Y-13052079D01*
X7133515Y-13052079D02*
X7143039Y-13090174D01*
X7143039Y-13090174D02*
X7143039Y-13137793D01*
X7143039Y-13137793D02*
X7133515Y-13175888D01*
X7133515Y-13175888D02*
X7123991Y-13194936D01*
X7123991Y-13194936D02*
X7114467Y-13204460D01*
X7114467Y-13204460D02*
X7095420Y-13213984D01*
X7095420Y-13213984D02*
X7076372Y-13213984D01*
X7076372Y-13213984D02*
X7057324Y-13204460D01*
X7057324Y-13204460D02*
X7047801Y-13194936D01*
X7047801Y-13194936D02*
X7038277Y-13175888D01*
X7038277Y-13175888D02*
X7028753Y-13137793D01*
X7028753Y-13137793D02*
X7028753Y-13090174D01*
X7028753Y-13090174D02*
X7038277Y-13052079D01*
X7038277Y-13052079D02*
X7047801Y-13033031D01*
X7047801Y-13033031D02*
X7057324Y-13023508D01*
X7057324Y-13023508D02*
X7076372Y-13013984D01*
X7228753Y-13194936D02*
X7238277Y-13204460D01*
X7238277Y-13204460D02*
X7228753Y-13213984D01*
X7228753Y-13213984D02*
X7219229Y-13204460D01*
X7219229Y-13204460D02*
X7228753Y-13194936D01*
X7228753Y-13194936D02*
X7228753Y-13213984D01*
X7304943Y-13013984D02*
X7428753Y-13013984D01*
X7428753Y-13013984D02*
X7362086Y-13090174D01*
X7362086Y-13090174D02*
X7390658Y-13090174D01*
X7390658Y-13090174D02*
X7409705Y-13099698D01*
X7409705Y-13099698D02*
X7419229Y-13109222D01*
X7419229Y-13109222D02*
X7428753Y-13128269D01*
X7428753Y-13128269D02*
X7428753Y-13175888D01*
X7428753Y-13175888D02*
X7419229Y-13194936D01*
X7419229Y-13194936D02*
X7409705Y-13204460D01*
X7409705Y-13204460D02*
X7390658Y-13213984D01*
X7390658Y-13213984D02*
X7333515Y-13213984D01*
X7333515Y-13213984D02*
X7314467Y-13204460D01*
X7314467Y-13204460D02*
X7304943Y-13194936D01*
X7552562Y-13013984D02*
X7571610Y-13013984D01*
X7571610Y-13013984D02*
X7590658Y-13023508D01*
X7590658Y-13023508D02*
X7600182Y-13033031D01*
X7600182Y-13033031D02*
X7609705Y-13052079D01*
X7609705Y-13052079D02*
X7619229Y-13090174D01*
X7619229Y-13090174D02*
X7619229Y-13137793D01*
X7619229Y-13137793D02*
X7609705Y-13175888D01*
X7609705Y-13175888D02*
X7600182Y-13194936D01*
X7600182Y-13194936D02*
X7590658Y-13204460D01*
X7590658Y-13204460D02*
X7571610Y-13213984D01*
X7571610Y-13213984D02*
X7552562Y-13213984D01*
X7552562Y-13213984D02*
X7533515Y-13204460D01*
X7533515Y-13204460D02*
X7523991Y-13194936D01*
X7523991Y-13194936D02*
X7514467Y-13175888D01*
X7514467Y-13175888D02*
X7504943Y-13137793D01*
X7504943Y-13137793D02*
X7504943Y-13090174D01*
X7504943Y-13090174D02*
X7514467Y-13052079D01*
X7514467Y-13052079D02*
X7523991Y-13033031D01*
X7523991Y-13033031D02*
X7533515Y-13023508D01*
X7533515Y-13023508D02*
X7552562Y-13013984D01*
X7743039Y-13013984D02*
X7762086Y-13013984D01*
X7762086Y-13013984D02*
X7781134Y-13023508D01*
X7781134Y-13023508D02*
X7790658Y-13033031D01*
X7790658Y-13033031D02*
X7800182Y-13052079D01*
X7800182Y-13052079D02*
X7809705Y-13090174D01*
X7809705Y-13090174D02*
X7809705Y-13137793D01*
X7809705Y-13137793D02*
X7800182Y-13175888D01*
X7800182Y-13175888D02*
X7790658Y-13194936D01*
X7790658Y-13194936D02*
X7781134Y-13204460D01*
X7781134Y-13204460D02*
X7762086Y-13213984D01*
X7762086Y-13213984D02*
X7743039Y-13213984D01*
X7743039Y-13213984D02*
X7723991Y-13204460D01*
X7723991Y-13204460D02*
X7714467Y-13194936D01*
X7714467Y-13194936D02*
X7704943Y-13175888D01*
X7704943Y-13175888D02*
X7695420Y-13137793D01*
X7695420Y-13137793D02*
X7695420Y-13090174D01*
X7695420Y-13090174D02*
X7704943Y-13052079D01*
X7704943Y-13052079D02*
X7714467Y-13033031D01*
X7714467Y-13033031D02*
X7723991Y-13023508D01*
X7723991Y-13023508D02*
X7743039Y-13013984D01*
X7895420Y-13213984D02*
X7895420Y-13080650D01*
X7895420Y-13099698D02*
X7904943Y-13090174D01*
X7904943Y-13090174D02*
X7923991Y-13080650D01*
X7923991Y-13080650D02*
X7952563Y-13080650D01*
X7952563Y-13080650D02*
X7971610Y-13090174D01*
X7971610Y-13090174D02*
X7981134Y-13109222D01*
X7981134Y-13109222D02*
X7981134Y-13213984D01*
X7981134Y-13109222D02*
X7990658Y-13090174D01*
X7990658Y-13090174D02*
X8009705Y-13080650D01*
X8009705Y-13080650D02*
X8038277Y-13080650D01*
X8038277Y-13080650D02*
X8057324Y-13090174D01*
X8057324Y-13090174D02*
X8066848Y-13109222D01*
X8066848Y-13109222D02*
X8066848Y-13213984D01*
X8162086Y-13213984D02*
X8162086Y-13080650D01*
X8162086Y-13099698D02*
X8171610Y-13090174D01*
X8171610Y-13090174D02*
X8190658Y-13080650D01*
X8190658Y-13080650D02*
X8219229Y-13080650D01*
X8219229Y-13080650D02*
X8238277Y-13090174D01*
X8238277Y-13090174D02*
X8247801Y-13109222D01*
X8247801Y-13109222D02*
X8247801Y-13213984D01*
X8247801Y-13109222D02*
X8257324Y-13090174D01*
X8257324Y-13090174D02*
X8276372Y-13080650D01*
X8276372Y-13080650D02*
X8304943Y-13080650D01*
X8304943Y-13080650D02*
X8323991Y-13090174D01*
X8323991Y-13090174D02*
X8333515Y-13109222D01*
X8333515Y-13109222D02*
X8333515Y-13213984D01*
X8723991Y-13004460D02*
X8552563Y-13261603D01*
X8981134Y-13013984D02*
X9000182Y-13013984D01*
X9000182Y-13013984D02*
X9019229Y-13023508D01*
X9019229Y-13023508D02*
X9028753Y-13033031D01*
X9028753Y-13033031D02*
X9038277Y-13052079D01*
X9038277Y-13052079D02*
X9047801Y-13090174D01*
X9047801Y-13090174D02*
X9047801Y-13137793D01*
X9047801Y-13137793D02*
X9038277Y-13175888D01*
X9038277Y-13175888D02*
X9028753Y-13194936D01*
X9028753Y-13194936D02*
X9019229Y-13204460D01*
X9019229Y-13204460D02*
X9000182Y-13213984D01*
X9000182Y-13213984D02*
X8981134Y-13213984D01*
X8981134Y-13213984D02*
X8962087Y-13204460D01*
X8962087Y-13204460D02*
X8952563Y-13194936D01*
X8952563Y-13194936D02*
X8943039Y-13175888D01*
X8943039Y-13175888D02*
X8933515Y-13137793D01*
X8933515Y-13137793D02*
X8933515Y-13090174D01*
X8933515Y-13090174D02*
X8943039Y-13052079D01*
X8943039Y-13052079D02*
X8952563Y-13033031D01*
X8952563Y-13033031D02*
X8962087Y-13023508D01*
X8962087Y-13023508D02*
X8981134Y-13013984D01*
X9133515Y-13194936D02*
X9143039Y-13204460D01*
X9143039Y-13204460D02*
X9133515Y-13213984D01*
X9133515Y-13213984D02*
X9123991Y-13204460D01*
X9123991Y-13204460D02*
X9133515Y-13194936D01*
X9133515Y-13194936D02*
X9133515Y-13213984D01*
X9266848Y-13013984D02*
X9285896Y-13013984D01*
X9285896Y-13013984D02*
X9304944Y-13023508D01*
X9304944Y-13023508D02*
X9314468Y-13033031D01*
X9314468Y-13033031D02*
X9323991Y-13052079D01*
X9323991Y-13052079D02*
X9333515Y-13090174D01*
X9333515Y-13090174D02*
X9333515Y-13137793D01*
X9333515Y-13137793D02*
X9323991Y-13175888D01*
X9323991Y-13175888D02*
X9314468Y-13194936D01*
X9314468Y-13194936D02*
X9304944Y-13204460D01*
X9304944Y-13204460D02*
X9285896Y-13213984D01*
X9285896Y-13213984D02*
X9266848Y-13213984D01*
X9266848Y-13213984D02*
X9247801Y-13204460D01*
X9247801Y-13204460D02*
X9238277Y-13194936D01*
X9238277Y-13194936D02*
X9228753Y-13175888D01*
X9228753Y-13175888D02*
X9219229Y-13137793D01*
X9219229Y-13137793D02*
X9219229Y-13090174D01*
X9219229Y-13090174D02*
X9228753Y-13052079D01*
X9228753Y-13052079D02*
X9238277Y-13033031D01*
X9238277Y-13033031D02*
X9247801Y-13023508D01*
X9247801Y-13023508D02*
X9266848Y-13013984D01*
X9523991Y-13213984D02*
X9409706Y-13213984D01*
X9466848Y-13213984D02*
X9466848Y-13013984D01*
X9466848Y-13013984D02*
X9447801Y-13042555D01*
X9447801Y-13042555D02*
X9428753Y-13061603D01*
X9428753Y-13061603D02*
X9409706Y-13071127D01*
X9714468Y-13213984D02*
X9600182Y-13213984D01*
X9657325Y-13213984D02*
X9657325Y-13013984D01*
X9657325Y-13013984D02*
X9638277Y-13042555D01*
X9638277Y-13042555D02*
X9619229Y-13061603D01*
X9619229Y-13061603D02*
X9600182Y-13071127D01*
X9828753Y-13099698D02*
X9809706Y-13090174D01*
X9809706Y-13090174D02*
X9800182Y-13080650D01*
X9800182Y-13080650D02*
X9790658Y-13061603D01*
X9790658Y-13061603D02*
X9790658Y-13052079D01*
X9790658Y-13052079D02*
X9800182Y-13033031D01*
X9800182Y-13033031D02*
X9809706Y-13023508D01*
X9809706Y-13023508D02*
X9828753Y-13013984D01*
X9828753Y-13013984D02*
X9866849Y-13013984D01*
X9866849Y-13013984D02*
X9885896Y-13023508D01*
X9885896Y-13023508D02*
X9895420Y-13033031D01*
X9895420Y-13033031D02*
X9904944Y-13052079D01*
X9904944Y-13052079D02*
X9904944Y-13061603D01*
X9904944Y-13061603D02*
X9895420Y-13080650D01*
X9895420Y-13080650D02*
X9885896Y-13090174D01*
X9885896Y-13090174D02*
X9866849Y-13099698D01*
X9866849Y-13099698D02*
X9828753Y-13099698D01*
X9828753Y-13099698D02*
X9809706Y-13109222D01*
X9809706Y-13109222D02*
X9800182Y-13118746D01*
X9800182Y-13118746D02*
X9790658Y-13137793D01*
X9790658Y-13137793D02*
X9790658Y-13175888D01*
X9790658Y-13175888D02*
X9800182Y-13194936D01*
X9800182Y-13194936D02*
X9809706Y-13204460D01*
X9809706Y-13204460D02*
X9828753Y-13213984D01*
X9828753Y-13213984D02*
X9866849Y-13213984D01*
X9866849Y-13213984D02*
X9885896Y-13204460D01*
X9885896Y-13204460D02*
X9895420Y-13194936D01*
X9895420Y-13194936D02*
X9904944Y-13175888D01*
X9904944Y-13175888D02*
X9904944Y-13137793D01*
X9904944Y-13137793D02*
X9895420Y-13118746D01*
X9895420Y-13118746D02*
X9885896Y-13109222D01*
X9885896Y-13109222D02*
X9866849Y-13099698D01*
X9981134Y-13013984D02*
X9981134Y-13052079D01*
X10057325Y-13013984D02*
X10057325Y-13052079D01*
X10352563Y-13290174D02*
X10343039Y-13280650D01*
X10343039Y-13280650D02*
X10323991Y-13252079D01*
X10323991Y-13252079D02*
X10314468Y-13233031D01*
X10314468Y-13233031D02*
X10304944Y-13204460D01*
X10304944Y-13204460D02*
X10295420Y-13156841D01*
X10295420Y-13156841D02*
X10295420Y-13118746D01*
X10295420Y-13118746D02*
X10304944Y-13071127D01*
X10304944Y-13071127D02*
X10314468Y-13042555D01*
X10314468Y-13042555D02*
X10323991Y-13023508D01*
X10323991Y-13023508D02*
X10343039Y-12994936D01*
X10343039Y-12994936D02*
X10352563Y-12985412D01*
X10409706Y-13013984D02*
X10533515Y-13013984D01*
X10533515Y-13013984D02*
X10466849Y-13090174D01*
X10466849Y-13090174D02*
X10495420Y-13090174D01*
X10495420Y-13090174D02*
X10514468Y-13099698D01*
X10514468Y-13099698D02*
X10523991Y-13109222D01*
X10523991Y-13109222D02*
X10533515Y-13128269D01*
X10533515Y-13128269D02*
X10533515Y-13175888D01*
X10533515Y-13175888D02*
X10523991Y-13194936D01*
X10523991Y-13194936D02*
X10514468Y-13204460D01*
X10514468Y-13204460D02*
X10495420Y-13213984D01*
X10495420Y-13213984D02*
X10438277Y-13213984D01*
X10438277Y-13213984D02*
X10419230Y-13204460D01*
X10419230Y-13204460D02*
X10409706Y-13194936D01*
X10704944Y-13080650D02*
X10704944Y-13213984D01*
X10657325Y-13004460D02*
X10609706Y-13147317D01*
X10609706Y-13147317D02*
X10733515Y-13147317D01*
X10800182Y-13033031D02*
X10809706Y-13023508D01*
X10809706Y-13023508D02*
X10828753Y-13013984D01*
X10828753Y-13013984D02*
X10876372Y-13013984D01*
X10876372Y-13013984D02*
X10895420Y-13023508D01*
X10895420Y-13023508D02*
X10904944Y-13033031D01*
X10904944Y-13033031D02*
X10914468Y-13052079D01*
X10914468Y-13052079D02*
X10914468Y-13071127D01*
X10914468Y-13071127D02*
X10904944Y-13099698D01*
X10904944Y-13099698D02*
X10790658Y-13213984D01*
X10790658Y-13213984D02*
X10914468Y-13213984D01*
X11152563Y-13213984D02*
X11152563Y-13013984D01*
X11238277Y-13213984D02*
X11238277Y-13109222D01*
X11238277Y-13109222D02*
X11228753Y-13090174D01*
X11228753Y-13090174D02*
X11209706Y-13080650D01*
X11209706Y-13080650D02*
X11181134Y-13080650D01*
X11181134Y-13080650D02*
X11162087Y-13090174D01*
X11162087Y-13090174D02*
X11152563Y-13099698D01*
X11362087Y-13213984D02*
X11343039Y-13204460D01*
X11343039Y-13204460D02*
X11333515Y-13194936D01*
X11333515Y-13194936D02*
X11323991Y-13175888D01*
X11323991Y-13175888D02*
X11323991Y-13118746D01*
X11323991Y-13118746D02*
X11333515Y-13099698D01*
X11333515Y-13099698D02*
X11343039Y-13090174D01*
X11343039Y-13090174D02*
X11362087Y-13080650D01*
X11362087Y-13080650D02*
X11390658Y-13080650D01*
X11390658Y-13080650D02*
X11409706Y-13090174D01*
X11409706Y-13090174D02*
X11419230Y-13099698D01*
X11419230Y-13099698D02*
X11428753Y-13118746D01*
X11428753Y-13118746D02*
X11428753Y-13175888D01*
X11428753Y-13175888D02*
X11419230Y-13194936D01*
X11419230Y-13194936D02*
X11409706Y-13204460D01*
X11409706Y-13204460D02*
X11390658Y-13213984D01*
X11390658Y-13213984D02*
X11362087Y-13213984D01*
X11543039Y-13213984D02*
X11523991Y-13204460D01*
X11523991Y-13204460D02*
X11514468Y-13185412D01*
X11514468Y-13185412D02*
X11514468Y-13013984D01*
X11695420Y-13204460D02*
X11676372Y-13213984D01*
X11676372Y-13213984D02*
X11638277Y-13213984D01*
X11638277Y-13213984D02*
X11619230Y-13204460D01*
X11619230Y-13204460D02*
X11609706Y-13185412D01*
X11609706Y-13185412D02*
X11609706Y-13109222D01*
X11609706Y-13109222D02*
X11619230Y-13090174D01*
X11619230Y-13090174D02*
X11638277Y-13080650D01*
X11638277Y-13080650D02*
X11676372Y-13080650D01*
X11676372Y-13080650D02*
X11695420Y-13090174D01*
X11695420Y-13090174D02*
X11704944Y-13109222D01*
X11704944Y-13109222D02*
X11704944Y-13128269D01*
X11704944Y-13128269D02*
X11609706Y-13147317D01*
X11781134Y-13204460D02*
X11800182Y-13213984D01*
X11800182Y-13213984D02*
X11838277Y-13213984D01*
X11838277Y-13213984D02*
X11857325Y-13204460D01*
X11857325Y-13204460D02*
X11866849Y-13185412D01*
X11866849Y-13185412D02*
X11866849Y-13175888D01*
X11866849Y-13175888D02*
X11857325Y-13156841D01*
X11857325Y-13156841D02*
X11838277Y-13147317D01*
X11838277Y-13147317D02*
X11809706Y-13147317D01*
X11809706Y-13147317D02*
X11790658Y-13137793D01*
X11790658Y-13137793D02*
X11781134Y-13118746D01*
X11781134Y-13118746D02*
X11781134Y-13109222D01*
X11781134Y-13109222D02*
X11790658Y-13090174D01*
X11790658Y-13090174D02*
X11809706Y-13080650D01*
X11809706Y-13080650D02*
X11838277Y-13080650D01*
X11838277Y-13080650D02*
X11857325Y-13090174D01*
X11933515Y-13290174D02*
X11943039Y-13280650D01*
X11943039Y-13280650D02*
X11962087Y-13252079D01*
X11962087Y-13252079D02*
X11971611Y-13233031D01*
X11971611Y-13233031D02*
X11981134Y-13204460D01*
X11981134Y-13204460D02*
X11990658Y-13156841D01*
X11990658Y-13156841D02*
X11990658Y-13118746D01*
X11990658Y-13118746D02*
X11981134Y-13071127D01*
X11981134Y-13071127D02*
X11971611Y-13042555D01*
X11971611Y-13042555D02*
X11962087Y-13023508D01*
X11962087Y-13023508D02*
X11943039Y-12994936D01*
X11943039Y-12994936D02*
X11933515Y-12985412D01*
D12*
X6777500Y-13386500D02*
G75*
G02*
X6702500Y-13386500I-37500J0D01*
G01*
X6702500Y-13386500D02*
G75*
G02*
X6777500Y-13386500I37500J0D01*
G01*
D11*
X7076372Y-13277984D02*
X7095420Y-13277984D01*
X7095420Y-13277984D02*
X7114467Y-13287508D01*
X7114467Y-13287508D02*
X7123991Y-13297031D01*
X7123991Y-13297031D02*
X7133515Y-13316079D01*
X7133515Y-13316079D02*
X7143039Y-13354174D01*
X7143039Y-13354174D02*
X7143039Y-13401793D01*
X7143039Y-13401793D02*
X7133515Y-13439888D01*
X7133515Y-13439888D02*
X7123991Y-13458936D01*
X7123991Y-13458936D02*
X7114467Y-13468460D01*
X7114467Y-13468460D02*
X7095420Y-13477984D01*
X7095420Y-13477984D02*
X7076372Y-13477984D01*
X7076372Y-13477984D02*
X7057324Y-13468460D01*
X7057324Y-13468460D02*
X7047801Y-13458936D01*
X7047801Y-13458936D02*
X7038277Y-13439888D01*
X7038277Y-13439888D02*
X7028753Y-13401793D01*
X7028753Y-13401793D02*
X7028753Y-13354174D01*
X7028753Y-13354174D02*
X7038277Y-13316079D01*
X7038277Y-13316079D02*
X7047801Y-13297031D01*
X7047801Y-13297031D02*
X7057324Y-13287508D01*
X7057324Y-13287508D02*
X7076372Y-13277984D01*
X7228753Y-13458936D02*
X7238277Y-13468460D01*
X7238277Y-13468460D02*
X7228753Y-13477984D01*
X7228753Y-13477984D02*
X7219229Y-13468460D01*
X7219229Y-13468460D02*
X7228753Y-13458936D01*
X7228753Y-13458936D02*
X7228753Y-13477984D01*
X7304943Y-13277984D02*
X7438277Y-13277984D01*
X7438277Y-13277984D02*
X7352562Y-13477984D01*
X7609705Y-13277984D02*
X7514467Y-13277984D01*
X7514467Y-13277984D02*
X7504943Y-13373222D01*
X7504943Y-13373222D02*
X7514467Y-13363698D01*
X7514467Y-13363698D02*
X7533515Y-13354174D01*
X7533515Y-13354174D02*
X7581134Y-13354174D01*
X7581134Y-13354174D02*
X7600182Y-13363698D01*
X7600182Y-13363698D02*
X7609705Y-13373222D01*
X7609705Y-13373222D02*
X7619229Y-13392269D01*
X7619229Y-13392269D02*
X7619229Y-13439888D01*
X7619229Y-13439888D02*
X7609705Y-13458936D01*
X7609705Y-13458936D02*
X7600182Y-13468460D01*
X7600182Y-13468460D02*
X7581134Y-13477984D01*
X7581134Y-13477984D02*
X7533515Y-13477984D01*
X7533515Y-13477984D02*
X7514467Y-13468460D01*
X7514467Y-13468460D02*
X7504943Y-13458936D01*
X7743039Y-13277984D02*
X7762086Y-13277984D01*
X7762086Y-13277984D02*
X7781134Y-13287508D01*
X7781134Y-13287508D02*
X7790658Y-13297031D01*
X7790658Y-13297031D02*
X7800182Y-13316079D01*
X7800182Y-13316079D02*
X7809705Y-13354174D01*
X7809705Y-13354174D02*
X7809705Y-13401793D01*
X7809705Y-13401793D02*
X7800182Y-13439888D01*
X7800182Y-13439888D02*
X7790658Y-13458936D01*
X7790658Y-13458936D02*
X7781134Y-13468460D01*
X7781134Y-13468460D02*
X7762086Y-13477984D01*
X7762086Y-13477984D02*
X7743039Y-13477984D01*
X7743039Y-13477984D02*
X7723991Y-13468460D01*
X7723991Y-13468460D02*
X7714467Y-13458936D01*
X7714467Y-13458936D02*
X7704943Y-13439888D01*
X7704943Y-13439888D02*
X7695420Y-13401793D01*
X7695420Y-13401793D02*
X7695420Y-13354174D01*
X7695420Y-13354174D02*
X7704943Y-13316079D01*
X7704943Y-13316079D02*
X7714467Y-13297031D01*
X7714467Y-13297031D02*
X7723991Y-13287508D01*
X7723991Y-13287508D02*
X7743039Y-13277984D01*
X7895420Y-13477984D02*
X7895420Y-13344650D01*
X7895420Y-13363698D02*
X7904943Y-13354174D01*
X7904943Y-13354174D02*
X7923991Y-13344650D01*
X7923991Y-13344650D02*
X7952563Y-13344650D01*
X7952563Y-13344650D02*
X7971610Y-13354174D01*
X7971610Y-13354174D02*
X7981134Y-13373222D01*
X7981134Y-13373222D02*
X7981134Y-13477984D01*
X7981134Y-13373222D02*
X7990658Y-13354174D01*
X7990658Y-13354174D02*
X8009705Y-13344650D01*
X8009705Y-13344650D02*
X8038277Y-13344650D01*
X8038277Y-13344650D02*
X8057324Y-13354174D01*
X8057324Y-13354174D02*
X8066848Y-13373222D01*
X8066848Y-13373222D02*
X8066848Y-13477984D01*
X8162086Y-13477984D02*
X8162086Y-13344650D01*
X8162086Y-13363698D02*
X8171610Y-13354174D01*
X8171610Y-13354174D02*
X8190658Y-13344650D01*
X8190658Y-13344650D02*
X8219229Y-13344650D01*
X8219229Y-13344650D02*
X8238277Y-13354174D01*
X8238277Y-13354174D02*
X8247801Y-13373222D01*
X8247801Y-13373222D02*
X8247801Y-13477984D01*
X8247801Y-13373222D02*
X8257324Y-13354174D01*
X8257324Y-13354174D02*
X8276372Y-13344650D01*
X8276372Y-13344650D02*
X8304943Y-13344650D01*
X8304943Y-13344650D02*
X8323991Y-13354174D01*
X8323991Y-13354174D02*
X8333515Y-13373222D01*
X8333515Y-13373222D02*
X8333515Y-13477984D01*
X8723991Y-13268460D02*
X8552563Y-13525603D01*
X8981134Y-13277984D02*
X9000182Y-13277984D01*
X9000182Y-13277984D02*
X9019229Y-13287508D01*
X9019229Y-13287508D02*
X9028753Y-13297031D01*
X9028753Y-13297031D02*
X9038277Y-13316079D01*
X9038277Y-13316079D02*
X9047801Y-13354174D01*
X9047801Y-13354174D02*
X9047801Y-13401793D01*
X9047801Y-13401793D02*
X9038277Y-13439888D01*
X9038277Y-13439888D02*
X9028753Y-13458936D01*
X9028753Y-13458936D02*
X9019229Y-13468460D01*
X9019229Y-13468460D02*
X9000182Y-13477984D01*
X9000182Y-13477984D02*
X8981134Y-13477984D01*
X8981134Y-13477984D02*
X8962087Y-13468460D01*
X8962087Y-13468460D02*
X8952563Y-13458936D01*
X8952563Y-13458936D02*
X8943039Y-13439888D01*
X8943039Y-13439888D02*
X8933515Y-13401793D01*
X8933515Y-13401793D02*
X8933515Y-13354174D01*
X8933515Y-13354174D02*
X8943039Y-13316079D01*
X8943039Y-13316079D02*
X8952563Y-13297031D01*
X8952563Y-13297031D02*
X8962087Y-13287508D01*
X8962087Y-13287508D02*
X8981134Y-13277984D01*
X9133515Y-13458936D02*
X9143039Y-13468460D01*
X9143039Y-13468460D02*
X9133515Y-13477984D01*
X9133515Y-13477984D02*
X9123991Y-13468460D01*
X9123991Y-13468460D02*
X9133515Y-13458936D01*
X9133515Y-13458936D02*
X9133515Y-13477984D01*
X9266848Y-13277984D02*
X9285896Y-13277984D01*
X9285896Y-13277984D02*
X9304944Y-13287508D01*
X9304944Y-13287508D02*
X9314468Y-13297031D01*
X9314468Y-13297031D02*
X9323991Y-13316079D01*
X9323991Y-13316079D02*
X9333515Y-13354174D01*
X9333515Y-13354174D02*
X9333515Y-13401793D01*
X9333515Y-13401793D02*
X9323991Y-13439888D01*
X9323991Y-13439888D02*
X9314468Y-13458936D01*
X9314468Y-13458936D02*
X9304944Y-13468460D01*
X9304944Y-13468460D02*
X9285896Y-13477984D01*
X9285896Y-13477984D02*
X9266848Y-13477984D01*
X9266848Y-13477984D02*
X9247801Y-13468460D01*
X9247801Y-13468460D02*
X9238277Y-13458936D01*
X9238277Y-13458936D02*
X9228753Y-13439888D01*
X9228753Y-13439888D02*
X9219229Y-13401793D01*
X9219229Y-13401793D02*
X9219229Y-13354174D01*
X9219229Y-13354174D02*
X9228753Y-13316079D01*
X9228753Y-13316079D02*
X9238277Y-13297031D01*
X9238277Y-13297031D02*
X9247801Y-13287508D01*
X9247801Y-13287508D02*
X9266848Y-13277984D01*
X9409706Y-13297031D02*
X9419229Y-13287508D01*
X9419229Y-13287508D02*
X9438277Y-13277984D01*
X9438277Y-13277984D02*
X9485896Y-13277984D01*
X9485896Y-13277984D02*
X9504944Y-13287508D01*
X9504944Y-13287508D02*
X9514468Y-13297031D01*
X9514468Y-13297031D02*
X9523991Y-13316079D01*
X9523991Y-13316079D02*
X9523991Y-13335127D01*
X9523991Y-13335127D02*
X9514468Y-13363698D01*
X9514468Y-13363698D02*
X9400182Y-13477984D01*
X9400182Y-13477984D02*
X9523991Y-13477984D01*
X9619229Y-13477984D02*
X9657325Y-13477984D01*
X9657325Y-13477984D02*
X9676372Y-13468460D01*
X9676372Y-13468460D02*
X9685896Y-13458936D01*
X9685896Y-13458936D02*
X9704944Y-13430365D01*
X9704944Y-13430365D02*
X9714468Y-13392269D01*
X9714468Y-13392269D02*
X9714468Y-13316079D01*
X9714468Y-13316079D02*
X9704944Y-13297031D01*
X9704944Y-13297031D02*
X9695420Y-13287508D01*
X9695420Y-13287508D02*
X9676372Y-13277984D01*
X9676372Y-13277984D02*
X9638277Y-13277984D01*
X9638277Y-13277984D02*
X9619229Y-13287508D01*
X9619229Y-13287508D02*
X9609706Y-13297031D01*
X9609706Y-13297031D02*
X9600182Y-13316079D01*
X9600182Y-13316079D02*
X9600182Y-13363698D01*
X9600182Y-13363698D02*
X9609706Y-13382746D01*
X9609706Y-13382746D02*
X9619229Y-13392269D01*
X9619229Y-13392269D02*
X9638277Y-13401793D01*
X9638277Y-13401793D02*
X9676372Y-13401793D01*
X9676372Y-13401793D02*
X9695420Y-13392269D01*
X9695420Y-13392269D02*
X9704944Y-13382746D01*
X9704944Y-13382746D02*
X9714468Y-13363698D01*
X9895420Y-13277984D02*
X9800182Y-13277984D01*
X9800182Y-13277984D02*
X9790658Y-13373222D01*
X9790658Y-13373222D02*
X9800182Y-13363698D01*
X9800182Y-13363698D02*
X9819229Y-13354174D01*
X9819229Y-13354174D02*
X9866849Y-13354174D01*
X9866849Y-13354174D02*
X9885896Y-13363698D01*
X9885896Y-13363698D02*
X9895420Y-13373222D01*
X9895420Y-13373222D02*
X9904944Y-13392269D01*
X9904944Y-13392269D02*
X9904944Y-13439888D01*
X9904944Y-13439888D02*
X9895420Y-13458936D01*
X9895420Y-13458936D02*
X9885896Y-13468460D01*
X9885896Y-13468460D02*
X9866849Y-13477984D01*
X9866849Y-13477984D02*
X9819229Y-13477984D01*
X9819229Y-13477984D02*
X9800182Y-13468460D01*
X9800182Y-13468460D02*
X9790658Y-13458936D01*
X9981134Y-13277984D02*
X9981134Y-13316079D01*
X10057325Y-13277984D02*
X10057325Y-13316079D01*
X10352563Y-13554174D02*
X10343039Y-13544650D01*
X10343039Y-13544650D02*
X10323991Y-13516079D01*
X10323991Y-13516079D02*
X10314468Y-13497031D01*
X10314468Y-13497031D02*
X10304944Y-13468460D01*
X10304944Y-13468460D02*
X10295420Y-13420841D01*
X10295420Y-13420841D02*
X10295420Y-13382746D01*
X10295420Y-13382746D02*
X10304944Y-13335127D01*
X10304944Y-13335127D02*
X10314468Y-13306555D01*
X10314468Y-13306555D02*
X10323991Y-13287508D01*
X10323991Y-13287508D02*
X10343039Y-13258936D01*
X10343039Y-13258936D02*
X10352563Y-13249412D01*
X10514468Y-13277984D02*
X10476372Y-13277984D01*
X10476372Y-13277984D02*
X10457325Y-13287508D01*
X10457325Y-13287508D02*
X10447801Y-13297031D01*
X10447801Y-13297031D02*
X10428753Y-13325603D01*
X10428753Y-13325603D02*
X10419230Y-13363698D01*
X10419230Y-13363698D02*
X10419230Y-13439888D01*
X10419230Y-13439888D02*
X10428753Y-13458936D01*
X10428753Y-13458936D02*
X10438277Y-13468460D01*
X10438277Y-13468460D02*
X10457325Y-13477984D01*
X10457325Y-13477984D02*
X10495420Y-13477984D01*
X10495420Y-13477984D02*
X10514468Y-13468460D01*
X10514468Y-13468460D02*
X10523991Y-13458936D01*
X10523991Y-13458936D02*
X10533515Y-13439888D01*
X10533515Y-13439888D02*
X10533515Y-13392269D01*
X10533515Y-13392269D02*
X10523991Y-13373222D01*
X10523991Y-13373222D02*
X10514468Y-13363698D01*
X10514468Y-13363698D02*
X10495420Y-13354174D01*
X10495420Y-13354174D02*
X10457325Y-13354174D01*
X10457325Y-13354174D02*
X10438277Y-13363698D01*
X10438277Y-13363698D02*
X10428753Y-13373222D01*
X10428753Y-13373222D02*
X10419230Y-13392269D01*
X10771611Y-13477984D02*
X10771611Y-13277984D01*
X10857325Y-13477984D02*
X10857325Y-13373222D01*
X10857325Y-13373222D02*
X10847801Y-13354174D01*
X10847801Y-13354174D02*
X10828753Y-13344650D01*
X10828753Y-13344650D02*
X10800182Y-13344650D01*
X10800182Y-13344650D02*
X10781134Y-13354174D01*
X10781134Y-13354174D02*
X10771611Y-13363698D01*
X10981134Y-13477984D02*
X10962087Y-13468460D01*
X10962087Y-13468460D02*
X10952563Y-13458936D01*
X10952563Y-13458936D02*
X10943039Y-13439888D01*
X10943039Y-13439888D02*
X10943039Y-13382746D01*
X10943039Y-13382746D02*
X10952563Y-13363698D01*
X10952563Y-13363698D02*
X10962087Y-13354174D01*
X10962087Y-13354174D02*
X10981134Y-13344650D01*
X10981134Y-13344650D02*
X11009706Y-13344650D01*
X11009706Y-13344650D02*
X11028753Y-13354174D01*
X11028753Y-13354174D02*
X11038277Y-13363698D01*
X11038277Y-13363698D02*
X11047801Y-13382746D01*
X11047801Y-13382746D02*
X11047801Y-13439888D01*
X11047801Y-13439888D02*
X11038277Y-13458936D01*
X11038277Y-13458936D02*
X11028753Y-13468460D01*
X11028753Y-13468460D02*
X11009706Y-13477984D01*
X11009706Y-13477984D02*
X10981134Y-13477984D01*
X11162087Y-13477984D02*
X11143039Y-13468460D01*
X11143039Y-13468460D02*
X11133515Y-13449412D01*
X11133515Y-13449412D02*
X11133515Y-13277984D01*
X11314468Y-13468460D02*
X11295420Y-13477984D01*
X11295420Y-13477984D02*
X11257325Y-13477984D01*
X11257325Y-13477984D02*
X11238277Y-13468460D01*
X11238277Y-13468460D02*
X11228753Y-13449412D01*
X11228753Y-13449412D02*
X11228753Y-13373222D01*
X11228753Y-13373222D02*
X11238277Y-13354174D01*
X11238277Y-13354174D02*
X11257325Y-13344650D01*
X11257325Y-13344650D02*
X11295420Y-13344650D01*
X11295420Y-13344650D02*
X11314468Y-13354174D01*
X11314468Y-13354174D02*
X11323991Y-13373222D01*
X11323991Y-13373222D02*
X11323991Y-13392269D01*
X11323991Y-13392269D02*
X11228753Y-13411317D01*
X11400182Y-13468460D02*
X11419230Y-13477984D01*
X11419230Y-13477984D02*
X11457325Y-13477984D01*
X11457325Y-13477984D02*
X11476372Y-13468460D01*
X11476372Y-13468460D02*
X11485896Y-13449412D01*
X11485896Y-13449412D02*
X11485896Y-13439888D01*
X11485896Y-13439888D02*
X11476372Y-13420841D01*
X11476372Y-13420841D02*
X11457325Y-13411317D01*
X11457325Y-13411317D02*
X11428753Y-13411317D01*
X11428753Y-13411317D02*
X11409706Y-13401793D01*
X11409706Y-13401793D02*
X11400182Y-13382746D01*
X11400182Y-13382746D02*
X11400182Y-13373222D01*
X11400182Y-13373222D02*
X11409706Y-13354174D01*
X11409706Y-13354174D02*
X11428753Y-13344650D01*
X11428753Y-13344650D02*
X11457325Y-13344650D01*
X11457325Y-13344650D02*
X11476372Y-13354174D01*
X11552563Y-13554174D02*
X11562087Y-13544650D01*
X11562087Y-13544650D02*
X11581134Y-13516079D01*
X11581134Y-13516079D02*
X11590658Y-13497031D01*
X11590658Y-13497031D02*
X11600182Y-13468460D01*
X11600182Y-13468460D02*
X11609706Y-13420841D01*
X11609706Y-13420841D02*
X11609706Y-13382746D01*
X11609706Y-13382746D02*
X11600182Y-13335127D01*
X11600182Y-13335127D02*
X11590658Y-13306555D01*
X11590658Y-13306555D02*
X11581134Y-13287508D01*
X11581134Y-13287508D02*
X11562087Y-13258936D01*
X11562087Y-13258936D02*
X11552563Y-13249412D01*
D12*
X6727500Y-13600500D02*
X6727500Y-13700500D01*
X6677500Y-13650500D02*
X6777500Y-13650500D01*
D11*
X7143039Y-13741984D02*
X7028753Y-13741984D01*
X7085896Y-13741984D02*
X7085896Y-13541984D01*
X7085896Y-13541984D02*
X7066848Y-13570555D01*
X7066848Y-13570555D02*
X7047801Y-13589603D01*
X7047801Y-13589603D02*
X7028753Y-13599127D01*
X7228753Y-13722936D02*
X7238277Y-13732460D01*
X7238277Y-13732460D02*
X7228753Y-13741984D01*
X7228753Y-13741984D02*
X7219229Y-13732460D01*
X7219229Y-13732460D02*
X7228753Y-13722936D01*
X7228753Y-13722936D02*
X7228753Y-13741984D01*
X7362086Y-13541984D02*
X7381134Y-13541984D01*
X7381134Y-13541984D02*
X7400182Y-13551508D01*
X7400182Y-13551508D02*
X7409705Y-13561031D01*
X7409705Y-13561031D02*
X7419229Y-13580079D01*
X7419229Y-13580079D02*
X7428753Y-13618174D01*
X7428753Y-13618174D02*
X7428753Y-13665793D01*
X7428753Y-13665793D02*
X7419229Y-13703888D01*
X7419229Y-13703888D02*
X7409705Y-13722936D01*
X7409705Y-13722936D02*
X7400182Y-13732460D01*
X7400182Y-13732460D02*
X7381134Y-13741984D01*
X7381134Y-13741984D02*
X7362086Y-13741984D01*
X7362086Y-13741984D02*
X7343039Y-13732460D01*
X7343039Y-13732460D02*
X7333515Y-13722936D01*
X7333515Y-13722936D02*
X7323991Y-13703888D01*
X7323991Y-13703888D02*
X7314467Y-13665793D01*
X7314467Y-13665793D02*
X7314467Y-13618174D01*
X7314467Y-13618174D02*
X7323991Y-13580079D01*
X7323991Y-13580079D02*
X7333515Y-13561031D01*
X7333515Y-13561031D02*
X7343039Y-13551508D01*
X7343039Y-13551508D02*
X7362086Y-13541984D01*
X7552562Y-13541984D02*
X7571610Y-13541984D01*
X7571610Y-13541984D02*
X7590658Y-13551508D01*
X7590658Y-13551508D02*
X7600182Y-13561031D01*
X7600182Y-13561031D02*
X7609705Y-13580079D01*
X7609705Y-13580079D02*
X7619229Y-13618174D01*
X7619229Y-13618174D02*
X7619229Y-13665793D01*
X7619229Y-13665793D02*
X7609705Y-13703888D01*
X7609705Y-13703888D02*
X7600182Y-13722936D01*
X7600182Y-13722936D02*
X7590658Y-13732460D01*
X7590658Y-13732460D02*
X7571610Y-13741984D01*
X7571610Y-13741984D02*
X7552562Y-13741984D01*
X7552562Y-13741984D02*
X7533515Y-13732460D01*
X7533515Y-13732460D02*
X7523991Y-13722936D01*
X7523991Y-13722936D02*
X7514467Y-13703888D01*
X7514467Y-13703888D02*
X7504943Y-13665793D01*
X7504943Y-13665793D02*
X7504943Y-13618174D01*
X7504943Y-13618174D02*
X7514467Y-13580079D01*
X7514467Y-13580079D02*
X7523991Y-13561031D01*
X7523991Y-13561031D02*
X7533515Y-13551508D01*
X7533515Y-13551508D02*
X7552562Y-13541984D01*
X7743039Y-13541984D02*
X7762086Y-13541984D01*
X7762086Y-13541984D02*
X7781134Y-13551508D01*
X7781134Y-13551508D02*
X7790658Y-13561031D01*
X7790658Y-13561031D02*
X7800182Y-13580079D01*
X7800182Y-13580079D02*
X7809705Y-13618174D01*
X7809705Y-13618174D02*
X7809705Y-13665793D01*
X7809705Y-13665793D02*
X7800182Y-13703888D01*
X7800182Y-13703888D02*
X7790658Y-13722936D01*
X7790658Y-13722936D02*
X7781134Y-13732460D01*
X7781134Y-13732460D02*
X7762086Y-13741984D01*
X7762086Y-13741984D02*
X7743039Y-13741984D01*
X7743039Y-13741984D02*
X7723991Y-13732460D01*
X7723991Y-13732460D02*
X7714467Y-13722936D01*
X7714467Y-13722936D02*
X7704943Y-13703888D01*
X7704943Y-13703888D02*
X7695420Y-13665793D01*
X7695420Y-13665793D02*
X7695420Y-13618174D01*
X7695420Y-13618174D02*
X7704943Y-13580079D01*
X7704943Y-13580079D02*
X7714467Y-13561031D01*
X7714467Y-13561031D02*
X7723991Y-13551508D01*
X7723991Y-13551508D02*
X7743039Y-13541984D01*
X7895420Y-13741984D02*
X7895420Y-13608650D01*
X7895420Y-13627698D02*
X7904943Y-13618174D01*
X7904943Y-13618174D02*
X7923991Y-13608650D01*
X7923991Y-13608650D02*
X7952563Y-13608650D01*
X7952563Y-13608650D02*
X7971610Y-13618174D01*
X7971610Y-13618174D02*
X7981134Y-13637222D01*
X7981134Y-13637222D02*
X7981134Y-13741984D01*
X7981134Y-13637222D02*
X7990658Y-13618174D01*
X7990658Y-13618174D02*
X8009705Y-13608650D01*
X8009705Y-13608650D02*
X8038277Y-13608650D01*
X8038277Y-13608650D02*
X8057324Y-13618174D01*
X8057324Y-13618174D02*
X8066848Y-13637222D01*
X8066848Y-13637222D02*
X8066848Y-13741984D01*
X8162086Y-13741984D02*
X8162086Y-13608650D01*
X8162086Y-13627698D02*
X8171610Y-13618174D01*
X8171610Y-13618174D02*
X8190658Y-13608650D01*
X8190658Y-13608650D02*
X8219229Y-13608650D01*
X8219229Y-13608650D02*
X8238277Y-13618174D01*
X8238277Y-13618174D02*
X8247801Y-13637222D01*
X8247801Y-13637222D02*
X8247801Y-13741984D01*
X8247801Y-13637222D02*
X8257324Y-13618174D01*
X8257324Y-13618174D02*
X8276372Y-13608650D01*
X8276372Y-13608650D02*
X8304943Y-13608650D01*
X8304943Y-13608650D02*
X8323991Y-13618174D01*
X8323991Y-13618174D02*
X8333515Y-13637222D01*
X8333515Y-13637222D02*
X8333515Y-13741984D01*
X8723991Y-13532460D02*
X8552563Y-13789603D01*
X8981134Y-13541984D02*
X9000182Y-13541984D01*
X9000182Y-13541984D02*
X9019229Y-13551508D01*
X9019229Y-13551508D02*
X9028753Y-13561031D01*
X9028753Y-13561031D02*
X9038277Y-13580079D01*
X9038277Y-13580079D02*
X9047801Y-13618174D01*
X9047801Y-13618174D02*
X9047801Y-13665793D01*
X9047801Y-13665793D02*
X9038277Y-13703888D01*
X9038277Y-13703888D02*
X9028753Y-13722936D01*
X9028753Y-13722936D02*
X9019229Y-13732460D01*
X9019229Y-13732460D02*
X9000182Y-13741984D01*
X9000182Y-13741984D02*
X8981134Y-13741984D01*
X8981134Y-13741984D02*
X8962087Y-13732460D01*
X8962087Y-13732460D02*
X8952563Y-13722936D01*
X8952563Y-13722936D02*
X8943039Y-13703888D01*
X8943039Y-13703888D02*
X8933515Y-13665793D01*
X8933515Y-13665793D02*
X8933515Y-13618174D01*
X8933515Y-13618174D02*
X8943039Y-13580079D01*
X8943039Y-13580079D02*
X8952563Y-13561031D01*
X8952563Y-13561031D02*
X8962087Y-13551508D01*
X8962087Y-13551508D02*
X8981134Y-13541984D01*
X9133515Y-13722936D02*
X9143039Y-13732460D01*
X9143039Y-13732460D02*
X9133515Y-13741984D01*
X9133515Y-13741984D02*
X9123991Y-13732460D01*
X9123991Y-13732460D02*
X9133515Y-13722936D01*
X9133515Y-13722936D02*
X9133515Y-13741984D01*
X9266848Y-13541984D02*
X9285896Y-13541984D01*
X9285896Y-13541984D02*
X9304944Y-13551508D01*
X9304944Y-13551508D02*
X9314468Y-13561031D01*
X9314468Y-13561031D02*
X9323991Y-13580079D01*
X9323991Y-13580079D02*
X9333515Y-13618174D01*
X9333515Y-13618174D02*
X9333515Y-13665793D01*
X9333515Y-13665793D02*
X9323991Y-13703888D01*
X9323991Y-13703888D02*
X9314468Y-13722936D01*
X9314468Y-13722936D02*
X9304944Y-13732460D01*
X9304944Y-13732460D02*
X9285896Y-13741984D01*
X9285896Y-13741984D02*
X9266848Y-13741984D01*
X9266848Y-13741984D02*
X9247801Y-13732460D01*
X9247801Y-13732460D02*
X9238277Y-13722936D01*
X9238277Y-13722936D02*
X9228753Y-13703888D01*
X9228753Y-13703888D02*
X9219229Y-13665793D01*
X9219229Y-13665793D02*
X9219229Y-13618174D01*
X9219229Y-13618174D02*
X9228753Y-13580079D01*
X9228753Y-13580079D02*
X9238277Y-13561031D01*
X9238277Y-13561031D02*
X9247801Y-13551508D01*
X9247801Y-13551508D02*
X9266848Y-13541984D01*
X9400182Y-13541984D02*
X9523991Y-13541984D01*
X9523991Y-13541984D02*
X9457325Y-13618174D01*
X9457325Y-13618174D02*
X9485896Y-13618174D01*
X9485896Y-13618174D02*
X9504944Y-13627698D01*
X9504944Y-13627698D02*
X9514468Y-13637222D01*
X9514468Y-13637222D02*
X9523991Y-13656269D01*
X9523991Y-13656269D02*
X9523991Y-13703888D01*
X9523991Y-13703888D02*
X9514468Y-13722936D01*
X9514468Y-13722936D02*
X9504944Y-13732460D01*
X9504944Y-13732460D02*
X9485896Y-13741984D01*
X9485896Y-13741984D02*
X9428753Y-13741984D01*
X9428753Y-13741984D02*
X9409706Y-13732460D01*
X9409706Y-13732460D02*
X9400182Y-13722936D01*
X9619229Y-13741984D02*
X9657325Y-13741984D01*
X9657325Y-13741984D02*
X9676372Y-13732460D01*
X9676372Y-13732460D02*
X9685896Y-13722936D01*
X9685896Y-13722936D02*
X9704944Y-13694365D01*
X9704944Y-13694365D02*
X9714468Y-13656269D01*
X9714468Y-13656269D02*
X9714468Y-13580079D01*
X9714468Y-13580079D02*
X9704944Y-13561031D01*
X9704944Y-13561031D02*
X9695420Y-13551508D01*
X9695420Y-13551508D02*
X9676372Y-13541984D01*
X9676372Y-13541984D02*
X9638277Y-13541984D01*
X9638277Y-13541984D02*
X9619229Y-13551508D01*
X9619229Y-13551508D02*
X9609706Y-13561031D01*
X9609706Y-13561031D02*
X9600182Y-13580079D01*
X9600182Y-13580079D02*
X9600182Y-13627698D01*
X9600182Y-13627698D02*
X9609706Y-13646746D01*
X9609706Y-13646746D02*
X9619229Y-13656269D01*
X9619229Y-13656269D02*
X9638277Y-13665793D01*
X9638277Y-13665793D02*
X9676372Y-13665793D01*
X9676372Y-13665793D02*
X9695420Y-13656269D01*
X9695420Y-13656269D02*
X9704944Y-13646746D01*
X9704944Y-13646746D02*
X9714468Y-13627698D01*
X9885896Y-13608650D02*
X9885896Y-13741984D01*
X9838277Y-13532460D02*
X9790658Y-13675317D01*
X9790658Y-13675317D02*
X9914468Y-13675317D01*
X9981134Y-13541984D02*
X9981134Y-13580079D01*
X10057325Y-13541984D02*
X10057325Y-13580079D01*
X10352563Y-13818174D02*
X10343039Y-13808650D01*
X10343039Y-13808650D02*
X10323991Y-13780079D01*
X10323991Y-13780079D02*
X10314468Y-13761031D01*
X10314468Y-13761031D02*
X10304944Y-13732460D01*
X10304944Y-13732460D02*
X10295420Y-13684841D01*
X10295420Y-13684841D02*
X10295420Y-13646746D01*
X10295420Y-13646746D02*
X10304944Y-13599127D01*
X10304944Y-13599127D02*
X10314468Y-13570555D01*
X10314468Y-13570555D02*
X10323991Y-13551508D01*
X10323991Y-13551508D02*
X10343039Y-13522936D01*
X10343039Y-13522936D02*
X10352563Y-13513412D01*
X10514468Y-13541984D02*
X10476372Y-13541984D01*
X10476372Y-13541984D02*
X10457325Y-13551508D01*
X10457325Y-13551508D02*
X10447801Y-13561031D01*
X10447801Y-13561031D02*
X10428753Y-13589603D01*
X10428753Y-13589603D02*
X10419230Y-13627698D01*
X10419230Y-13627698D02*
X10419230Y-13703888D01*
X10419230Y-13703888D02*
X10428753Y-13722936D01*
X10428753Y-13722936D02*
X10438277Y-13732460D01*
X10438277Y-13732460D02*
X10457325Y-13741984D01*
X10457325Y-13741984D02*
X10495420Y-13741984D01*
X10495420Y-13741984D02*
X10514468Y-13732460D01*
X10514468Y-13732460D02*
X10523991Y-13722936D01*
X10523991Y-13722936D02*
X10533515Y-13703888D01*
X10533515Y-13703888D02*
X10533515Y-13656269D01*
X10533515Y-13656269D02*
X10523991Y-13637222D01*
X10523991Y-13637222D02*
X10514468Y-13627698D01*
X10514468Y-13627698D02*
X10495420Y-13618174D01*
X10495420Y-13618174D02*
X10457325Y-13618174D01*
X10457325Y-13618174D02*
X10438277Y-13627698D01*
X10438277Y-13627698D02*
X10428753Y-13637222D01*
X10428753Y-13637222D02*
X10419230Y-13656269D01*
X10657325Y-13541984D02*
X10676372Y-13541984D01*
X10676372Y-13541984D02*
X10695420Y-13551508D01*
X10695420Y-13551508D02*
X10704944Y-13561031D01*
X10704944Y-13561031D02*
X10714468Y-13580079D01*
X10714468Y-13580079D02*
X10723991Y-13618174D01*
X10723991Y-13618174D02*
X10723991Y-13665793D01*
X10723991Y-13665793D02*
X10714468Y-13703888D01*
X10714468Y-13703888D02*
X10704944Y-13722936D01*
X10704944Y-13722936D02*
X10695420Y-13732460D01*
X10695420Y-13732460D02*
X10676372Y-13741984D01*
X10676372Y-13741984D02*
X10657325Y-13741984D01*
X10657325Y-13741984D02*
X10638277Y-13732460D01*
X10638277Y-13732460D02*
X10628753Y-13722936D01*
X10628753Y-13722936D02*
X10619230Y-13703888D01*
X10619230Y-13703888D02*
X10609706Y-13665793D01*
X10609706Y-13665793D02*
X10609706Y-13618174D01*
X10609706Y-13618174D02*
X10619230Y-13580079D01*
X10619230Y-13580079D02*
X10628753Y-13561031D01*
X10628753Y-13561031D02*
X10638277Y-13551508D01*
X10638277Y-13551508D02*
X10657325Y-13541984D01*
X10962087Y-13741984D02*
X10962087Y-13541984D01*
X11047801Y-13741984D02*
X11047801Y-13637222D01*
X11047801Y-13637222D02*
X11038277Y-13618174D01*
X11038277Y-13618174D02*
X11019230Y-13608650D01*
X11019230Y-13608650D02*
X10990658Y-13608650D01*
X10990658Y-13608650D02*
X10971611Y-13618174D01*
X10971611Y-13618174D02*
X10962087Y-13627698D01*
X11171611Y-13741984D02*
X11152563Y-13732460D01*
X11152563Y-13732460D02*
X11143039Y-13722936D01*
X11143039Y-13722936D02*
X11133515Y-13703888D01*
X11133515Y-13703888D02*
X11133515Y-13646746D01*
X11133515Y-13646746D02*
X11143039Y-13627698D01*
X11143039Y-13627698D02*
X11152563Y-13618174D01*
X11152563Y-13618174D02*
X11171611Y-13608650D01*
X11171611Y-13608650D02*
X11200182Y-13608650D01*
X11200182Y-13608650D02*
X11219230Y-13618174D01*
X11219230Y-13618174D02*
X11228753Y-13627698D01*
X11228753Y-13627698D02*
X11238277Y-13646746D01*
X11238277Y-13646746D02*
X11238277Y-13703888D01*
X11238277Y-13703888D02*
X11228753Y-13722936D01*
X11228753Y-13722936D02*
X11219230Y-13732460D01*
X11219230Y-13732460D02*
X11200182Y-13741984D01*
X11200182Y-13741984D02*
X11171611Y-13741984D01*
X11352563Y-13741984D02*
X11333515Y-13732460D01*
X11333515Y-13732460D02*
X11323991Y-13713412D01*
X11323991Y-13713412D02*
X11323991Y-13541984D01*
X11504944Y-13732460D02*
X11485896Y-13741984D01*
X11485896Y-13741984D02*
X11447801Y-13741984D01*
X11447801Y-13741984D02*
X11428753Y-13732460D01*
X11428753Y-13732460D02*
X11419230Y-13713412D01*
X11419230Y-13713412D02*
X11419230Y-13637222D01*
X11419230Y-13637222D02*
X11428753Y-13618174D01*
X11428753Y-13618174D02*
X11447801Y-13608650D01*
X11447801Y-13608650D02*
X11485896Y-13608650D01*
X11485896Y-13608650D02*
X11504944Y-13618174D01*
X11504944Y-13618174D02*
X11514468Y-13637222D01*
X11514468Y-13637222D02*
X11514468Y-13656269D01*
X11514468Y-13656269D02*
X11419230Y-13675317D01*
X11590658Y-13732460D02*
X11609706Y-13741984D01*
X11609706Y-13741984D02*
X11647801Y-13741984D01*
X11647801Y-13741984D02*
X11666849Y-13732460D01*
X11666849Y-13732460D02*
X11676372Y-13713412D01*
X11676372Y-13713412D02*
X11676372Y-13703888D01*
X11676372Y-13703888D02*
X11666849Y-13684841D01*
X11666849Y-13684841D02*
X11647801Y-13675317D01*
X11647801Y-13675317D02*
X11619230Y-13675317D01*
X11619230Y-13675317D02*
X11600182Y-13665793D01*
X11600182Y-13665793D02*
X11590658Y-13646746D01*
X11590658Y-13646746D02*
X11590658Y-13637222D01*
X11590658Y-13637222D02*
X11600182Y-13618174D01*
X11600182Y-13618174D02*
X11619230Y-13608650D01*
X11619230Y-13608650D02*
X11647801Y-13608650D01*
X11647801Y-13608650D02*
X11666849Y-13618174D01*
X11743039Y-13818174D02*
X11752563Y-13808650D01*
X11752563Y-13808650D02*
X11771611Y-13780079D01*
X11771611Y-13780079D02*
X11781134Y-13761031D01*
X11781134Y-13761031D02*
X11790658Y-13732460D01*
X11790658Y-13732460D02*
X11800182Y-13684841D01*
X11800182Y-13684841D02*
X11800182Y-13646746D01*
X11800182Y-13646746D02*
X11790658Y-13599127D01*
X11790658Y-13599127D02*
X11781134Y-13570555D01*
X11781134Y-13570555D02*
X11771611Y-13551508D01*
X11771611Y-13551508D02*
X11752563Y-13522936D01*
X11752563Y-13522936D02*
X11743039Y-13513412D01*
X6748211Y-13985211D02*
X6748211Y-13843789D01*
X6606789Y-13843789D01*
X6606789Y-13985211D01*
X6748211Y-13985211D01*
X7019229Y-13805984D02*
X7143039Y-13805984D01*
X7143039Y-13805984D02*
X7076372Y-13882174D01*
X7076372Y-13882174D02*
X7104943Y-13882174D01*
X7104943Y-13882174D02*
X7123991Y-13891698D01*
X7123991Y-13891698D02*
X7133515Y-13901222D01*
X7133515Y-13901222D02*
X7143039Y-13920269D01*
X7143039Y-13920269D02*
X7143039Y-13967888D01*
X7143039Y-13967888D02*
X7133515Y-13986936D01*
X7133515Y-13986936D02*
X7123991Y-13996460D01*
X7123991Y-13996460D02*
X7104943Y-14005984D01*
X7104943Y-14005984D02*
X7047801Y-14005984D01*
X7047801Y-14005984D02*
X7028753Y-13996460D01*
X7028753Y-13996460D02*
X7019229Y-13986936D01*
X7228753Y-13986936D02*
X7238277Y-13996460D01*
X7238277Y-13996460D02*
X7228753Y-14005984D01*
X7228753Y-14005984D02*
X7219229Y-13996460D01*
X7219229Y-13996460D02*
X7228753Y-13986936D01*
X7228753Y-13986936D02*
X7228753Y-14005984D01*
X7314467Y-13825031D02*
X7323991Y-13815508D01*
X7323991Y-13815508D02*
X7343039Y-13805984D01*
X7343039Y-13805984D02*
X7390658Y-13805984D01*
X7390658Y-13805984D02*
X7409705Y-13815508D01*
X7409705Y-13815508D02*
X7419229Y-13825031D01*
X7419229Y-13825031D02*
X7428753Y-13844079D01*
X7428753Y-13844079D02*
X7428753Y-13863127D01*
X7428753Y-13863127D02*
X7419229Y-13891698D01*
X7419229Y-13891698D02*
X7304943Y-14005984D01*
X7304943Y-14005984D02*
X7428753Y-14005984D01*
X7552562Y-13805984D02*
X7571610Y-13805984D01*
X7571610Y-13805984D02*
X7590658Y-13815508D01*
X7590658Y-13815508D02*
X7600182Y-13825031D01*
X7600182Y-13825031D02*
X7609705Y-13844079D01*
X7609705Y-13844079D02*
X7619229Y-13882174D01*
X7619229Y-13882174D02*
X7619229Y-13929793D01*
X7619229Y-13929793D02*
X7609705Y-13967888D01*
X7609705Y-13967888D02*
X7600182Y-13986936D01*
X7600182Y-13986936D02*
X7590658Y-13996460D01*
X7590658Y-13996460D02*
X7571610Y-14005984D01*
X7571610Y-14005984D02*
X7552562Y-14005984D01*
X7552562Y-14005984D02*
X7533515Y-13996460D01*
X7533515Y-13996460D02*
X7523991Y-13986936D01*
X7523991Y-13986936D02*
X7514467Y-13967888D01*
X7514467Y-13967888D02*
X7504943Y-13929793D01*
X7504943Y-13929793D02*
X7504943Y-13882174D01*
X7504943Y-13882174D02*
X7514467Y-13844079D01*
X7514467Y-13844079D02*
X7523991Y-13825031D01*
X7523991Y-13825031D02*
X7533515Y-13815508D01*
X7533515Y-13815508D02*
X7552562Y-13805984D01*
X7743039Y-13805984D02*
X7762086Y-13805984D01*
X7762086Y-13805984D02*
X7781134Y-13815508D01*
X7781134Y-13815508D02*
X7790658Y-13825031D01*
X7790658Y-13825031D02*
X7800182Y-13844079D01*
X7800182Y-13844079D02*
X7809705Y-13882174D01*
X7809705Y-13882174D02*
X7809705Y-13929793D01*
X7809705Y-13929793D02*
X7800182Y-13967888D01*
X7800182Y-13967888D02*
X7790658Y-13986936D01*
X7790658Y-13986936D02*
X7781134Y-13996460D01*
X7781134Y-13996460D02*
X7762086Y-14005984D01*
X7762086Y-14005984D02*
X7743039Y-14005984D01*
X7743039Y-14005984D02*
X7723991Y-13996460D01*
X7723991Y-13996460D02*
X7714467Y-13986936D01*
X7714467Y-13986936D02*
X7704943Y-13967888D01*
X7704943Y-13967888D02*
X7695420Y-13929793D01*
X7695420Y-13929793D02*
X7695420Y-13882174D01*
X7695420Y-13882174D02*
X7704943Y-13844079D01*
X7704943Y-13844079D02*
X7714467Y-13825031D01*
X7714467Y-13825031D02*
X7723991Y-13815508D01*
X7723991Y-13815508D02*
X7743039Y-13805984D01*
X7895420Y-14005984D02*
X7895420Y-13872650D01*
X7895420Y-13891698D02*
X7904943Y-13882174D01*
X7904943Y-13882174D02*
X7923991Y-13872650D01*
X7923991Y-13872650D02*
X7952563Y-13872650D01*
X7952563Y-13872650D02*
X7971610Y-13882174D01*
X7971610Y-13882174D02*
X7981134Y-13901222D01*
X7981134Y-13901222D02*
X7981134Y-14005984D01*
X7981134Y-13901222D02*
X7990658Y-13882174D01*
X7990658Y-13882174D02*
X8009705Y-13872650D01*
X8009705Y-13872650D02*
X8038277Y-13872650D01*
X8038277Y-13872650D02*
X8057324Y-13882174D01*
X8057324Y-13882174D02*
X8066848Y-13901222D01*
X8066848Y-13901222D02*
X8066848Y-14005984D01*
X8162086Y-14005984D02*
X8162086Y-13872650D01*
X8162086Y-13891698D02*
X8171610Y-13882174D01*
X8171610Y-13882174D02*
X8190658Y-13872650D01*
X8190658Y-13872650D02*
X8219229Y-13872650D01*
X8219229Y-13872650D02*
X8238277Y-13882174D01*
X8238277Y-13882174D02*
X8247801Y-13901222D01*
X8247801Y-13901222D02*
X8247801Y-14005984D01*
X8247801Y-13901222D02*
X8257324Y-13882174D01*
X8257324Y-13882174D02*
X8276372Y-13872650D01*
X8276372Y-13872650D02*
X8304943Y-13872650D01*
X8304943Y-13872650D02*
X8323991Y-13882174D01*
X8323991Y-13882174D02*
X8333515Y-13901222D01*
X8333515Y-13901222D02*
X8333515Y-14005984D01*
X8723991Y-13796460D02*
X8552563Y-14053603D01*
X8981134Y-13805984D02*
X9000182Y-13805984D01*
X9000182Y-13805984D02*
X9019229Y-13815508D01*
X9019229Y-13815508D02*
X9028753Y-13825031D01*
X9028753Y-13825031D02*
X9038277Y-13844079D01*
X9038277Y-13844079D02*
X9047801Y-13882174D01*
X9047801Y-13882174D02*
X9047801Y-13929793D01*
X9047801Y-13929793D02*
X9038277Y-13967888D01*
X9038277Y-13967888D02*
X9028753Y-13986936D01*
X9028753Y-13986936D02*
X9019229Y-13996460D01*
X9019229Y-13996460D02*
X9000182Y-14005984D01*
X9000182Y-14005984D02*
X8981134Y-14005984D01*
X8981134Y-14005984D02*
X8962087Y-13996460D01*
X8962087Y-13996460D02*
X8952563Y-13986936D01*
X8952563Y-13986936D02*
X8943039Y-13967888D01*
X8943039Y-13967888D02*
X8933515Y-13929793D01*
X8933515Y-13929793D02*
X8933515Y-13882174D01*
X8933515Y-13882174D02*
X8943039Y-13844079D01*
X8943039Y-13844079D02*
X8952563Y-13825031D01*
X8952563Y-13825031D02*
X8962087Y-13815508D01*
X8962087Y-13815508D02*
X8981134Y-13805984D01*
X9133515Y-13986936D02*
X9143039Y-13996460D01*
X9143039Y-13996460D02*
X9133515Y-14005984D01*
X9133515Y-14005984D02*
X9123991Y-13996460D01*
X9123991Y-13996460D02*
X9133515Y-13986936D01*
X9133515Y-13986936D02*
X9133515Y-14005984D01*
X9333515Y-14005984D02*
X9219229Y-14005984D01*
X9276372Y-14005984D02*
X9276372Y-13805984D01*
X9276372Y-13805984D02*
X9257325Y-13834555D01*
X9257325Y-13834555D02*
X9238277Y-13853603D01*
X9238277Y-13853603D02*
X9219229Y-13863127D01*
X9409706Y-13825031D02*
X9419229Y-13815508D01*
X9419229Y-13815508D02*
X9438277Y-13805984D01*
X9438277Y-13805984D02*
X9485896Y-13805984D01*
X9485896Y-13805984D02*
X9504944Y-13815508D01*
X9504944Y-13815508D02*
X9514468Y-13825031D01*
X9514468Y-13825031D02*
X9523991Y-13844079D01*
X9523991Y-13844079D02*
X9523991Y-13863127D01*
X9523991Y-13863127D02*
X9514468Y-13891698D01*
X9514468Y-13891698D02*
X9400182Y-14005984D01*
X9400182Y-14005984D02*
X9523991Y-14005984D01*
X9695420Y-13805984D02*
X9657325Y-13805984D01*
X9657325Y-13805984D02*
X9638277Y-13815508D01*
X9638277Y-13815508D02*
X9628753Y-13825031D01*
X9628753Y-13825031D02*
X9609706Y-13853603D01*
X9609706Y-13853603D02*
X9600182Y-13891698D01*
X9600182Y-13891698D02*
X9600182Y-13967888D01*
X9600182Y-13967888D02*
X9609706Y-13986936D01*
X9609706Y-13986936D02*
X9619229Y-13996460D01*
X9619229Y-13996460D02*
X9638277Y-14005984D01*
X9638277Y-14005984D02*
X9676372Y-14005984D01*
X9676372Y-14005984D02*
X9695420Y-13996460D01*
X9695420Y-13996460D02*
X9704944Y-13986936D01*
X9704944Y-13986936D02*
X9714468Y-13967888D01*
X9714468Y-13967888D02*
X9714468Y-13920269D01*
X9714468Y-13920269D02*
X9704944Y-13901222D01*
X9704944Y-13901222D02*
X9695420Y-13891698D01*
X9695420Y-13891698D02*
X9676372Y-13882174D01*
X9676372Y-13882174D02*
X9638277Y-13882174D01*
X9638277Y-13882174D02*
X9619229Y-13891698D01*
X9619229Y-13891698D02*
X9609706Y-13901222D01*
X9609706Y-13901222D02*
X9600182Y-13920269D01*
X9838277Y-13805984D02*
X9857325Y-13805984D01*
X9857325Y-13805984D02*
X9876372Y-13815508D01*
X9876372Y-13815508D02*
X9885896Y-13825031D01*
X9885896Y-13825031D02*
X9895420Y-13844079D01*
X9895420Y-13844079D02*
X9904944Y-13882174D01*
X9904944Y-13882174D02*
X9904944Y-13929793D01*
X9904944Y-13929793D02*
X9895420Y-13967888D01*
X9895420Y-13967888D02*
X9885896Y-13986936D01*
X9885896Y-13986936D02*
X9876372Y-13996460D01*
X9876372Y-13996460D02*
X9857325Y-14005984D01*
X9857325Y-14005984D02*
X9838277Y-14005984D01*
X9838277Y-14005984D02*
X9819229Y-13996460D01*
X9819229Y-13996460D02*
X9809706Y-13986936D01*
X9809706Y-13986936D02*
X9800182Y-13967888D01*
X9800182Y-13967888D02*
X9790658Y-13929793D01*
X9790658Y-13929793D02*
X9790658Y-13882174D01*
X9790658Y-13882174D02*
X9800182Y-13844079D01*
X9800182Y-13844079D02*
X9809706Y-13825031D01*
X9809706Y-13825031D02*
X9819229Y-13815508D01*
X9819229Y-13815508D02*
X9838277Y-13805984D01*
X9981134Y-13805984D02*
X9981134Y-13844079D01*
X10057325Y-13805984D02*
X10057325Y-13844079D01*
X10352563Y-14082174D02*
X10343039Y-14072650D01*
X10343039Y-14072650D02*
X10323991Y-14044079D01*
X10323991Y-14044079D02*
X10314468Y-14025031D01*
X10314468Y-14025031D02*
X10304944Y-13996460D01*
X10304944Y-13996460D02*
X10295420Y-13948841D01*
X10295420Y-13948841D02*
X10295420Y-13910746D01*
X10295420Y-13910746D02*
X10304944Y-13863127D01*
X10304944Y-13863127D02*
X10314468Y-13834555D01*
X10314468Y-13834555D02*
X10323991Y-13815508D01*
X10323991Y-13815508D02*
X10343039Y-13786936D01*
X10343039Y-13786936D02*
X10352563Y-13777412D01*
X10514468Y-13872650D02*
X10514468Y-14005984D01*
X10466849Y-13796460D02*
X10419230Y-13939317D01*
X10419230Y-13939317D02*
X10543039Y-13939317D01*
X10771611Y-14005984D02*
X10771611Y-13805984D01*
X10857325Y-14005984D02*
X10857325Y-13901222D01*
X10857325Y-13901222D02*
X10847801Y-13882174D01*
X10847801Y-13882174D02*
X10828753Y-13872650D01*
X10828753Y-13872650D02*
X10800182Y-13872650D01*
X10800182Y-13872650D02*
X10781134Y-13882174D01*
X10781134Y-13882174D02*
X10771611Y-13891698D01*
X10981134Y-14005984D02*
X10962087Y-13996460D01*
X10962087Y-13996460D02*
X10952563Y-13986936D01*
X10952563Y-13986936D02*
X10943039Y-13967888D01*
X10943039Y-13967888D02*
X10943039Y-13910746D01*
X10943039Y-13910746D02*
X10952563Y-13891698D01*
X10952563Y-13891698D02*
X10962087Y-13882174D01*
X10962087Y-13882174D02*
X10981134Y-13872650D01*
X10981134Y-13872650D02*
X11009706Y-13872650D01*
X11009706Y-13872650D02*
X11028753Y-13882174D01*
X11028753Y-13882174D02*
X11038277Y-13891698D01*
X11038277Y-13891698D02*
X11047801Y-13910746D01*
X11047801Y-13910746D02*
X11047801Y-13967888D01*
X11047801Y-13967888D02*
X11038277Y-13986936D01*
X11038277Y-13986936D02*
X11028753Y-13996460D01*
X11028753Y-13996460D02*
X11009706Y-14005984D01*
X11009706Y-14005984D02*
X10981134Y-14005984D01*
X11162087Y-14005984D02*
X11143039Y-13996460D01*
X11143039Y-13996460D02*
X11133515Y-13977412D01*
X11133515Y-13977412D02*
X11133515Y-13805984D01*
X11314468Y-13996460D02*
X11295420Y-14005984D01*
X11295420Y-14005984D02*
X11257325Y-14005984D01*
X11257325Y-14005984D02*
X11238277Y-13996460D01*
X11238277Y-13996460D02*
X11228753Y-13977412D01*
X11228753Y-13977412D02*
X11228753Y-13901222D01*
X11228753Y-13901222D02*
X11238277Y-13882174D01*
X11238277Y-13882174D02*
X11257325Y-13872650D01*
X11257325Y-13872650D02*
X11295420Y-13872650D01*
X11295420Y-13872650D02*
X11314468Y-13882174D01*
X11314468Y-13882174D02*
X11323991Y-13901222D01*
X11323991Y-13901222D02*
X11323991Y-13920269D01*
X11323991Y-13920269D02*
X11228753Y-13939317D01*
X11400182Y-13996460D02*
X11419230Y-14005984D01*
X11419230Y-14005984D02*
X11457325Y-14005984D01*
X11457325Y-14005984D02*
X11476372Y-13996460D01*
X11476372Y-13996460D02*
X11485896Y-13977412D01*
X11485896Y-13977412D02*
X11485896Y-13967888D01*
X11485896Y-13967888D02*
X11476372Y-13948841D01*
X11476372Y-13948841D02*
X11457325Y-13939317D01*
X11457325Y-13939317D02*
X11428753Y-13939317D01*
X11428753Y-13939317D02*
X11409706Y-13929793D01*
X11409706Y-13929793D02*
X11400182Y-13910746D01*
X11400182Y-13910746D02*
X11400182Y-13901222D01*
X11400182Y-13901222D02*
X11409706Y-13882174D01*
X11409706Y-13882174D02*
X11428753Y-13872650D01*
X11428753Y-13872650D02*
X11457325Y-13872650D01*
X11457325Y-13872650D02*
X11476372Y-13882174D01*
X11552563Y-14082174D02*
X11562087Y-14072650D01*
X11562087Y-14072650D02*
X11581134Y-14044079D01*
X11581134Y-14044079D02*
X11590658Y-14025031D01*
X11590658Y-14025031D02*
X11600182Y-13996460D01*
X11600182Y-13996460D02*
X11609706Y-13948841D01*
X11609706Y-13948841D02*
X11609706Y-13910746D01*
X11609706Y-13910746D02*
X11600182Y-13863127D01*
X11600182Y-13863127D02*
X11590658Y-13834555D01*
X11590658Y-13834555D02*
X11581134Y-13815508D01*
X11581134Y-13815508D02*
X11562087Y-13786936D01*
X11562087Y-13786936D02*
X11552563Y-13777412D01*
M02*
